<svg width="500" height="338" viewBox="0 0 500 338" fill="none" xmlns="http://www.w3.org/2000/svg">
<g filter="url(#filter0_d_1052_22)">
<path d="M475 284.359H25V284.609H475V284.359Z" fill="#EBEBEB"/>
<path d="M446.901 300.449H413.781V300.699H446.901V300.449Z" fill="#EBEBEB"/>
<path d="M328.221 303.172H319.531V303.422H328.221V303.172Z" fill="#EBEBEB"/>
<path d="M412.78 291.172H393.59V291.422H412.78V291.172Z" fill="#EBEBEB"/>
<path d="M92.6509 292.852H49.4609V293.102H92.6509V292.852Z" fill="#EBEBEB"/>
<path d="M107.893 292.852H101.562V293.102H107.893V292.852Z" fill="#EBEBEB"/>
<path d="M222.153 297.07H128.473V297.32H222.153V297.07Z" fill="#EBEBEB"/>
<path d="M437.971 30.7812H56.0312V283.921H437.971V30.7812Z" fill="#E0E0E0"/>
<path d="M247 282.79V24.79C247 24.79 295.67 9 425.8 9V282.79H247Z" fill="#F5F5F5"/>
<path d="M246.999 282.79V24.79C246.999 24.79 198.329 9 68.1992 9V282.79H246.999Z" fill="#F0F0F0"/>
<path d="M260.92 51.4492C260.257 51.4996 259.601 51.2845 259.096 50.8513C258.592 50.4181 258.28 49.8022 258.23 49.1392C258.179 48.4762 258.395 47.8203 258.828 47.3158C259.261 46.8113 259.877 46.4996 260.54 46.4492C309.324 39.7269 358.505 36.3025 407.75 36.1992C408.413 36.1992 409.049 36.4626 409.518 36.9314C409.986 37.4003 410.25 38.0362 410.25 38.6992C410.25 39.3623 409.986 39.9981 409.518 40.467C409.049 40.9358 408.413 41.1992 407.75 41.1992C358.759 41.3111 309.831 44.7255 261.3 51.4192C261.174 51.4392 261.047 51.4492 260.92 51.4492Z" fill="#E6E6E6"/>
<path d="M260.922 69.9602C260.258 70.0013 259.606 69.7773 259.108 69.3375C258.61 68.8978 258.308 68.2782 258.267 67.6152C258.225 66.9521 258.449 66.2999 258.889 65.802C259.329 65.3041 259.948 65.0013 260.611 64.9602C261.351 64.8702 335.482 55.6602 407.752 55.6602C408.415 55.6602 409.05 55.9236 409.519 56.3924C409.988 56.8612 410.252 57.4971 410.252 58.1602C410.252 58.8232 409.988 59.4591 409.519 59.9279C409.05 60.3968 408.415 60.6602 407.752 60.6602C335.802 60.6602 261.972 69.8302 261.232 69.9202L260.922 69.9602Z" fill="#E6E6E6"/>
<path d="M260.921 88.5106C260.258 88.5438 259.609 88.3122 259.117 87.8668C258.624 87.4214 258.329 86.7987 258.296 86.1356C258.263 85.4726 258.495 84.8235 258.94 84.3313C259.385 83.839 260.008 83.5438 260.671 83.5106C261.481 83.4206 342.721 75.1406 407.751 75.1406C408.414 75.1406 409.05 75.404 409.519 75.8729C409.988 76.3417 410.251 76.9776 410.251 77.6406C410.251 78.3037 409.988 78.9396 409.519 79.4084C409.05 79.8772 408.414 80.1406 407.751 80.1406C342.981 80.1406 261.991 88.4006 261.181 88.4806L260.921 88.5106Z" fill="#E6E6E6"/>
<path d="M260.92 107.051C260.257 107.079 259.61 106.842 259.121 106.393C258.633 105.944 258.343 105.319 258.315 104.656C258.287 103.993 258.524 103.346 258.973 102.858C259.422 102.369 260.047 102.079 260.71 102.051C261.6 101.981 349.96 94.6211 407.71 94.6211C408.373 94.6211 409.009 94.8845 409.477 95.3533C409.946 95.8222 410.21 96.4581 410.21 97.1211C410.21 97.7841 409.946 98.42 409.477 98.8889C409.009 99.3577 408.373 99.6211 407.71 99.6211C350.13 99.6211 261.98 106.961 261.09 107.041L260.92 107.051Z" fill="#E6E6E6"/>
<path d="M260.922 125.578C260.259 125.601 259.615 125.359 259.13 124.906C258.645 124.453 258.36 123.826 258.337 123.163C258.315 122.5 258.557 121.855 259.01 121.37C259.462 120.886 260.089 120.601 260.752 120.578C261.752 120.518 357.192 114.078 407.752 114.078C408.415 114.078 409.051 114.342 409.52 114.81C409.989 115.279 410.252 115.915 410.252 116.578C410.252 117.241 409.989 117.877 409.52 118.346C409.051 118.815 408.415 119.078 407.752 119.078C357.362 119.078 262.052 125.508 261.092 125.568L260.922 125.578Z" fill="#E6E6E6"/>
<path d="M260.921 144.109C260.258 144.126 259.616 143.879 259.135 143.423C258.653 142.966 258.374 142.337 258.356 141.674C258.339 141.011 258.586 140.368 259.043 139.887C259.499 139.406 260.128 139.126 260.791 139.109C261.791 139.059 364.421 133.539 407.791 133.539C408.454 133.539 409.09 133.802 409.559 134.271C410.028 134.74 410.291 135.376 410.291 136.039C410.291 136.702 410.028 137.338 409.559 137.807C409.09 138.276 408.454 138.539 407.791 138.539C364.591 138.539 262.131 144.049 261.101 144.109H260.921Z" fill="#E6E6E6"/>
<path d="M260.922 162.64C260.259 162.653 259.617 162.403 259.139 161.943C258.661 161.484 258.385 160.853 258.372 160.19C258.358 159.527 258.609 158.886 259.068 158.408C259.528 157.929 260.159 157.653 260.822 157.64C261.922 157.64 371.642 153 407.752 153C408.415 153 409.051 153.263 409.519 153.732C409.988 154.201 410.252 154.837 410.252 155.5C410.252 156.163 409.988 156.799 409.519 157.268C409.051 157.737 408.415 158 407.752 158C371.752 158 262.132 162.59 261.032 162.64H260.922Z" fill="#E6E6E6"/>
<path d="M260.919 181.169C260.591 181.174 260.265 181.115 259.959 180.994C259.654 180.873 259.376 180.694 259.14 180.465C258.904 180.237 258.715 179.964 258.585 179.663C258.454 179.362 258.384 179.038 258.379 178.709C258.374 178.381 258.433 178.055 258.554 177.749C258.675 177.444 258.855 177.166 259.083 176.93C259.312 176.694 259.584 176.505 259.886 176.375C260.187 176.244 260.511 176.174 260.839 176.169C262.019 176.169 378.839 172.449 407.749 172.449C408.412 172.449 409.048 172.713 409.517 173.181C409.986 173.65 410.249 174.286 410.249 174.949C410.249 175.612 409.986 176.248 409.517 176.717C409.048 177.186 408.412 177.449 407.749 177.449C378.949 177.449 262.179 181.129 260.999 181.159L260.919 181.169Z" fill="#E6E6E6"/>
<path d="M260.92 199.712C260.257 199.719 259.618 199.461 259.145 198.997C258.671 198.533 258.401 197.9 258.395 197.237C258.388 196.574 258.645 195.935 259.109 195.462C259.573 194.988 260.207 194.719 260.87 194.712C262.12 194.712 386.09 191.922 407.75 191.922C408.413 191.922 409.049 192.185 409.517 192.654C409.986 193.123 410.25 193.759 410.25 194.422C410.25 195.085 409.986 195.721 409.517 196.19C409.049 196.658 408.413 196.922 407.75 196.922C386.15 196.922 262.23 199.682 260.98 199.712H260.92Z" fill="#E6E6E6"/>
<path d="M260.922 218.239C260.259 218.239 259.623 217.975 259.154 217.507C258.685 217.038 258.422 216.402 258.422 215.739C258.422 215.076 258.685 214.44 259.154 213.971C259.623 213.502 260.259 213.239 260.922 213.239C262.242 213.239 393.342 211.379 407.782 211.379C408.445 211.379 409.081 211.642 409.55 212.111C410.018 212.58 410.282 213.216 410.282 213.879C410.282 214.542 410.018 215.178 409.55 215.647C409.081 216.116 408.445 216.379 407.782 216.379C393.382 216.379 262.312 218.219 260.992 218.239H260.922Z" fill="#E6E6E6"/>
<path d="M260.922 236.77C260.259 236.77 259.623 236.506 259.154 236.038C258.685 235.569 258.422 234.933 258.422 234.27C258.422 233.607 258.685 232.971 259.154 232.502C259.623 232.033 260.259 231.77 260.922 231.77C262.312 231.77 400.542 230.84 407.762 230.84C408.425 230.84 409.061 231.103 409.53 231.572C409.998 232.041 410.262 232.677 410.262 233.34C410.262 234.003 409.998 234.639 409.53 235.108C409.061 235.576 408.425 235.84 407.762 235.84C400.562 235.84 262.342 236.76 260.952 236.77H260.922Z" fill="#E6E6E6"/>
<path d="M407.752 255.301H260.922C260.259 255.301 259.623 255.037 259.154 254.569C258.685 254.1 258.422 253.464 258.422 252.801C258.422 252.138 258.685 251.502 259.154 251.033C259.623 250.564 260.259 250.301 260.922 250.301H407.752C408.415 250.301 409.051 250.564 409.52 251.033C409.988 251.502 410.252 252.138 410.252 252.801C410.252 253.464 409.988 254.1 409.52 254.569C409.051 255.037 408.415 255.301 407.752 255.301Z" fill="#E6E6E6"/>
<path d="M233.08 51.4505C233.743 51.5009 234.399 51.2858 234.903 50.8526C235.408 50.4194 235.72 49.8035 235.77 49.1405C235.82 48.4774 235.605 47.8215 235.172 47.317C234.739 46.8126 234.123 46.5009 233.46 46.4505C184.676 39.7382 135.494 36.3238 86.25 36.2305C85.587 36.2305 84.9511 36.4939 84.4822 36.9627C84.0134 37.4315 83.75 38.0674 83.75 38.7305C83.75 39.3935 84.0134 40.0294 84.4822 40.4982C84.9511 40.9671 85.587 41.2305 86.25 41.2305C135.24 41.3324 184.168 44.7368 232.7 51.4205C232.826 51.4404 232.953 51.4504 233.08 51.4505Z" fill="#E0E0E0"/>
<path d="M233.08 69.9602C233.743 70.0013 234.395 69.7773 234.893 69.3375C235.391 68.8978 235.694 68.2782 235.735 67.6152C235.776 66.9521 235.552 66.2999 235.112 65.802C234.673 65.3041 234.053 65.0013 233.39 64.9602C232.65 64.8702 158.52 55.6602 86.25 55.6602C85.587 55.6602 84.9511 55.9236 84.4822 56.3924C84.0134 56.8612 83.75 57.4971 83.75 58.1602C83.75 58.8232 84.0134 59.4591 84.4822 59.9279C84.9511 60.3968 85.587 60.6602 86.25 60.6602C158.2 60.6602 232.03 69.8302 232.77 69.9202L233.08 69.9602Z" fill="#E0E0E0"/>
<path d="M233.08 88.5106C233.743 88.5438 234.392 88.3122 234.884 87.8668C235.377 87.4214 235.672 86.7987 235.705 86.1356C235.738 85.4726 235.507 84.8235 235.061 84.3313C234.616 83.839 233.993 83.5438 233.33 83.5106C232.52 83.4206 151.28 75.1406 86.25 75.1406C85.587 75.1406 84.9511 75.404 84.4822 75.8729C84.0134 76.3417 83.75 76.9776 83.75 77.6406C83.75 78.3037 84.0134 78.9396 84.4822 79.4084C84.9511 79.8772 85.587 80.1406 86.25 80.1406C151.02 80.1406 232.01 88.4006 232.82 88.4806L233.08 88.5106Z" fill="#E0E0E0"/>
<path d="M233.079 107.051C233.742 107.079 234.389 106.842 234.878 106.393C235.366 105.944 235.656 105.319 235.684 104.656C235.712 103.993 235.475 103.346 235.026 102.858C234.577 102.369 233.952 102.079 233.289 102.051C232.399 101.981 144.039 94.6211 86.2891 94.6211C85.626 94.6211 84.9901 94.8845 84.5213 95.3533C84.0525 95.8222 83.7891 96.4581 83.7891 97.1211C83.7891 97.7841 84.0525 98.42 84.5213 98.8889C84.9901 99.3577 85.626 99.6211 86.2891 99.6211C143.869 99.6211 232.019 106.961 232.909 107.041L233.079 107.051Z" fill="#E0E0E0"/>
<path d="M233.08 125.578C233.408 125.589 233.736 125.536 234.043 125.42C234.351 125.305 234.633 125.13 234.873 124.906C235.113 124.682 235.306 124.412 235.442 124.113C235.578 123.814 235.654 123.491 235.665 123.163C235.676 122.835 235.623 122.508 235.507 122.2C235.392 121.892 235.217 121.611 234.993 121.37C234.769 121.13 234.499 120.937 234.2 120.801C233.901 120.665 233.578 120.589 233.25 120.578C232.25 120.518 136.81 114.078 86.25 114.078C85.587 114.078 84.9511 114.342 84.4822 114.81C84.0134 115.279 83.75 115.915 83.75 116.578C83.75 117.241 84.0134 117.877 84.4822 118.346C84.9511 118.815 85.587 119.078 86.25 119.078C136.64 119.078 231.95 125.508 232.91 125.568L233.08 125.578Z" fill="#E0E0E0"/>
<path d="M233.081 144.109C233.744 144.126 234.387 143.879 234.868 143.423C235.349 142.966 235.629 142.337 235.646 141.674C235.663 141.011 235.416 140.368 234.96 139.887C234.503 139.406 233.874 139.126 233.211 139.109C232.211 139.059 129.581 133.539 86.2109 133.539C85.5479 133.539 84.912 133.802 84.4432 134.271C83.9743 134.74 83.7109 135.376 83.7109 136.039C83.7109 136.702 83.9743 137.338 84.4432 137.807C84.912 138.276 85.5479 138.539 86.2109 138.539C129.411 138.539 231.871 144.049 232.901 144.109H233.081Z" fill="#E0E0E0"/>
<path d="M233.08 162.64C233.408 162.647 233.735 162.588 234.041 162.469C234.346 162.349 234.626 162.171 234.862 161.943C235.099 161.716 235.289 161.444 235.421 161.143C235.552 160.842 235.623 160.518 235.63 160.19C235.637 159.862 235.578 159.535 235.459 159.229C235.339 158.924 235.161 158.644 234.933 158.408C234.706 158.171 234.434 157.981 234.133 157.849C233.832 157.718 233.508 157.647 233.18 157.64C232.08 157.64 122.36 153 86.25 153C85.587 153 84.9511 153.263 84.4822 153.732C84.0134 154.201 83.75 154.837 83.75 155.5C83.75 156.163 84.0134 156.799 84.4822 157.268C84.9511 157.737 85.587 158 86.25 158C122.25 158 231.87 162.59 232.97 162.64H233.08Z" fill="#E0E0E0"/>
<path d="M233.08 181.169C233.743 181.18 234.383 180.927 234.859 180.465C235.336 180.004 235.609 179.372 235.62 178.709C235.631 178.046 235.377 177.406 234.916 176.93C234.455 176.453 233.823 176.18 233.16 176.169C231.98 176.169 115.16 172.449 86.25 172.449C85.587 172.449 84.9511 172.713 84.4822 173.181C84.0134 173.65 83.75 174.286 83.75 174.949C83.75 175.612 84.0134 176.248 84.4822 176.717C84.9511 177.186 85.587 177.449 86.25 177.449C115.05 177.449 231.82 181.129 233 181.159L233.08 181.169Z" fill="#E0E0E0"/>
<path d="M233.079 199.712C233.742 199.712 234.378 199.448 234.847 198.98C235.316 198.511 235.579 197.875 235.579 197.212C235.579 196.549 235.316 195.913 234.847 195.444C234.378 194.975 233.742 194.712 233.079 194.712C231.829 194.712 107.859 191.922 86.1992 191.922C85.5362 191.922 84.9003 192.185 84.4315 192.654C83.9626 193.123 83.6992 193.759 83.6992 194.422C83.6992 195.085 83.9626 195.721 84.4315 196.19C84.9003 196.658 85.5362 196.922 86.1992 196.922C107.799 196.922 231.719 199.682 232.969 199.712H233.079Z" fill="#E0E0E0"/>
<path d="M233.083 218.239C233.746 218.239 234.382 217.975 234.85 217.507C235.319 217.038 235.583 216.402 235.583 215.739C235.583 215.076 235.319 214.44 234.85 213.971C234.382 213.502 233.746 213.239 233.083 213.239C231.763 213.239 100.663 211.379 86.2227 211.379C85.5596 211.379 84.9237 211.642 84.4549 212.111C83.986 212.58 83.7227 213.216 83.7227 213.879C83.7227 214.542 83.986 215.178 84.4549 215.647C84.9237 216.116 85.5596 216.379 86.2227 216.379C100.623 216.379 231.693 218.219 233.013 218.239H233.083Z" fill="#E0E0E0"/>
<path d="M233.082 236.77C233.745 236.77 234.381 236.506 234.85 236.038C235.319 235.569 235.582 234.933 235.582 234.27C235.582 233.607 235.319 232.971 234.85 232.502C234.381 232.033 233.745 231.77 233.082 231.77C231.692 231.77 93.4622 230.84 86.2422 230.84C85.5791 230.84 84.9433 231.103 84.4744 231.572C84.0056 232.041 83.7422 232.677 83.7422 233.34C83.7422 234.003 84.0056 234.639 84.4744 235.108C84.9433 235.576 85.5791 235.84 86.2422 235.84C93.4422 235.84 231.652 236.76 233.052 236.77H233.082Z" fill="#E0E0E0"/>
<path d="M86.25 255.301H233.08C233.743 255.301 234.379 255.037 234.848 254.569C235.317 254.1 235.58 253.464 235.58 252.801C235.58 252.138 235.317 251.502 234.848 251.033C234.379 250.564 233.743 250.301 233.08 250.301H86.25C85.587 250.301 84.9511 250.564 84.4822 251.033C84.0134 251.502 83.75 252.138 83.75 252.801C83.75 253.464 84.0134 254.1 84.4822 254.569C84.9511 255.037 85.587 255.301 86.25 255.301Z" fill="#E0E0E0"/>
<path d="M263.11 113.451L254.88 105.451L246.66 113.451V22.3008L263.11 19.3008V113.451Z" fill="#E0E0E0"/>
<path d="M246.999 329.523C354.082 329.523 440.889 324.455 440.889 318.203C440.889 311.951 354.082 306.883 246.999 306.883C139.917 306.883 53.1094 311.951 53.1094 318.203C53.1094 324.455 139.917 329.523 246.999 329.523Z" fill="#F5F5F5"/>
<path d="M72.4219 316.071C72.0241 316.071 71.6425 315.913 71.3612 315.631C71.0799 315.35 70.9219 314.969 70.9219 314.571V128.691C70.915 117.299 74.3909 106.178 80.8836 96.8184C87.3764 87.4585 96.5755 80.3073 107.248 76.3238C117.92 72.3402 129.555 71.7147 140.592 74.531C151.63 77.3474 161.543 83.471 169.002 92.0808C169.133 92.2298 169.234 92.4033 169.298 92.5913C169.362 92.7792 169.389 92.978 169.377 93.1763C169.364 93.3745 169.313 93.5684 169.225 93.7467C169.138 93.9251 169.016 94.0845 168.867 94.2158C168.718 94.3471 168.544 94.4478 168.356 94.5121C168.168 94.5764 167.97 94.603 167.771 94.5905C167.573 94.5779 167.379 94.5265 167.201 94.439C167.023 94.3516 166.863 94.2298 166.732 94.0808C159.674 85.9404 150.296 80.1518 139.855 77.4907C129.415 74.8295 118.41 75.423 108.316 79.1916C98.2226 82.9602 89.5218 89.7238 83.3798 98.5761C77.2379 107.428 73.9483 117.946 73.9519 128.721V314.571C73.9519 314.77 73.9122 314.968 73.8349 315.152C73.7577 315.336 73.6445 315.503 73.502 315.642C73.3595 315.782 73.1906 315.892 73.0051 315.965C72.8197 316.039 72.6214 316.075 72.4219 316.071Z" fill="#263238"/>
<path d="M104.911 317.85H61.3711L64.0011 310.73H102.281L104.911 317.85Z" fill="black"/>
<path opacity="0.2" d="M104.911 317.85H61.3711L64.0011 310.73H102.281L104.911 317.85Z" fill="white"/>
<path opacity="0.2" d="M104.912 317.85H77.1719V310.73H102.282L104.912 317.85Z" fill="white"/>
<path d="M165.375 88.9935L165.885 88.8492C169.187 87.9148 172.725 88.3304 175.721 90.0047C178.717 91.679 180.925 94.4748 181.859 97.777L182.341 99.4801L156.919 106.674L156.437 104.971C155.974 103.335 155.838 101.624 156.037 99.9351C156.236 98.2466 156.765 96.6138 157.595 95.1301C158.425 93.6463 159.54 92.3406 160.874 91.2877C162.209 90.2347 163.739 89.4552 165.375 88.9935Z" fill="#263238"/>
<path opacity="0.2" d="M181.919 98.0399L182.329 99.4899L156.909 106.69L156.499 105.24C155.554 101.872 155.983 98.2662 157.693 95.2142C159.403 92.1621 162.253 89.9129 165.619 88.9599C166.563 88.6982 167.532 88.5373 168.509 88.4799C171.501 88.3193 174.458 89.1812 176.896 90.924C179.333 92.6668 181.104 95.1868 181.919 98.0699V98.0399Z" fill="white"/>
<path opacity="0.2" d="M181.919 98.0426L182.329 99.4926L166.089 104.093L165.679 102.643C163.959 96.5826 165.239 90.7526 168.509 88.4526C171.501 88.2919 174.459 89.1538 176.896 90.8966C179.333 92.6395 181.104 95.1595 181.919 98.0426Z" fill="white"/>
<path d="M280.001 173.411C279.132 172.896 278.371 172.217 277.761 171.411C276.101 169.141 275.541 158.261 272.761 155.411C272.271 154.911 270.381 154.251 267.601 153.501C258.691 151.121 240.601 147.861 230.201 146.061L228.961 145.841V137.961L229.961 138.251C239.261 140.851 258.341 146.251 268.841 149.891C272.791 151.251 275.511 152.341 276.061 152.891C278.061 154.981 280.671 167.131 281.711 172.191C281.751 172.408 281.728 172.631 281.645 172.836C281.562 173.04 281.423 173.216 281.244 173.344C281.064 173.472 280.852 173.547 280.632 173.558C280.412 173.57 280.193 173.519 280.001 173.411Z" fill="#263238"/>
<path opacity="0.4" d="M268.858 149.87L267.588 153.46C258.678 151.08 240.588 147.82 230.188 146.02L229.678 139.56C229.655 139.238 229.699 138.915 229.808 138.61C229.856 138.48 229.913 138.353 229.978 138.23C239.278 140.83 258.358 146.28 268.858 149.87Z" fill="white"/>
<path d="M228.999 137.96L227.179 137.45C226.839 137.36 228.069 135.09 228.069 135.09L223.219 136.83C222.922 136.93 222.664 137.123 222.484 137.38C222.304 137.638 222.211 137.946 222.219 138.26L222.319 143.47C222.326 143.817 222.453 144.15 222.68 144.413C222.906 144.676 223.217 144.852 223.559 144.91L228.979 145.83L228.999 137.96Z" fill="#263238"/>
<path opacity="0.1" d="M228.001 135.062C227.572 135.504 227.022 135.81 226.421 135.942C225.098 136.353 223.816 136.885 222.591 137.533C222.211 137.853 222.591 143.272 222.591 143.792C222.591 144.312 227.231 144.942 227.231 144.942L227.111 137.423L228.001 135.062Z" fill="white"/>
<path opacity="0.1" d="M227 136.25C225.604 136.671 224.232 137.168 222.89 137.74C222.839 138.406 222.839 139.074 222.89 139.74C222.89 139.74 223.41 138.43 223.89 138.74C224.37 139.05 224.13 139.95 225.03 139.74C225.93 139.53 226.4 140.61 226.4 140.61C226.4 140.61 226.23 136.96 227 136.25Z" fill="white"/>
<path d="M395.829 152.901C393.339 150.241 342.949 136.331 342.949 136.331C342.949 136.331 337.749 134.751 335.339 134.211L334.559 144.421H341.559C341.559 144.421 389.739 152.521 392.509 155.421C395.279 158.321 395.829 169.171 397.509 171.421C398.076 172.172 398.77 172.818 399.559 173.331C399.766 173.461 400.007 173.528 400.252 173.523C400.497 173.517 400.735 173.44 400.936 173.3C401.138 173.161 401.294 172.965 401.385 172.738C401.476 172.51 401.498 172.261 401.449 172.021C400.369 166.811 397.759 154.961 395.829 152.901Z" fill="#263238"/>
<path d="M276.269 141.552C276.444 143.915 276.313 146.291 275.879 148.622C275.169 151.452 273.159 151.952 270.979 155.862C268.799 159.772 274.609 139.252 276.269 141.552Z" fill="#263238"/>
<path d="M292.589 141.27C293.679 143.55 294.508 145.945 295.059 148.41C295.499 151.27 293.679 151.77 293.059 155.71C292.439 159.65 289.999 138.96 292.589 141.27Z" fill="#263238"/>
<path d="M338.74 136.331C338.706 135.925 338.545 135.54 338.28 135.231C338.03 134.971 331.94 128.821 314.65 128.821C298.87 128.821 290.1 134.821 289.73 135.131C289.67 135.181 289.61 135.261 289.55 135.321C287.67 134.131 283.07 132.121 277.11 135.321C277.061 135.237 277 135.159 276.93 135.091C276.62 134.831 269.18 128.781 253.41 128.781C236.11 128.781 228.68 134.931 228.41 135.191C228.08 135.488 227.835 135.868 227.7 136.291C227.597 136.614 227.553 136.953 227.57 137.291L229.3 160.391C229.89 168.251 234.51 173.731 240.54 173.731H251.44C259.44 173.731 267.16 166.881 270.71 156.661C270.71 156.661 276.6 141.881 276.83 141.741C283.46 137.581 288.17 141.501 288.36 141.671C288.55 141.841 291.27 156.671 291.27 156.671C292.57 166.891 298.81 173.741 306.78 173.741H317.68C323.68 173.741 329.55 168.261 331.86 160.401L338.68 137.301C338.759 136.984 338.78 136.656 338.74 136.331ZM292.32 138.401C292.456 137.941 292.764 137.551 293.18 137.311C299.753 134.258 306.933 132.733 314.18 132.851C325.47 132.851 331.69 135.581 334.43 137.261C334.603 137.382 334.746 137.54 334.85 137.723C334.954 137.907 335.015 138.111 335.03 138.321C335.08 138.656 335.052 138.998 334.95 139.321L328.95 159.511C327.17 165.561 322.66 169.811 318.02 169.811H307.12C300.48 169.811 295.24 164.041 294.12 155.551L292.12 139.491C292.091 139.117 292.16 138.741 292.32 138.401ZM230.89 138.321C231.034 137.876 231.336 137.498 231.74 137.261C234.85 135.581 241.67 132.851 252.97 132.851C263.3 132.851 269.9 135.601 272.97 137.311C273.153 137.431 273.307 137.592 273.418 137.781C273.529 137.97 273.595 138.182 273.61 138.401C273.662 138.762 273.624 139.129 273.5 139.471L268 155.521C265.05 164.021 258.53 169.791 251.89 169.791H240.99C236.35 169.791 232.77 165.541 232.32 159.491L230.81 139.301C230.776 138.972 230.803 138.64 230.89 138.321Z" fill="#263238"/>
<path d="M337.648 136.682C337.613 136.283 337.448 135.907 337.178 135.612C336.928 135.352 330.828 129.362 313.538 129.362C297.758 129.362 289.008 135.252 288.638 135.502C288.573 135.56 288.513 135.624 288.458 135.692C286.568 134.542 281.968 132.572 276.018 135.692L275.838 135.472C275.528 135.222 268.068 129.332 252.298 129.332C234.998 129.332 227.578 135.332 227.298 135.582C226.966 135.866 226.721 136.236 226.588 136.652C226.484 136.975 226.443 137.314 226.468 137.652L228.258 160.162C228.868 167.822 233.508 173.162 239.538 173.162H250.438C258.438 173.162 266.138 166.492 269.658 156.532C269.658 156.532 275.508 142.122 275.728 141.992C282.358 137.942 287.078 141.762 287.268 141.932C287.458 142.102 290.218 156.532 290.218 156.532C291.548 166.532 297.798 173.162 305.778 173.162H316.678C322.678 173.162 328.528 167.822 330.818 160.162L337.568 137.652C337.659 137.337 337.687 137.007 337.648 136.682ZM291.228 138.682C291.372 138.231 291.683 137.852 292.098 137.622C298.688 134.632 305.862 133.146 313.098 133.272C324.388 133.272 330.618 135.942 333.358 137.572C333.526 137.684 333.668 137.832 333.773 138.005C333.879 138.177 333.945 138.371 333.968 138.572C334.016 138.907 333.988 139.249 333.888 139.572L327.998 159.242C326.238 165.132 321.738 169.242 317.088 169.242H306.188C299.548 169.242 294.298 163.622 293.188 155.352L291.108 139.712C291.066 139.367 291.108 139.018 291.228 138.692V138.682ZM229.808 138.602C229.96 138.179 230.258 137.825 230.648 137.602C233.758 135.972 240.568 133.302 251.868 133.302C262.198 133.302 268.808 135.982 271.868 137.652C272.052 137.765 272.207 137.92 272.32 138.104C272.433 138.288 272.501 138.497 272.518 138.712C272.569 139.066 272.532 139.427 272.408 139.762L266.878 155.392C263.948 163.672 257.448 169.292 250.808 169.292H239.998C235.358 169.292 231.768 165.152 231.298 159.292L229.728 139.622C229.687 139.283 229.714 138.94 229.808 138.612V138.602Z" fill="#263238"/>
<path opacity="0.1" d="M276.598 140.601C276.598 140.601 277.328 137.601 277.018 136.751C276.708 135.901 279.508 134.851 281.168 134.801C282.147 134.667 283.143 134.749 284.088 135.041C284.348 135.261 282.788 134.981 281.758 135.871C280.728 136.761 281.828 137.481 280.598 138.291C279.368 139.101 280.028 139.201 279.708 139.451C278.694 139.894 277.656 140.278 276.598 140.601Z" fill="white"/>
<path opacity="0.1" d="M272.138 133.862C272.138 133.862 265.668 129.742 251.268 129.742C236.868 129.742 228.868 134.982 227.658 136.332C226.448 137.682 227.118 140.402 227.988 150.722C228.858 161.042 229.168 166.472 233.708 169.792C233.708 169.792 230.418 164.462 230.638 162.432C230.858 160.402 229.758 154.772 229.378 148.132C228.998 141.492 228.188 137.582 229.378 136.822C230.568 136.062 236.628 132.012 247.748 131.602C258.868 131.192 264.808 133.802 265.968 133.282C267.128 132.762 270.048 134.002 270.737 134.002C271.207 133.995 271.676 133.948 272.138 133.862Z" fill="white"/>
<g opacity="0.4">
<path d="M250.791 170.042H239.891C235.101 170.042 231.441 165.712 230.971 159.512L229.461 139.322C229.443 138.956 229.49 138.59 229.601 138.242C229.774 137.731 230.13 137.304 230.601 137.042C233.681 135.382 240.541 132.602 251.951 132.602C262.431 132.602 269.071 135.422 272.101 137.092C272.321 137.227 272.505 137.413 272.639 137.634C272.773 137.855 272.852 138.104 272.871 138.362C272.93 138.762 272.889 139.171 272.751 139.552L267.171 155.552C264.141 164.242 257.571 170.042 250.791 170.042ZM251.921 133.102C240.621 133.102 233.841 135.842 230.811 137.482C230.456 137.685 230.194 138.018 230.081 138.412C229.981 138.69 229.94 138.986 229.961 139.282L231.471 159.472C231.911 165.402 235.381 169.542 239.891 169.542H250.791C257.351 169.542 263.731 163.872 266.661 155.432L272.241 139.432C272.359 139.112 272.393 138.768 272.341 138.432C272.331 138.251 272.279 138.075 272.191 137.918C272.103 137.76 271.979 137.625 271.831 137.522C268.841 135.882 262.281 133.102 251.921 133.102Z" fill="white"/>
<path d="M317 170.041H306.1C299.31 170.041 294 164.221 292.88 155.561L290.88 139.501C290.827 139.099 290.876 138.69 291.02 138.311C291.18 137.789 291.539 137.351 292.02 137.091C298.634 134.007 305.864 132.472 313.16 132.601C324.56 132.601 330.82 135.381 333.54 137.051C333.745 137.191 333.916 137.375 334.041 137.59C334.165 137.804 334.24 138.044 334.26 138.291C334.309 138.654 334.278 139.022 334.17 139.371L328.17 159.561C326.39 165.731 321.8 170.041 317 170.041ZM313.12 133.101C305.903 132.971 298.751 134.49 292.21 137.541C291.846 137.744 291.576 138.081 291.46 138.481C291.335 138.799 291.294 139.143 291.34 139.481L293.34 155.541C294.42 163.941 299.53 169.541 306.06 169.541H317C321.54 169.541 325.94 165.381 327.69 159.421L333.69 139.231C333.777 138.95 333.801 138.653 333.76 138.361C333.75 138.188 333.702 138.02 333.619 137.867C333.536 137.715 333.42 137.583 333.28 137.481C330.61 135.841 324.44 133.101 313.16 133.101H313.12Z" fill="white"/>
</g>
<path opacity="0.1" d="M288.998 136.07C288.388 136.62 288.658 137.3 288.708 138.75C288.707 139.762 288.579 140.769 288.328 141.75C288.328 141.75 291.268 158.21 291.748 159.52C292.228 160.83 292.488 160.28 292.658 160.07C292.828 159.86 293.818 161.44 293.818 161.44C292.502 156.977 291.631 152.394 291.218 147.76C290.318 139.16 289.968 137.94 290.548 137.1C291.128 136.26 298.328 133.04 304.428 132.35C310.433 131.691 316.493 131.691 322.498 132.35C326.788 132.97 326.938 131.58 327.598 131.86C328.421 132.078 329.267 132.195 330.118 132.21C330.118 132.21 318.408 128.57 306.118 130.21C293.828 131.85 288.998 136.07 288.998 136.07Z" fill="white"/>
<path d="M307.641 138.891C309.561 135.311 307.321 136.821 305.821 139.161C304.321 141.501 298.751 160.621 299.711 165.021C298.534 162.685 297.198 160.433 295.711 158.281C295.251 157.771 294.771 155.121 294.351 151.931C293.971 149.041 293.641 145.711 293.421 143.101C293.241 140.861 293.131 139.161 293.161 138.741C293.211 137.311 301.271 134.211 312.621 134.211C312.621 134.211 305.801 148.301 303.911 154.291C303.881 154.291 305.731 142.461 307.641 138.891Z" fill="white"/>
<path opacity="0.2" d="M294.321 151.963C293.941 149.073 293.611 145.743 293.391 143.133C294.134 144.839 294.694 146.619 295.061 148.443C295.248 149.667 294.985 150.918 294.321 151.963Z" fill="black"/>
<path opacity="0.1" d="M342.411 136.472C342.411 136.472 338.411 135.262 336.161 134.722V134.802C333.841 133.102 327.161 129.362 313.491 129.362C297.711 129.362 288.961 135.252 288.591 135.502C288.526 135.56 288.466 135.624 288.411 135.692C286.521 134.542 281.921 132.572 275.971 135.692C275.911 135.622 275.861 135.542 275.791 135.472C275.481 135.222 268.021 129.332 252.251 129.332C234.951 129.332 227.531 135.332 227.251 135.582C226.92 135.866 226.674 136.236 226.541 136.652C226.437 136.975 226.396 137.314 226.421 137.652L228.211 160.162C228.821 167.822 233.461 173.162 239.491 173.162H250.391C258.391 173.162 266.091 166.492 269.611 156.532C269.611 156.532 275.461 142.122 275.681 141.992C282.311 137.942 287.031 141.762 287.221 141.932C287.411 142.102 290.171 156.532 290.171 156.532C291.501 166.532 297.751 173.162 305.731 173.162H316.631C322.631 173.162 328.481 167.822 330.771 160.162L336.501 141.062L336.131 143.512H341.131C341.131 143.512 341.791 143.392 341.911 143.032C342.031 142.672 342.911 138.032 342.911 137.472C342.867 137.09 342.69 136.737 342.411 136.472ZM272.411 139.742L266.881 155.372C263.951 163.652 257.451 169.272 250.811 169.272H240.001C235.361 169.272 231.771 165.132 231.301 159.272L229.731 139.602C229.708 139.263 229.752 138.924 229.861 138.602C230.013 138.179 230.311 137.825 230.701 137.602C233.811 135.972 240.621 133.302 251.921 133.302C262.251 133.302 268.861 135.982 271.921 137.652C272.105 137.765 272.26 137.92 272.373 138.104C272.486 138.288 272.554 138.497 272.571 138.712C272.616 139.06 272.575 139.414 272.451 139.742H272.411ZM333.861 139.572L328.001 159.242C326.241 165.132 321.741 169.242 317.091 169.242H306.191C299.551 169.242 294.301 163.622 293.191 155.352L291.111 139.712C291.065 139.357 291.106 138.997 291.231 138.662C291.375 138.211 291.687 137.832 292.101 137.602C298.692 134.612 305.865 133.126 313.101 133.252C324.391 133.252 330.621 135.922 333.361 137.552C333.529 137.664 333.671 137.812 333.776 137.985C333.882 138.157 333.948 138.351 333.971 138.552C334.025 138.893 334.001 139.242 333.901 139.572H333.861Z" fill="white"/>
<path opacity="0.1" d="M337 135.59C337.69 135.97 337.83 136.22 337.64 137.39C337.45 138.56 337 140.54 337 140.54C337 140.54 337.31 139.19 338.49 139.26C339.667 139.339 340.848 139.162 341.95 138.74C342.16 138.47 342.47 137.27 342.29 137.16C342.11 137.05 339.29 136.01 338.49 135.8C338.003 135.673 337.503 135.602 337 135.59Z" fill="white"/>
<path d="M251.681 134.211C251.681 134.211 249.311 138.321 246.681 143.021C245.681 144.801 244.681 146.671 243.681 148.431C241.941 151.611 240.481 154.431 239.981 155.731C240.051 155.341 240.771 151.931 241.701 148.081C242.201 146.081 242.751 143.921 243.321 142.081C243.686 140.792 244.12 139.523 244.621 138.281C244.541 138.401 243.821 139.331 242.621 140.641C242.385 140.976 242.19 141.339 242.041 141.721C241.471 142.991 240.631 145.211 239.731 147.721C237.341 154.421 234.411 163.401 234.411 163.401C233.655 162.712 233.202 161.752 233.151 160.731C233.151 160.731 232.511 152.671 232.051 146.361C231.781 142.531 231.571 139.361 231.621 138.951C231.637 138.874 231.671 138.802 231.721 138.741C232.811 137.511 240.861 134.341 251.681 134.211Z" fill="white"/>
<path opacity="0.2" d="M242.111 141.683C241.541 142.953 240.701 145.173 239.801 147.683C237.051 147.193 234.451 146.683 232.121 146.323C231.851 142.493 231.641 139.323 231.691 138.913C231.707 138.836 231.741 138.764 231.791 138.703C234.691 139.553 238.271 140.573 242.111 141.683Z" fill="black"/>
<path opacity="0.2" d="M246.699 143.022C245.699 144.802 244.699 146.672 243.699 148.432L241.699 148.082C242.199 146.082 242.749 143.922 243.319 142.082L246.699 143.022Z" fill="black"/>
<path d="M231.58 258.879H291.82V232.749H231.58V258.879Z" fill="#F1C691"/>
<path opacity="0.8" d="M231.58 258.879H291.82V232.749H231.58V258.879Z" fill="white"/>
<path opacity="0.2" d="M286.98 235.308H231.57V232.758H286.93L286.98 235.308Z" fill="black"/>
<path opacity="0.2" d="M286.99 237.539L237 238.609L286.99 239.669V237.539Z" fill="black"/>
<path opacity="0.2" d="M286.991 247.199L234.051 248.099L286.991 248.849V247.199Z" fill="black"/>
<path opacity="0.2" d="M286.99 252.852L234.52 253.912L286.99 254.982V252.852Z" fill="black"/>
<path opacity="0.2" d="M231.57 241.258L282.33 242.798L231.57 243.858V241.258Z" fill="black"/>
<path d="M365.998 245.689C365.999 247.243 365.694 248.783 365.099 250.219C364.504 251.655 363.632 252.959 362.532 254.057C361.432 255.155 360.126 256.025 358.689 256.618C357.252 257.21 355.712 257.513 354.158 257.509H228.788C228.556 257.512 228.335 257.606 228.172 257.77C228.009 257.935 227.918 258.157 227.918 258.389V259.319C227.917 259.434 227.938 259.548 227.981 259.655C228.024 259.762 228.088 259.859 228.169 259.941C228.25 260.023 228.347 260.088 228.453 260.132C228.559 260.176 228.673 260.199 228.788 260.199H354.788C356.705 260.196 358.602 259.815 360.371 259.077C362.14 258.339 363.745 257.259 365.095 255.899C366.446 254.538 367.514 252.924 368.238 251.15C368.963 249.376 369.33 247.476 369.318 245.559C369.224 241.682 367.608 237.997 364.82 235.301C362.033 232.605 358.296 231.114 354.418 231.149H228.788C228.557 231.149 228.336 231.241 228.173 231.404C228.01 231.567 227.918 231.788 227.918 232.019V232.959C227.917 233.074 227.938 233.188 227.981 233.295C228.024 233.402 228.088 233.499 228.169 233.581C228.25 233.663 228.347 233.728 228.453 233.772C228.559 233.816 228.673 233.839 228.788 233.839H353.788C356.968 233.828 360.026 235.061 362.308 237.276C364.59 239.49 365.914 242.51 365.998 245.689Z" fill="#263238"/>
<path opacity="0.4" d="M365.998 245.689C365.999 247.243 365.694 248.783 365.099 250.219C364.504 251.655 363.632 252.959 362.532 254.057C361.432 255.155 360.126 256.025 358.689 256.618C357.252 257.21 355.712 257.513 354.158 257.509H228.788C228.556 257.512 228.335 257.606 228.172 257.77C228.009 257.935 227.918 258.157 227.918 258.389V259.319C227.917 259.434 227.938 259.548 227.981 259.655C228.024 259.762 228.088 259.859 228.169 259.941C228.25 260.023 228.347 260.088 228.453 260.132C228.559 260.176 228.673 260.199 228.788 260.199H354.788C356.705 260.196 358.602 259.815 360.371 259.077C362.14 258.339 363.745 257.259 365.095 255.899C366.446 254.538 367.514 252.924 368.238 251.15C368.963 249.376 369.33 247.476 369.318 245.559C369.224 241.682 367.608 237.997 364.82 235.301C362.033 232.605 358.296 231.114 354.418 231.149H228.788C228.557 231.149 228.336 231.241 228.173 231.404C228.01 231.567 227.918 231.788 227.918 232.019V232.959C227.917 233.074 227.938 233.188 227.981 233.295C228.024 233.402 228.088 233.499 228.169 233.581C228.25 233.663 228.347 233.728 228.453 233.772C228.559 233.816 228.673 233.839 228.788 233.839H353.788C356.968 233.828 360.026 235.061 362.308 237.276C364.59 239.49 365.914 242.51 365.998 245.689Z" fill="white"/>
<path d="M411.75 245.838C411.755 247.559 411.421 249.264 410.766 250.856C410.111 252.447 409.148 253.894 407.933 255.113C406.718 256.331 405.274 257.299 403.685 257.958C402.095 258.618 400.391 258.958 398.67 258.958H287V232.758H398.67C402.139 232.758 405.466 234.136 407.919 236.589C410.372 239.042 411.75 242.369 411.75 245.838Z" fill="#F1C691"/>
<path opacity="0.7" d="M287 232.758V258.958H398.67C402.078 258.864 405.314 257.444 407.691 255C410.068 252.556 411.398 249.282 411.398 245.873C411.398 242.464 410.068 239.189 407.691 236.746C405.314 234.302 402.078 232.882 398.67 232.788L287 232.758Z" fill="white"/>
<path opacity="0.2" d="M286.988 239.669V237.539L398.308 238.439L286.988 239.669Z" fill="black"/>
<path opacity="0.2" d="M286.988 248.849V247.199L336.958 248.989L286.988 248.849Z" fill="black"/>
<path opacity="0.2" d="M286.988 254.982V252.852L367.558 254.082L286.988 254.982Z" fill="black"/>
<path opacity="0.2" d="M398.85 235.308C401 235.311 403.073 236.108 404.67 237.548C403.978 238.901 403.429 240.322 403.03 241.788L291.35 242.668L402.77 242.948C402.379 244.916 402.413 246.944 402.87 248.898L327.66 250.538L403.58 251.418C404.23 253.234 405.075 254.974 406.1 256.608C408.398 255.024 410.129 252.747 411.04 250.109C411.952 247.472 411.996 244.612 411.166 241.947C410.336 239.283 408.675 236.954 406.427 235.301C404.179 233.647 401.461 232.756 398.67 232.758H287V235.308H398.85Z" fill="black"/>
<path d="M410.718 245.689C410.717 247.243 410.409 248.782 409.813 250.218C409.217 251.653 408.343 252.957 407.243 254.055C406.142 255.152 404.836 256.023 403.399 256.615C401.962 257.208 400.423 257.512 398.868 257.509H285.108C284.877 257.512 284.655 257.606 284.493 257.77C284.33 257.935 284.238 258.157 284.238 258.389V259.319C284.237 259.434 284.259 259.548 284.302 259.655C284.345 259.762 284.409 259.859 284.49 259.941C284.571 260.023 284.667 260.088 284.773 260.132C284.879 260.176 284.993 260.199 285.108 260.199H399.528C401.445 260.198 403.342 259.817 405.111 259.08C406.88 258.342 408.486 257.262 409.835 255.901C411.185 254.54 412.252 252.926 412.975 251.151C413.698 249.376 414.063 247.476 414.048 245.559C413.954 241.682 412.338 237.997 409.551 235.301C406.763 232.605 403.026 231.114 399.148 231.149H285.148C284.918 231.149 284.696 231.241 284.533 231.404C284.37 231.567 284.278 231.788 284.278 232.019V232.959C284.277 233.074 284.299 233.188 284.342 233.295C284.385 233.402 284.449 233.499 284.53 233.581C284.611 233.663 284.707 233.728 284.813 233.772C284.919 233.816 285.033 233.839 285.148 233.839H398.528C401.705 233.833 404.758 235.069 407.035 237.283C409.313 239.497 410.635 242.514 410.718 245.689Z" fill="#263238"/>
<path d="M398.308 242.359V252.849L394.508 249.059L390.828 252.739V242.359H398.308Z" fill="#263238"/>
<path d="M403.25 290.41H240.66V316.58H403.25V290.41Z" fill="#F1C691"/>
<path opacity="0.7" d="M403.25 290.41H240.66V316.58H403.25V290.41Z" fill="white"/>
<path opacity="0.2" d="M403.26 297.329V295.199L291.93 296.089L403.26 297.329Z" fill="black"/>
<path opacity="0.2" d="M403.261 306.499V304.859L353.281 306.639L403.261 306.499Z" fill="black"/>
<path opacity="0.2" d="M403.26 312.628V310.508L322.68 311.738L403.26 312.628Z" fill="black"/>
<path opacity="0.2" d="M277 290.41L274.66 309.96L277.44 306.96C278.378 310.521 280.127 313.817 282.55 316.59C284.292 314.309 285.677 311.777 286.66 309.08L362.59 308.21L287.37 306.57C287.609 305.51 287.733 304.427 287.74 303.34C287.737 302.424 287.646 301.51 287.47 300.61L398.9 300.33L287.21 299.46C286.824 297.99 286.274 296.568 285.57 295.22C287.167 293.781 289.24 292.983 291.39 292.98H403.26V290.42L277 290.41Z" fill="black"/>
<path d="M279.52 303.338C279.525 306.477 280.776 309.486 282.998 311.704C285.219 313.922 288.231 315.168 291.37 315.168H405.13C405.245 315.167 405.359 315.188 405.466 315.231C405.573 315.274 405.67 315.338 405.752 315.419C405.833 315.5 405.898 315.596 405.943 315.703C405.987 315.809 406.01 315.923 406.01 316.038V316.958C406.01 317.073 405.987 317.187 405.943 317.293C405.898 317.399 405.833 317.496 405.752 317.577C405.67 317.658 405.573 317.721 405.466 317.765C405.359 317.808 405.245 317.829 405.13 317.828H228.13C226.213 317.829 224.316 317.451 222.546 316.715C220.777 315.979 219.171 314.899 217.821 313.539C216.471 312.179 215.403 310.565 214.681 308.79C213.958 307.015 213.594 305.114 213.61 303.198C213.704 299.32 215.319 295.634 218.107 292.937C220.894 290.239 224.631 288.745 228.51 288.778H405.13C405.245 288.777 405.359 288.798 405.466 288.841C405.573 288.884 405.67 288.948 405.752 289.029C405.833 289.11 405.898 289.206 405.943 289.313C405.987 289.419 406.01 289.533 406.01 289.648V290.588C406.01 290.703 405.987 290.817 405.943 290.923C405.898 291.029 405.833 291.126 405.752 291.207C405.67 291.288 405.573 291.351 405.466 291.395C405.359 291.438 405.245 291.459 405.13 291.458H291.72C288.538 291.454 285.481 292.695 283.202 294.914C280.922 297.134 279.601 300.157 279.52 303.338Z" fill="#F1C691"/>
<path opacity="0.4" d="M279.52 303.338C279.525 306.477 280.776 309.486 282.998 311.704C285.219 313.922 288.231 315.168 291.37 315.168H405.13C405.245 315.167 405.359 315.188 405.466 315.231C405.573 315.274 405.67 315.338 405.752 315.419C405.833 315.5 405.898 315.596 405.943 315.703C405.987 315.809 406.01 315.923 406.01 316.038V316.958C406.01 317.073 405.987 317.187 405.943 317.293C405.898 317.399 405.833 317.496 405.752 317.577C405.67 317.658 405.573 317.721 405.466 317.765C405.359 317.808 405.245 317.829 405.13 317.828H228.13C226.213 317.829 224.316 317.451 222.546 316.715C220.777 315.979 219.171 314.899 217.821 313.539C216.471 312.179 215.403 310.565 214.681 308.79C213.958 307.015 213.594 305.114 213.61 303.198C213.704 299.32 215.319 295.634 218.107 292.937C220.894 290.239 224.631 288.745 228.51 288.778H405.13C405.245 288.777 405.359 288.798 405.466 288.841C405.573 288.884 405.67 288.948 405.752 289.029C405.833 289.11 405.898 289.206 405.943 289.313C405.987 289.419 406.01 289.533 406.01 289.648V290.588C406.01 290.703 405.987 290.817 405.943 290.923C405.898 291.029 405.833 291.126 405.752 291.207C405.67 291.288 405.573 291.351 405.466 291.395C405.359 291.438 405.245 291.459 405.13 291.458H291.72C288.538 291.454 285.481 292.695 283.202 294.914C280.922 297.134 279.601 300.157 279.52 303.338Z" fill="black"/>
<path d="M279.522 303.338C279.527 306.477 280.778 309.486 283 311.704C285.221 313.922 288.232 315.168 291.372 315.168H405.132C405.247 315.167 405.361 315.188 405.468 315.231C405.574 315.274 405.672 315.338 405.753 315.419C405.835 315.5 405.9 315.596 405.945 315.703C405.989 315.809 406.012 315.923 406.012 316.038V316.958C406.012 317.073 405.989 317.187 405.945 317.293C405.9 317.399 405.835 317.496 405.753 317.577C405.672 317.658 405.574 317.721 405.468 317.765C405.361 317.808 405.247 317.829 405.132 317.828H290.722C288.805 317.828 286.908 317.449 285.138 316.712C283.369 315.976 281.763 314.897 280.412 313.537C279.061 312.177 277.993 310.563 277.269 308.789C276.545 307.015 276.179 305.114 276.192 303.198C276.286 299.32 277.901 295.634 280.689 292.937C283.476 290.239 287.213 288.745 291.092 288.778H405.092C405.207 288.777 405.321 288.798 405.428 288.841C405.534 288.884 405.632 288.948 405.713 289.029C405.795 289.11 405.86 289.206 405.905 289.313C405.949 289.419 405.972 289.533 405.972 289.648V290.588C405.972 290.703 405.949 290.817 405.905 290.923C405.86 291.029 405.795 291.126 405.713 291.207C405.632 291.288 405.534 291.351 405.428 291.395C405.321 291.438 405.207 291.459 405.092 291.458H291.722C288.54 291.454 285.483 292.695 283.203 294.914C280.924 297.134 279.603 300.157 279.522 303.338Z" fill="#F1C691"/>
<path d="M291.93 300.02V310.51L295.73 306.71L299.41 310.39V300.02H291.93Z" fill="#263238"/>
<path opacity="0.1" d="M279.522 303.338C279.527 306.477 280.778 309.486 283 311.704C285.221 313.922 288.232 315.168 291.372 315.168H405.132C405.247 315.167 405.361 315.188 405.468 315.231C405.574 315.274 405.672 315.338 405.753 315.419C405.835 315.5 405.9 315.596 405.945 315.703C405.989 315.809 406.012 315.923 406.012 316.038V316.958C406.012 317.073 405.989 317.187 405.945 317.293C405.9 317.399 405.835 317.496 405.753 317.577C405.672 317.658 405.574 317.721 405.468 317.765C405.361 317.808 405.247 317.829 405.132 317.828H290.722C288.805 317.828 286.908 317.449 285.138 316.712C283.369 315.976 281.763 314.897 280.412 313.537C279.061 312.177 277.993 310.563 277.269 308.789C276.545 307.015 276.179 305.114 276.192 303.198C276.286 299.32 277.901 295.634 280.689 292.937C283.476 290.239 287.213 288.745 291.092 288.778H405.092C405.207 288.777 405.321 288.798 405.428 288.841C405.534 288.884 405.632 288.948 405.713 289.029C405.795 289.11 405.86 289.206 405.905 289.313C405.949 289.419 405.972 289.533 405.972 289.648V290.588C405.972 290.703 405.949 290.817 405.905 290.923C405.86 291.029 405.795 291.126 405.713 291.207C405.632 291.288 405.534 291.351 405.428 291.395C405.321 291.438 405.207 291.459 405.092 291.458H291.722C288.54 291.454 285.483 292.695 283.203 294.914C280.924 297.134 279.603 300.157 279.522 303.338Z" fill="white"/>
<path opacity="0.1" d="M270.93 313.602C273.658 316.325 277.355 317.853 281.21 317.852H276.38C274.463 317.853 272.564 317.474 270.794 316.738C269.024 316.001 267.417 314.921 266.067 313.559C264.717 312.198 263.65 310.583 262.928 308.806C262.206 307.03 261.843 305.129 261.86 303.211C261.952 299.334 263.566 295.648 266.355 292.951C269.143 290.254 272.881 288.764 276.76 288.801H281.58C277.702 288.766 273.965 290.258 271.178 292.954C268.39 295.65 266.774 299.334 266.68 303.211C266.662 305.139 267.029 307.05 267.759 308.834C268.488 310.618 269.567 312.239 270.93 313.602Z" fill="white"/>
<path opacity="0.1" d="M261.282 313.598C264.011 316.319 267.707 317.848 271.562 317.848H266.732C264.814 317.849 262.916 317.471 261.145 316.734C259.375 315.997 257.769 314.917 256.419 313.556C255.069 312.194 254.002 310.579 253.279 308.803C252.557 307.027 252.194 305.125 252.212 303.208C252.306 299.331 253.921 295.646 256.709 292.95C259.497 290.254 263.233 288.763 267.111 288.798H271.932C268.048 288.755 264.304 290.243 261.51 292.939C258.716 295.636 257.096 299.325 257.002 303.208C256.988 305.137 257.359 307.05 258.094 308.834C258.829 310.618 259.913 312.238 261.282 313.598Z" fill="white"/>
<path d="M416 261.578H253.41V287.748H416V261.578Z" fill="#F1C691"/>
<path opacity="0.8" d="M416 261.578H253.41V287.748H416V261.578Z" fill="white"/>
<path opacity="0.2" d="M416 268.501V266.371L304.68 267.261L416 268.501Z" fill="black"/>
<path opacity="0.2" d="M416 277.671V276.031L366.02 277.821L416 277.671Z" fill="black"/>
<path opacity="0.2" d="M415.998 283.8V281.68L335.418 282.91L415.998 283.8Z" fill="black"/>
<path opacity="0.2" d="M289.758 261.578L287.398 281.088L290.178 278.088C291.123 281.649 292.875 284.944 295.298 287.718C297.033 285.438 298.415 282.909 299.398 280.218L375.328 279.338L300.108 277.698C300.561 275.744 300.599 273.717 300.218 271.748L411.638 271.468L299.998 270.618C299.601 269.151 299.052 267.73 298.358 266.378C299.954 264.936 302.028 264.138 304.178 264.138H415.998V261.578H289.758Z" fill="black"/>
<path d="M292.268 274.511C292.273 277.649 293.523 280.656 295.742 282.874C297.962 285.092 300.97 286.338 304.108 286.341H417.878C418.109 286.341 418.33 286.433 418.493 286.596C418.656 286.759 418.748 286.98 418.748 287.211V288.151C418.748 288.382 418.656 288.603 418.493 288.766C418.33 288.929 418.109 289.021 417.878 289.021H249.878C247.961 289.021 246.064 288.642 244.294 287.906C242.525 287.169 240.919 286.09 239.568 284.73C238.218 283.37 237.149 281.757 236.425 279.982C235.701 278.208 235.335 276.308 235.348 274.391C235.44 270.52 237.047 266.84 239.824 264.141C242.601 261.443 246.326 259.942 250.198 259.961H417.878C417.993 259.961 418.107 259.984 418.213 260.028C418.319 260.073 418.416 260.138 418.497 260.219C418.578 260.301 418.642 260.398 418.685 260.505C418.728 260.612 418.749 260.726 418.748 260.841V261.771C418.748 262.002 418.656 262.223 418.493 262.386C418.33 262.549 418.109 262.641 417.878 262.641H304.458C297.938 262.651 292.258 267.961 292.268 274.511Z" fill="#263238"/>
<path opacity="0.4" d="M292.268 274.511C292.273 277.649 293.523 280.656 295.742 282.874C297.962 285.092 300.97 286.338 304.108 286.341H417.878C418.109 286.341 418.33 286.433 418.493 286.596C418.656 286.759 418.748 286.98 418.748 287.211V288.151C418.748 288.382 418.656 288.603 418.493 288.766C418.33 288.929 418.109 289.021 417.878 289.021H249.878C247.961 289.021 246.064 288.642 244.294 287.906C242.525 287.169 240.919 286.09 239.568 284.73C238.218 283.37 237.149 281.757 236.425 279.982C235.701 278.208 235.335 276.308 235.348 274.391C235.44 270.52 237.047 266.84 239.824 264.141C242.601 261.443 246.326 259.942 250.198 259.961H417.878C417.993 259.961 418.107 259.984 418.213 260.028C418.319 260.073 418.416 260.138 418.497 260.219C418.578 260.301 418.642 260.398 418.685 260.505C418.728 260.612 418.749 260.726 418.748 260.841V261.771C418.748 262.002 418.656 262.223 418.493 262.386C418.33 262.549 418.109 262.641 417.878 262.641H304.458C297.938 262.651 292.258 267.961 292.268 274.511Z" fill="white"/>
<path d="M292.27 274.511C292.275 277.649 293.525 280.657 295.744 282.874C297.964 285.092 300.972 286.339 304.11 286.341H417.88C418.111 286.341 418.332 286.433 418.495 286.596C418.658 286.759 418.75 286.981 418.75 287.211V288.151C418.75 288.382 418.658 288.603 418.495 288.767C418.332 288.93 418.111 289.021 417.88 289.021H303.46C301.543 289.022 299.646 288.642 297.876 287.906C296.107 287.17 294.501 286.09 293.15 284.73C291.8 283.371 290.732 281.757 290.007 279.983C289.283 278.208 288.917 276.308 288.93 274.391C289.022 270.512 290.636 266.824 293.424 264.124C296.211 261.424 299.949 259.929 303.83 259.961H417.88C417.995 259.961 418.109 259.984 418.215 260.029C418.322 260.073 418.418 260.138 418.499 260.22C418.58 260.302 418.644 260.399 418.687 260.505C418.73 260.612 418.751 260.726 418.75 260.841V261.771C418.75 262.002 418.658 262.223 418.495 262.387C418.332 262.55 418.111 262.641 417.88 262.641H304.46C297.94 262.651 292.26 267.961 292.27 274.511Z" fill="#263238"/>
<path d="M313.691 267.461V277.961L317.491 274.161L321.171 277.841V267.461H313.691Z" fill="#F1C691"/>
<path opacity="0.6" d="M292.27 274.511C292.275 277.649 293.525 280.657 295.744 282.874C297.964 285.092 300.972 286.339 304.11 286.341H417.88C418.111 286.341 418.332 286.433 418.495 286.596C418.658 286.759 418.75 286.981 418.75 287.211V288.151C418.75 288.382 418.658 288.603 418.495 288.767C418.332 288.93 418.111 289.021 417.88 289.021H303.46C301.543 289.022 299.646 288.642 297.876 287.906C296.107 287.17 294.501 286.09 293.15 284.73C291.8 283.371 290.732 281.757 290.007 279.983C289.283 278.208 288.917 276.308 288.93 274.391C289.022 270.512 290.636 266.824 293.424 264.124C296.211 261.424 299.949 259.929 303.83 259.961H417.88C417.995 259.961 418.109 259.984 418.215 260.029C418.322 260.073 418.418 260.138 418.499 260.22C418.58 260.302 418.644 260.399 418.687 260.505C418.73 260.612 418.751 260.726 418.75 260.841V261.771C418.75 262.002 418.658 262.223 418.495 262.387C418.332 262.55 418.111 262.641 417.88 262.641H304.46C297.94 262.651 292.26 267.961 292.27 274.511Z" fill="white"/>
<path opacity="0.2" d="M283.659 267.668H246.529C245.584 268.467 244.824 269.462 244.303 270.585C243.782 271.708 243.512 272.93 243.512 274.168C243.512 275.406 243.782 276.628 244.303 277.751C244.824 278.874 245.584 279.869 246.529 280.668H283.659C281.259 277.388 281.259 270.958 283.659 267.668Z" fill="black"/>
<path d="M401.459 175.102H341.219V201.232H401.459V175.102Z" fill="#F1C691"/>
<path opacity="0.7" d="M401.459 175.102H341.219V201.232H401.459V175.102Z" fill="white"/>
<path opacity="0.2" d="M346.051 177.662H401.461V175.102H346.111L346.051 177.662Z" fill="black"/>
<path opacity="0.2" d="M346.051 179.891L396.041 180.951L346.051 182.021V179.891Z" fill="black"/>
<path opacity="0.2" d="M346.051 189.551L398.991 190.441L346.051 191.191V189.551Z" fill="black"/>
<path opacity="0.2" d="M346.051 195.199L398.511 196.259L346.051 197.319V195.199Z" fill="black"/>
<path opacity="0.2" d="M401.461 183.609L350.711 185.139L401.461 186.199V183.609Z" fill="black"/>
<path d="M267 188.03C267.005 191.167 268.255 194.175 270.474 196.392C272.694 198.61 275.702 199.857 278.84 199.86H404.24C404.471 199.86 404.692 199.951 404.855 200.114C405.018 200.278 405.11 200.499 405.11 200.73V201.67C405.11 201.9 405.018 202.122 404.855 202.285C404.692 202.448 404.471 202.54 404.24 202.54H278.24C276.324 202.546 274.426 202.173 272.656 201.443C270.885 200.712 269.276 199.638 267.923 198.283C266.569 196.927 265.497 195.317 264.769 193.545C264.041 191.774 263.671 189.875 263.68 187.96C263.772 184.082 265.385 180.397 268.171 177.699C270.956 175.001 274.692 173.507 278.57 173.54H404.24C404.471 173.54 404.692 173.631 404.855 173.794C405.018 173.958 405.11 174.179 405.11 174.41V175.35C405.11 175.58 405.018 175.802 404.855 175.965C404.692 176.128 404.471 176.22 404.24 176.22H279.24C272.68 176.17 267 181.51 267 188.03Z" fill="#F1C691"/>
<path opacity="0.4" d="M267 188.03C267.005 191.167 268.255 194.175 270.474 196.392C272.694 198.61 275.702 199.857 278.84 199.86H404.24C404.471 199.86 404.692 199.951 404.855 200.114C405.018 200.278 405.11 200.499 405.11 200.73V201.67C405.11 201.9 405.018 202.122 404.855 202.285C404.692 202.448 404.471 202.54 404.24 202.54H278.24C276.324 202.546 274.426 202.173 272.656 201.443C270.885 200.712 269.276 199.638 267.923 198.283C266.569 196.927 265.497 195.317 264.769 193.545C264.041 191.774 263.671 189.875 263.68 187.96C263.772 184.082 265.385 180.397 268.171 177.699C270.956 175.001 274.692 173.507 278.57 173.54H404.24C404.471 173.54 404.692 173.631 404.855 173.794C405.018 173.958 405.11 174.179 405.11 174.41V175.35C405.11 175.58 405.018 175.802 404.855 175.965C404.692 176.128 404.471 176.22 404.24 176.22H279.24C272.68 176.17 267 181.51 267 188.03Z" fill="white"/>
<path d="M221.281 188.192C221.284 191.662 222.664 194.988 225.119 197.441C227.573 199.894 230.901 201.272 234.371 201.272H346.051V175.102H234.371C230.9 175.102 227.57 176.481 225.115 178.936C222.66 181.39 221.281 184.72 221.281 188.192Z" fill="#F1C691"/>
<path opacity="0.5" d="M346.051 175.102V201.272H234.361C230.953 201.177 227.717 199.757 225.34 197.314C222.963 194.87 221.633 191.596 221.633 188.187C221.633 184.778 222.963 181.503 225.34 179.059C227.717 176.616 230.953 175.196 234.361 175.102H346.051Z" fill="white"/>
<path opacity="0.2" d="M346.049 182.021V179.891L234.719 180.781L346.049 182.021Z" fill="black"/>
<path opacity="0.2" d="M346.05 191.191V189.551L296.07 191.341L346.05 191.191Z" fill="black"/>
<path opacity="0.2" d="M346.049 197.319V195.199L265.469 196.429L346.049 197.319Z" fill="black"/>
<path opacity="0.2" d="M234.181 177.662C232.034 177.667 229.963 178.461 228.361 179.892C229.062 181.245 229.615 182.67 230.011 184.142L341.691 185.012L230.271 185.292C230.442 186.192 230.532 187.105 230.541 188.022C230.532 189.105 230.404 190.185 230.161 191.242L305.381 192.892L229.451 193.772C228.803 195.588 227.958 197.329 226.931 198.962C224.636 197.376 222.907 195.098 221.997 192.46C221.087 189.823 221.044 186.964 221.873 184.3C222.703 181.636 224.362 179.307 226.608 177.652C228.855 175.997 231.571 175.104 234.361 175.102H346.051V177.662H234.181Z" fill="black"/>
<path d="M222.32 188.03C222.32 189.584 222.626 191.123 223.222 192.559C223.817 193.995 224.689 195.3 225.789 196.398C226.888 197.497 228.193 198.368 229.63 198.962C231.066 199.556 232.606 199.861 234.16 199.86H347.93C348.161 199.86 348.382 199.951 348.545 200.114C348.708 200.278 348.8 200.499 348.8 200.73V201.67C348.8 201.9 348.708 202.122 348.545 202.285C348.382 202.448 348.161 202.54 347.93 202.54H233.51C231.599 202.537 229.708 202.158 227.944 201.423C226.18 200.689 224.579 199.613 223.231 198.259C221.883 196.905 220.816 195.298 220.09 193.531C219.364 191.763 218.994 189.87 219 187.96C219.094 184.082 220.71 180.396 223.497 177.698C226.285 175.001 230.021 173.507 233.9 173.54H347.93C348.161 173.54 348.382 173.631 348.545 173.794C348.708 173.958 348.8 174.179 348.8 174.41V175.35C348.8 175.58 348.708 175.802 348.545 175.965C348.382 176.128 348.161 176.22 347.93 176.22H234.51C231.34 176.213 228.293 177.443 226.017 179.649C223.74 181.855 222.414 184.861 222.32 188.03Z" fill="#F1C691"/>
<path d="M234.719 184.711V195.201L238.519 191.401L242.199 195.081V184.711H234.719Z" fill="#263238"/>
<path d="M430.07 203.93H267.48V230.1H430.07V203.93Z" fill="#F1C691"/>
<path opacity="0.7" d="M430.07 203.93H267.48V230.1H430.07V203.93Z" fill="white"/>
<path opacity="0.2" d="M430.07 210.841V208.711L318.75 209.611L430.07 210.841Z" fill="black"/>
<path opacity="0.2" d="M430.072 220.019V218.379L380.102 220.159L430.072 220.019Z" fill="black"/>
<path opacity="0.2" d="M430.07 226.151V224.031L349.5 225.261L430.07 226.151Z" fill="black"/>
<path opacity="0.2" d="M303.829 203.961L301.469 223.471L304.249 220.471C305.194 224.031 306.946 227.326 309.369 230.101C311.102 227.816 312.484 225.285 313.469 222.591L389.409 221.721L314.189 220.081C314.423 219.016 314.547 217.931 314.559 216.841C314.551 215.928 314.46 215.018 314.289 214.121L425.709 213.841L313.999 212.961C313.602 211.491 313.052 210.067 312.359 208.711C313.957 207.274 316.03 206.48 318.179 206.481H430.069V203.961H303.829Z" fill="black"/>
<path d="M306.341 216.861C306.346 219.999 307.596 223.006 309.815 225.224C312.035 227.441 315.043 228.688 318.181 228.691H432.001C432.115 228.691 432.228 228.714 432.334 228.757C432.439 228.801 432.535 228.865 432.616 228.946C432.697 229.027 432.761 229.123 432.805 229.228C432.848 229.334 432.871 229.447 432.871 229.561V230.501C432.871 230.615 432.848 230.728 432.805 230.834C432.761 230.94 432.697 231.035 432.616 231.116C432.535 231.197 432.439 231.261 432.334 231.305C432.228 231.349 432.115 231.371 432.001 231.371H255.001C253.084 231.37 251.187 230.989 249.418 230.252C247.649 229.514 246.044 228.434 244.694 227.073C243.344 225.712 242.277 224.098 241.554 222.323C240.831 220.548 240.466 218.648 240.481 216.731C240.57 212.854 242.183 209.168 244.969 206.471C247.756 203.774 251.493 202.283 255.371 202.321H432.001C432.115 202.321 432.228 202.344 432.334 202.387C432.439 202.431 432.535 202.495 432.616 202.576C432.697 202.657 432.761 202.753 432.805 202.858C432.848 202.964 432.871 203.077 432.871 203.191V204.131C432.871 204.245 432.848 204.358 432.805 204.464C432.761 204.57 432.697 204.665 432.616 204.746C432.535 204.827 432.439 204.891 432.334 204.935C432.228 204.979 432.115 205.001 432.001 205.001H318.531C315.353 204.995 312.298 206.232 310.02 208.448C307.742 210.665 306.422 213.684 306.341 216.861Z" fill="#263238"/>
<path opacity="0.2" d="M306.341 216.861C306.346 219.999 307.596 223.006 309.815 225.224C312.035 227.441 315.043 228.688 318.181 228.691H432.001C432.115 228.691 432.228 228.714 432.334 228.757C432.439 228.801 432.535 228.865 432.616 228.946C432.697 229.027 432.761 229.123 432.805 229.228C432.848 229.334 432.871 229.447 432.871 229.561V230.501C432.871 230.615 432.848 230.728 432.805 230.834C432.761 230.94 432.697 231.035 432.616 231.116C432.535 231.197 432.439 231.261 432.334 231.305C432.228 231.349 432.115 231.371 432.001 231.371H255.001C253.084 231.37 251.187 230.989 249.418 230.252C247.649 229.514 246.044 228.434 244.694 227.073C243.344 225.712 242.277 224.098 241.554 222.323C240.831 220.548 240.466 218.648 240.481 216.731C240.57 212.854 242.183 209.168 244.969 206.471C247.756 203.774 251.493 202.283 255.371 202.321H432.001C432.115 202.321 432.228 202.344 432.334 202.387C432.439 202.431 432.535 202.495 432.616 202.576C432.697 202.657 432.761 202.753 432.805 202.858C432.848 202.964 432.871 203.077 432.871 203.191V204.131C432.871 204.245 432.848 204.358 432.805 204.464C432.761 204.57 432.697 204.665 432.616 204.746C432.535 204.827 432.439 204.891 432.334 204.935C432.228 204.979 432.115 205.001 432.001 205.001H318.531C315.353 204.995 312.298 206.232 310.02 208.448C307.742 210.665 306.422 213.684 306.341 216.861Z" fill="white"/>
<path d="M306.34 216.861C306.346 219.999 307.595 223.006 309.815 225.224C312.034 227.441 315.043 228.688 318.18 228.691H432C432.115 228.691 432.228 228.713 432.333 228.757C432.439 228.801 432.535 228.865 432.616 228.946C432.696 229.027 432.76 229.122 432.804 229.228C432.848 229.334 432.87 229.447 432.87 229.561V230.501C432.87 230.615 432.848 230.728 432.804 230.834C432.76 230.939 432.696 231.035 432.616 231.116C432.535 231.197 432.439 231.261 432.333 231.305C432.228 231.348 432.115 231.371 432 231.371H317.53C315.613 231.371 313.715 230.992 311.945 230.254C310.174 229.517 308.568 228.437 307.217 227.076C305.866 225.715 304.798 224.101 304.075 222.325C303.351 220.55 302.986 218.648 303 216.731C303.092 212.855 304.706 209.17 307.492 206.474C310.278 203.777 314.013 202.286 317.89 202.321H432C432.115 202.321 432.228 202.343 432.333 202.387C432.439 202.431 432.535 202.495 432.616 202.576C432.696 202.657 432.76 202.752 432.804 202.858C432.848 202.964 432.87 203.077 432.87 203.191V204.131C432.87 204.245 432.848 204.358 432.804 204.464C432.76 204.569 432.696 204.665 432.616 204.746C432.535 204.827 432.439 204.891 432.333 204.935C432.228 204.978 432.115 205.001 432 205.001H318.53C315.352 204.995 312.298 206.232 310.02 208.448C307.742 210.664 306.421 213.684 306.34 216.861Z" fill="#263238"/>
<path d="M318.75 213.539V224.029L322.55 220.229L326.23 223.909V213.539H318.75Z" fill="#F1C691"/>
<path opacity="0.4" d="M306.34 216.861C306.346 219.999 307.595 223.006 309.815 225.224C312.034 227.441 315.043 228.688 318.18 228.691H432C432.115 228.691 432.228 228.713 432.333 228.757C432.439 228.801 432.535 228.865 432.616 228.946C432.696 229.027 432.76 229.122 432.804 229.228C432.848 229.334 432.87 229.447 432.87 229.561V230.501C432.87 230.615 432.848 230.728 432.804 230.834C432.76 230.939 432.696 231.035 432.616 231.116C432.535 231.197 432.439 231.261 432.333 231.305C432.228 231.348 432.115 231.371 432 231.371H317.53C315.613 231.371 313.715 230.992 311.945 230.254C310.174 229.517 308.568 228.437 307.217 227.076C305.866 225.715 304.798 224.101 304.075 222.325C303.351 220.55 302.986 218.648 303 216.731C303.092 212.855 304.706 209.17 307.492 206.474C310.278 203.777 314.013 202.286 317.89 202.321H432C432.115 202.321 432.228 202.343 432.333 202.387C432.439 202.431 432.535 202.495 432.616 202.576C432.696 202.657 432.76 202.752 432.804 202.858C432.848 202.964 432.87 203.077 432.87 203.191V204.131C432.87 204.245 432.848 204.358 432.804 204.464C432.76 204.569 432.696 204.665 432.616 204.746C432.535 204.827 432.439 204.891 432.333 204.935C432.228 204.978 432.115 205.001 432 205.001H318.53C315.352 204.995 312.298 206.232 310.02 208.448C307.742 210.664 306.421 213.684 306.34 216.861Z" fill="white"/>
<path opacity="0.2" d="M264 227.111C265.348 228.463 266.951 229.535 268.715 230.266C270.479 230.997 272.37 231.373 274.28 231.371H264.63C262.713 231.37 260.816 230.989 259.047 230.252C257.278 229.514 255.673 228.434 254.323 227.073C252.973 225.712 251.906 224.098 251.183 222.323C250.46 220.548 250.095 218.648 250.11 216.731C250.199 212.854 251.812 209.168 254.598 206.471C257.385 203.774 261.122 202.283 265 202.321H274.64C270.763 202.286 267.027 203.778 264.241 206.474C261.455 209.17 259.842 212.855 259.75 216.731C259.732 218.657 260.098 220.567 260.828 222.35C261.558 224.132 262.636 225.751 264 227.111Z" fill="white"/>
<path d="M122.102 118.367H141.682C143.273 118.367 144.799 118.999 145.924 120.125C147.049 121.25 147.682 122.776 147.682 124.367V141.367C147.682 142.958 147.049 144.485 145.924 145.61C144.799 146.735 143.273 147.367 141.682 147.367H140.792L141.722 152.017L136.722 147.367H122.102C120.51 147.367 118.984 146.735 117.859 145.61C116.734 144.485 116.102 142.958 116.102 141.367V124.367C116.102 122.776 116.734 121.25 117.859 120.125C118.984 118.999 120.51 118.367 122.102 118.367Z" fill="#F1C691"/>
<path d="M141.612 132.849C141.612 134.771 141.042 136.651 139.974 138.249C138.906 139.847 137.388 141.093 135.612 141.829C133.835 142.565 131.881 142.757 129.996 142.382C128.11 142.007 126.378 141.081 125.019 139.722C123.659 138.363 122.734 136.631 122.359 134.745C121.984 132.86 122.176 130.905 122.912 129.129C123.647 127.353 124.893 125.835 126.492 124.767C128.09 123.699 129.969 123.129 131.892 123.129C134.47 123.129 136.942 124.153 138.765 125.976C140.588 127.799 141.612 130.271 141.612 132.849Z" fill="white"/>
<path d="M130.873 137.189C130.745 137.187 130.618 137.159 130.501 137.105C130.384 137.052 130.279 136.975 130.193 136.879L126.373 132.379C126.221 132.197 126.147 131.963 126.167 131.726C126.188 131.49 126.302 131.272 126.483 131.119C126.665 130.967 126.9 130.892 127.136 130.913C127.372 130.934 127.591 131.047 127.743 131.229L130.873 134.919L136.043 128.819C136.198 128.64 136.417 128.529 136.653 128.511C136.889 128.492 137.122 128.567 137.303 128.719C137.393 128.795 137.467 128.888 137.521 128.992C137.574 129.097 137.607 129.211 137.616 129.328C137.625 129.445 137.611 129.563 137.575 129.675C137.538 129.787 137.48 129.89 137.403 129.979L131.553 136.879C131.468 136.975 131.363 137.052 131.246 137.105C131.129 137.159 131.002 137.187 130.873 137.189Z" fill="#F1C691"/>
<path d="M237.33 232.68H197.97C194.082 232.68 190.93 235.832 190.93 239.72V305.38C190.93 309.268 194.082 312.42 197.97 312.42H237.33C241.218 312.42 244.37 309.268 244.37 305.38V239.72C244.37 235.832 241.218 232.68 237.33 232.68Z" fill="#F1C691"/>
<path opacity="0.5" d="M237.33 232.68H197.97C194.082 232.68 190.93 235.832 190.93 239.72V305.38C190.93 309.268 194.082 312.42 197.97 312.42H237.33C241.218 312.42 244.37 309.268 244.37 305.38V239.72C244.37 235.832 241.218 232.68 237.33 232.68Z" fill="white"/>
<path opacity="0.1" d="M233.41 312.42H197.71C196.819 312.42 195.936 312.244 195.113 311.903C194.29 311.561 193.542 311.061 192.912 310.43C192.282 309.8 191.783 309.051 191.443 308.227C191.103 307.404 190.928 306.521 190.93 305.63V239.46C190.928 238.569 191.103 237.687 191.443 236.864C191.783 236.04 192.283 235.292 192.913 234.663C193.542 234.033 194.29 233.533 195.114 233.193C195.937 232.853 196.819 232.678 197.71 232.68H233.41C231.612 232.68 229.887 233.394 228.616 234.666C227.344 235.937 226.63 237.662 226.63 239.46V305.63C226.63 307.429 227.344 309.154 228.615 310.427C229.886 311.7 231.611 312.417 233.41 312.42Z" fill="black"/>
<path d="M121.982 317.848H236.172V310.348H121.982V317.848Z" fill="#263238"/>
<path opacity="0.2" d="M121.982 317.848H236.172V310.348H121.982V317.848Z" fill="white"/>
<path opacity="0.2" d="M171.432 317.848H236.172V310.348H171.432V317.848Z" fill="white"/>
<path d="M201.433 267.668H117.163L104.323 201.348C103.991 199.645 104.04 197.891 104.466 196.209C104.892 194.528 105.685 192.962 106.789 191.624C107.892 190.286 109.278 189.208 110.846 188.469C112.415 187.729 114.129 187.347 115.863 187.348H176.193C178.923 187.347 181.568 188.297 183.674 190.034C185.78 191.771 187.215 194.187 187.733 196.868L201.433 267.668Z" fill="#F1C691"/>
<path opacity="0.6" d="M201.433 267.668H117.163L104.323 201.348C103.991 199.645 104.04 197.891 104.466 196.209C104.892 194.528 105.685 192.962 106.789 191.624C107.892 190.286 109.278 189.208 110.846 188.469C112.415 187.729 114.129 187.347 115.863 187.348H176.193C178.923 187.347 181.568 188.297 183.674 190.034C185.78 191.771 187.215 194.187 187.733 196.868L201.433 267.668Z" fill="white"/>
<path opacity="0.1" d="M141.103 267.668H117.163L104.323 201.348C103.991 199.645 104.04 197.891 104.466 196.209C104.892 194.528 105.685 192.962 106.789 191.624C107.892 190.286 109.278 189.208 110.846 188.469C112.415 187.729 114.129 187.347 115.863 187.348C118.591 187.349 121.234 188.3 123.338 190.037C125.441 191.774 126.875 194.189 127.393 196.868L141.103 267.668Z" fill="black"/>
<path d="M239.273 266.859H119.893C116.623 266.859 113.973 269.51 113.973 272.779V306.499C113.973 309.769 116.623 312.419 119.893 312.419H239.273C242.542 312.419 245.193 309.769 245.193 306.499V272.779C245.193 269.51 242.542 266.859 239.273 266.859Z" fill="#F1C691"/>
<path opacity="0.6" d="M239.273 266.859H119.893C116.623 266.859 113.973 269.51 113.973 272.779V306.499C113.973 309.769 116.623 312.419 119.893 312.419H239.273C242.542 312.419 245.193 309.769 245.193 306.499V272.779C245.193 269.51 242.542 266.859 239.273 266.859Z" fill="white"/>
<path opacity="0.1" d="M170.983 266.859H119.893C116.623 266.859 113.973 269.51 113.973 272.779V306.499C113.973 309.769 116.623 312.419 119.893 312.419H170.983C174.252 312.419 176.903 309.769 176.903 306.499V272.779C176.903 269.51 174.252 266.859 170.983 266.859Z" fill="black"/>
<path d="M183.641 174.337C192.291 176.417 197.921 184.857 205.141 188.387C205.231 188.467 205.061 188.587 205.141 188.677L201.791 191.407C201.264 192.156 200.965 193.042 200.931 193.957C200.931 194.467 201.051 194.597 201.091 194.527C201.119 193.957 201.013 193.388 200.781 192.867C199.501 189.197 197.021 185.087 194.911 181.517C193.691 179.457 192.361 177.357 191.171 175.307C190.639 174.389 190.434 173.318 190.59 172.268C190.745 171.218 191.252 170.253 192.027 169.528C192.803 168.804 193.801 168.364 194.859 168.28C195.916 168.196 196.971 168.474 197.851 169.067C199.979 170.516 202.019 172.088 203.961 173.777C209.881 179.177 217.561 186.437 217.371 195.297C217.371 198.217 215.311 202.747 212.001 203.957C199.941 209.827 188.531 199.317 179.891 192.887C179.551 192.657 179.261 192.487 179.111 192.397C178.961 192.307 178.951 192.307 179.301 192.397C167.461 189.027 171.591 171.937 183.671 174.397L183.641 174.337Z" fill="#263238"/>
<path opacity="0.2" d="M199.101 197.959C197.981 197.859 196.931 197.709 195.891 197.529C194.851 197.349 193.631 197.119 192.531 196.879C191.431 196.639 190.391 196.349 189.341 196.069C187.241 195.509 185.211 194.819 183.211 194.069L183.031 193.999C184.063 191.932 185.698 190.226 187.721 189.109C187.721 189.109 193.851 191.039 199.101 197.959Z" fill="black"/>
<path d="M237.703 298.16L249.943 299.06L249.563 313.53L239.343 312.8L237.703 298.16Z" fill="#E4897B"/>
<path opacity="0.2" d="M237.711 298.168L249.941 299.058L249.731 307.168L238.621 306.358L237.711 298.168Z" fill="black"/>
<path d="M237.883 317.847H240.553L241.273 316.767L242.673 317.857H258.763C258.861 316.591 258.623 315.322 258.073 314.177C258.073 314.177 253.253 313.747 251.403 311.347C251.335 311.256 251.242 311.186 251.136 311.145C251.03 311.104 250.914 311.095 250.803 311.117C249.203 311.457 242.803 312.667 239.343 311.417C239.257 311.384 239.163 311.371 239.071 311.381C238.979 311.391 238.891 311.422 238.814 311.473C238.736 311.524 238.672 311.593 238.627 311.674C238.581 311.754 238.556 311.845 238.553 311.937C238.48 313.922 238.256 315.897 237.883 317.847Z" fill="#263238"/>
<path d="M170.663 235.617C170.663 235.617 152.453 269.617 174.053 269.617C201.243 269.617 227.133 262.767 227.133 262.767C227.133 262.767 225.653 277.267 236.133 304.767L250.823 304.647C250.823 304.647 256.543 245.557 245.583 235.647C236.763 227.647 205.443 230.217 205.443 230.217L170.663 235.617Z" fill="#F1C691"/>
<path opacity="0.2" d="M230.36 282.37C230.17 283.09 229.99 283.79 229.8 284.48C226.37 270.16 227.13 262.73 227.13 262.73C227.13 262.73 201.24 269.58 174.05 269.58C160.91 269.58 162.5 257.02 165.77 247.17C175.03 241.29 184.77 235.96 191.77 232.33L205.44 230.2C205.44 230.2 211.07 229.73 218.24 229.81C228.84 234.54 239 247.58 230.36 282.37Z" fill="black"/>
<path d="M204.643 230.669C188.843 239.399 148.503 236.97 141.303 235.75C140.413 223.85 139.303 204.83 135.553 190.75C135.136 189.242 135.031 187.666 135.244 186.117C135.457 184.567 135.983 183.078 136.79 181.739C137.598 180.399 138.67 179.239 139.941 178.328C141.212 177.417 142.655 176.774 144.183 176.44C155.377 174.244 166.78 173.295 178.183 173.609C182.183 173.749 186.463 175.689 187.743 179.479C193.593 196.959 202.933 211.129 204.643 230.669Z" fill="#263238"/>
<path d="M168.263 182.738C161.633 183.078 155.873 177.428 152.773 175.468C156.123 173.128 157.773 168.928 158.393 166.598C158.683 165.598 158.803 164.898 158.803 164.898L170.063 169.898C169.429 171.317 169.309 172.911 169.723 174.408C171.133 175.036 172.247 176.182 172.833 177.608C172.829 177.642 172.829 177.675 172.833 177.708C173.703 180.008 174.803 182.408 168.263 182.738Z" fill="#E4897B"/>
<path opacity="0.2" d="M172.871 177.718C166.161 180.488 159.591 172.388 158.391 166.598C158.681 165.598 158.801 164.898 158.801 164.898L170.061 169.898C169.426 171.317 169.306 172.911 169.721 174.408C171.13 175.036 172.244 176.182 172.831 177.608C172.839 177.647 172.852 177.684 172.871 177.718Z" fill="black"/>
<path d="M168.661 182.718L166.161 180.488L162.301 182.418C162.301 182.418 164.421 184.578 168.661 182.718Z" fill="#F1C691"/>
<path opacity="0.5" d="M168.661 182.718L166.161 180.488L162.301 182.418C162.301 182.418 164.421 184.578 168.661 182.718Z" fill="white"/>
<path d="M154.372 173.816C154.372 173.816 159.122 180.306 166.162 180.486C164.842 181.176 163.675 182.126 162.733 183.279C161.792 184.433 161.094 185.765 160.682 187.196C158.14 186.342 155.906 184.757 154.26 182.641C152.613 180.525 151.626 177.97 151.422 175.296C151.775 174.849 152.223 174.485 152.733 174.229C153.242 173.973 153.802 173.832 154.372 173.816Z" fill="#F1C691"/>
<path d="M168.66 182.719L172 179.859L175.82 180.949C175.82 180.949 172.54 184.399 168.66 182.719Z" fill="#F1C691"/>
<path opacity="0.5" d="M168.66 182.719L172 179.859L175.82 180.949C175.82 180.949 172.54 184.399 168.66 182.719Z" fill="white"/>
<path d="M169.723 174.42C169.723 174.42 172.143 177.56 172.043 179.86C175.253 180.73 176.353 185.56 176.353 185.56C176.353 185.56 177.663 178.56 172.853 174.95C171.89 174.451 170.796 174.266 169.723 174.42Z" fill="#F1C691"/>
<path opacity="0.8" d="M154.372 173.816C154.372 173.816 159.122 180.306 166.162 180.486C164.842 181.176 163.675 182.126 162.733 183.279C161.792 184.433 161.094 185.765 160.682 187.196C158.14 186.342 155.906 184.757 154.26 182.641C152.613 180.525 151.626 177.97 151.422 175.296C151.775 174.849 152.223 174.485 152.733 174.229C153.242 173.973 153.802 173.832 154.372 173.816Z" fill="white"/>
<path opacity="0.8" d="M169.723 174.42C169.723 174.42 172.143 177.56 172.043 179.86C175.253 180.73 176.353 185.56 176.353 185.56C176.353 185.56 177.663 178.56 172.853 174.95C171.89 174.451 170.796 174.266 169.723 174.42Z" fill="white"/>
<path d="M214.262 299.319L226.462 298.059L228.622 312.369L218.432 313.439L214.262 299.319Z" fill="#E4897B"/>
<path opacity="0.2" d="M214.262 299.329L226.472 298.059L227.682 306.079L216.602 307.229L214.262 299.329Z" fill="black"/>
<path d="M216.66 317.847H219.32L220.05 316.767L221.45 317.857H237.54C237.637 316.59 237.395 315.32 236.84 314.177C236.84 314.177 232.03 313.747 230.17 311.347C230.104 311.256 230.013 311.187 229.909 311.146C229.804 311.105 229.69 311.095 229.58 311.117C227.98 311.457 221.58 312.667 218.11 311.417C218.024 311.383 217.932 311.37 217.84 311.38C217.749 311.389 217.661 311.421 217.584 311.472C217.507 311.523 217.444 311.592 217.4 311.673C217.356 311.754 217.332 311.844 217.33 311.937C217.258 313.921 217.034 315.897 216.66 317.847Z" fill="#263238"/>
<path d="M141.72 235.618C141.72 235.618 134.11 260.718 154.58 267.618C175.05 274.518 195.27 262.328 195.27 262.328C195.27 262.328 195.27 267.618 213.51 306.468L228.62 303.618C228.62 303.618 223.29 245.468 216.62 235.618C209.95 225.768 176.47 230.188 176.47 230.188L141.72 235.618Z" fill="#F1C691"/>
<path d="M195.473 167.767L192.113 171.687C187.353 174.287 185.063 167.587 185.063 167.587L181.523 163.587C181.131 163.069 180.936 162.429 180.973 161.781C181.01 161.132 181.275 160.518 181.723 160.047L184.043 157.287C184.488 156.693 185.147 156.294 185.88 156.177C186.614 156.059 187.364 156.232 187.973 156.657L191.583 159.897C192.3 160.491 192.856 161.254 193.203 162.117L195.473 167.767Z" fill="#E4897B"/>
<path opacity="0.2" d="M169.891 212.267C169.891 212.267 160.641 231.137 141.301 235.747C140.531 225.447 139.661 208.837 136.941 196.487C140.791 194.177 151.421 191.688 151.421 191.688C151.459 196.31 152.439 200.876 154.301 205.107C159.466 203.084 164.871 201.739 170.381 201.107C173.201 200.747 169.891 212.267 169.891 212.267Z" fill="black"/>
<path d="M150.432 192.759C150.98 192.335 151.456 191.825 151.842 191.249C151.952 191.069 151.942 191.089 151.922 191.169C151.902 191.249 151.722 191.729 151.602 192.169C150.162 198.079 149.302 205.329 151.042 211.169C151.192 211.599 151.162 211.539 150.772 211.419L153.402 213.819C152.979 213.255 152.457 212.774 151.862 212.399C151.022 211.729 148.802 211.289 148.322 211.649C148.082 211.839 148.752 211.759 149.412 211.529C154.972 209.479 160.692 205.379 165.972 202.369C166.884 201.855 167.943 201.659 168.979 201.814C170.015 201.968 170.971 202.464 171.694 203.223C172.417 203.981 172.866 204.959 172.971 206.002C173.075 207.044 172.829 208.092 172.272 208.979C167.112 216.549 156.452 229.929 145.922 227.609C143.457 227.006 141.279 225.563 139.762 223.529L142.392 225.929C137.302 223.079 134.832 218.419 133.392 213.639C131.033 204.828 131.13 195.539 133.672 186.779C134.672 183.719 135.952 180.599 138.732 178.329C140.648 176.858 143.062 176.192 145.461 176.473C147.86 176.754 150.056 177.959 151.58 179.833C153.105 181.706 153.839 184.101 153.626 186.507C153.414 188.913 152.271 191.142 150.442 192.719L150.432 192.759Z" fill="#263238"/>
<path d="M190.203 175.068L188.203 172.828C191.08 171.189 193.701 169.137 195.983 166.738L199.583 167.678C199.583 167.678 196.333 174.578 190.203 175.068Z" fill="#F1C691"/>
<path opacity="0.5" d="M190.203 175.068L188.203 172.828C191.08 171.189 193.701 169.137 195.983 166.738L199.583 167.678C199.583 167.678 196.333 174.578 190.203 175.068Z" fill="white"/>
<path opacity="0.9" d="M215.092 176.527L212.192 185.427L201.942 203.537C201.942 203.537 177.002 207.037 176.442 199.697C175.932 193.117 177.632 182.407 177.992 180.257L178.052 179.867C192.002 181.227 200.892 186.417 200.892 186.417C205.222 179.467 215.092 176.527 215.092 176.527Z" fill="white"/>
<path opacity="0.1" d="M215.092 176.527L212.192 185.427L201.942 203.537C201.942 203.537 177.002 207.037 176.442 199.697C175.932 193.117 177.632 182.407 177.992 180.257C188.162 181.187 200.902 187.357 200.902 187.357C202.292 182.957 215.092 176.527 215.092 176.527Z" fill="black"/>
<path d="M211.932 205.96C211.932 205.96 207.312 208.11 199.462 214.26C199.013 214.619 198.496 214.884 197.942 215.04C197.205 215.263 196.422 215.287 195.672 215.11C188.946 213.497 182.117 212.354 175.232 211.69C175.232 211.69 174.352 194.69 176.172 182.05C176.172 182.05 190.172 183.26 200.892 187.38C201.202 187.13 211.122 179.1 217.432 178.02C217.442 177.96 209.502 194.36 211.932 205.96Z" fill="#F1C691"/>
<path opacity="0.1" d="M211.931 205.96C211.931 205.96 207.311 208.11 199.461 214.26C199.012 214.619 198.495 214.884 197.941 215.04C198.401 208.14 199.691 190.25 200.891 187.38C201.201 187.13 211.121 179.1 217.431 178.02C217.441 177.96 209.501 194.36 211.931 205.96Z" fill="black"/>
<path d="M200.002 187.018C200.709 187.106 201.424 186.924 202.002 186.508C202.002 186.508 200.622 199.308 199.332 214.378C199.093 214.85 198.682 215.212 198.183 215.389C197.684 215.566 197.136 215.544 196.652 215.328C196.652 215.328 198.072 196.088 200.002 187.018Z" fill="#F1C691"/>
<path opacity="0.2" d="M200.002 187.018C200.709 187.106 201.424 186.924 202.002 186.508C202.002 186.508 200.622 199.308 199.332 214.378C199.093 214.85 198.682 215.212 198.183 215.389C197.684 215.566 197.136 215.544 196.652 215.328C196.652 215.328 198.072 196.088 200.002 187.018Z" fill="white"/>
<path opacity="0.7" d="M204.143 190.449C204.143 190.449 208.843 186.449 212.783 185.559L212.173 188.009C208.999 189.308 206.101 191.198 203.633 193.579L204.143 190.449Z" fill="white"/>
<path opacity="0.1" d="M178.613 204.379C178.613 204.379 190.613 206.379 193.913 207.509V212.359C193.913 212.359 183.913 210.139 178.473 209.559L178.613 204.379Z" fill="black"/>
<path opacity="0.7" d="M206.551 186.23L206.301 187.37C207.882 186.317 209.556 185.41 211.301 184.66L211.741 183.18C209.878 183.951 208.131 184.978 206.551 186.23Z" fill="white"/>
<path d="M168.262 202.299L169.192 207.109C171.892 211.499 176.932 207.049 176.932 207.049L180.212 205.889C180.776 205.647 181.236 205.212 181.51 204.663C181.785 204.114 181.856 203.486 181.712 202.889L181.092 199.519C181.009 198.818 180.655 198.178 180.105 197.735C179.555 197.292 178.854 197.082 178.152 197.149L175.152 197.679C174.281 197.839 173.461 198.206 172.762 198.749L168.262 202.299Z" fill="#E4897B"/>
<path d="M166.843 201.259L170.223 200.789C170.125 203.866 170.663 206.93 171.803 209.789L169.603 214.189C169.603 214.189 164.063 206.759 166.843 201.259Z" fill="#F1C691"/>
<path opacity="0.5" d="M166.843 201.259L170.223 200.789C170.125 203.866 170.663 206.93 171.803 209.789L169.603 214.189C169.603 214.189 164.063 206.759 166.843 201.259Z" fill="white"/>
<path d="M182.662 160.119L179.432 159.619C179.4 159.615 179.368 159.605 179.34 159.589C179.311 159.572 179.286 159.55 179.267 159.524C179.247 159.498 179.233 159.468 179.225 159.436C179.218 159.404 179.217 159.371 179.222 159.339C179.227 159.306 179.239 159.274 179.256 159.245C179.273 159.217 179.296 159.192 179.323 159.172C179.35 159.153 179.381 159.139 179.413 159.131C179.446 159.124 179.479 159.123 179.512 159.129L182.732 159.629C182.765 159.632 182.796 159.642 182.825 159.659C182.853 159.675 182.878 159.697 182.898 159.723C182.918 159.749 182.932 159.779 182.939 159.811C182.947 159.843 182.948 159.876 182.942 159.909C182.932 159.973 182.898 160.032 182.845 160.071C182.793 160.11 182.727 160.127 182.662 160.119Z" fill="#263238"/>
<path d="M182.941 155.587C181.941 158.907 179.531 162.017 177.221 160.007C176.768 159.54 176.449 158.958 176.3 158.324C176.15 157.691 176.175 157.028 176.371 156.407C177.051 152.967 180.271 148.857 180.271 148.857C180.271 148.857 182.531 147.737 183.341 151.317C183.55 152.752 183.413 154.216 182.941 155.587Z" fill="#263238"/>
<path opacity="0.5" d="M182.941 155.589C181.941 158.909 179.531 162.019 177.221 160.009C176.768 159.542 176.449 158.96 176.3 158.327C176.15 157.693 176.175 157.03 176.371 156.409C177.502 155.522 178.703 154.726 179.961 154.029C179.961 154.029 181.391 153.479 182.941 155.589Z" fill="white"/>
<path d="M176.003 146.218C168.883 141.608 159.793 145.538 158.673 153.118C157.553 160.698 156.963 165.868 160.923 170.118C168.793 178.468 175.213 175.648 178.743 168.608C181.863 162.228 183.163 150.898 176.003 146.218Z" fill="#E4897B"/>
<path opacity="0.2" d="M169.771 158.11C168.944 157.544 167.928 157.325 166.941 157.5C167.836 157.886 168.797 158.094 169.771 158.11Z" fill="black"/>
<path opacity="0.2" d="M169.581 158.78C169.163 158.605 168.712 158.524 168.26 158.541C167.807 158.559 167.364 158.674 166.961 158.88C167.831 159.035 168.725 159.001 169.581 158.78Z" fill="black"/>
<path d="M180.283 151.958C178.283 154.808 173.153 149.958 168.793 148.128C168.442 147.978 168.062 147.909 167.68 147.927C167.299 147.945 166.926 148.049 166.591 148.232C166.256 148.415 165.967 148.672 165.745 148.983C165.524 149.294 165.376 149.652 165.313 150.028C165.249 150.359 165.249 150.698 165.313 151.028C166.063 154.178 163.483 155.778 163.823 157.578C164.633 161.758 161.323 161.948 157.353 159.348C156.773 159.043 156.286 158.587 155.943 158.028C153.893 156.768 153.453 154.178 154.143 151.028C154.562 149.219 155.179 147.462 155.983 145.788C158.543 140.328 167.823 139.548 167.823 139.548C167.823 139.548 176.593 138.108 179.713 143.348C182.833 148.588 180.283 151.958 180.283 151.958Z" fill="#263238"/>
<path d="M171.003 158.66C170.853 159.31 171.083 159.92 171.513 160.01C171.943 160.1 172.403 159.64 172.513 159.01C172.623 158.38 172.423 157.75 171.993 157.66C171.563 157.57 171.153 158.01 171.003 158.66Z" fill="#263238"/>
<path d="M178.65 160.41C178.51 161.06 178.74 161.66 179.17 161.75C179.6 161.84 180.06 161.39 180.17 160.75C180.28 160.11 180.09 159.5 179.66 159.41C179.23 159.32 178.8 159.75 178.65 160.41Z" fill="#263238"/>
<path d="M169.142 156.337C169.074 156.329 169.009 156.305 168.952 156.267C168.87 156.204 168.816 156.111 168.801 156.008C168.786 155.906 168.812 155.801 168.872 155.717C169.226 155.202 169.699 154.78 170.251 154.486C170.803 154.191 171.417 154.034 172.042 154.027C172.094 154.029 172.145 154.04 172.192 154.062C172.239 154.083 172.281 154.114 172.315 154.153C172.35 154.191 172.377 154.236 172.393 154.285C172.41 154.334 172.416 154.386 172.412 154.437C172.41 154.489 172.397 154.539 172.375 154.585C172.353 154.631 172.322 154.673 172.284 154.707C172.246 154.742 172.201 154.768 172.153 154.785C172.105 154.803 172.053 154.81 172.002 154.807C171.507 154.823 171.023 154.955 170.588 155.193C170.154 155.431 169.782 155.769 169.502 156.177C169.463 156.234 169.408 156.279 169.345 156.308C169.281 156.336 169.211 156.346 169.142 156.337Z" fill="#263238"/>
<path d="M182.081 158.517C182.019 158.496 181.964 158.461 181.918 158.414C181.873 158.367 181.84 158.31 181.821 158.247C181.701 157.77 181.469 157.329 181.144 156.96C180.818 156.591 180.409 156.306 179.951 156.127C179.902 156.112 179.856 156.088 179.817 156.055C179.777 156.022 179.745 155.982 179.721 155.936C179.698 155.89 179.684 155.84 179.681 155.789C179.677 155.737 179.684 155.686 179.701 155.637C179.716 155.588 179.74 155.542 179.773 155.502C179.806 155.462 179.846 155.429 179.892 155.405C179.937 155.381 179.987 155.366 180.039 155.361C180.09 155.356 180.142 155.362 180.191 155.377C180.772 155.596 181.292 155.951 181.708 156.412C182.124 156.873 182.423 157.427 182.581 158.027C182.609 158.128 182.597 158.236 182.546 158.327C182.496 158.419 182.411 158.487 182.311 158.517C182.236 158.537 182.157 158.537 182.081 158.517Z" fill="#263238"/>
<path opacity="0.5" d="M163.851 157.639C164.661 161.819 161.351 162.009 157.381 159.409C156.801 159.104 156.314 158.648 155.971 158.089C153.921 156.829 153.481 154.239 154.171 151.089C157.008 151.596 159.933 151.138 162.481 149.789C162.194 150.348 161.72 150.787 161.141 151.029C161.86 151.219 162.615 151.233 163.341 151.069C164.067 150.905 164.742 150.569 165.311 150.089C165.246 150.419 165.246 150.759 165.311 151.089C166.091 154.239 163.511 155.839 163.851 157.639Z" fill="white"/>
<path d="M176.001 159.379L174.391 164.759C174.827 165.012 175.312 165.169 175.814 165.219C176.316 165.269 176.823 165.211 177.301 165.049C177.366 163.078 176.918 161.124 176.001 159.379Z" fill="#DE5753"/>
<path d="M173.91 168.76H173.79C173.65 168.76 170.49 167.6 169.44 165.51C169.395 165.422 169.386 165.321 169.416 165.227C169.446 165.133 169.512 165.055 169.6 165.01C169.687 164.965 169.789 164.956 169.883 164.986C169.977 165.016 170.055 165.082 170.1 165.17C171.02 166.99 174 168.04 174.03 168.05C174.077 168.066 174.12 168.091 174.158 168.124C174.195 168.156 174.225 168.196 174.247 168.241C174.268 168.286 174.28 168.335 174.282 168.384C174.285 168.434 174.277 168.483 174.26 168.53C174.23 168.598 174.181 168.657 174.119 168.698C174.057 168.738 173.984 168.76 173.91 168.76Z" fill="#263238"/>
<path d="M163.862 159.719C163.862 159.719 163.712 164.209 165.482 166.349C165.482 166.349 168.242 163.019 170.602 163.039C172.962 163.059 173.912 165.909 173.912 165.909L173.052 166.349C173.052 166.349 171.862 164.219 170.602 164.069C169.342 163.919 166.292 166.849 166.962 168.389C167.632 169.929 170.602 168.389 170.602 168.389L171.782 169.049C171.782 169.049 170.012 171.979 173.452 171.709C176.892 171.439 177.192 167.249 173.912 166.829L174.392 165.889C174.392 165.889 177.762 166.019 178.392 169.169C179.022 172.319 177.392 177.169 169.542 176.319C165.392 175.869 157.822 171.229 161.362 160.829L163.862 159.719Z" fill="#263238"/>
<path d="M177.3 158.957C177.241 158.956 177.185 158.935 177.14 158.897C176.899 158.688 176.612 158.541 176.302 158.466C175.992 158.391 175.669 158.391 175.36 158.467C175.328 158.477 175.295 158.481 175.262 158.478C175.229 158.475 175.197 158.466 175.168 158.45C175.138 158.434 175.113 158.412 175.093 158.385C175.072 158.359 175.058 158.329 175.05 158.297C175.031 158.234 175.037 158.167 175.067 158.109C175.097 158.051 175.148 158.007 175.21 157.987C175.6 157.891 176.007 157.89 176.398 157.982C176.789 158.074 177.153 158.257 177.46 158.517C177.484 158.539 177.503 158.566 177.516 158.596C177.529 158.626 177.536 158.659 177.536 158.692C177.536 158.724 177.529 158.757 177.516 158.787C177.503 158.817 177.484 158.844 177.46 158.867C177.42 158.916 177.363 158.948 177.3 158.957Z" fill="#263238"/>
<path d="M167.831 156.578H167.781L160.001 154.898C159.806 154.851 159.604 154.842 159.405 154.873C159.207 154.905 159.017 154.975 158.846 155.08C158.675 155.185 158.526 155.323 158.409 155.486C158.291 155.648 158.207 155.833 158.161 156.028V156.178C158.145 156.243 158.104 156.299 158.047 156.334C157.99 156.369 157.921 156.379 157.856 156.363C157.791 156.347 157.735 156.306 157.701 156.249C157.666 156.192 157.655 156.123 157.671 156.058V155.908C157.73 155.648 157.84 155.402 157.995 155.185C158.151 154.968 158.348 154.784 158.575 154.644C158.802 154.504 159.056 154.411 159.319 154.371C159.583 154.33 159.852 154.343 160.111 154.408L167.881 156.078C167.914 156.085 167.944 156.099 167.971 156.118C167.998 156.137 168.021 156.161 168.039 156.189C168.056 156.217 168.068 156.248 168.074 156.28C168.08 156.313 168.079 156.346 168.071 156.378C168.058 156.433 168.028 156.482 167.985 156.518C167.941 156.554 167.888 156.575 167.831 156.578Z" fill="#263238"/>
<path d="M180.211 163.777C180.118 163.787 180.024 163.787 179.931 163.777L178.731 163.487C178.236 163.304 177.819 162.96 177.544 162.51C177.27 162.06 177.156 161.53 177.221 161.007V158.667C177.222 158.619 177.236 158.571 177.263 158.531C177.289 158.49 177.327 158.458 177.371 158.437C178.305 158.095 179.325 158.06 180.281 158.337C181.28 158.485 182.191 158.993 182.841 159.767C182.858 159.803 182.866 159.842 182.866 159.882C182.866 159.922 182.858 159.961 182.841 159.997L181.731 162.557C181.616 162.882 181.413 163.168 181.144 163.384C180.876 163.599 180.552 163.735 180.211 163.777ZM177.751 158.777V160.957C177.751 161.957 178.191 162.777 178.881 162.957L180.071 163.247C180.531 163.357 181.071 162.967 181.351 162.317L182.401 159.897C181.799 159.321 181.041 158.935 180.221 158.787C179.411 158.57 178.557 158.576 177.751 158.807V158.777Z" fill="#263238"/>
<path d="M171.603 161.668C171.371 161.666 171.14 161.639 170.913 161.588L169.223 161.178C168.771 161.071 168.367 160.817 168.075 160.455C167.783 160.092 167.621 159.643 167.613 159.178V156.348C167.612 156.297 167.627 156.246 167.655 156.203C167.684 156.16 167.725 156.127 167.773 156.108C167.773 156.108 169.053 155.628 171.773 156.278C173.083 156.526 174.315 157.085 175.363 157.908C175.4 157.951 175.42 158.006 175.42 158.063C175.42 158.12 175.4 158.175 175.363 158.218L174.123 160.278C173.859 160.708 173.488 161.062 173.047 161.305C172.605 161.549 172.108 161.674 171.603 161.668ZM168.083 156.518V159.148C168.083 159.507 168.205 159.856 168.428 160.138C168.651 160.419 168.963 160.617 169.313 160.698L171.003 161.098C171.503 161.221 172.029 161.18 172.504 160.982C172.979 160.784 173.378 160.439 173.643 159.998L174.773 158.128C173.807 157.456 172.715 156.983 171.563 156.738C170.434 156.41 169.245 156.335 168.083 156.518Z" fill="#263238"/>
<path d="M154.513 158.727C154.758 159.585 155.171 160.386 155.727 161.085C156.283 161.783 156.971 162.365 157.753 162.797C159.853 163.937 161.453 162.187 161.333 159.927C161.213 157.927 159.983 154.847 157.653 154.637C157.143 154.6 156.632 154.691 156.167 154.901C155.701 155.11 155.294 155.432 154.983 155.837C154.672 156.242 154.466 156.718 154.384 157.223C154.302 157.727 154.346 158.244 154.513 158.727Z" fill="#E4897B"/>
<path d="M150.502 232.68H111.142C107.253 232.68 104.102 235.832 104.102 239.72V305.38C104.102 309.268 107.253 312.42 111.142 312.42H150.502C154.39 312.42 157.542 309.268 157.542 305.38V239.72C157.542 235.832 154.39 232.68 150.502 232.68Z" fill="#F1C691"/>
<path opacity="0.6" d="M150.502 232.68H111.142C107.253 232.68 104.102 235.832 104.102 239.72V305.38C104.102 309.268 107.253 312.42 111.142 312.42H150.502C154.39 312.42 157.542 309.268 157.542 305.38V239.72C157.542 235.832 154.39 232.68 150.502 232.68Z" fill="white"/>
<path opacity="0.2" d="M146.582 312.42H110.892C109.091 312.42 107.364 311.704 106.09 310.431C104.817 309.158 104.102 307.431 104.102 305.63V239.46C104.102 238.568 104.277 237.686 104.619 236.863C104.96 236.04 105.46 235.292 106.091 234.662C106.722 234.032 107.47 233.533 108.294 233.193C109.118 232.853 110 232.678 110.892 232.68H146.582C144.783 232.68 143.059 233.394 141.787 234.666C140.516 235.937 139.802 237.662 139.802 239.46V305.63C139.802 307.429 140.516 309.154 141.787 310.427C143.058 311.7 144.782 312.417 146.582 312.42Z" fill="black"/>
</g>
<defs>
<filter id="filter0_d_1052_22" x="-4" y="0" width="508" height="346" filterUnits="userSpaceOnUse" color-interpolation-filters="sRGB">
<feFlood flood-opacity="0" result="BackgroundImageFix"/>
<feColorMatrix in="SourceAlpha" type="matrix" values="0 0 0 0 0 0 0 0 0 0 0 0 0 0 0 0 0 0 127 0" result="hardAlpha"/>
<feOffset dy="4"/>
<feGaussianBlur stdDeviation="2"/>
<feComposite in2="hardAlpha" operator="out"/>
<feColorMatrix type="matrix" values="0 0 0 0 0 0 0 0 0 0 0 0 0 0 0 0 0 0 0.25 0"/>
<feBlend mode="normal" in2="BackgroundImageFix" result="effect1_dropShadow_1052_22"/>
<feBlend mode="normal" in="SourceGraphic" in2="effect1_dropShadow_1052_22" result="shape"/>
</filter>
</defs>
</svg>
