<?xml version="1.0" encoding="UTF-8"?> <svg xmlns="http://www.w3.org/2000/svg" xmlns:xlink="http://www.w3.org/1999/xlink" id="Capa_1" data-name="Capa 1" viewBox="0 0 1600 400"><defs><style>.cls-1{fill:none;}.cls-2{clip-path:url(#clip-path);}.cls-3{fill:#f2efea;}.cls-4{opacity:0.75;}.cls-5{fill:#e2ddc8;}</style><clipPath id="clip-path"><rect class="cls-1" width="1600" height="400"></rect></clipPath></defs><title>Mesa de trabajo 16</title><g class="cls-2"><rect class="cls-3" width="1619.25" height="400"></rect><g class="cls-4"><path class="cls-5" d="M1033.9-15.38c-.11,2.54-.18,5.07-.54,7.59-.14,1,.51,1.35,1.48.89,2.3-1.1,4.59-2.23,6.88-3.34,7-3.38,14-6.68,21.21-9.66a30.62,30.62,0,0,1,4.06-1.52c2-.52,3.36.83,2.73,2.7a20.06,20.06,0,0,1-1.37,2.89,432.7,432.7,0,0,1-25.7,42.39c-.61.89-1.87,1.61-1.38,3,1.19.29,2.15-.38,3.17-.73a157.55,157.55,0,0,1,31.63-7.29,153.85,153.85,0,0,1,28.21-.94,98.61,98.61,0,0,1,26.62,5.09c3.92,1.33,7.52,3.3,11.37,4.78a2.9,2.9,0,0,1,1.76,3.16c-.13,2.64-.4,5.27-.63,7.9a7.81,7.81,0,0,0-.25,1.55,44.8,44.8,0,0,1-.61,11,3.11,3.11,0,0,0,2,3.64,3.67,3.67,0,0,1,.6.28c1.68,1.07,1.86,2.3.32,3.63-2.23,1.93-4.59,3.73-6.86,5.61-6.92,5.72-13.89,11.38-20.71,17.19-11.07,9.43-22,19-33.06,28.44-8.52,7.2-17.25,14.18-25.85,21.29a4.24,4.24,0,0,1-4,1c-2.94-.69-5.92-1.2-8.87-1.84q-19.83-4.35-39.65-8.75-36-8-72-16-22.44-5-44.89-9.91Q869.71,94.27,849.87,90a25.37,25.37,0,0,1-3.25-.83,2.08,2.08,0,0,1-.86-3.59,6.17,6.17,0,0,1,1-.8,11.36,11.36,0,0,0,4.29-5.56c2.48-6.24,2.93-12.55.55-18.92-.12-.3-.26-.59-.35-.89a2.07,2.07,0,0,1,1.1-2.71c1.84-1,3.73-1.94,5.6-2.91,4.42-2.3,8.88-4.53,13.25-6.91,4-2.18,3.59-2.17,1-5-3.9-4.22-7.86-8.4-11.79-12.61A17.23,17.23,0,0,1,859,27.58a1.93,1.93,0,0,1,.43-2.84,13.31,13.31,0,0,1,1.91-1.29C875.07,15.23,889,7.37,903.31,0Q920-8.62,937.1-16.45q19.68-9,39.93-16.86c.72-.28,1.45-.57,2.19-.81,2-.62,2.87-.38,3.9,1.39s1.94,3.8,2.89,5.72c1.21,2.45,1.34,2.52,4.06,1.49,3.53-1.35,7-2.77,10.59-4.08s4.42-.9,5.64,2.61a74.83,74.83,0,0,1,2.62,10.49c.2,1,.37,2.08.62,3.11.18.77.72,1,1.53.66,4.08-1.76,8-3.81,11.89-5.93,2-1.12,4-2.3,6-3.45a14.05,14.05,0,0,1,1.76-.92,2,2,0,0,1,2.89,1.33,14.11,14.11,0,0,1,.23,2.83C1033.93-17.7,1033.9-16.54,1033.9-15.38Zm47.63,105.12c1.47-.68,2.27-1.45,1.67-1.36-.81.13-1.22.79-1.65,1.38-1.48.68-2.28,1.46-1.68,1.37C1080.68,91,1081.1,90.34,1081.53,89.74Zm6.06-4.44c1.48-.69,2.25-1.43,1.67-1.35-.8.13-1.22.78-1.64,1.37-1.48.69-2.27,1.45-1.68,1.36C1086.74,86.55,1087.16,85.89,1087.59,85.3Zm-2-1.91c.68-.32,1.62-.34,1.65-1.36a3.25,3.25,0,0,0-1.62,1.39c-.68.31-1.62.34-1.66,1.35A3.35,3.35,0,0,0,1085.57,83.39Zm6.06-4.44c1.49-.7,2.25-1.43,1.67-1.34-.8.12-1.21.78-1.64,1.37-1.49.69-2.25,1.43-1.67,1.34C1090.78,80.19,1091.2,79.53,1091.63,79Zm-6.72-2.51a4.54,4.54,0,0,0-2.69,1.9,4.63,4.63,0,0,0-2.71,1.89,17.73,17.73,0,0,0-2,1.06q-8.34,5.82-16.65,11.67c-.51.36-1.16.67-1.17,1.42,0,.47.89.26,1.93-.5Q1069.65,88,1077.67,82a18.38,18.38,0,0,0,1.85-1.79,4.55,4.55,0,0,0,2.69-1.92,4.64,4.64,0,0,0,2.68-1.91c1.49-.7,2.25-1.43,1.67-1.33C1085.76,75.2,1085.34,75.85,1084.91,76.44Zm8.76,4.44c-1.49.71-2.23,1.44-1.66,1.35.79-.13,1.21-.79,1.63-1.38,1.5-.69,2.25-1.41,1.68-1.32C1094.53,79.65,1094.11,80.3,1093.67,80.88Zm4-6.37a4.7,4.7,0,0,0,2.69-1.9,6.53,6.53,0,0,0,3.37-2.54,4.38,4.38,0,0,0,2.7-1.9,35.21,35.21,0,0,0,8.77-6.32,6.67,6.67,0,0,0,2.3-1.25l19.57-13.81a11.15,11.15,0,0,0,1-.83.34.34,0,0,0,.09-.29.32.32,0,0,0-.5-.22,15.41,15.41,0,0,0-1.41.84q-9.46,6.76-18.93,13.55a23.45,23.45,0,0,0-2.14,2,34.89,34.89,0,0,0-8.73,6.36,4.69,4.69,0,0,0-2.7,1.91,6.54,6.54,0,0,0-3.36,2.54,4.47,4.47,0,0,0-2.69,1.9c-1.48.7-2.26,1.45-1.67,1.36A2.67,2.67,0,0,0,1097.7,74.51ZM1075.48,94.2a6.39,6.39,0,0,0-3.37,2.54,16.91,16.91,0,0,0-6.07,4.43,13.92,13.92,0,0,0-5.71,4.55c1.89-1.54,4.22-2.54,5.72-4.54a17.88,17.88,0,0,0,6-4.45,6.62,6.62,0,0,0,3.37-2.54c1.46-.67,2.28-1.45,1.68-1.37C1076.33,92.94,1075.91,93.6,1075.48,94.2ZM1130,44.05c3.19-1.55,5.83-3.83,8.74-5.76a.42.42,0,0,0,.2-.24c0-.19.13-.44,0-.57a.62.62,0,0,0-.56-.09c-1.5,1.09-3,2.18-4.46,3.31s-3,1.89-3.93,3.37c-1.48.66-2.27,1.4-1.69,1.32C1129.16,45.28,1129.59,44.62,1130,44.05ZM1086.91,105a14.9,14.9,0,0,0-2,1.14c-1.81,1.41-3.59,2.87-5.35,4.33-5.62,4.68-11.16,9.45-17.13,13.74a25.39,25.39,0,0,0-2.07,1.61,3.85,3.85,0,0,0-.78,1,.52.52,0,0,0,.61.75,9.47,9.47,0,0,0,1.33-1q10.13-8.31,20.22-16.67A31.9,31.9,0,0,0,1087,105a6,6,0,0,0,3-2.55A7,7,0,0,0,1086.91,105Zm49.9-72.08a9.11,9.11,0,0,0-.91-.59c-1.31-.6-2.6-1.23-4-1.76a92.25,92.25,0,0,0-29.13-5.89A141.06,141.06,0,0,0,1076,25.72a155,155,0,0,0-28.41,6.42,54.56,54.56,0,0,0-15.81,8.19C1016.41,52,1000.81,63.44,985.32,75Q971.19,85.49,957.1,96.06c-.5.38-1.19.63-1.25,1.39.54.47,1,.06,1.53-.09,2.89-.85,5.75-1.78,8.66-2.57a205,205,0,0,1,37-6.56c7.15-.59,14.3-1.09,21.48-1,2.35,0,4.7.37,7,.4a158.36,158.36,0,0,1,22.72,2.23,6.18,6.18,0,0,0,5.54-1.32,9.08,9.08,0,0,1,.81-.57c15.17-10.72,30.38-21.38,45.5-32.16,9.2-6.58,18.27-13.33,27.38-20A13.74,13.74,0,0,0,1136.81,32.88ZM939.43,88.55c0,3.21,0,7.12,0,11,0,.8-.31,1.86.77,2.22.92.31,1.69-.36,2.37-.91A12.14,12.14,0,0,0,944,99.56c1.27-1.34,2.52-2.7,3.77-4a164.56,164.56,0,0,0,23.07-32.27,158.44,158.44,0,0,0,15.48-39.77,8.14,8.14,0,0,1,4-5.47c10.14-6.06,20.33-12,30.75-17.65L1027-2.8a2.94,2.94,0,0,0,1.83-2.47c.19-3.37.43-6.75.64-10.12a4.44,4.44,0,0,0,0-.63.81.81,0,0,0-1.23-.62,10.07,10.07,0,0,0-1.19.58c-10.1,5.8-20.91,10.19-31.84,14.34-10.41,3.94-21,7.48-31.3,11.64a229.07,229.07,0,0,0-28.49,13.61c-.76.44-1.51.91-2.25,1.39a1.83,1.83,0,0,0-.81,1.95c.12.63.29,1.24.44,1.86a267.52,267.52,0,0,1,6,38.54A156.72,156.72,0,0,1,939.43,88.55Zm-4.85,12.67c.19-2.66.49-5.26.53-7.87.09-5.18-.07-10.35-.34-15.53-.33-6.23-.75-12.44-1.42-18.65a257.78,257.78,0,0,0-5.41-31.27c-1-4.13-.88-4.32,3-6.65A205.81,205.81,0,0,1,963,5.83c9.75-3.77,19.62-7.29,29.42-10.95,3.76-1.41,7.47-2.91,11.2-4.37a2.11,2.11,0,0,0,1.53-2.5,84.38,84.38,0,0,0-2.21-10.89c-.76-2.61-1-2.77-3.72-1.71-5.09,2-10.15,4-15.18,6.08q-33.78,14-66.26,30.42c-6.32,3.21-12.58,6.54-18.57,10.29-.74.46-1.51.92-2.21,1.44-1.08.8-1.22,1.34-.71,2.47a18.42,18.42,0,0,0,.92,1.69c1.79,3.06,3.61,6.1,5.38,9.16Q911.9,53.11,920,69.87q7.13,14.72,13.35,29.79C933.57,100.21,933.6,100.93,934.58,101.22Zm25.91-13.4c.65.09,1-.38,1.41-.69,4-3,7.89-5.93,11.86-8.88Q1000.85,58.12,1028,38a19.55,19.55,0,0,0,4.33-4.38c4.67-6.6,9.33-13.2,13.67-20q7.83-12.23,14.93-24.83c.47-.84.86-1.71,1.25-2.59.16-.36-.38-.88-.79-.74-1.15.41-2.32.8-3.42,1.3-7.57,3.47-15.1,7-22.5,10.79-14.31,7.31-28.24,15.22-41.93,23.51a5.92,5.92,0,0,0-2.94,4,157,157,0,0,1-8,24.19,172.91,172.91,0,0,1-21.35,36.95C960.82,86.67,960.18,87.08,960.49,87.82ZM978.7-29.43c-.55.2-1.39.49-2.21.81Q945.21-16.36,915.32-1.39q-22,11-43.22,23.35c-2.1,1.22-4.21,2.44-6.27,3.72-1.52.94-1.54,1.39-.33,2.77.14.16.3.31.45.47,4.73,5.09,9.48,10.16,14.18,15.28q13.44,14.64,25.91,30c7,8.63,14,17.34,20.65,26.25.62.82,1,1.91,2.34,2.07,1-1.1-.12-2-.48-2.83q-6-14.65-13-28.9C909.23,58,902.47,45.3,895.11,32.94c-1.43-2.4-2.91-4.77-4.26-7.21-.9-1.62-.69-2.45.76-3.62a33,33,0,0,1,3-2.05A332.22,332.22,0,0,1,925.52,3.29c17.62-8.65,35.57-16.68,53.69-24.37,3.76-1.59,4.33-.93,2.13-5.52a24.54,24.54,0,0,0-1.23-2.25A1.31,1.31,0,0,0,978.7-29.43ZM904.54,79.42a8.85,8.85,0,0,0-.68-1.07c-5.22-6.21-10.41-12.44-15.67-18.62-2.88-3.38-5.84-6.69-8.79-10-1.53-1.71-1.78-1.78-3.61-.65-4.41,2.74-9.08,5-13.73,7.37-.59.29-1.17.63-1.73,1a.56.56,0,0,0,.11,1c.51.2,1,.38,1.57.54a121.4,121.4,0,0,1,16.78,6.52A191.67,191.67,0,0,1,901,78c.93.59,1.89,1.14,2.85,1.67C904,79.71,904.22,79.53,904.54,79.42Zm62.66,27.77c4.55.47,9.11.93,13.66,1.42,6.45.69,12.91,1.35,19.35,2.14q11.16,1.38,22.29,3c7.75,1.12,15.48,2.37,23.21,3.59,2.32.37,4.62.84,6.93,1.26a1.47,1.47,0,0,0,1.52-.43,2.66,2.66,0,0,0-1.48-4.06c-.87-.21-1.75-.39-2.64-.52-13.71-2.08-27.42-4.18-41.26-5.38-7.37-.64-14.73-1.23-22.14-1.28a23.49,23.49,0,0,1-3.36-.1C977.9,106,972.57,107.15,967.2,107.19Zm-6.66,2c2.66.3,5.34.54,8,.92q12,1.73,23.89,3.54c11.94,1.83,23.79,4.13,35.57,6.74q11.94,2.64,23.81,5.55c2.45.6,2.82-.39,2.81-2.15,0-.32,0-.64,0-1a1.92,1.92,0,0,0-1.5-1.88c-.54-.14-1.07-.33-1.62-.44-7.89-1.54-15.84-2.83-23.82-4q-10.62-1.48-21.27-2.9-8.82-1.14-17.66-2.13c-5.45-.62-10.89-1.27-16.36-1.7C968.44,109.52,964.56,108.87,960.54,109.19Zm20.18-9.84c1.82.57,3.55,0,5.33-.14,6.26-.4,12.51-1,18.76-1.1,6.49-.08,13,.31,19.46.63,3.8.19,7.58.64,11.37,1,4.23.38,8.46.79,12.69,1.13,1.56.13,3.13.14,4.7.13a1.3,1.3,0,0,0,1.35-1.17,1.26,1.26,0,0,0-.94-1.49,22.6,22.6,0,0,0-2.93-.67,166,166,0,0,0-25.4-2c-4.48,0-9-.1-13.43.2-6.36.43-12.71,1.1-19,1.81C988.65,98.06,984.69,98.76,980.72,99.35ZM961,100.86a7.88,7.88,0,0,0,3-.51,350.23,350.23,0,0,1,37.47-5.8c5.69-.51,11.38-1.1,17.1-1.1s11.65-.06,17.48.46c5.25.47,10.47,1,15.67,1.79.45.07.89.13,1.34.16.83,0,1.48-.38,1.48-1s-.55-.85-1.08-1a1.75,1.75,0,0,0-.33-.06,149.06,149.06,0,0,0-17.36-1.89c-12.89-.52-25.77-.54-38.62,1a225,225,0,0,0-34.78,7.18C961.84,100.28,961.26,100.3,961,100.86Zm18.54,13.32a48.21,48.21,0,0,0,7.39,1.79q29.94,6.66,59.89,13.25c2.18.48,4.38.89,6.58,1.29a1.1,1.1,0,0,0,.81-.42A.78.78,0,0,0,1054,129a7.71,7.71,0,0,0-3.12-1.09c-22.44-5.59-45.1-10.19-68-13.66A8,8,0,0,0,979.52,114.18Zm6.14-9.59c4.75.29,9.56.34,14.37.73,6.82.56,13.62,1.18,20.4,2,10,1.15,20,2.66,29.92,4.25a17.06,17.06,0,0,0,2.67.21,1.39,1.39,0,0,0,1.42-1.12c.53-2.07-.34-3.24-2.61-3.48-.55-.06-1.12,0-1.68-.09-3.91-.25-7.85-.34-11.73-.81-5.13-.61-10.3-.52-15.44-.94-5.58-.46-11.2-.38-16.8-.63C999.35,104.36,992.5,104.59,985.66,104.59Zm-67.74-8a5.39,5.39,0,0,0-3-2.77Q909.47,91,904,88.18c-8.27-4.24-16.56-8.46-25.23-12A126.69,126.69,0,0,0,862,70.5a27,27,0,0,0-3-.6,1.24,1.24,0,0,0-1.31.8,1.61,1.61,0,0,0,1.08,2.5,8.26,8.26,0,0,0,1.29.37c10.32,2,19.91,5.77,29.34,10,8.3,3.74,16.54,7.58,24.81,11.37C915.27,95.42,916.29,95.86,917.92,96.59Zm60.81,5.56a14.22,14.22,0,0,0,1.48.24c11.44-.07,22.86,0,34.3.44,6.49.26,13,.87,19.47.86.23,0,.45,0,.67,0l17.43,1.22a9.32,9.32,0,0,0,1.67,0,.61.61,0,0,0,.49-.71.78.78,0,0,0-.3-.53,2.12,2.12,0,0,0-.9-.35c-2.57-.26-5.13-.5-7.7-.71-3.57-.29-7.15-.5-10.71-.83-5.91-.54-11.82-1-17.77-1.18-2.91-.07-5.81-.29-8.73-.41-1.23,0-2.46,0-3.69,0-2.13.09-4.25.32-6.38.35C991.79,100.66,985.58,101.43,978.73,102.15Zm159.41-60.33c-.14,0-.28-.08-.34,0-1.65,1.08-3.34,2.13-4.94,3.28q-21.31,15.24-42.58,30.51c-9.44,6.81-18.8,13.72-28.19,20.59a7.47,7.47,0,0,0-2.39,2.18.46.46,0,0,0,.62.65c1-.67,2-1.36,3-2.08q25.59-18.82,51.19-37.64c7.35-5.38,14.83-10.61,22.24-15.92C1137.28,42.94,1138.13,42.72,1138.14,41.82Zm-235,50.66c-.18-.61-.8-.68-1.26-.89-6.06-2.74-12.09-5.53-18.18-8.18a122.79,122.79,0,0,0-20.82-7.09c-1.52-.36-3.06-.61-4.6-.85a1.18,1.18,0,0,0-1.32.77,1,1,0,0,0,.64,1.28c.72.28,1.46.54,2.2.76,2.35.71,4.71,1.38,7,2.1q17.4,5.4,34.44,11.69C901.91,92.28,902.45,92.8,903.19,92.48Zm.87,3c-.89-.35-1.69-.68-2.5-1-8.43-3.22-17-6.14-25.55-9-5.09-1.66-10.22-3.22-15.34-4.79a25.87,25.87,0,0,0-3.58-.85A1.92,1.92,0,0,0,855,81.59c-.15.69.3,1.2,1.37,1.52.42.12.87.19,1.31.29q22.72,5.23,44.93,12.2C903.05,95.72,903.46,96,904.06,95.46ZM900,80.54c.06-.78-.43-.91-.76-1.12a176.12,176.12,0,0,0-27.77-14.86,101.77,101.77,0,0,0-11.37-3.94,14.77,14.77,0,0,0-1.62-.41c-.55-.09-1.13-.08-1.44.5s.09,1.13.9,1.48c.61.27,1.24.48,1.87.7,6.09,2.17,12.06,4.61,18,7.17,6.64,2.87,13.11,6,19.54,9.27C898.14,79.76,899,80.12,900,80.54Zm-9.25,14.08.09-.31a7.27,7.27,0,0,0-.91-.38c-7.84-2.12-15.68-4.26-23.54-6.32-3.55-.93-7.15-1.71-10.74-2.53a3.18,3.18,0,0,0-2.58.11.77.77,0,0,0-.35.5c0,.17.1.48.24.53a22.35,22.35,0,0,0,2.53.77c6.75,1.47,13.51,2.91,20.26,4.37Zm1.67-14.8.27-.46c-3.18-1.52-6.35-3.07-9.54-4.57-6.82-3.21-13.81-6.08-20.87-8.77-1.14-.44-2.32-.79-3.5-1.12a1.3,1.3,0,0,0-.92.19.87.87,0,0,0-.21,1.15,2.14,2.14,0,0,0,.79,1,11,11,0,0,0,2.2.75A136.44,136.44,0,0,1,881.47,75C885.12,76.6,888.76,78.22,892.4,79.82Zm188.19,26.47c-.36-.15-.61.09-.85.27q-8.91,6.76-17.82,13.53c-.7.53-1.34,1.12-2,1.71a.75.75,0,0,0-.21.57c0,.16.22.41.36.42.62.08,1-.36,1.45-.67,6.51-4.71,12.45-10,18.64-15.08C1080.41,106.85,1080.7,106.66,1080.59,106.29ZM899.82,83.61l.25-.48L897.42,82s-.07.15-.17.34ZM1063,112.77c-.49.82-1.58.73-1.24,2.07C1062.14,114.08,1063.17,114.11,1063,112.77Zm-107-4.19,0-.13h-1.64v.13Zm18.45-5.72.6-.07a1.82,1.82,0,0,0-.54-.15,3.21,3.21,0,0,0-.66.17Zm109.7,1c-.12-.11-.23-.23-.25-.21a2.69,2.69,0,0,0-.79.54c-.16.23,0,.43.29.29A4.74,4.74,0,0,0,1084.14,103.81Zm-17.6,7.12c0-.1,0-.25,0-.27-.5-.19-.7.22-1,.47,0,.05,0,.24,0,.25C1066.08,111.58,1066.26,111.15,1066.54,110.93Zm34.39-35c.2-.2.51-.39.62-.66s-.17-.3-.43-.12-.59.32-.52.69C1100.6,75.87,1100.78,75.88,1100.93,75.92Z"></path><path class="cls-5" d="M1105-1.51c-.09.18-.13.44-.27.51a13.81,13.81,0,0,1-1.54.63c-1,.38-2.1.73-3.14,1.11a11.18,11.18,0,0,0-6.83,6.59c-.53,1.28-1,2.58-1.49,3.86a.66.66,0,0,1-.75.49,1.15,1.15,0,0,1-.72-.54c-.46-1.07-.85-2.17-1.25-3.27a11.93,11.93,0,0,0-8-7.54c-1.06-.34-2.11-.7-3.17-1.06-.41-.13-.91-.27-.81-.8s.54-.63,1-.77c1.27-.42,2.54-.83,3.8-1.27a11.07,11.07,0,0,0,6.62-5.95c.68-1.44,1.24-2.94,1.87-4.4a.69.69,0,0,1,.76-.5,1.17,1.17,0,0,1,.74.5c.35.77.63,1.58.91,2.38a12.57,12.57,0,0,0,8.8,8.45c1.07.31,2.11.7,3.15,1.09C1104.79-1.94,1104.87-1.68,1105-1.51Z"></path><path class="cls-5" d="M847,26.79a19.33,19.33,0,0,1,1.5-6.91,5.07,5.07,0,0,1,.65-1.09,1.25,1.25,0,0,1,1.42-.56,1,1,0,0,1,.73,1.26,15.05,15.05,0,0,1-.65,2.11,14.15,14.15,0,0,0-.8,3.69,14.84,14.84,0,0,0,2.67,9.88,10.21,10.21,0,0,1,1.08,1.93c.1.22-.09.61-.26.84a.94.94,0,0,1-1.2.23,6,6,0,0,1-2.44-2.52A19.16,19.16,0,0,1,847,26.79Z"></path><path class="cls-5" d="M1113.48,6.26c-.06.19,0,.46-.19.55-.43.32-.92.55-1.37.84-.71.46-.5,1.82-1.66,1.72-1-.09-1-1.3-1.72-1.78-.58-.38-1.65-.43-1.4-1.45.16-.67,1-.75,1.5-1.12a8.67,8.67,0,0,0,.71-.65c1.05-.87,1.14-.93,2,.06a10.25,10.25,0,0,0,1.79,1.33A2.7,2.7,0,0,1,1113.48,6.26Z"></path></g><g class="cls-4"><path class="cls-5" d="M1444.67,180.06a29,29,0,0,1-3.41-7.9,21.74,21.74,0,0,1,1-13.72,15.62,15.62,0,0,1,5.18-6.49c3-2.23,5.67-4.79,8.48-7.22l24.75-21.48,1.73-1.5a2.74,2.74,0,0,0,1-2.26,22.59,22.59,0,0,1,0-2.85,13.3,13.3,0,0,1,5-9.66c5.34-4.35,10.41-9,15.61-13.5q15.36-13.32,31.32-26c3.91-3.11,4.05-3.09,9.16-2.42,8,1,16.09,1.52,24.16,1.82,13.45.5,26.91.85,40.37,1.29,2.13.06,4.26.22,6.39.33a3.59,3.59,0,0,1,3.29,2.33,1.73,1.73,0,0,1-.18,2.09c-2.6,2.35-2,5.23-1.5,8,1,5.13,4,9.11,8.38,12.22a16.23,16.23,0,0,0,2.33,1.26,2.15,2.15,0,0,0,2.23,0,3.84,3.84,0,0,1,.89-.43c1.82-.51,3.3.57,2.86,2.29A3.25,3.25,0,0,0,1634,99a1.86,1.86,0,0,1-.27,2.1,7.33,7.33,0,0,1-1.51,1.68,5.4,5.4,0,0,0-2,4.49,27.38,27.38,0,0,0,5.71,17.88,29.94,29.94,0,0,0,11.38,9.18c1.35.63,2.51.77,3.66-.29a4.21,4.21,0,0,1,1.15-.66,2,2,0,0,1,2.43.48,1.79,1.79,0,0,1,0,2.35,9.4,9.4,0,0,1-1.37,1.38c-11.41,9.71-22.2,20-33.2,30.14-9.72,8.92-19.36,17.93-29.68,26.26-2.89,2.34-5.91,4.55-8.77,6.91a6.86,6.86,0,0,1-4.62,1.53c-6.62,0-13.23-.35-19.84-.76-17.58-1.08-35.13-2.52-52.67-4.16-13.84-1.29-27.69-2.63-41.53-3.94a15.12,15.12,0,0,0-2.68-.15,9.92,9.92,0,0,1-8.31-3.44,38.73,38.73,0,0,1-6.28-8.21ZM1612,110.22a23.66,23.66,0,0,0-4.41,3.42q-10.38,9.26-20.71,18.58a6.82,6.82,0,0,0-2,2.11,2.22,2.22,0,0,0,1.49-.79c7.09-5.69,13.76-11.81,20.36-18a35.68,35.68,0,0,0,5.26-5.31,7.33,7.33,0,0,0,2.83-2.59A8,8,0,0,0,1612,110.22Zm-31.53,33.39c-.2-.1-.39-.28-.57-.28-5.06,0-10.1-.26-15.14-.54a6.45,6.45,0,0,0-2.66.22,6.73,6.73,0,0,1-4.62-.06c-2.8-.94-5.72-1-8.61-1.31a6.19,6.19,0,0,0-4.71,1.17,6.77,6.77,0,0,1-7.28.55,22.17,22.17,0,0,1-3.06-1.93c-.64-.43-1.17-1.06-2-1.14-3.22-.33-6.45-1-9.7-.56a14.88,14.88,0,0,1-7.25-.67,10.61,10.61,0,0,0-7.86-.14,7.24,7.24,0,0,1-3,.47c-3.77-.14-3.07-.07-6.17,2.44-.25.21-.51.42-.74.64a5.37,5.37,0,0,1-4.62,1.35c-5.24-.56-10.5-1-15.74-1.52-1.08-.11-2.5.1-3-1.07-.54-1.34.81-2.06,1.68-2.82,2.62-2.31,5.31-4.55,8-6.84.83-.71,1.62-1.47,2.4-2.22a1.48,1.48,0,0,0,.33-1.75c-.76-1.87-1.54-2.07-3.2-.77-.43.34-.83.71-1.24,1.07l-26.51,23a1.66,1.66,0,0,0-.82,1.46c1.08,0,2.17.09,3.27.11q8.91.17,17.83.33a17.75,17.75,0,0,1,3,.3,1.93,1.93,0,0,1,1.72,2,1.89,1.89,0,0,1-2,1.79c-1,.07-2,0-3,0l-22.89-.35c-.9,0-1.8,0-2.7.06a2.64,2.64,0,0,0-2.2,1.27,18.19,18.19,0,0,0-1.21,2.26,16.4,16.4,0,0,0-.64,10.9,31.51,31.51,0,0,0,4.74,10.11A39.65,39.65,0,0,0,1455,187c1.37,1.33,2.86,2.35,5,2.14a12.39,12.39,0,0,1,2.34.16c19.77,1.86,39.53,3.78,59.31,5.56,12.95,1.16,25.93,2.14,38.93,2.82.88,0,1.78.35,2.61-.15,0-.12.1-.26.06-.32a5.43,5.43,0,0,0-.75-1,30,30,0,0,1-7.43-11.22c-2.61-6.32-3.45-12.71.58-18.9,0-.08,0-.21,0-.31-.3-.41-.77-.37-1.2-.39-1.46,0-2.92-.06-4.38-.14a16.94,16.94,0,0,1-2.66-.31,1.85,1.85,0,0,1-1.54-1.84,2,2,0,0,1,1.87-1.91,16.69,16.69,0,0,1,2.35-.07c2.69,0,5.39,0,8.07.18a6.77,6.77,0,0,0,5.42-1.93c5.28-4.89,10.69-9.65,16-14.47C1580,144.52,1580.47,144.19,1580.51,143.61ZM1502,100.86a5.75,5.75,0,0,0,2.67.24c.89.08,1.79.09,2.68.18a7.39,7.39,0,0,1,2.89.77,1.84,1.84,0,0,1,1,2.15,2,2,0,0,1-2,1.45,18.29,18.29,0,0,1-2.33-.28,12.76,12.76,0,0,0-6.59.79c-.3.12-.6.34-.52.69s.47.41.8.42c1,0,2,0,3,.07a54.09,54.09,0,0,1,6.38.33c1.63.25,2.82.09,3.77-1.22a5.44,5.44,0,0,1,1-.86c3.57-3,7.66-3.18,12-1.94a4.53,4.53,0,0,1,1.18.6,1.85,1.85,0,0,1,.8,2.22,2,2,0,0,1-2.12,1.23c-.89-.09-1.75-.36-2.64-.49a7.56,7.56,0,0,0-7.26,2.34,13.8,13.8,0,0,0-2.37,3.44,24.53,24.53,0,0,0-1.83,14.9,15.32,15.32,0,0,0,2.07,5,3.5,3.5,0,0,0,2.92,1.86c.89.06,1.78.19,2.68.27,2.57.23,5.13.47,7.71.65,1,.07,1.41-.45,1.24-1.41-.09-.52-.26-1-.38-1.54a31.36,31.36,0,0,1-.39-13.53,23.5,23.5,0,0,1,3.4-8.9,12.44,12.44,0,0,1,6.3-5A9.27,9.27,0,0,1,1544,105a1.77,1.77,0,0,1,1.35,1.65,1.86,1.86,0,0,1-1.43,1.92,15.08,15.08,0,0,1-2.33.23,7.18,7.18,0,0,0-5.19,2.59,13.24,13.24,0,0,0-2.43,4.14,27.43,27.43,0,0,0-1,15.63,27.9,27.9,0,0,0,1.2,3.62,2.21,2.21,0,0,0,1.92,1.59c3.68.34,7.37.65,11.05.93a.75.75,0,0,0,.78-1.08c-.47-1.19-1.08-2.33-1.46-3.54a28.4,28.4,0,0,1,0-16.9,16.83,16.83,0,0,1,6.3-8.8c5.56-4.14,14.46-1.9,16,4.13.08.3.21.6.9.64,13.87-12.67,27.87-25.45,41.86-38.25.13-.12.11-.39.2-.73a7.9,7.9,0,0,0-3.24-.42q-10.42-.33-20.85-.62c-15-.44-30.06-.74-45-2.66a4,4,0,0,0-3.69,1,13.14,13.14,0,0,1-1.3,1c-10.38,8.24-20.52,16.73-30.56,25.33C1505.49,97.77,1503.87,99.22,1502,100.86Zm131.69,28.55a10,10,0,0,0-.65-.84,1.51,1.51,0,0,0-2.32-.21c-.72.5-1.39,1.07-2.06,1.63-22.11,18.38-43.11,37.85-63.86,57.57-.47.44-.92.92-1.35,1.4a1.18,1.18,0,0,0-.12,1.47c.83,1.47,1.93,1.69,3.23.64.42-.35.8-.73,1.2-1.1,6.49-6,13-12,19.47-17.94,14.48-13.22,29.19-26.21,44.43-38.67.59-.48,1.19-1,1.73-1.5C1634.26,131,1634.33,130.54,1633.7,129.41Zm-75,44.86c.12-.1.54-.43.94-.8l11.74-10.88c17-15.78,34.26-31.3,52.34-46,1.83-1.48,2.74-3,2.14-5.2a5.89,5.89,0,0,1-.12-.94c-.07-.42-.12-.88-.66-1a1.33,1.33,0,0,0-1.16.5c-.48.44-1,.86-1.46,1.3l-27,24.7q-14.12,12.9-28.25,25.78c-2.17,2-4.43,3.88-6.71,5.75a8.22,8.22,0,0,0-3,6.16C1557.49,174.14,1558,174.58,1558.71,174.27Zm68.38-56.3c-.26-.4-.65-.64-1.1-.36a14.42,14.42,0,0,0-1.85,1.36c-5.68,4.79-11.39,9.56-17,14.41-11.51,9.91-22.73,20.12-33.87,30.39-4.33,4-8.6,8-12.9,12.07-.55.52-1.09,1.06-1.62,1.6a2.64,2.64,0,0,0-.42,3.24,1.09,1.09,0,0,0,1.86.45c2.66-2.42,5.31-4.86,7.92-7.33q16.14-15.28,32.74-30.13,12.45-11.11,25.34-21.81C1627.65,120.63,1627.84,119.91,1627.09,118Zm-64.79,68.8c.46-.4,1.06-.88,1.61-1.39q4.29-4,8.56-8.06c12.45-11.72,25-23.33,38-34.56,5.77-5,11.61-9.94,17.4-14.92a19.24,19.24,0,0,0,2.11-2,2,2,0,0,0-.57-2.58c-.68-.59-1.25,0-1.77.31s-1,.81-1.53,1.23c-2.75,2.33-5.51,4.65-8.25,7-19.15,16.28-37.46,33.37-55.62,50.6a16.35,16.35,0,0,0-1.58,1.65,1.84,1.84,0,0,0,.31,2.58C1561.26,187,1561.69,187,1562.3,186.77Zm-68.55-57.66c1,1.73,2,3.34,3.92,3.6,3.54.47,7.13.73,10.7,1,.6.06.94-.45.8-1.1s-.31-1.23-.48-1.84a27.33,27.33,0,0,1-.83-10.68,34.34,34.34,0,0,1,1.5-6.49c.44-1.38.15-1.93-1.19-2-3.92-.14-7.84-.19-11.76-.28a2.22,2.22,0,0,0-2.08,1.36,16.62,16.62,0,0,0-1.88,6.37A19.09,19.09,0,0,0,1493.75,129.11Zm73.51,9.3c.11-.95-.64-1.55-1.17-2.14-2.1-2.33-3.06-5.14-3.94-8a15,15,0,0,1-.33-7.52c.19-.92.85-2,.53-2.72-.5-1.1-2-.5-3-.67-1.65-.25-2.57-.9-2.62-2-.07-1.24.92-2,2.77-2.1,1.45,0,2.91,0,4.36,0,.51,0,.84-.36.7-.86a4.12,4.12,0,0,0-2.47-2.83,6.52,6.52,0,0,0-6.65.7,13,13,0,0,0-2.88,3.08,16.1,16.1,0,0,0-2.52,6.81,24.61,24.61,0,0,0,1,11.89c1.28,3.88,4,5.91,8.3,6.2q2.85.19,5.7.35C1565.72,138.64,1566.52,138.93,1567.26,138.41Zm68-5.15c-1.24,1-2.54,2-3.8,3-21.57,17.84-42.22,36.6-62.59,55.63a8.76,8.76,0,0,0-1.3,1.43,1,1,0,0,0,.28,1.41,1.78,1.78,0,0,0,2.42.12c.6-.47,1.15-1,1.71-1.53q11.73-10.89,23.47-21.77,19.59-18,40.15-35.12c.68-.55,1.32-1.14,2-1.72a.82.82,0,0,0,.19-1.13,1.27,1.27,0,0,0-1.11-.61A8,8,0,0,0,1635.26,133.26Zm-61.14,63.67c.71-.62,1.38-1.17,2-1.75,5.71-5.23,11.39-10.48,17.11-15.7,10.38-9.49,20.87-18.87,31.65-28,4.84-4.09,9.75-8.1,14.62-12.16a22.38,22.38,0,0,0,2.12-2,.91.91,0,0,0,0-.86,1.17,1.17,0,0,0-.8-.47,2.35,2.35,0,0,0-1.26.3,25.64,25.64,0,0,0-2.38,1.76c-12.64,10.29-24.84,21-36.84,32-8.77,8-17.43,16.14-26.13,24.23a18.59,18.59,0,0,0-1.78,1.88c-.22.26,0,.63.4.69A8.12,8.12,0,0,0,1574.12,196.93Zm5.62-.27c.31-.2.69-.42,1-.68,1.57-1.18,3.17-2.35,4.7-3.58,10.07-8.08,19.57-16.74,29-25.44l28.89-26.52c.4-.37.79-.74,1.16-1.14.22-.24.4-.55.06-.79a.71.71,0,0,0-.63.06c-1.13.85-2.25,1.73-3.35,2.62-21,17.05-40.89,35.15-60.66,53.4a11.24,11.24,0,0,0-1.1,1.19.48.48,0,0,0,.12.8A2.1,2.1,0,0,0,1579.74,196.66Zm36-104.68c-.45.36-1.23,1-2,1.59-7.42,6.27-14.76,12.62-21.89,19.18-6.57,6-13.07,12.16-19.59,18.25a23.55,23.55,0,0,0-2,2.12.83.83,0,0,0,.06,1.16.81.81,0,0,0,1.19,0c1.71-1.52,3.42-3,5.1-4.59,9.09-8.44,18.27-16.8,27.7-24.91,3.72-3.2,7.52-6.31,11.27-9.49a15.35,15.35,0,0,0,2.07-2,1,1,0,0,0-.33-1.4C1617,91.53,1616.57,91.55,1615.78,92Zm-2.68-6.53c-.18-.49-.53-.68-.82-.56a5.41,5.41,0,0,0-1.37.85c-3.11,2.58-6.22,5.15-9.28,7.79-11.31,9.75-22.3,19.83-33.17,30a18.59,18.59,0,0,0-1.77,1.89,1.11,1.11,0,0,0,0,1.47c.53.61,1,.11,1.38-.24s.81-.72,1.2-1.1c13.68-13.07,27.63-25.86,42.22-38a10.44,10.44,0,0,0,1.38-1.36A1.85,1.85,0,0,0,1613.1,85.45Zm.59,3.13c-.62.5-1.48,1.18-2.32,1.88-10.2,8.59-20.09,17.5-29.85,26.53-3.92,3.63-7.79,7.31-11.67,11a5.26,5.26,0,0,0-1.64,2,.66.66,0,0,0,.2.56.75.75,0,0,0,.59.17c1.15-.31,1.75-1.27,2.54-2,8.35-7.66,16.62-15.41,25-23,5.26-4.75,10.75-9.27,16.11-13.92.81-.71,1.83-1.27,2.3-2.27a1.09,1.09,0,0,0-.14-.87C1614.66,88.29,1614.29,88.28,1613.69,88.58Zm-1.4-8.21c-.35-.77-.7-.91-1-.74a7.25,7.25,0,0,0-1.29,1q-5.68,5.16-11.35,10.34-12.53,11.49-25.05,23c-1.85,1.69-3.79,3.29-5.69,4.93a3.39,3.39,0,0,0-1.42,2.07.67.67,0,0,0,.23.55.69.69,0,0,0,.61,0c.76-.61,1.51-1.25,2.22-1.91,13.13-12.26,26.37-24.41,40.37-35.81a22.92,22.92,0,0,0,1.94-1.74A1.61,1.61,0,0,0,1612.29,80.37Zm7.73,15c-.2-.06-.47-.24-.56-.18-.82.55-1.64,1.09-2.4,1.71-9.74,7.93-19.12,16.24-28.39,24.66-4.35,4-8.66,8-13,11.93-.79.74-1.54,1.53-2.26,2.32a.51.51,0,0,0,.09.83,1.08,1.08,0,0,0,.9,0c.95-.74,1.85-1.53,2.73-2.34l10.75-10c9.74-9,19.65-17.87,29.91-26.37.75-.63,1.47-1.3,2.16-2C1620.08,95.85,1620,95.58,1620,95.42Zm-42.92,42c.13.15.26.3.38.46.57-.49,1.15-.95,1.69-1.45C1592.93,123.58,1607,111,1621.6,99a3.3,3.3,0,0,0,1.29-1.41.35.35,0,0,0-.08-.29c-.06-.06-.22-.15-.27-.12a5.53,5.53,0,0,0-1.12.62c-3.27,2.73-6.55,5.45-9.78,8.22-11.27,9.68-22.17,19.73-33,29.85C1578.11,136.35,1577.62,136.91,1577.1,137.45Zm-89-21a12.28,12.28,0,0,0,1.54-4.47A5.1,5.1,0,0,0,1488.12,116.41Z"></path><path class="cls-5" d="M1436.2,175.62a19.42,19.42,0,0,1-1.11-13.77,6.69,6.69,0,0,1,.51-1.17A1.31,1.31,0,0,1,1437,160c.63.08,1,.67.84,1.49-.11.62-.31,1.23-.45,1.85a15.56,15.56,0,0,0,1.13,10.54,5.82,5.82,0,0,1,.93,2.68,1,1,0,0,1-.66,1,1.12,1.12,0,0,1-1.23-.25C1437,176.74,1436.59,176.12,1436.2,175.62Z"></path><path class="cls-5" d="M1472.34,120.67a7.73,7.73,0,0,0-1.55,4.85.61.61,0,0,1-1,.49,7.89,7.89,0,0,0-4.7-1.27.64.64,0,0,1-.49-1.12c1.26-1.38,1-3.12,1.48-4.69,1.78-.18,3.05,1.63,4.94,1.13A1.2,1.2,0,0,1,1472.34,120.67Z"></path><path class="cls-5" d="M1442.65,187a1.26,1.26,0,0,1-1.62-.67,1.22,1.22,0,0,1,.3-1.68,1.32,1.32,0,0,1,1.84.75A1.16,1.16,0,0,1,1442.65,187Z"></path></g><g class="cls-4"><path class="cls-5" d="M350,216.12a5.8,5.8,0,0,0-2.17-.8,47.61,47.61,0,0,1-6-1.78,10.38,10.38,0,0,1-1.28-.52,1.68,1.68,0,0,1-.68-2.76,11.23,11.23,0,0,1,1.37-1.48c1.08-1,2.2-2.06,3.27-3.11.42-.41.36-.78-.14-1.09-1.09-.7-2.2-1.36-3.3-2.05a10.8,10.8,0,0,1-1.3-.91,1.86,1.86,0,0,1-.51-2.57,13.21,13.21,0,0,1,2.24-2.78c.41-.43.86-.84,1.28-1.27a.74.74,0,0,0,0-1.17c-1-.93-2-1.84-3-2.78a27.37,27.37,0,0,1-2.16-2.29,1.49,1.49,0,0,1,.25-2.33c.22-.2.47-.37.71-.56,5.37-4.19,10.56-8.57,15.69-13,7.91-6.88,15.79-13.79,23.56-20.82,5-4.5,10-8.94,15-13.36,2.83-2.49,5.74-4.9,8.62-7.34.23-.2.46-.39.71-.57,1.79-1.29,2.8-1.24,4.47.26,1,.85,1.86,1.75,2.83,2.58,5.1,4.36,11.21,6.66,17.87,7.88,3,.55,6,.58,9,.84a27.11,27.11,0,0,0,3.71-.12c.46,0,.92-.11,1.39-.13a95.07,95.07,0,0,0,25.65-4.78,19.62,19.62,0,0,1,7.51-1.12,13,13,0,0,1,7.66,3.31A41.6,41.6,0,0,1,489,147c1.66,2.29,3.29,4.59,5.15,6.75a35,35,0,0,0,7.87,6.76,101.27,101.27,0,0,0,14,7.26c7.1,3.09,14.39,5.77,21.68,8.44a24.73,24.73,0,0,1,2.77,1.13,1.38,1.38,0,0,1,.71,2,11.9,11.9,0,0,1-.77,1.34c-3.35,5.52-7,10.88-10.6,16.22-6.94,10.2-14.15,20.23-21.51,30.16-2.44,3.3-4.93,6.55-7.41,9.81a16.9,16.9,0,0,1-1.18,1.36,4.76,4.76,0,0,1-3.47,1.53,11.25,11.25,0,0,1-1.16,0,2.78,2.78,0,0,0-2.22,1c-2.19,2.27-4.41,4.5-6.6,6.78a5.44,5.44,0,0,1-3.17,2,3,3,0,0,0-1.82,1.3,39.88,39.88,0,0,1-4.55,4.05,3,3,0,0,1-3.41.65,1.53,1.53,0,0,0-.89-.19c-1.52.37-2.7-.39-3.94-1-5.13-2.41-10.27-4.81-15.37-7.26a54.34,54.34,0,0,1-15-10.53,51.26,51.26,0,0,1-14.31-25.86c-.18-.86-.34-1.72-.52-2.58a.43.43,0,0,0-.71-.21,7.71,7.71,0,0,0-.63.65,42.3,42.3,0,0,1-19.7,13A76.21,76.21,0,0,1,385.46,225a106.17,106.17,0,0,1-13.46.29,114.49,114.49,0,0,1-14.31-1.46c-2.75-.43-5.48-.93-8.18-1.6a15.2,15.2,0,0,1-2-.6,1.56,1.56,0,0,1-.83-2.51,6.23,6.23,0,0,1,1.52-1.64C348.73,217.08,349.27,216.67,350,216.12Zm-.46-12.3a4.94,4.94,0,0,0-2.85-1.3c.64.34,1,.57,1.42.75s1,.36,1.45.54a12.2,12.2,0,0,0,5.26,2.15C353,205.26,351.45,204.15,349.51,203.82ZM353.23,220c-.21-.2-.43-.39-.63-.6a3.94,3.94,0,0,0-.57-.64.73.73,0,0,0-.61,0,.65.65,0,0,0-.34.47.64.64,0,0,0,.4.43c.58.13,1.18.19,1.77.28.36.11.72.26,1.09.35a107.4,107.4,0,0,0,17.24,2.1,87.63,87.63,0,0,0,23.3-1.71,50.75,50.75,0,0,0,16-6.24c.25-.16.74-.23.6-.82l-2.08,1a55.6,55.6,0,0,1-8.34,3.29,81.85,81.85,0,0,1-21.44,3.42,121.07,121.07,0,0,1-19.69-.76C357.71,220.36,355.47,220.23,353.23,220ZM495.2,237a3.07,3.07,0,0,0,3-1.42c.68-.89,1.41-1.74,2.07-2.64,4.74-6.4,9.53-12.78,14.19-19.23,7.06-9.78,13.92-19.67,20.47-29.76.77-1.18,1.51-2.38,2.23-3.59.42-.71.29-1.08-.45-1.4s-1.43-.56-2.15-.83c-3.88-1.46-7.78-2.88-11.65-4.38a164.66,164.66,0,0,1-18-8.13c-6.23-3.32-11.64-7.46-15.58-13.17-.46-.67-.95-1.33-1.43-2-.84-1.14-1.68-2.28-2.54-3.4-.48-.62-.8-.65-1.29-.1-1.18,1.34-2.35,2.7-3.49,4.09q-10.17,12.38-20.32,24.77c-4.89,5.94-9.88,11.8-15,17.53-3.26,3.62-6.56,7.19-10,10.68-.79.82-.84,1.07-.15,1.9,1.1,1.32,2.22,2.63,3.44,3.85a70.27,70.27,0,0,0,11.19,8.85A136.81,136.81,0,0,0,472,230.26a100.16,100.16,0,0,0,18.63,6.06A22.44,22.44,0,0,0,495.2,237Zm-35.07-94.63c-.92.17-1.67.3-2.41.46a114.86,114.86,0,0,1-17.92,2.31,57.06,57.06,0,0,1-15.9-1.46,38.06,38.06,0,0,1-17.07-8.48c-.62-.55-1.28-1.06-1.92-1.59a1.06,1.06,0,0,0-1.46,0c-.48.37-1,.71-1.45,1.1-2.06,1.76-4.14,3.52-6.17,5.32-5.47,4.85-10.95,9.69-16.39,14.58q-11.18,10.06-22.55,19.91c-4.22,3.66-8.44,7.31-12.83,10.79-.82.66-1.65,1.32-2.45,2-.55.46-.57.78-.09,1.31.35.38.74.74,1.12,1.11a56.45,56.45,0,0,0,44.51,15.25c3.39-.33,6.76-.79,10.12-1.31,3.74-.57,7.47-1.22,11.15-2.12a4.19,4.19,0,0,0,2.94-1.94,8,8,0,0,1,1-1.23q13.47-15.93,26.93-31.85c6.49-7.64,13.09-15.18,19.93-22.54A2.61,2.61,0,0,0,460.13,142.35Zm13.37-3.3a16.51,16.51,0,0,0-6.4,1.29,3.63,3.63,0,0,0-1.46,1c-3,3.25-6,6.45-9,9.73-4.29,4.79-8.52,9.63-12.74,14.47-2.55,2.93-5,5.91-7.54,8.87-.45.54-.31,1,.37,1.14a33.17,33.17,0,0,1,4.85,1.48,32.53,32.53,0,0,1,6.84,4.09c2.34,1.65,2.1,1.53,3.77-.44,3.66-4.33,7.27-8.7,10.88-13.08Q472,156.83,480.83,146c1.84-2.23,1.87-2.27-.37-4.22C478.47,140.06,476.28,138.78,473.5,139.05Zm-26.67,47.79a2,2,0,0,0-.27-.64,11.8,11.8,0,0,0-1.22-1,32.31,32.31,0,0,0-10.28-4.91c-2.81-.79-3.06-.72-4.9,1.47l-13.23,15.76a7.31,7.31,0,0,0-.78,1.07.44.44,0,0,0,.32.68,9.06,9.06,0,0,0,1.38.09A25.9,25.9,0,0,1,429,202c2.58,1.27,2.85,1.25,4.76-.74,2.9-3,5.74-6.1,8.58-9.17,1.32-1.43,2.59-2.9,3.87-4.36C446.43,187.45,446.62,187.13,446.83,186.84Zm-17.39,27.58a46.76,46.76,0,0,0,2.76,5.19,67.44,67.44,0,0,0,14.28,16,115.93,115.93,0,0,0,24.65,15.86c3.81,1.83,3.08,1.75,6.34-.94.57-.47.45-.89-.27-1.11-1.4-.42-2.83-.75-4.2-1.23A66.74,66.74,0,0,1,460,242a113.77,113.77,0,0,1-13.87-9.88,80.9,80.9,0,0,1-15.35-16.58A2.27,2.27,0,0,0,429.44,214.42Zm56.83,26c-2.54.46-2.73.45-5.71-.15l-.23,0a52.26,52.26,0,0,1-22.5-9.84c-5-3.81-9.86-7.75-14.46-12-1.89-1.73-3.73-3.5-5.61-5.23-.24-.21-.43-.65-.92-.4a52.12,52.12,0,0,0,6.83,8,91.84,91.84,0,0,0,14.57,11.48,99.23,99.23,0,0,0,20.22,10.17c4.05,1.44,3.63,1.54,7.16-1.3A5.9,5.9,0,0,0,486.27,240.42Zm-84-34.53a1.78,1.78,0,0,0-.48-.13c-5.71.88-11.42,1.77-17.2,2.28a47.64,47.64,0,0,1-10.62-.35,61.55,61.55,0,0,1-24.65-9.06c-.51-.32-1-.64-1.56-.94a1,1,0,0,0-1.26.16,4.39,4.39,0,0,0-.72.84.56.56,0,0,0,.16.78,5.29,5.29,0,0,0,.95.61A96.09,96.09,0,0,0,365,207.34a58.47,58.47,0,0,0,19.26,2,74.33,74.33,0,0,0,15.25-2.63Zm80.23,40.78c-.4-.46-.89-.26-1.28-.39s-1-.28-1.56-.43l-1.33-.41-1.53-.52-1.29-.49c-.43-.17-.86-.33-1.28-.51l-1.49-.62-1.26-.57-1.45-.68-1.25-.59-1.24-.6c-.48-.23-1-.46-1.44-.71s-.81-.42-1.22-.64l-1.4-.77-1.2-.67-1.19-.68c-.46-.27-.93-.53-1.38-.81s-.78-.47-1.17-.71l-1.35-.85-1.15-.74c-.39-.25-.78-.49-1.15-.75l-1.31-.91-1.12-.78c-.43-.31-.87-.61-1.29-.93l-1.09-.82-1.09-.82c-.42-.33-.83-.65-1.24-1s-.69-.58-1-.87l-1.24-1c-.35-.29-.7-.58-1-.88l-1-.92-1.15-1.08c-.33-.31-.66-.62-1-.94s-.76-.73-1.12-1.11-.59-.67-.9-1-.61-.65-.92-1-.72-.76-1.06-1.16-.57-.69-.86-1-.63-.84-1-1.21-.34-.84-1.12-.64c.86,1.14,1.63,2.23,2.49,3.26a87.81,87.81,0,0,0,11.82,11.71A99.46,99.46,0,0,0,467,242.6a42.59,42.59,0,0,0,9.89,3.73A13,13,0,0,0,482.49,246.67Zm-27.18-21c-.1.29.13.4.29.52,2,1.5,4,3,6,4.47,6.22,4.56,13.49,6.72,21.09,8.09,1.24.23,2.12-.07,2-.52-.2-.71-1-.57-1.49-.86a.94.94,0,0,0-.22-.07,147.75,147.75,0,0,1-26-11A3.23,3.23,0,0,0,455.31,225.63Zm-44.37-13.92a3.6,3.6,0,0,0-.58,0l-.64.25a76.76,76.76,0,0,1-29.82,6.5c-1,0-2,.12-3,.16-.85,0-1.7.07-2.55,0-1.93-.07-3.86-.16-5.79-.25-.92,0-1.86,0-2.77-.16-2.76-.35-5.54-.49-8.27-1-1-.19-1.86.17-1.73.59.21.71,1,.65,1.52.71,3.46.35,6.92.82,10.38.91a134.43,134.43,0,0,0,16.91-.26,90.63,90.63,0,0,0,12.09-1.95A55.72,55.72,0,0,0,410.94,211.71Zm20.21,12c2.66,7.53,16.08,19.87,23.54,21.75-3.12-2.23-6-4.28-8.77-6.51a100,100,0,0,1-7.7-7A97.39,97.39,0,0,1,431.15,223.71Zm-57.92-10c-1.93-.3-3.68-.55-5.42-.84a74.8,74.8,0,0,1-16.35-4.81,9,9,0,0,0-1.51-.53,1.23,1.23,0,0,0-1.35,1c-.13.55.29.76.77.89l.67.18c3.94,1.07,7.87,2.17,11.81,3.2A35.26,35.26,0,0,0,373.23,213.72Zm61.9-36.47-.41,0c-.25,0-.51.11-.48.36a.77.77,0,0,0,.38.47,11.8,11.8,0,0,0,1.31.43,35.32,35.32,0,0,1,10.86,5.27l.75.52a1.44,1.44,0,0,0,.4.22c.21,0,.49.08.63,0a.44.44,0,0,0,0-.74,37.13,37.13,0,0,0-6.37-4.35A22.71,22.71,0,0,0,435.13,177.25Zm-89.88,31.9a5.7,5.7,0,0,0-1.66,1.73c2.73,1.45,12.7,3.65,17.09,3.69-.84-.28-1.24-.43-1.65-.55-3.78-1-7.56-2-11.34-3.07C346.09,210.51,346.1,210.48,345.25,209.15Z"></path><path class="cls-5" d="M332.35,181.49c.37,0,.75.5.61.81a4.91,4.91,0,0,1-.64,1.14c-3.38,4.28-4,9-2.74,14.11a7,7,0,0,1,.18,1.28.62.62,0,0,1-.58.59.9.9,0,0,1-.64-.17,3,3,0,0,1-.87-1.75,16.32,16.32,0,0,1,1.11-11.72,13.61,13.61,0,0,1,2.6-3.85A1.26,1.26,0,0,1,332.35,181.49Z"></path><path class="cls-5" d="M545.25,178.61a10.31,10.31,0,0,0-1.9-6.53,8.83,8.83,0,0,1-.67-1.15.69.69,0,0,1,.28-1,.87.87,0,0,1,1.06.16,3.76,3.76,0,0,1,.61.65,13.4,13.4,0,0,1,1.64,12.94c-.42,1.11-1,1.56-1.54,1.25-.8-.49-.41-1.17-.18-1.76A11.62,11.62,0,0,0,545.25,178.61Z"></path><path class="cls-5" d="M542.86,190.44a2.46,2.46,0,0,1-.09.47,6.27,6.27,0,0,1-2.58,3,.78.78,0,0,1-1-.1.61.61,0,0,1-.1-.8c.85-1,1.72-2,2.62-3a.66.66,0,0,1,.85,0A1.85,1.85,0,0,1,542.86,190.44Z"></path><path class="cls-5" d="M340,176.54c0,.14,0,.32-.07.42a3.32,3.32,0,0,1-2.27,1.36.83.83,0,0,1-.59-.25.57.57,0,0,1-.06-.8,3.59,3.59,0,0,1,2.1-1.27A.81.81,0,0,1,340,176.54Z"></path><path class="cls-5" d="M466.82,145a6.58,6.58,0,0,1,2.7.58c1.87.78,3.51,2.81,2.3,5.44a8.81,8.81,0,0,1-2.08,2.88,52.14,52.14,0,0,0-6.37,7.49,80,80,0,0,1-5.28,6.37,24.46,24.46,0,0,1-5,4.2,9.5,9.5,0,0,1-1.82.94,4.57,4.57,0,0,1-6.24-4.38,7.14,7.14,0,0,1,1.84-4.17q3-3.48,6-6.92c3-3.36,6-6.67,8.95-10.05A6.53,6.53,0,0,1,466.82,145Zm.54,2a4.31,4.31,0,0,0-3.85,1.55q-6.84,7.71-13.71,15.4c-.64.73-1.25,1.48-1.83,2.26a3.92,3.92,0,0,0-.73,3.12,2.34,2.34,0,0,0,2.88,1.87,4.51,4.51,0,0,0,1.27-.51,18.51,18.51,0,0,0,3.3-2.39,50.59,50.59,0,0,0,6.36-7.22,59,59,0,0,1,7.2-8.54,6.61,6.61,0,0,0,1.59-2.13,2.16,2.16,0,0,0-1.36-3.18A5,5,0,0,0,467.36,147Z"></path></g><g class="cls-4"><path class="cls-5" d="M139.93-15.32a133.83,133.83,0,0,1,35.45,5.2l.32.1c3.88,1.15,4.3,1.06,6.8-2a76.19,76.19,0,0,1,20.27-17.46,73.47,73.47,0,0,1,25.8-9.64c2.32-.37,4.67-.65,7-.84,4-.32,8.06-.5,12.08-.8,9.69-.72,19.12-2.37,27.75-6.93,3.21-1.69,3.83-1.5,6.08,1.41,3.37,4.36,6.68,8.76,10,13.15,6.32,8.35,12.62,16.72,18.59,25.3a338.57,338.57,0,0,1,19.22,30.55,196.35,196.35,0,0,1,10.78,22.89c.65,1.65,1.22,3.21-.33,4.69-.27,1.79-1.4,2.94-2.86,4.06a4.77,4.77,0,0,0-.89,6.86c.43.61,1,1.12,1.44,1.75a1.86,1.86,0,0,1-1.63,3c-4-.38-7.77.83-11.66,1.11s-7.56.9-11.33,1.43c-2.55.36-5.1.75-7.63,1.23a82.17,82.17,0,0,0-20.85,7,216,216,0,0,0-22.11,12.11,94.42,94.42,0,0,0-14.55,11.25,10.76,10.76,0,0,0-2.66,3.24A4.85,4.85,0,0,1,243.5,105a7.57,7.57,0,0,1-6.19,1.72c-8.69-1.15-17.25,0-25.72,1.69A121.21,121.21,0,0,0,172,123.9c-9.26,5.63-17.92,12-26.57,18.42-4.06,3-8.15,6-12.24,8.94-.71.51-1.47,1-2.23,1.43a2.84,2.84,0,0,1-2.27.32,21.76,21.76,0,0,0-3.87-.89c-1.07-.11-1.57-1.12-2-2q-2.34-4-4.66-8.09c-6.45-11.26-13.13-22.39-19.94-33.46q-12.4-20.17-25.48-40c-3.63-5.47-7.33-10.9-11-16.35l-2.69-4a4.07,4.07,0,0,1-.7-3,2.15,2.15,0,0,1,1.75-2.09c2.88-.42,3.76-2.38,4.28-4.67A16.23,16.23,0,0,0,64.81,36a38.09,38.09,0,0,0-1.18-11.64A6.15,6.15,0,0,0,61,20.41a5,5,0,0,1-.77-.61,1.84,1.84,0,0,1-.3-2.6A22.57,22.57,0,0,1,62.72,14,101.57,101.57,0,0,1,86.85-3.07a111.76,111.76,0,0,1,34-10.79A114,114,0,0,1,139.93-15.32Zm-52,78.19a3.4,3.4,0,0,0,1.41,2.23,3,3,0,0,0-1.42-2.22,10.66,10.66,0,0,0-1.67-3.44Q78.84,47.58,71.41,35.72a5.59,5.59,0,0,0-1.74-2.24c-.52.33-.37.79-.21,1.13a21.26,21.26,0,0,0,1.26,2.23q7.75,12,15.55,24.06A6,6,0,0,0,87.93,62.87ZM259,84.46a9.54,9.54,0,0,0,3.1-1.85c4.06-2.82,8.16-5.58,12.47-8,16.38-9.38,33.91-15.23,53.26-15.63a6.37,6.37,0,0,0,1.61-.31.59.59,0,0,0,.3-.5.62.62,0,0,0-.34-.48,7,7,0,0,0-1.63-.28,78.1,78.1,0,0,0-8.37.45,97.45,97.45,0,0,0-24.73,5.66,126.18,126.18,0,0,0-33.36,18.71A9.31,9.31,0,0,0,259,84.45a5.78,5.78,0,0,0-3.09,2.5A7,7,0,0,0,259,84.46ZM109.48,118.09c.9,2.26.9,2.26,2.36,3.52a8.87,8.87,0,0,0-2.35-3.53,9.39,9.39,0,0,0-1.28-2.92c-1.22-2.14-2.46-4.27-3.68-6.41-8.93-15.64-18.37-31-28.07-46.24-3.06-4.8-6.21-9.55-9.34-14.32a5,5,0,0,0-1.66-1.95,1.24,1.24,0,0,0-1.27.1.81.81,0,0,0-.36,1.1A16.36,16.36,0,0,0,65,49.35Q87.33,82,107.71,115.8A6.67,6.67,0,0,0,109.48,118.09ZM137.93-11.23A162.35,162.35,0,0,0,119-9.36,102,102,0,0,0,74.15,9.91C71.62,11.83,69.28,14,66.88,16a1.83,1.83,0,0,0-.52,2.3,35.84,35.84,0,0,0,3,6c5.19,8.16,10.41,16.31,15.49,24.53q10.6,17.13,21,34.35,12.12,20.15,23.71,40.56c1.9,3.36,2,3.37,4.86.75a205.43,205.43,0,0,1,25.81-20.31,131.38,131.38,0,0,1,26.5-13.69,89.8,89.8,0,0,1,25.49-5.48,73.37,73.37,0,0,1,16.74,1.14c1.17.19,2.65,1.19,3.49.24,1-1.1-.36-2.35-.93-3.41C228.24,77,225,71,221.63,65c-4.4-7.73-8.91-15.41-13.43-23.08-5.77-9.8-11.62-19.55-17.4-29.35-2.83-4.8-5.58-9.65-8.34-14.49a4.9,4.9,0,0,0-2.82-2.5A132.44,132.44,0,0,0,137.93-11.23ZM332.45,46.92v-.05c.68,0,1.35.11,2,.13s1.15-.47.89-1.28c-.2-.6-.42-1.21-.68-1.79-1.88-4.18-3.7-8.39-5.78-12.49a312.73,312.73,0,0,0-23-37.62c-8.59-12.26-17.74-24.16-26.85-36.09a9.78,9.78,0,0,0-.82-1,1.36,1.36,0,0,0-1.53-.31c-.41.16-.82.33-1.22.53-8.87,4.27-18.44,5.79-28.24,6.46-3.69.26-7.4.38-11.07.79a86.82,86.82,0,0,0-10.63,1.48A73.3,73.3,0,0,0,191.86-16,61.41,61.41,0,0,0,185.61-9a2.57,2.57,0,0,0-.29,3.22c1.21,2,2.33,4.1,3.53,6.13Q198.71,17.18,208.58,34c5.48,9.34,11,18.66,16.37,28.07,4.13,7.26,8,14.66,12,22,.36.66.7,1.33,1.11,2a1.32,1.32,0,0,0,2,.41,16,16,0,0,0,1.3-1c1.7-1.38,3.38-2.79,5.1-4.14a226.87,226.87,0,0,1,41.48-25.82,90.71,90.71,0,0,1,35.8-9,46.1,46.1,0,0,1,4.7.13C329.77,46.64,331.11,46.8,332.45,46.92ZM225.8,99.86a53.05,53.05,0,0,0-11.13.87,120.9,120.9,0,0,0-32.52,10,222.32,222.32,0,0,0-31.57,18.14,106.38,106.38,0,0,0-16.65,14.26c-1,1-2.1,1.92-2.33,3.38,1.74.38,2.37-1.22,3.58-1.79a6.49,6.49,0,0,0,1-.78c8.58-6.3,17.05-12.74,25.9-18.71a137,137,0,0,1,27.18-14.48,117.61,117.61,0,0,1,34.43-8.16,70.19,70.19,0,0,1,14.42,0,4.57,4.57,0,0,0,1.33,0,.61.61,0,0,0,.38-.43.64.64,0,0,0-.27-.52,7.76,7.76,0,0,0-1.55-.56A51.16,51.16,0,0,0,225.8,99.86Zm-92.59,35.86c.34-.26.7-.5,1-.78a216.62,216.62,0,0,1,22.12-17.08,156.34,156.34,0,0,1,37-18.65A70.92,70.92,0,0,1,217.71,95c5.61.1,11.22.09,16.84.11a27.12,27.12,0,0,0,3-.19c.15,0,.35-.28.37-.46a.62.62,0,0,0-.23-.53,6.2,6.2,0,0,0-1.55-.54,122.89,122.89,0,0,0-12.71-1.11c-2.48-.17-4.92.34-7.39.45A90.35,90.35,0,0,0,191.7,97.4,117.91,117.91,0,0,0,162.3,112a324.7,324.7,0,0,0-27,20.95C134.37,133.68,133.36,134.38,133.21,135.72Zm91.16-38.36v-.17c-2.91,0-5.83,0-8.74,0a57,57,0,0,0-14.6,2A117.61,117.61,0,0,0,181.88,106c-18.1,8.13-33.78,19.5-48.29,32.4a13.77,13.77,0,0,0-1.34,1.41c-.28.33-.51.84-.21,1.16.44.48.76-.08,1-.34a104.55,104.55,0,0,1,11.6-10.1,218.85,218.85,0,0,1,29.12-18.18A138.14,138.14,0,0,1,200,101.74a110.37,110.37,0,0,1,22.41-4,57.19,57.19,0,0,1,15,1c.6.11,1.34.36,1.77-.38.27-.47-.52-1-1.73-1C233.12,97.34,228.75,97.36,224.37,97.36ZM69.85,39.72l-.45.16c0,.19-.08.44,0,.58,20.42,31.25,38.85,63.56,57.27,95.87.08.15.35.21.53.32.65-.49.44-1.16.26-1.71a18.55,18.55,0,0,0-1.15-2.63q-4.54-8.67-9.32-17.24-7.62-13.6-16-26.83c-9.5-15-19.15-29.85-28.75-44.77C71.49,42.22,70.66,41,69.85,39.72ZM139,126.87c.94-.69,1.3-.93,1.63-1.21a226.49,226.49,0,0,1,21-15.82c10.83-7.13,22.37-12.9,35.2-16.17a93.69,93.69,0,0,1,19.86-3.1c2.58-.09,5.15-.38,7.72-.58a36.2,36.2,0,0,0-6.33-.86,73.79,73.79,0,0,0-20.62,2.37,102.17,102.17,0,0,0-24.64,10A175.42,175.42,0,0,0,141,124.33,5.89,5.89,0,0,0,139,126.87Zm-12.27,16.18a1.89,1.89,0,0,0,0-1.79c-.45-1-1-1.91-1.48-2.84-2.39-4.19-4.83-8.36-7.19-12.56Q104.37,101.6,90,77.74C83.44,66.8,76.74,55.92,69.69,45.23a16.73,16.73,0,0,0-1.4-1.77.67.67,0,0,0-.59,0,.64.64,0,0,0-.29.52,6,6,0,0,0,1.33,2.53c7.5,11.42,14.86,22.91,22,34.54C98.46,93.65,106,106.39,113.2,119.3c4.07,7.3,8,14.66,12.06,22C125.61,141.9,125.71,142.72,126.71,143.05ZM278.2,65.42c.09.06.2.18.26.15A16,16,0,0,0,280,65a136.49,136.49,0,0,1,15.92-6.8c11.13-3.88,22.51-6.51,34.48-6.15.34,0,.67,0,1,0a2.84,2.84,0,0,0,.66-.08c.2-.07.47-.18.52-.33.16-.44-.25-.53-.57-.56A72.86,72.86,0,0,0,321,50.8a88.35,88.35,0,0,0-10.65,1.37c-11.55,2.39-22,7.09-32,13C278.26,65.19,278.25,65.33,278.2,65.42Zm13.71,3.33c.31.27.62.1.92,0a107.38,107.38,0,0,1,23.61-4.83c3.56-.39,7.11-.84,10.66-1.32a6.89,6.89,0,0,0,3.2-.92C324.05,59.72,301,63.94,291.91,68.75Zm6-9L298,60c2-.56,4-1.16,6-1.67A101.64,101.64,0,0,1,328,55.16a13.26,13.26,0,0,0,1.67-.11.58.58,0,0,0,.4-.37.53.53,0,0,0-.36-.41,38.94,38.94,0,0,0-7.71,0,111.51,111.51,0,0,0-23.2,5A4.59,4.59,0,0,0,298,59.79ZM243.74,94c.11,0,.26.08.31,0,6.33-5.53,12.47-11.25,19.34-16.2a.35.35,0,0,0,.13-.28c0-.08-.11-.16-.24-.32A81.42,81.42,0,0,0,244.4,92.4C244,92.85,243.39,93.28,243.74,94Zm-1.1-4c-.37.14-.6.36-.53.69,0,.07.38.16.5.1a.73.73,0,0,0,.36-.46C243,90.15,242.84,90,242.64,90Z"></path><path class="cls-5" d="M66.76-3.26c-.14.16-.25.39-.43.45-.83.32-1.68.58-2.52.88-1.68.59-3.39,1.13-5,1.8a14.73,14.73,0,0,0-8.19,8c-.64,1.47-1.14,3-1.71,4.47-.27.7-.53,1.39-.83,2.07a.74.74,0,0,1-1.14,0c-.32-.67-.59-1.36-.87-2-.63-1.58-1.18-3.19-1.89-4.75a14.87,14.87,0,0,0-8.31-7.9c-2-.78-4-1.36-6-2.06A6.29,6.29,0,0,1,28.36-3a.43.43,0,0,1,.09-.76,15.63,15.63,0,0,1,1.87-.71c1.58-.52,3.2-1,4.76-1.56A15.33,15.33,0,0,0,44.51-15c.6-1.48,1.09-3,1.65-4.49a13.66,13.66,0,0,1,.77-1.75.69.69,0,0,1,.55-.23.72.72,0,0,1,.55.28c.27.58.46,1.19.69,1.78.56,1.5,1.08,3,1.7,4.48A15.8,15.8,0,0,0,60.54-5.8c1.37.45,2.76.87,4.14,1.32a19.81,19.81,0,0,1,1.86.71C66.67-3.71,66.69-3.43,66.76-3.26Z"></path><path class="cls-5" d="M25.89,13.1c-.4.74-1.21.87-1.93,1.12a8.06,8.06,0,0,0-5.27,5A13.47,13.47,0,0,1,18,20.62a.67.67,0,0,1-.8.4.86.86,0,0,1-.51-.34c-.33-.67-.62-1.36-.9-2.05a7.37,7.37,0,0,0-4.38-4.12c-1-.39-2.17-.49-2.86-1.4.45-.84,1.26-1,2-1.19a8,8,0,0,0,5.66-5.38,8,8,0,0,1,.52-1.16.74.74,0,0,1,1.13-.08,5.13,5.13,0,0,1,.62,1.12,8.51,8.51,0,0,0,6.19,5.72A1.53,1.53,0,0,1,25.89,13.1Z"></path><path class="cls-5" d="M124.92,159.46a14.7,14.7,0,0,1-6.24-1.86,20.16,20.16,0,0,1-6.65-6.16c-1.12-1.58-2.11-3.24-3.12-4.88a2.78,2.78,0,0,1-.35-1.2.87.87,0,0,1,.69-1,1.5,1.5,0,0,1,.94.09,4.39,4.39,0,0,1,1.46,1.71c1.07,1.6,2.12,3.23,3.24,4.81a15.07,15.07,0,0,0,3.72,3.62,10.85,10.85,0,0,0,5.84,2.19,8.89,8.89,0,0,1,2.26.5c.24.07.44.45.53.73a.85.85,0,0,1-.59,1A10.52,10.52,0,0,1,124.92,159.46Z"></path><path class="cls-5" d="M347.23,46.43A18.13,18.13,0,0,1,345,54a6.81,6.81,0,0,1-1.22,1.46,1,1,0,0,1-1.23.12.92.92,0,0,1-.52-1.06,13.92,13.92,0,0,1,.73-1.74,15.17,15.17,0,0,0,1.75-7.91,3.36,3.36,0,0,1,.26-2.14,1.17,1.17,0,0,1,.77-.5,1.15,1.15,0,0,1,.87.36A6.4,6.4,0,0,1,347.23,46.43Z"></path><path class="cls-5" d="M42.34,34.94c-.05.2,0,.46-.15.58a1.61,1.61,0,0,1-.83.5,2.8,2.8,0,0,0-2.69,2.38.88.88,0,0,1-1.58.06,4.2,4.2,0,0,0-3-2.71A.72.72,0,0,1,33.7,35a.68.68,0,0,1,.6-.67c1.85-.13,2.34-1.32,2.6-2.76a.92.92,0,0,1,1-.73,1,1,0,0,1,.92.79c.12.4.17.82.26,1.24A1.49,1.49,0,0,0,40.4,34a11,11,0,0,1,1.6.4C42.16,34.49,42.23,34.77,42.34,34.94Z"></path><path class="cls-5" d="M343.36,31.16a6.6,6.6,0,0,1-.1.75,1.12,1.12,0,0,1-.82.89,1,1,0,0,1-1.13-.45,4,4,0,0,1-.55-1.13c-.53-1.8-1.05-3.61-1.53-5.43a2.44,2.44,0,0,1,0-1.23,1.06,1.06,0,0,1,.62-.64,1.31,1.31,0,0,1,.91.09,1.58,1.58,0,0,1,.65.68A22.87,22.87,0,0,1,343.36,31.16Z"></path><path class="cls-5" d="M144.53,49.1a1.7,1.7,0,0,1-.83,1.39,23.76,23.76,0,0,1-2.39,1.14c-8.25,3.31-16.61,6.35-25,9.23-2,.69-4.07,1.18-6.09,1.8a3,3,0,0,1-3.72-1.36c-.24-.36-.5-.71-.72-1.07-4.95-8-9.86-16.09-14.07-24.51A24.59,24.59,0,0,1,90.5,33.1c-.52-1.49-.21-2.14,1.23-2.83.5-.24,1-.43,1.55-.62L122,18.85c.93-.35,1.89-.65,2.85-1A2.86,2.86,0,0,1,128.36,19c.49.71,1,1.41,1.44,2.14,5,8.27,9.39,16.82,13.81,25.36A6.08,6.08,0,0,1,144.53,49.1ZM109.66,60.61c1-.27,1.87-.48,2.71-.74,9.36-2.95,18.46-6.5,27.6-10a9.32,9.32,0,0,0,1.2-.56,1,1,0,0,0,.56-1.34,12.92,12.92,0,0,0-.77-1.75c-4.12-8-8.34-15.89-12.9-23.64-.32-.56-.68-1.1-1-1.62a1.91,1.91,0,0,0-2.33-.76c-1.48.49-3,1-4.43,1.49q-11.86,4.45-23.71,8.94c-4.07,1.53-4.2,1.37-2.14,5.41,3.89,7.61,8.3,14.95,12.83,22.24a11.81,11.81,0,0,0,1.36,1.8A3.19,3.19,0,0,0,109.66,60.61Z"></path><path class="cls-5" d="M194.83,56.71c-.21.29-.33.64-.57.76a5.4,5.4,0,0,1-1.58.45,129.77,129.77,0,0,0-20.58,4.51,325.81,325.81,0,0,0-32.9,11.94c-3.69,1.54-7.36,3.12-11,4.66a3.38,3.38,0,0,1-2.24.48c-.2-.05-.49-.19-.53-.33a1.25,1.25,0,0,1,0-.88A4.63,4.63,0,0,1,127.67,77c5.41-2.29,10.8-4.63,16.26-6.83,8.85-3.57,17.82-6.88,27-9.62A136.43,136.43,0,0,1,191.17,56a5.9,5.9,0,0,1,3,0C194.42,56.11,194.58,56.44,194.83,56.71Z"></path><path class="cls-5" d="M188.86,50.51c-.21.3-.33.7-.58.79a18.89,18.89,0,0,1-2.87.84,231.25,231.25,0,0,0-60.19,20.49,33.15,33.15,0,0,1-3.36,1.42.78.78,0,0,1-1-.54,1,1,0,0,1,.18-.85,14.59,14.59,0,0,1,2.21-1.42A232.74,232.74,0,0,1,167,54.3c6.35-1.72,12.75-3.3,19.25-4.46a3.09,3.09,0,0,1,2,0C188.46,49.93,188.62,50.25,188.86,50.51Z"></path><path class="cls-5" d="M199.36,63.1c-.22.28-.36.64-.61.76a6.67,6.67,0,0,1-1.6.45c-16.47,2.65-32.09,7.8-47.32,14.16a150,150,0,0,0-15.76,7.82c-1,.56-2,2-3.49.78-.11-1.66,1.46-2,2.49-2.63,1.59-1,3.25-1.88,4.93-2.73a220.62,220.62,0,0,1,50.2-17.92c2.6-.61,5.27-1,7.91-1.49a4.56,4.56,0,0,1,2.64.06C199,62.47,199.15,62.83,199.36,63.1Z"></path><path class="cls-5" d="M204.2,72.25c-.23.28-.37.64-.63.73a15.34,15.34,0,0,1-2.58.69c-10.35,1.61-20.24,4.71-30,8.23A327.76,327.76,0,0,0,140,95.15a11.33,11.33,0,0,1-3.39,1.34.82.82,0,0,1-1-.6,1,1,0,0,1,.23-.84,16.06,16.06,0,0,1,2.26-1.35c8.68-4.21,17.52-8.13,26.55-11.63a200.77,200.77,0,0,1,30.65-9.53c2.19-.46,4.41-.79,6.62-1.13a4.14,4.14,0,0,1,1.64.12C203.82,71.59,204,72,204.2,72.25Z"></path><path class="cls-5" d="M178.24,17.8a.64.64,0,0,1-.32.8,5.17,5.17,0,0,1-1.54.55c-11.44,1.4-22.19,5-32.7,9.25-1.13.46-2.26.93-3.41,1.33a3.57,3.57,0,0,1-1.31.1.66.66,0,0,1-.5-.34,1.21,1.21,0,0,1,0-.88,3.17,3.17,0,0,1,1.63-1.06c9.54-4,19.23-7.52,29.49-9.52,1.87-.36,3.74-.66,5.63-.9a11.38,11.38,0,0,1,2.33.05A.74.74,0,0,1,178.24,17.8Z"></path><path class="cls-5" d="M175.64,11.44a3.33,3.33,0,0,1,.91.21,1.15,1.15,0,0,1,.59.69,1,1,0,0,1-.39.78,3.4,3.4,0,0,1-1.91.47A116,116,0,0,0,150.32,19c-3.58,1.25-7.09,2.66-10.63,4-1.81.69-2.91.66-2.91-.1,0-1.22,1.15-1.45,2-1.82a140.19,140.19,0,0,1,21.9-7.17,127.63,127.63,0,0,1,13.9-2.36C174.91,11.48,175.25,11.47,175.64,11.44Z"></path><path class="cls-5" d="M181.28,25.85c-.24.27-.4.62-.66.72a7.29,7.29,0,0,1-1.62.34,102.49,102.49,0,0,0-31.91,9.38c-.8.38-1.61.74-2.44,1.06s-1.59.14-1.75-.36c-.24-.79.39-1.13.94-1.48a7.43,7.43,0,0,1,.88-.47,110.23,110.23,0,0,1,29.07-9.56c1.76-.3,3.54-.49,5.32-.66a3.88,3.88,0,0,1,1.61.28C181,25.18,181.08,25.57,181.28,25.85Z"></path><path class="cls-5" d="M123.24,3.11c-.13.21-.22.6-.47.71A29,29,0,0,1,120,4.94c-4.42,1.51-8.87,3-13.28,4.5a90,90,0,0,0-9.8,4.16,23.93,23.93,0,0,1-2.45,1,1,1,0,0,1-1.19-.32.94.94,0,0,1,.4-1.36,12.18,12.18,0,0,1,1.72-1c2-.94,4-1.91,6-2.74,6-2.4,12.08-4.52,18.26-6.41a14.34,14.34,0,0,1,2.6-.56C122.78,2.2,123.12,2.56,123.24,3.11Z"></path><path class="cls-5" d="M98.71,18.21c-.36-.05-.73-.71-.53-1a3.27,3.27,0,0,1,.79-1,13.74,13.74,0,0,1,2-1.13,176.44,176.44,0,0,1,20.15-7.89,9.71,9.71,0,0,1,3.58-.74,1,1,0,0,1,1,.74.87.87,0,0,1-.59,1c-.62.24-1.26.43-1.9.63a155.58,155.58,0,0,0-22.61,8.88C99.42,18.31,99.39,18.3,98.71,18.21Z"></path><path class="cls-5" d="M167,35.47c.67.09,1.09.21,1.23.7a.83.83,0,0,1-.57,1,7.61,7.61,0,0,1-1.57.52,64.49,64.49,0,0,0-14.42,5.07,9.24,9.24,0,0,1-1.54.59,1.07,1.07,0,0,1-1.19-.36.83.83,0,0,1,.22-1.14,5.66,5.66,0,0,1,1.07-.74,63.65,63.65,0,0,1,15.65-5.54A6.91,6.91,0,0,1,167,35.47Z"></path><path class="cls-5" d="M277.5-22.13a.76.76,0,0,1-.63.66,21.32,21.32,0,0,1-4.65.53c-3.25.05-6.51.06-9.76.19a87.61,87.61,0,0,0-25.67,4.48,107,107,0,0,0-32,17.65c-1.45,1.17-2.86,2.38-4.29,3.56a2.58,2.58,0,0,1-1.45.73c-.34,0-.9-.48-.87-.81a2.47,2.47,0,0,1,1-1.57c2.08-1.77,4.11-3.6,6.29-5.25a110,110,0,0,1,34.42-17.53,98.83,98.83,0,0,1,15.8-2.92c5.91-.77,11.87-.27,17.78-.92a6.14,6.14,0,0,1,3.61.44A.68.68,0,0,1,277.5-22.13Z"></path><path class="cls-5" d="M300.9,14a.72.72,0,0,1-.33.82,4.19,4.19,0,0,1-2.57.56,91.53,91.53,0,0,0-13,1.36,121.4,121.4,0,0,0-36,11.77,117.89,117.89,0,0,0-23.48,15.79c-1.2,1-2.46,1.57-2.8.86-.55-1.18.55-1.72,1.23-2.32A112.5,112.5,0,0,1,245.24,28a123,123,0,0,1,38.65-13.27,86.52,86.52,0,0,1,14-1.52,20.23,20.23,0,0,1,2.33.14A.75.75,0,0,1,300.9,14Z"></path><path class="cls-5" d="M284-12.35c-.21.29-.34.62-.6.77a4.79,4.79,0,0,1-2.29.36,152.91,152.91,0,0,0-31.54,4.43A133.29,133.29,0,0,0,219.06,4.72a85.64,85.64,0,0,0-12.22,7.86,24.91,24.91,0,0,1-2.75,1.79,1,1,0,0,1-.88-.22.88.88,0,0,1-.21-.83,3.88,3.88,0,0,1,1-1.23c1.83-1.41,3.64-2.82,5.55-4.12A109.81,109.81,0,0,1,235.12-4.65,152.51,152.51,0,0,1,268-12.3c4.23-.5,8.46-.95,12.72-1.08a5.38,5.38,0,0,1,2.64.29C283.66-13,283.8-12.62,284-12.35Z"></path><path class="cls-5" d="M295,3c.06.72-.05,1-.34,1.19a4.22,4.22,0,0,1-2.26.47,133.11,133.11,0,0,0-37.54,8.09,124,124,0,0,0-34.43,19.51,16.61,16.61,0,0,1-1.9,1.28,1,1,0,0,1-1.23-.16.79.79,0,0,1-.07-1.14,10,10,0,0,1,1.39-1.37,129.87,129.87,0,0,1,56.16-26C280.2,3.81,285.65,3.2,291.1,2.6a7.49,7.49,0,0,1,3.33.13C294.72,2.84,295,3,295,3Z"></path><path class="cls-5" d="M285.87-4.44c1.36.05,2.28-.08,3.08.44a.72.72,0,0,1,.35.81,1,1,0,0,1-.34.51,3.59,3.59,0,0,1-1.94.39,150.75,150.75,0,0,0-41.34,8.05,132.63,132.63,0,0,0-31.15,15.48c-1,.68-2,1.35-3.05,2a3.73,3.73,0,0,1-1.24.43.69.69,0,0,1-.56-.25,1.15,1.15,0,0,1-.21-.86c.39-.93,1.34-1.39,2.14-1.95A137.46,137.46,0,0,1,239.07,5.94a149.45,149.45,0,0,1,36.58-9.29C279.2-3.8,282.77-4.12,285.87-4.44Z"></path><path class="cls-5" d="M303.74,22.44a2.43,2.43,0,0,1,.81.12,1.15,1.15,0,0,1,.61.66,1,1,0,0,1-.37.8,8.26,8.26,0,0,1-3.21.84,144.12,144.12,0,0,0-42.82,12.65A133.8,133.8,0,0,0,234.38,52.1c-1,.8-2.09,1.6-3.17,2.36a1.41,1.41,0,0,1-1.83.14c-.45-.36-.32-1.08.34-1.64s1.35-1.11,2.05-1.64a145.1,145.1,0,0,1,26-15.71,150.59,150.59,0,0,1,33.86-11.23C295.59,23.57,299.56,22.92,303.74,22.44Z"></path><path class="cls-5" d="M303.85,33.57c.71.18,1.15.29,1.24.8a.84.84,0,0,1-.64,1,31.86,31.86,0,0,1-3.22.88,174.19,174.19,0,0,0-28.75,8.86,178.53,178.53,0,0,0-32.85,17.28c-1.46,1-3,1.89-4.5,2.77-.19.12-.67,0-.9-.18a.71.71,0,0,1-.11-1.12,15.32,15.32,0,0,1,2-1.69,158.73,158.73,0,0,1,17.5-10.68,187.16,187.16,0,0,1,45.56-17C300.8,34.14,302.45,33.85,303.85,33.57Z"></path></g><g class="cls-4"><path class="cls-5" d="M761.12,285.32c2.19-1.66,4.44-3.24,6.52-5a4.4,4.4,0,0,1,5.48-.57c6,3.07,12.16,5.91,18.19,9q31.11,15.78,62.18,31.64c9.38,4.77,18.81,9.45,28.22,14.17.49.25,1,.49,1.47.76a2.84,2.84,0,0,1,1.64,3.47c-.05.2-.08.41-.13.62-1,4.37,1,7.75,5.36,9.87,1,.47,2.08.79,3.09,1.25a2,2,0,0,1,1,3.16,10.91,10.91,0,0,1-1.2,1.53c-8.48,9.7-16.92,19.44-25.46,29.1-8.69,9.81-17.51,19.53-26.24,29.31q-11.7,13.11-23.34,26.24c-.36.4-.75.78-1.13,1.17a3.89,3.89,0,0,1-3.62,1.23c-.34-.05-.67-.07-1-.15-8.57-1.9-16.76-4.51-24-9.51-30.24-20.85-60-42.27-90-63.49-.45-.32-.88-.66-1.33-1a7,7,0,0,1-3.18-6,21.39,21.39,0,0,1,4.06-13.18,159.87,159.87,0,0,1,11.43-14.09q9.2-10.32,19.06-20.07c5.18-5.12,10.44-10.17,15.93-15S755.19,289.85,761.12,285.32Zm2.2,3.62c-3,2.35-5.85,4.93-8.78,7.39-6,5.06-11.77,10.41-17.47,15.8-6,5.69-11.79,11.58-17.43,17.6-5.12,5.47-10.21,11-14.77,16.86-2.55,3.3-2.57,3.31.84,5.69q19.18,13.41,38.38,26.82,18,12.54,36,25a15.92,15.92,0,0,1,2,1.63,1,1,0,0,1,0,1.46,1.4,1.4,0,0,1-1.49.45,7.24,7.24,0,0,1-2.58-1.46c-8.25-5.67-16.51-11.32-24.72-17Q728.92,372.07,704.48,355c-.81-.57-1.62-1.14-2.47-1.64-1-.61-1.66-.45-2.18.54a16.62,16.62,0,0,0-1.67,5.78c-.32,2.6.2,4.86,2.92,6.19a5.22,5.22,0,0,1,.54.38c10.91,7.79,21.79,15.62,32.74,23.35q27.09,19.09,54.25,38.09,2,1.42,4.13,2.73c1.54.94,2.24.83,3.46-.51s2.27-2.62,3.39-3.94c.56-.66,1.15-1.3,1.66-2,.87-1.19.75-1.73-.51-2.64-.27-.2-.56-.35-.84-.53l-8.92-5.7c-.56-.35-1.12-.69-1.66-1.08a2.59,2.59,0,0,1-.68-.68,1.17,1.17,0,0,1,.07-1.47,1.27,1.27,0,0,1,1.2-.44,7.21,7.21,0,0,1,3,1.41c3.07,1.95,6.1,4,9.18,5.89,2,1.26,2.64,1.15,4.31-.55l.44-.48q12.64-14.2,25.29-28.42,11-12.36,22.16-24.68c7.09-7.91,14.23-15.78,21.23-23.76,2.66-3,3.48-2.87-1-5.1-6.73-3.39-13.49-6.73-20.2-10.14q-32.73-16.65-65.44-33.33c-5.14-2.61-10.38-5-15.5-7.68a4.07,4.07,0,0,0-5.14.58C766.71,286.49,765,287.67,763.32,288.94Zm115.47,54.71c-.54.55-.94.93-1.3,1.33q-16.5,18.38-33,36.77c-7.37,8.22-14.76,16.44-22.09,24.71S808,422.9,800.77,431.12a4.51,4.51,0,0,0-1.21,1.86c0,.18,0,.5.14.57a1.32,1.32,0,0,0,.89.25c1-.29,1.56-1.15,2.18-1.9q15.63-19,32.1-37.45,12.12-13.57,24.3-27.1,9.57-10.62,19.19-21.2a6.13,6.13,0,0,0,1.58-2.4c0-.16-.14-.38-.25-.54s-.23,0-.31,0A6.71,6.71,0,0,0,878.79,343.65Zm6.45,8.36c-.29-.06-.56-.2-.67-.13a6.36,6.36,0,0,0-1.29,1c-1.69,1.83-3.36,3.69-5,5.54q-14.53,16.23-29.07,32.46-18.74,21-36.6,42.63c-.84,1-2.26,1.85-2,3.4.1.68.85.11,3.18-2.68,6.74-8.05,13.43-16.13,20.3-24.07,8.44-9.74,17-19.38,25.6-29,7.43-8.32,15-16.57,22.45-24.86,1-1.12,2-2.27,2.95-3.44C885.21,352.65,885.18,352.3,885.24,352Zm-65.41,78.53c2.44-1.87,64.2-71,67.42-75.27.29-.39.83-.75.55-1.36-.21,0-.5-.07-.59,0C864.35,379.15,841.35,404.26,819.83,430.54Zm-12,5.24,1-1.15c3.3-4,6.54-8.06,9.92-12,8.61-10,17.19-20.05,25.94-30,10.4-11.77,21-23.41,31.45-35.11,1.88-2.1,3.74-4.22,5.6-6.33a8.69,8.69,0,0,0,.61-.75c.18-.25.37-.55,0-.73-.13-.06-.45.08-.57.22q-4.49,4.93-8.94,9.89c-7.49,8.28-15,16.52-22.47,24.84q-11.82,13.2-23.45,26.55c-6.25,7.2-12.34,14.52-18.48,21.79a20.49,20.49,0,0,0-1.52,2.08.54.54,0,0,0,.22.81C807.29,436,807.54,435.86,807.88,435.78Zm-4-1.25c.66,0,.91-.56,1.25-1,4.24-5.06,8.44-10.15,12.71-15.18,15.21-17.9,31-35.33,46.8-52.78q7.3-8.08,14.62-16.16a18.37,18.37,0,0,0,1.3-1.87q-22.26,23.63-43.66,47.83c-11.22,12.65-22.31,25.4-32.9,38.53C803.91,434.08,803.94,434.33,803.9,434.53Z"></path><path class="cls-5" d="M901.45,333.62a1.8,1.8,0,0,1-.65,0,14.71,14.71,0,0,1-1.82-.79,8.27,8.27,0,0,0-7.41-.41c-.31.12-.62.25-.94.34s-.93.38-1.27.05-.13-1,.16-1.42a8.1,8.1,0,0,0,.7-8.72,4.31,4.31,0,0,1-.27-.91.65.65,0,0,1,.87-.65c.71.3,1.41.63,2.1,1a7.83,7.83,0,0,0,6.47.48c.21-.07.41-.16.63-.23.73-.21,1.65-.84,2.2-.3.77.76-.18,1.54-.59,2.23a7.26,7.26,0,0,0-.5,7,12.54,12.54,0,0,1,.57,1.8C901.74,333.23,901.54,333.44,901.45,333.62Z"></path><path class="cls-5" d="M690.28,372.91a24.28,24.28,0,0,1-4.61-18.65,13.12,13.12,0,0,1,.71-2.42,1.28,1.28,0,0,1,1.55-.88,1.16,1.16,0,0,1,.74,1.28c-.06.52-.18,1-.27,1.56a21.24,21.24,0,0,0,4,17.38,5.44,5.44,0,0,1,1.46,2.44,1.31,1.31,0,0,1-.24.86,1,1,0,0,1-1.21.28C691.52,374.47,691,373.76,690.28,372.91Z"></path><path class="cls-5" d="M888.8,305.56c.1-.07.17-.18.27-.2s.48-.13.64,0c1.42.78,3-.17,4.44.4-.06,1.43-.79,2.8-.38,4.29.11.43-.31.74-.85.69a1.31,1.31,0,0,1-.64-.14c-1.19-.83-2.87.7-3.93-.73a10.59,10.59,0,0,0,.33-4C888.67,305.74,888.76,305.64,888.8,305.56Z"></path><path class="cls-5" d="M903.56,345.31a6.57,6.57,0,0,1,1,7,2.64,2.64,0,0,1-1.54,1.58,1.29,1.29,0,0,1-.93-.07,1,1,0,0,1-.46-.77,2.94,2.94,0,0,1,.34-1.2,4.9,4.9,0,0,0-.54-5.38,3.73,3.73,0,0,1-.51-.82.9.9,0,0,1,.25-1.14,1,1,0,0,1,1.23-.1A12.22,12.22,0,0,1,903.56,345.31Z"></path><path class="cls-5" d="M700.48,379.61a8.67,8.67,0,0,1,.37.79,1.05,1.05,0,0,1-1.11,1.23,3.25,3.25,0,0,1-2.6-2.21,1.08,1.08,0,0,1,.21-.89,1.12,1.12,0,0,1,1.21-.28A4.08,4.08,0,0,1,700.48,379.61Z"></path><path class="cls-5" d="M881.1,323.19a9.49,9.49,0,0,1-2.29-.41c-.54-.23-.22-.94-.13-1.44.2-1.09.45-1.29,1.47-1.24,1.22,0,1.46.27,1.53,1.49C881.7,322.08,882,322.63,881.1,323.19Z"></path><path class="cls-5" d="M898,316.33c-.7-.6-.36-2.4.34-2.57a5.08,5.08,0,0,1,1.3-.09c.89,0,1.09.23,1,1.14,0,.21-.06.41-.09.62-.17,1.08-.27,1.17-1.5,1.07A10.12,10.12,0,0,1,898,316.33Z"></path><path class="cls-5" d="M703,382.35a.82.82,0,0,1-.05,1.32.89.89,0,0,1-1.16-.05.82.82,0,0,1,0-1.31A.91.91,0,0,1,703,382.35Z"></path><path class="cls-5" d="M853,331.87a2.18,2.18,0,0,1,2.64-.1c3.54,1.82,7.12,3.58,10.64,5.44,1.91,1,2,1.82.47,3.5s-3.21,3.52-4.84,5.26l-23.13,24.68c-.15.16-.27.34-.42.49-1.64,1.68-2.23,1.84-4.36.8-3.39-1.65-6.73-3.38-10.08-5.08a5.36,5.36,0,0,1-.57-.34c-1-.69-1.23-1.47-.44-2.42,1.31-1.58,2.69-3.1,4.1-4.61q12-12.84,24-25.65C851.46,333.28,852,332.77,853,331.87Zm-16.11,37.58,4.31-4.62q11-11.73,22-23.47a7,7,0,0,0,1-1.29,1.07,1.07,0,0,0-.42-1.64q-4-2.07-8-4.07a2.06,2.06,0,0,0-2.46.38,15.75,15.75,0,0,0-1.19,1.12l-21.3,22.78c-1.62,1.74-3.24,3.49-4.83,5.26a.87.87,0,0,0,.07,1.4,65.41,65.41,0,0,0,9.15,4.63A1.6,1.6,0,0,0,836.85,369.45Z"></path></g><g class="cls-4"><path class="cls-5" d="M165.76,239.05a74,74,0,0,1-.53,7.59c-.14,1,.5,1.35,1.48.89,2.3-1.1,4.58-2.24,6.88-3.35,7-3.37,14-6.67,21.21-9.66a30.93,30.93,0,0,1,4.06-1.51c2-.52,3.35.83,2.72,2.7a20,20,0,0,1-1.36,2.89A435.85,435.85,0,0,1,174.52,281c-.62.89-1.87,1.61-1.39,3,1.2.28,2.15-.38,3.17-.73A157.64,157.64,0,0,1,207.94,276a154.61,154.61,0,0,1,28.2-.95,99,99,0,0,1,26.63,5.1c3.92,1.33,7.52,3.3,11.36,4.78a2.91,2.91,0,0,1,1.77,3.16c-.13,2.64-.4,5.26-.64,7.89a9.9,9.9,0,0,0-.25,1.56,44.83,44.83,0,0,1-.61,11,3.11,3.11,0,0,0,2,3.63,3.7,3.7,0,0,1,.6.29c1.68,1.07,1.85,2.29.32,3.63-2.23,1.93-4.59,3.73-6.87,5.61-6.91,5.72-13.88,11.38-20.7,17.19-11.07,9.43-22,19-33.07,28.44-8.51,7.2-17.24,14.18-25.84,21.29a4.25,4.25,0,0,1-4,1c-2.94-.68-5.92-1.19-8.87-1.84q-19.83-4.35-39.65-8.74-36-8-72-16.05Q43.87,358,21.41,353q-19.83-4.34-39.68-8.62a23.64,23.64,0,0,1-3.24-.82,2.08,2.08,0,0,1-.87-3.59,5.91,5.91,0,0,1,1-.81,11.36,11.36,0,0,0,4.28-5.56c2.49-6.24,2.94-12.54.55-18.91-.11-.3-.26-.59-.34-.89a2.05,2.05,0,0,1,1.1-2.71c1.83-1,3.73-1.95,5.59-2.92,4.42-2.29,8.88-4.53,13.26-6.9,4-2.19,3.58-2.17,1-5-3.9-4.23-7.86-8.41-11.79-12.61A15.84,15.84,0,0,1-9.14,282a1.93,1.93,0,0,1,.42-2.84,13.9,13.9,0,0,1,1.91-1.29c13.74-8.22,27.71-16.08,42-23.45Q51.85,245.81,69,238q19.7-9,39.93-16.85c.73-.28,1.45-.57,2.19-.81,2-.63,2.87-.39,3.9,1.38s2,3.81,2.89,5.72c1.21,2.46,1.35,2.53,4.06,1.5,3.54-1.35,7-2.77,10.6-4.08s4.41-.9,5.63,2.61a73.33,73.33,0,0,1,2.62,10.48c.2,1,.37,2.09.62,3.12.19.77.73,1,1.53.66,4.09-1.76,8-3.81,11.9-5.94,2-1.11,4-2.3,6-3.44a14.06,14.06,0,0,1,1.76-.93,2,2,0,0,1,2.88,1.34,14.05,14.05,0,0,1,.24,2.83C165.79,236.72,165.76,237.89,165.76,239.05ZM213.4,344.17c1.47-.69,2.26-1.45,1.67-1.36-.81.12-1.23.78-1.65,1.38-1.48.68-2.29,1.45-1.69,1.36C212.55,345.43,213,344.77,213.4,344.17Zm6.06-4.45c1.48-.69,2.25-1.43,1.66-1.34-.79.12-1.21.78-1.64,1.37-1.48.68-2.27,1.44-1.68,1.35C218.61,341,219,340.31,219.46,339.72Zm-2-1.9c.67-.32,1.62-.34,1.65-1.36a3.23,3.23,0,0,0-1.63,1.39c-.68.31-1.61.34-1.66,1.35A3.43,3.43,0,0,0,217.44,337.82Zm6.06-4.44c1.48-.7,2.25-1.44,1.67-1.35-.8.13-1.22.79-1.64,1.37-1.49.7-2.25,1.44-1.68,1.34C222.64,334.62,223.07,334,223.5,333.38Zm-6.72-2.51a4.52,4.52,0,0,0-2.69,1.89,4.65,4.65,0,0,0-2.71,1.89,19.54,19.54,0,0,0-2,1.07q-8.34,5.8-16.65,11.67c-.52.36-1.16.66-1.17,1.42,0,.47.89.26,1.92-.5q8.06-5.91,16.08-11.85a19.61,19.61,0,0,0,1.86-1.79,4.56,4.56,0,0,0,2.68-1.92,4.69,4.69,0,0,0,2.68-1.91c1.5-.7,2.25-1.43,1.67-1.34A2.66,2.66,0,0,0,216.78,330.87Zm8.76,4.44c-1.49.71-2.24,1.44-1.66,1.34.79-.13,1.2-.78,1.63-1.37,1.49-.69,2.24-1.42,1.67-1.33C226.4,334.08,226,334.73,225.54,335.31Zm4-6.37a4.69,4.69,0,0,0,2.7-1.91,6.5,6.5,0,0,0,3.37-2.53,4.42,4.42,0,0,0,2.7-1.9,35.62,35.62,0,0,0,8.77-6.33,6.44,6.44,0,0,0,2.3-1.25L269,301.21a11.49,11.49,0,0,0,1-.82.34.34,0,0,0,.09-.29.32.32,0,0,0-.5-.22,13.11,13.11,0,0,0-1.41.84q-9.48,6.76-18.93,13.55a23.45,23.45,0,0,0-2.14,2,35,35,0,0,0-8.74,6.37,4.65,4.65,0,0,0-2.69,1.9,6.47,6.47,0,0,0-3.36,2.55,4.44,4.44,0,0,0-2.69,1.9c-1.49.69-2.27,1.45-1.68,1.36C228.72,330.19,229.14,329.54,229.56,328.94Zm-22.21,19.69a6.3,6.3,0,0,0-3.37,2.54,16.91,16.91,0,0,0-6.07,4.43,13.85,13.85,0,0,0-5.71,4.55c1.88-1.54,4.22-2.55,5.71-4.55a17.79,17.79,0,0,0,6.06-4.45,6.54,6.54,0,0,0,3.36-2.54c1.47-.66,2.29-1.44,1.68-1.36C208.2,347.37,207.77,348,207.35,348.63Zm54.55-50.15c3.18-1.55,5.83-3.83,8.74-5.76a.51.51,0,0,0,.2-.24c0-.19.12-.44,0-.57a.57.57,0,0,0-.55-.09c-1.51,1.09-3,2.17-4.46,3.31s-3,1.89-3.94,3.37c-1.47.65-2.26,1.4-1.69,1.32C261,299.7,261.46,299.05,261.9,298.48Zm-43.13,60.9a17.68,17.68,0,0,0-2,1.14c-1.81,1.42-3.58,2.87-5.34,4.34-5.63,4.67-11.16,9.45-17.14,13.74-.71.51-1.41,1-2.07,1.61a3.57,3.57,0,0,0-.77,1,.62.62,0,0,0,0,.59.6.6,0,0,0,.55.17,9.71,9.71,0,0,0,1.33-1c6.75-5.55,13.52-11.08,20.22-16.67a30.77,30.77,0,0,0,5.21-4.92,5.93,5.93,0,0,0,3.05-2.54A7,7,0,0,0,218.77,359.38Zm49.9-72.07a8.49,8.49,0,0,0-.9-.59c-1.31-.6-2.61-1.23-3.95-1.76a92.31,92.31,0,0,0-29.14-5.89,141,141,0,0,0-26.84,1.08,154.68,154.68,0,0,0-28.41,6.42,54.56,54.56,0,0,0-15.81,8.19c-15.35,11.7-31,23.11-46.44,34.65Q103.07,339.93,89,350.49c-.51.38-1.19.63-1.26,1.38.54.48,1,.07,1.53-.08,2.89-.85,5.76-1.78,8.67-2.57a206,206,0,0,1,37-6.57c7.15-.59,14.31-1.08,21.49-1,2.35,0,4.69.37,7,.4a157.21,157.21,0,0,1,22.73,2.23,6.2,6.2,0,0,0,5.54-1.33,9.65,9.65,0,0,1,.81-.56C207.64,331.68,222.85,321,238,310.23c9.21-6.57,18.27-13.32,27.38-20A13.55,13.55,0,0,0,268.67,287.31ZM71.3,343c0,3.21,0,7.12,0,11,0,.8-.32,1.86.76,2.22.92.31,1.7-.37,2.38-.91A15.12,15.12,0,0,0,75.89,354c1.27-1.34,2.52-2.7,3.77-4.05a165,165,0,0,0,23.07-32.27,158.74,158.74,0,0,0,15.48-39.77,8.11,8.11,0,0,1,4-5.47c10.13-6.06,20.33-12,30.75-17.65l5.84-3.15a2.94,2.94,0,0,0,1.82-2.47c.2-3.38.43-6.75.65-10.12a4.46,4.46,0,0,0-.05-.63.8.8,0,0,0-1.22-.62,10.21,10.21,0,0,0-1.2.58c-10.09,5.8-20.9,10.19-31.84,14.34-10.4,3.94-21,7.48-31.3,11.64A228.94,228.94,0,0,0,67.22,278c-.77.44-1.52.9-2.25,1.39a1.79,1.79,0,0,0-.81,1.95c.11.62.29,1.24.43,1.86a266.14,266.14,0,0,1,6,38.54A156.67,156.67,0,0,1,71.3,343Zm-4.85,12.67c.18-2.66.48-5.27.53-7.87.08-5.18-.07-10.35-.35-15.53-.33-6.23-.74-12.44-1.42-18.65a253.62,253.62,0,0,0-5.41-31.27c-1-4.14-.88-4.32,3-6.65a206.18,206.18,0,0,1,32-15.43c9.76-3.77,19.63-7.28,29.43-10.95,3.75-1.4,7.47-2.9,11.2-4.36a2.11,2.11,0,0,0,1.52-2.5,84.84,84.84,0,0,0-2.2-10.9c-.76-2.6-1-2.76-3.73-1.7-5.08,2-10.15,4-15.18,6.07q-33.76,14-66.25,30.42C43.29,269.55,37,272.87,31,276.62c-.75.47-1.51.93-2.21,1.45-1.08.8-1.23,1.34-.71,2.47a18.33,18.33,0,0,0,.91,1.69c1.79,3,3.62,6.09,5.39,9.16q9.33,16.16,17.43,32.9Q59,339,65.2,354.09C65.43,354.64,65.46,355.35,66.45,355.65Zm25.91-13.4c.65.09,1-.39,1.4-.7,4-2.95,7.9-5.93,11.86-8.87l54.21-40.24a19.19,19.19,0,0,0,4.34-4.38c4.67-6.59,9.32-13.2,13.67-20,5.21-8.15,10.21-16.42,14.92-24.83.47-.84.87-1.72,1.26-2.59.16-.37-.39-.89-.79-.74-1.15.4-2.32.79-3.42,1.3-7.57,3.47-15.1,7-22.51,10.78-14.31,7.32-28.24,15.23-41.93,23.52a5.9,5.9,0,0,0-2.94,4,156.48,156.48,0,0,1-8,24.18,173,173,0,0,1-21.36,37C92.68,341.09,92.05,341.5,92.36,342.25ZM110.56,225c-.55.2-1.39.48-2.21.81Q77.09,238.07,47.18,253,25.16,264,4,276.39c-2.1,1.22-4.2,2.44-6.27,3.72-1.51.93-1.53,1.39-.33,2.77.15.16.31.31.45.47C2.54,288.44,7.3,293.51,12,298.63q13.44,14.64,25.9,30c7.05,8.64,14,17.35,20.65,26.25.62.83,1,1.92,2.35,2.08,1-1.11-.12-2-.48-2.83q-6-14.65-13-28.91C41.09,312.38,34.34,299.73,27,287.36c-1.42-2.39-2.9-4.77-4.25-7.2-.9-1.63-.7-2.45.76-3.62a32.25,32.25,0,0,1,3-2.05,331.32,331.32,0,0,1,30.92-16.77C75,249.06,93,241,111.07,233.35c3.76-1.59,4.33-.93,2.14-5.52-.37-.77-.79-1.52-1.23-2.25C111.75,225.2,111.39,224.94,110.56,225ZM36.41,333.84a10.74,10.74,0,0,0-.68-1.06c-5.22-6.22-10.42-12.44-15.68-18.62-2.87-3.38-5.84-6.69-8.79-10-1.53-1.72-1.78-1.78-3.6-.65-4.42,2.73-9.09,5-13.74,7.36-.59.3-1.16.63-1.72,1a.55.55,0,0,0,.1,1c.52.2,1,.38,1.58.54a122,122,0,0,1,16.77,6.51,192.52,192.52,0,0,1,22.22,12.51c.92.59,1.88,1.14,2.85,1.67C35.83,334.14,36.09,334,36.41,333.84Zm62.66,27.78c4.55.47,9.1.92,13.65,1.42,6.46.69,12.92,1.35,19.36,2.14q11.16,1.38,22.29,3c7.75,1.12,15.48,2.37,23.21,3.59,2.32.37,4.62.84,6.93,1.26a1.47,1.47,0,0,0,1.52-.43,2.67,2.67,0,0,0-1.49-4.06c-.86-.22-1.75-.39-2.63-.53-13.71-2.08-27.42-4.17-41.27-5.37-7.37-.65-14.73-1.23-22.13-1.28a25,25,0,0,1-3.36-.1C109.76,360.45,104.43,361.57,99.07,361.62Zm-6.66,2c2.66.31,5.33.55,8,.93q12,1.72,23.89,3.54c11.95,1.83,23.79,4.13,35.57,6.73,8,1.76,15.9,3.63,23.81,5.56,2.46.6,2.83-.4,2.81-2.16,0-.31,0-.63,0-.95a1.9,1.9,0,0,0-1.51-1.87c-.54-.15-1.06-.33-1.61-.44-7.9-1.54-15.84-2.83-23.82-3.95-7.09-1-14.18-2-21.28-2.9Q129.39,367,120.56,366c-5.45-.62-10.9-1.26-16.36-1.7C100.3,364,96.43,363.29,92.41,363.61Zm20.17-9.84c1.83.58,3.56,0,5.34-.13,6.25-.4,12.5-1,18.76-1.1,6.48-.08,13,.31,19.46.63,3.8.19,7.58.63,11.36,1,4.24.38,8.47.78,12.7,1.13,1.56.12,3.13.14,4.69.12a1.29,1.29,0,0,0,1.36-1.16,1.25,1.25,0,0,0-.94-1.49,21.06,21.06,0,0,0-2.93-.67A167.43,167.43,0,0,0,157,350c-4.48.05-9-.09-13.44.21-6.36.42-12.7,1.1-19,1.81C120.52,352.49,116.56,353.19,112.58,353.77Zm-19.73,1.51a7.75,7.75,0,0,0,3-.5A352.4,352.4,0,0,1,133.28,349c5.69-.5,11.37-1.09,17.1-1.1s11.64-.05,17.47.47c5.25.46,10.48,1,15.68,1.79a12,12,0,0,0,1.33.15c.83.05,1.49-.38,1.48-.94s-.54-.86-1.08-1a1.14,1.14,0,0,0-.33-.06,146.76,146.76,0,0,0-17.35-1.89c-12.89-.52-25.77-.54-38.63,1a224.9,224.9,0,0,0-34.77,7.19C93.7,354.7,93.13,354.73,92.85,355.28Zm18.54,13.32a48.29,48.29,0,0,0,7.39,1.8q29.94,6.64,59.88,13.24c2.19.48,4.38.9,6.58,1.3a1.14,1.14,0,0,0,.82-.42.79.79,0,0,0-.22-1.13,7.52,7.52,0,0,0-3.11-1.09q-33.66-8.39-68-13.67A8.14,8.14,0,0,0,111.39,368.6Zm6.13-9.58c4.76.29,9.57.34,14.38.73,6.81.56,13.61,1.18,20.4,1.95,10,1.14,20,2.66,29.92,4.25a17.06,17.06,0,0,0,2.67.21,1.39,1.39,0,0,0,1.42-1.13c.53-2.07-.35-3.24-2.61-3.48-.56-.06-1.12-.05-1.68-.08-3.92-.26-7.85-.35-11.74-.81-5.13-.62-10.29-.52-15.43-.94-5.58-.46-11.2-.39-16.81-.63C131.22,358.79,124.36,359,117.52,359Zm-67.74-8a5.33,5.33,0,0,0-3-2.77q-5.45-2.83-10.91-5.64c-8.28-4.25-16.57-8.46-25.23-12a123.85,123.85,0,0,0-16.76-5.7,24.63,24.63,0,0,0-3-.6,1.22,1.22,0,0,0-1.3.79,1.61,1.61,0,0,0,1.08,2.51A11.22,11.22,0,0,0-8,328c10.31,1.94,19.91,5.77,29.34,10,8.29,3.74,16.54,7.58,24.8,11.38Zm60.82,5.56a13.81,13.81,0,0,0,1.48.24c11.43-.08,22.86,0,34.29.44,6.5.26,13,.86,19.48.86.22,0,.45,0,.67,0l17.42,1.22a8.45,8.45,0,0,0,1.67,0,.62.62,0,0,0,.5-.71.78.78,0,0,0-.3-.53,2.18,2.18,0,0,0-.91-.36c-2.56-.25-5.12-.49-7.69-.7-3.57-.29-7.15-.5-10.72-.83-5.91-.55-11.82-1.05-17.76-1.18-2.91-.07-5.82-.3-8.73-.41-1.23-.05-2.47,0-3.7,0-2.12.1-4.24.33-6.37.35C123.65,355.09,117.45,355.86,110.6,356.58ZM270,296.25c-.14,0-.27-.08-.33,0-1.66,1.08-3.34,2.13-4.95,3.27q-21.3,15.24-42.57,30.52c-9.44,6.81-18.8,13.72-28.19,20.59a7.25,7.25,0,0,0-2.39,2.18.58.58,0,0,0,0,.56.62.62,0,0,0,.57.09c1-.67,2-1.37,3-2.08q25.59-18.82,51.19-37.64c7.35-5.38,14.82-10.61,22.23-15.92C269.14,297.37,270,297.15,270,296.25ZM35.05,346.91c-.17-.61-.79-.68-1.26-.89-6.05-2.75-12.08-5.53-18.18-8.18A122.68,122.68,0,0,0-5.2,330.75c-1.52-.36-3.06-.62-4.61-.85a1.18,1.18,0,0,0-1.32.77,1,1,0,0,0,.65,1.27c.72.29,1.45.54,2.2.77,2.34.71,4.7,1.38,7,2.1,11.59,3.59,23.06,7.51,34.43,11.68C33.77,346.71,34.32,347.22,35.05,346.91Zm.87,3c-.88-.35-1.68-.68-2.49-1-8.43-3.21-17-6.13-25.56-8.94-5.09-1.66-10.21-3.22-15.33-4.79a25.87,25.87,0,0,0-3.58-.85A1.91,1.91,0,0,0-13.09,336c-.15.68.3,1.2,1.36,1.52.43.12.88.18,1.31.28q22.74,5.24,44.94,12.2C34.91,350.15,35.33,350.44,35.92,349.88ZM31.85,335c.06-.78-.44-.91-.77-1.13A176.35,176.35,0,0,0,3.32,319,98.53,98.53,0,0,0-8,315.05a15.37,15.37,0,0,0-1.62-.41c-.56-.09-1.13-.08-1.44.5s.09,1.12.89,1.48c.61.26,1.25.48,1.88.7,6.09,2.16,12.05,4.6,18,7.16,6.63,2.87,13.11,6,19.53,9.28C30,334.19,30.9,334.55,31.85,335ZM22.6,349.05l.09-.31a6.49,6.49,0,0,0-.91-.38C13.93,346.24,6.1,344.1-1.77,342c-3.55-.93-7.15-1.71-10.73-2.54a3.2,3.2,0,0,0-2.59.11.9.9,0,0,0-.35.51c0,.17.1.48.24.53a21.86,21.86,0,0,0,2.54.76q10.13,2.2,20.26,4.38Zm1.67-14.8.27-.46c-3.18-1.53-6.35-3.07-9.55-4.57-6.82-3.22-13.8-6.08-20.87-8.78-1.14-.43-2.32-.78-3.5-1.11a1.2,1.2,0,0,0-.91.19.86.86,0,0,0-.22,1.15,2.06,2.06,0,0,0,.79.95,11.22,11.22,0,0,0,2.2.76,136.08,136.08,0,0,1,20.85,7.07C17,331,20.62,332.65,24.27,334.25Zm188.19,26.47c-.37-.16-.61.09-.85.27q-8.93,6.75-17.82,13.53c-.7.53-1.35,1.12-2,1.71a.78.78,0,0,0-.2.56.59.59,0,0,0,.36.43c.62.08,1-.36,1.45-.68,6.5-4.7,12.45-10,18.64-15.07C212.28,361.28,212.57,361.09,212.46,360.72ZM31.69,338l.24-.48-2.65-1.1-.17.34ZM194.9,367.2c-.48.82-1.57.73-1.24,2.07C194,368.5,195,368.54,194.9,367.2Zm-107-4.2,0-.12H86.25V363Zm18.45-5.71.6-.07a1.56,1.56,0,0,0-.54-.15,3.42,3.42,0,0,0-.67.16Zm109.69.94c-.12-.1-.23-.22-.25-.21a2.8,2.8,0,0,0-.78.55c-.17.22,0,.42.29.29A4.68,4.68,0,0,0,216,358.23Zm-17.59,7.13c0-.1,0-.26,0-.27-.5-.19-.69.21-1,.47-.05,0,0,.24,0,.25C197.94,366,198.12,365.58,198.41,365.36Zm34.39-35a2.77,2.77,0,0,0,.62-.66c.09-.22-.17-.3-.44-.12s-.58.31-.52.69C232.47,330.3,232.64,330.31,232.8,330.35Z"></path><path class="cls-5" d="M236.85,252.92c-.08.18-.12.44-.26.51a14.64,14.64,0,0,1-1.54.63c-1.05.38-2.1.73-3.15,1.11a11.21,11.21,0,0,0-6.83,6.58c-.52,1.28-1,2.58-1.48,3.87a.66.66,0,0,1-.75.49,1.2,1.2,0,0,1-.73-.54c-.46-1.08-.85-2.18-1.25-3.27a12,12,0,0,0-8-7.55c-1.06-.34-2.12-.69-3.17-1.05-.41-.14-.91-.27-.81-.8s.54-.63,1-.77c1.26-.43,2.53-.84,3.79-1.28a11.07,11.07,0,0,0,6.63-5.94c.68-1.45,1.24-2.94,1.87-4.41a.68.68,0,0,1,.75-.49,1.14,1.14,0,0,1,.74.5c.36.77.63,1.58.92,2.38a12.55,12.55,0,0,0,8.8,8.45c1.07.31,2.11.7,3.15,1.08C236.65,252.49,236.73,252.75,236.85,252.92Z"></path><path class="cls-5" d="M244.64,235a3,3,0,0,1,.69.09c.17.13.39.27.46.44a7.25,7.25,0,0,0,4.7,4.65c.84.28.88,1.11.1,1.38a7.65,7.65,0,0,0-4.84,4.54.75.75,0,0,1-1.33.09,1.34,1.34,0,0,1-.17-.27,7.06,7.06,0,0,0-4.61-4.31c-.86-.31-.9-1.09-.08-1.38a7.21,7.21,0,0,0,4.73-4.61A3.16,3.16,0,0,1,244.64,235Z"></path><path class="cls-5" d="M108.53,211.34a13,13,0,0,1,9.46,3.35,4.47,4.47,0,0,1,1.68,2.67.87.87,0,0,1-.6,1,1.21,1.21,0,0,1-.94,0,11.72,11.72,0,0,1-1.41-1.32,10.15,10.15,0,0,0-10.62-2.92,15.94,15.94,0,0,1-1.62.4,1.1,1.1,0,0,1-1.35-.66c-.22-.6.15-1,.61-1.34a6.61,6.61,0,0,1,3.12-1.06C107.64,211.35,108.42,211.35,108.53,211.34Z"></path><path class="cls-5" d="M210.87,236.06c0-.45,0-.34,0-.24-.08.63-.18,1.26-1,1.51-.6.2-1.13-.31-1.43-1.38-.11-.41-.19-.82-.28-1.24a9.44,9.44,0,0,0-4-6c-.61-.44-1.39-.74-1.71-1.46a1.12,1.12,0,0,1,0-.88,1.28,1.28,0,0,1,.77-.51,1.94,1.94,0,0,1,1,.1C207.74,227.27,210.94,231.86,210.87,236.06Z"></path><path class="cls-5" d="M229.91,221.87c.76.12,1,.78,1.41,1.25s1.58.6,1.68,1.42-1.05.93-1.51,1.46-.54.92-.85,1.34a.81.81,0,0,1-1.37.1,1.29,1.29,0,0,1-.35-.52c-.15-1.31-2.52-1.12-2.13-2.42.31-1,1.91-1.32,2.54-2.35C229.42,222,229.71,222,229.91,221.87Z"></path><path class="cls-5" d="M245.34,260.69c-.06.19-.05.45-.18.55-.43.31-.93.55-1.38.84-.7.45-.5,1.82-1.65,1.71-1-.09-1-1.3-1.72-1.78s-1.65-.43-1.41-1.44c.17-.68,1-.75,1.51-1.12.26-.18.46-.44.71-.65,1.05-.88,1.13-.94,2,.05a9.83,9.83,0,0,0,1.79,1.34A2.09,2.09,0,0,1,245.34,260.69Z"></path></g><g class="cls-4"><path class="cls-5" d="M1449.76,272a7.15,7.15,0,0,0-6.66,2.92.75.75,0,0,1-1.42-.36,7.6,7.6,0,0,0-3.29-5.64.64.64,0,0,1,.38-1.17,8.21,8.21,0,0,0,5.94-3.17c.53-.63,1.21-.38,1.42.45a1.08,1.08,0,0,1,.07.31c0,2.62,1.56,4.3,3.93,5.44Z"></path><path class="cls-5" d="M1154.12,250.92c-1.29-1.25-2-1.92-2.68-2.6a12.52,12.52,0,0,1-3.79-8.27,17.4,17.4,0,0,1,1-7.82,32.61,32.61,0,0,1,7.42-11.59,14.14,14.14,0,0,1,14.06-4,9.76,9.76,0,0,0,1.31.25.55.55,0,0,0,.63-.58c0-.63-.2-1.25-.31-1.87-1.65-9.12,1.15-17,7.92-23.52a21.66,21.66,0,0,1,15.7-6.21,17.92,17.92,0,0,0,3.35-.17,15.33,15.33,0,0,1,4.68.15c7.12.91,14.23,1.77,21.34,2.7,4.22.55,8.43,1.18,12.64,1.82q8.29,1.28,16.58,2.63c3.31.54,6.61,1.19,9.91,1.78,4,.71,7.94,1.38,11.9,2.13a64.38,64.38,0,0,1,12.54,3.52q11.42,4.68,22.71,9.6c8.14,3.56,16.29,7.09,24.38,10.75q16.68,7.55,33.27,15.27c11.06,5.15,22.08,10.37,33.11,15.57a15.51,15.51,0,0,1,2,1.12,2.51,2.51,0,0,1,.44,4.09,12,12,0,0,1-1.84,1.37,28.64,28.64,0,0,0-12.3,17.6c-1,4.14-.94,8.26,1.49,12,1.45,2.22.67,4-.55,5.87a4.92,4.92,0,0,1-.67.7c-5.4,5.59-7.54,12.37-8.15,19.7a15.34,15.34,0,0,0,.58,4.71c.36,1.6.83,3,2.91,3.45a2,2,0,0,1,1.44,2.27,2.79,2.79,0,0,1-1.72,2.54,7.38,7.38,0,0,1-2,.44,11.8,11.8,0,0,0-7.13,3.88,15.46,15.46,0,0,0-2.22,2.79c-3.83,6.6-5.49,13.59-3.93,21.09a11.9,11.9,0,0,0,2.75,5.7c1.47,1.63,1.32,2.55-.64,3.93a21.4,21.4,0,0,0-7.06,8.34,19.44,19.44,0,0,0-2.28,9.18,22.31,22.31,0,0,0,.41,3.14,2.91,2.91,0,0,0,2.39,2.71,1.76,1.76,0,0,1,1.36,2,2,2,0,0,1-1.36,1.68,5.94,5.94,0,0,1-2.59.61c-4.73-.16-9.41.43-14.11.69-16.25.92-32.5,1.64-48.77,1.82-9.88.12-19.75,0-29.63.16a29.53,29.53,0,0,1-12.94-2.89c-15.3-7.08-30.6-14.17-45.71-21.62-14.22-7-28.3-14.24-42.16-21.86q-17.88-9.83-35.17-20.57a10.94,10.94,0,0,1-4.54-5.29,20.13,20.13,0,0,1-1.51-11.2,15.89,15.89,0,0,1,11.1-13.21c.53-.19,1.08-.31,1.6-.5s.85-.73.5-1.26-.88-1.22-1.32-1.83a26,26,0,0,1-4.62-20.26,30.5,30.5,0,0,1,8.31-16.33,24.84,24.84,0,0,1,7.1-5.27C1152.08,251.57,1152.85,251.37,1154.12,250.92Zm190.34,112.32c1.22.07,2.44.2,3.66.21,5.24.06,10.48.08,15.73.13a3.18,3.18,0,0,0,1.92-.36.38.38,0,0,0,.12-.28.34.34,0,0,0-.14-.26,2.61,2.61,0,0,0-1.61-.24c-4.24.09-8.48.14-12.71.29a34.77,34.77,0,0,0-7,.46,39.07,39.07,0,0,0-9.9.33C1337.85,363.56,1341.16,363.83,1344.46,363.24Zm-162.18-99.78a1.81,1.81,0,0,0-2.16.43c-1.57,1.64-3.2,3.26-4.63,5a55.17,55.17,0,0,0-11.21,23.84,77,77,0,0,0-1,8.18,3.07,3.07,0,0,0,2.11,3.56c.92.36,1.78.89,2.67,1.34l70.1,35.05a20.34,20.34,0,0,0,2.14.93.82.82,0,0,0,1.17-.73c.08-.52.09-1.05.16-1.58a65.47,65.47,0,0,1,13-31.92c1.57-2,3.35-4,5-5.93,1-1.2.93-1.73-.45-2.49-.29-.16-.61-.28-.91-.42-6.51-3.07-13-6.16-19.55-9.2q-23.22-10.8-46.46-21.56C1189,266.44,1185.61,265,1182.28,263.46Zm-12.84-42.76a9.38,9.38,0,0,0-6.58.31,11.08,11.08,0,0,0-3.74,2.65,25.84,25.84,0,0,0-6.79,12.91c-1,4.54.54,8.15,4.63,10.7a37.5,37.5,0,0,0,6.14,3.26q4.67,1.83,9.21,3.89c10,4.52,20,9,30,13.65q24.46,11.3,48.89,22.72c12.64,5.94,25.2,12,37.8,18.08a13.77,13.77,0,0,0,1.53.65,1,1,0,0,0,1.22-.76,12.1,12.1,0,0,0,.1-1.9,42.84,42.84,0,0,1,2.46-15,27,27,0,0,1,7.5-11.85,17.8,17.8,0,0,0,1.36-1.39.52.52,0,0,0-.16-.82c-1.08-.56-2.18-1.1-3.29-1.59q-7.32-3.23-14.64-6.43-8.4-3.68-16.81-7.3-11.46-5-23-9.86-11-4.74-22-9.46c-7.77-3.31-15.56-6.57-23.34-9.85s-15.76-6.67-23.65-10C1174,222.43,1171.72,221.59,1169.44,220.7ZM1303,272.86c.62-.91.17-1.73.08-2.53a28.57,28.57,0,0,1,1.23-12.86,31.64,31.64,0,0,1,9.56-14.34,15.66,15.66,0,0,0,1.21-1.09.74.74,0,0,0-.2-1.31c-2.19-1.07-4.38-2.14-6.61-3.12q-12.66-5.55-25.35-11-9.63-4.16-19.32-8.18c-8.53-3.51-17.09-6.94-25.63-10.42q-10.8-4.41-21.58-8.85c-7.4-3-14.81-6-22.18-9.15a6.31,6.31,0,0,0-4.86-.13,19.42,19.42,0,0,0-8.26,5.81,23.54,23.54,0,0,0-5.26,12.85,15.46,15.46,0,0,0,1.94,9.52,6.19,6.19,0,0,0,3.34,2.93c5,2,9.88,4,14.79,6.11,7.76,3.29,15.51,6.63,23.27,9.94,9.09,3.87,18.2,7.71,27.28,11.59q11.34,4.85,22.63,9.77c8.85,3.85,17.68,7.76,26.56,11.54C1298.09,271,1300.37,272.35,1303,272.86Zm-169.38,36.73a14.41,14.41,0,0,0,.67,10.54,7.76,7.76,0,0,0,3.32,3.84c3.32,2,6.61,4,9.91,6,20.41,12.3,41.51,23.49,63,34.08,13.2,6.52,26.56,12.75,39.86,19.1,1.4.67,2.81,1.31,4.25,1.9.92.39,1.55,0,1.67-.9a38.72,38.72,0,0,1,.53-4.72c1.68-6.74,3.86-13.28,9.51-18.19a.86.86,0,0,0-.14-1.57c-.65-.4-1.33-.78-2-1.13q-21.39-10.71-42.77-21.4-34.92-17.44-69.82-34.89a13.7,13.7,0,0,0-7.43-1.48c-4.51.36-7.78,2.51-9.61,6.45C1134.19,308,1134,308.79,1133.65,309.59Zm258.16-58.77c-.08-.66-.54-.77-.92-.95l-5.42-2.54c-8-3.76-16-7.57-24.1-11.28q-15.27-7-30.6-13.92c-6.67-3-13.35-6-20.08-8.92-8-3.42-16-6.64-24-10.07a55.14,55.14,0,0,0-11.56-3.3c-3.84-.73-7.71-1.35-11.57-2-5.62-1-11.22-2.08-16.86-3-6.51-1-13.06-2-19.6-2.86q-10.82-1.5-21.64-2.89c-1.44-.19-2.9-.28-4.35-.38a.74.74,0,0,0-.54.32.55.55,0,0,0,.31.77c2.57,1.06,5.15,2.08,7.72,3.14,7,2.87,14,5.76,20.95,8.61,5.56,2.26,11.16,4.43,16.71,6.71q12.63,5.19,25.23,10.48c7.79,3.25,15.6,6.45,23.33,9.83,8.84,3.88,17.6,7.93,26.38,11.92a13.45,13.45,0,0,0,4.16,1.21c6.14.59,12.25,1.3,18.35,2.2,8.08,1.2,16.18,2.31,24.26,3.5,6.42,1,12.83,2,19.25,3C1388.76,250.57,1390.27,250.67,1391.81,250.82Zm-141.19,80.07c-.26.88-.58,1.89-.87,2.91a56.71,56.71,0,0,0-1.73,10,2.59,2.59,0,0,0,1.62,2.84c.49.25,1,.46,1.5.71,5,2.54,10.07,5.12,15.14,7.6,4.59,2.25,4.15,2.51,4.56-2.32a58.76,58.76,0,0,1,4.73-19.69c3-6.65,6.44-13,11.74-18.35.93-.94.77-1.54-.54-2.2-1.69-.85-3.39-1.65-5.09-2.46-4.11-1.95-8.2-3.92-12.32-5.84-1.62-.75-2-.69-3.18.64-1.81,2-3.59,4.07-5.21,6.22C1256.4,317,1252.54,323.43,1250.62,330.89Zm-94.47-31.15a5,5,0,0,0,.2-1c-.88-7.92,1.17-15.34,4.48-22.49A47.81,47.81,0,0,1,1171,262.1a17.31,17.31,0,0,0,1.53-1.68.8.8,0,0,0-.13-1.15,4.23,4.23,0,0,0-1.1-.71q-5-2.19-10.1-4.33a6,6,0,0,0-4.27-.06,20.39,20.39,0,0,0-8.48,5c-7.17,7.35-10.05,15.9-7.42,25.74a20.09,20.09,0,0,0,7.08,10.58C1150.37,297.35,1153.2,298.43,1156.15,299.74Zm117,70.31c1.06,0,2.18,0,3.3,0q16.3-.43,32.61-.91c16.7-.48,33.39-.92,50.1-1,.67,0,1.35,0,2,0a2.35,2.35,0,0,0,1.72-.87c.5-.56.33-1.41-.39-1.49-1-.11-2-.15-3-.16-11.89-.09-23.77.21-35.65.58-15.69.49-31.38,1.1-47.06,1.65-.68,0-1.35.05-2,.11a2.67,2.67,0,0,0-1.94,1.13.75.75,0,0,0-.18.57C1272.65,369.75,1272.9,369.86,1273.12,370.05Zm105.36-70.19c-1-.16-1.84-.35-2.73-.45l-15.36-1.77c-15.93-1.83-31.89-3.27-47.87-4.61-2.68-.23-5.37-.35-8-.48a3.73,3.73,0,0,0-1.64.18,2.35,2.35,0,0,0-1.48,2c-.07.55.56.9,1.84,1,13.45.66,26.87,1.63,40.27,2.76,8.16.69,16.3,1.47,24.45,2.24,2.9.28,5.78.67,8.68,1a13.34,13.34,0,0,0,2.68-.06c.23,0,.47-.4.59-.66s-.09-.44-.23-.53A9,9,0,0,0,1378.48,299.86Zm1.59-4.14c-.45-.08-1.22-.26-2-.36-9.21-1.16-18.41-2.41-27.64-3.43-13.11-1.45-26.25-2.74-39.38-4.09-.67-.07-1.34-.06-2-.07a4.73,4.73,0,0,0-3.56,1.52,1.17,1.17,0,0,0-.24.83c0,.11.31.27.51.32a3,3,0,0,0,.67,0c11.15.95,22.31,1.76,33.44,2.88,11.91,1.19,23.83,2.31,35.67,4,1.66.23,3.32.46,5,.62a1.21,1.21,0,0,0,1.28-.84c.22-.66-.22-1-.79-1.16C1380.81,295.91,1380.59,295.86,1380.07,295.72ZM1281,347.9l1.72.07c26.54.92,53.07,1.93,79.57,3.67a13.54,13.54,0,0,0,2,.06,1,1,0,0,0,.71-.54,1.26,1.26,0,0,0-.12-.9,1.61,1.61,0,0,0-1.39-.76c-1.33-.14-2.67-.25-4-.32q-37.59-2.13-75.23-3.26c-1.11,0-2.24,0-3.35,0a1,1,0,0,0-1,1C1279.84,347.47,1280.23,347.69,1281,347.9Zm18.9-44.74c1.35.09,2.92.17,4.48.3,13,1.09,25.92,2.11,38.86,3.31,8.71.8,17.38,1.84,26.07,2.78,2.12.23,4.23.49,6.35.69a4.76,4.76,0,0,0,1.64-.14,1,1,0,0,0,.54-.71.93.93,0,0,0-.33-.82,4.44,4.44,0,0,0-1.56-.49c-7.12-.85-14.23-1.78-21.37-2.47-13.38-1.31-26.78-2.49-40.18-3.68-4.13-.37-8.27-.6-12.41-.89a4.84,4.84,0,0,0-2.33.16,1.07,1.07,0,0,0-.73,1C1298.87,302.65,1299.2,302.93,1299.86,303.16Zm-13.41,29.69,1.91.06c9.4.38,18.81.72,28.2,1.17,11.86.56,23.72,1.21,35.57,1.86,4.14.22,8.27.52,12.41.8a3.28,3.28,0,0,0,2.81-.65.74.74,0,0,0,.22-.56.61.61,0,0,0-.32-.47,25.19,25.19,0,0,0-3-.44c-10.74-.62-21.47-1.28-32.21-1.8-12.42-.61-24.85-1.11-37.27-1.64-2.24-.09-4.48-.1-6.72-.13a2.56,2.56,0,0,0-1.89.5,1.24,1.24,0,0,0-.28.82C1285.89,332.5,1286.2,332.64,1286.45,332.85Zm71.94,40.83a25.05,25.05,0,0,0-5.58-.33c-16.61,0-33.2.57-49.8,1.09-10.88.34-21.75.77-32.62,1.17-.79,0-1.57.08-2.34.18s-1.22.66-1.06,1a1.08,1.08,0,0,0,1.09.57c.9,0,1.8,0,2.69-.05,10.21-.37,20.41-.76,30.61-1.1,18.72-.62,37.44-1.39,56.18-1a4.79,4.79,0,0,0,1.31-.15.6.6,0,0,0,.35-.47.78.78,0,0,0-.19-.57A2.55,2.55,0,0,0,1358.39,373.68Zm-45.16-87.77c.37,0,.82,0,1.26.1l18.71,1.93c14.71,1.52,29.38,3.24,44,5.29,1.67.23,3.33.45,5,.69a2.3,2.3,0,0,0,2.36-.85.83.83,0,0,0-.25-1.33,5.87,5.87,0,0,0-1.29-.35c-4.56-.53-9.12-1-13.69-1.55q-16.18-1.83-32.37-3.67c-6.23-.71-12.46-1.46-18.68-2.18-.89-.1-1.79-.15-2.69-.21a3.44,3.44,0,0,0-2.68,1.08.65.65,0,0,0-.18.57C1312.77,285.59,1313,285.71,1313.23,285.91Zm55.14,45c-.61-.05-1.39-.14-2.17-.19-24.59-1.69-49.22-2.69-73.85-3.62-.78,0-1.57,0-2.35,0a1.61,1.61,0,0,0-1.57,1c-.2.48.37.83,1.44.89.67,0,1.34.06,2,.09,11.42.46,22.84.83,34.25,1.39,13.43.66,26.85,1.47,40.26,2.23a3.84,3.84,0,0,0,2.59-.34.8.8,0,0,0,.33-.5.76.76,0,0,0-.21-.56A3.3,3.3,0,0,0,1368.37,330.87Zm27.29-74.46c-.13-.26-.16-.53-.31-.61a7.8,7.8,0,0,0-2.91-.68c-6.32-.89-12.64-1.76-19-2.7-4.43-.65-8.84-1.43-13.27-2.07q-12.13-1.74-24.29-3.37c-3.21-.44-6.45-.78-9.68-1.1-1.33-.13-2.73-.22-3.78.85a1.42,1.42,0,0,0-.45.79c0,.34.35.5.68.54q2.5.31,5,.6c5,.57,10,1.12,15,1.72,6.78.82,13.56,1.64,20.34,2.51q8.67,1.11,17.31,2.32c4,.56,8,1.23,11.95,1.8a11.93,11.93,0,0,0,2.67,0C1395.24,257,1395.45,256.59,1395.66,256.41ZM1313.75,259a4.83,4.83,0,0,0,.66.14c3,.31,6,.58,9,.93q12.33,1.44,24.66,2.93c5.55.68,11.1,1.35,16.64,2.1,6.1.83,12.17,1.76,18.26,2.62,1.11.16,2.23.24,3.34.31a1.64,1.64,0,0,0,1-.21,1.12,1.12,0,0,0,.47-.76,1,1,0,0,0-.46-.75A4.39,4.39,0,0,0,1386,266c-2.44-.35-4.87-.71-7.31-1-7.42-1-14.83-2.13-22.27-3.06-9.76-1.23-19.55-2.33-29.33-3.45-3.67-.41-7.35-.73-11-1a10.61,10.61,0,0,0-2.32.1,1,1,0,0,0-.7.58C1312.92,258.59,1313.31,258.86,1313.75,259Zm2-3.86c.63.09,1.19.17,1.74.23,6.68.71,13.36,1.38,20,2.14q10.35,1.17,20.67,2.47c5.44.68,10.87,1.43,16.3,2.19,3.88.54,7.74,1.17,11.61,1.73a5.92,5.92,0,0,0,3.31-.09,1,1,0,0,0,.66-1c0-.35-.37-.5-.71-.55l-7-1c-9.09-1.25-18.17-2.6-27.27-3.73-11.33-1.41-22.68-2.65-34-4-1.34-.15-2.68-.24-4-.28a2.26,2.26,0,0,0-2,.89.51.51,0,0,0,.15.8A2.16,2.16,0,0,0,1315.75,255.17Zm61.93,58.38a6.67,6.67,0,0,0-.66-.6,5.67,5.67,0,0,0-2.56-.67c-5.68-.67-11.34-1.4-17-2q-24.06-2.52-48.2-4.38c-2.68-.21-5.37-.33-8.06-.44a5.69,5.69,0,0,0-1.63.24c-.46.12-.53,1.06-.16,1.37a2.6,2.6,0,0,0,1.55.52c2.12.12,4.25.23,6.37.37,22.81,1.57,45.59,3.4,68.29,6.09a8.37,8.37,0,0,0,1.32.09C1377.09,314.14,1377.24,313.9,1377.68,313.55ZM1160.3,284.32a36.64,36.64,0,0,0-1.76,8.72,21.58,21.58,0,0,0,.38,6.61,2.83,2.83,0,0,0,.83,1.69c.29.24.74.26.86-.06a5.43,5.43,0,0,0,.42-1.82,56.55,56.55,0,0,1,2.65-13.34,55.61,55.61,0,0,1,12.52-21.45c.51-.56,1.06-1.09,1.54-1.67.69-.85.33-1.63-.77-1.87a2.2,2.2,0,0,0-1.91.31,22.9,22.9,0,0,0-2,1.7A46.51,46.51,0,0,0,1160.3,284.32Zm204.32,54.56c-.9-.09-2-.23-3.13-.29-14.2-.77-28.4-1.59-42.61-2.29-10.29-.5-20.59-.84-30.88-1.24-1,0-2,0-3,0a1.79,1.79,0,0,0-.91.35.66.66,0,0,0-.25.53c0,.17.18.46.32.48a23.94,23.94,0,0,0,2.65.32c9,.37,17.91.66,26.86,1.09,12.86.62,25.72,1.32,38.58,2,3.8.21,7.59.52,11.39.77a6.49,6.49,0,0,0,1.65-.06,1,1,0,0,0,.6-.67c0-.24-.21-.55-.42-.76S1365,339,1364.62,338.88Zm-64-40.14c1,.09,2,.21,3,.29,1.78.13,3.58.19,5.36.35l33.79,3c10.82,1,21.62,2.07,32.37,3.53a6,6,0,0,0,2.66-.06,1.06,1.06,0,0,0,.77-1,1,1,0,0,0-.71-1,3.63,3.63,0,0,0-1-.2c-4.23-.48-8.45-1-12.68-1.4-10.27-.92-20.53-1.81-30.8-2.59-9.94-.76-19.89-1.36-29.84-2a7.14,7.14,0,0,0-3,.21c-.08,0-.21.16-.19.22A5.07,5.07,0,0,0,1300.63,298.74Zm55.51,88.47c-5.61-.92-83.64,1-90.17,2.26C1274.42,390.81,1345.41,389,1356.14,387.21Zm-60.4-66.12c.55.66,1.29.38,1.91.41,9.75.43,19.49.76,29.23,1.24,15.56.75,31.12,1.43,46.65,2.61a2.52,2.52,0,0,0,1.63-.15,1,1,0,0,0,.3-.52.3.3,0,0,0-.16-.25,7.09,7.09,0,0,0-1.28-.26c-10.73-.79-21.45-1.6-32.18-2.33-12.19-.83-24.38-1.68-36.59-2-2.13-.06-4.26-.1-6.39-.08C1297.64,319.75,1296.38,319.84,1295.74,321.09Zm82.2-.74.11-.69c-2.19-.32-4.37-.73-6.58-.94-10.36-1-20.73-2-31.11-2.77s-21-1.49-31.51-2.21c-2.13-.15-4.25-.26-6.38-.35-1.52-.05-2.15.26-2.16,1s.56,1.16,1.92,1.26c.56,0,1.12.08,1.68.1,20.95.63,41.84,2.19,62.72,3.8ZM1312,272.92a6.26,6.26,0,0,0,.84.22c2.78.31,5.56.59,8.34.91,6.67.77,13.33,1.53,20,2.33q8.16,1,16.3,2.06c5.66.73,11.31,1.5,17,2.26,3.1.42,6.19.88,9.29,1.29.78.1,1.32-.25,1.23-.66a1.16,1.16,0,0,0-.87-.86,5.13,5.13,0,0,0-.65-.16c-7.31-1-14.61-2.09-21.92-3.06q-12.81-1.69-25.63-3.25c-7.22-.87-14.45-1.65-21.67-2.44a9.56,9.56,0,0,0-2,.06.65.65,0,0,0-.58.66A.69.69,0,0,0,1312,272.92Zm45.64,108.52c0-.1.09-.25,0-.3a1.18,1.18,0,0,0-.49-.4,17.14,17.14,0,0,0-5-.37c-12.46-.15-24.9.22-37.34.6-14.69.45-29.37,1-44.05,1.56-1.79.06-3.59.06-5.38.13a.52.52,0,0,0-.51.67c0,.17.26.43.42.44,1.11.07,2.22.14,3.33.1l45.73-1.55c11.77-.4,23.54-.64,35.32-.64,2.24,0,4.48.13,6.72.17A1.47,1.47,0,0,0,1357.68,381.44Zm6.76-26.92c-2.09-1-4.35-.94-6.57-1.07q-29.22-1.71-58.47-2.77l-16.82-.61a6.1,6.1,0,0,0-3,.28.83.83,0,0,0-.5,1.06c.1.26.38.62.62.65a21.67,21.67,0,0,0,2.68.16c21.53.34,43.06.81,64.58,1.58C1352.81,354,1358.62,354.28,1364.44,354.52Zm7.47-26.36c0-.19,0-.51-.13-.55a4.25,4.25,0,0,0-1.26-.32c-5.36-.36-10.73-.75-16.1-1-10.62-.57-21.26-1.13-31.89-1.6-9-.41-17.92-.7-26.88-1a23.3,23.3,0,0,0-3,.11c-.43,0-.93.25-.87.78,0,.36.45.4.78.43.67.05,1.34.11,2,.14,24.86.81,49.7,2,74.52,3.66a4.75,4.75,0,0,0,2.31-.2A2.66,2.66,0,0,0,1371.91,328.16Zm-7.25,14.71c-2.07-.18-4.29-.43-6.53-.55-16-.87-32-1.75-48-2.54-8.18-.41-16.36-.63-24.55-.93a7.18,7.18,0,0,0-3,.18.7.7,0,0,0-.37.46c0,.15.15.45.28.47a20.31,20.31,0,0,0,2.33.29c14.9.64,29.8,1.23,44.7,1.92,11.2.51,22.4,1,33.57,2a7.73,7.73,0,0,0,1.66-.11.56.56,0,0,0,.53-.68C1365.21,343.26,1365,343.15,1364.66,342.87Zm19.76-58.51c-.85-.15-1.61-.32-2.39-.42-6.42-.9-12.84-1.82-19.27-2.68-5.65-.75-11.31-1.46-17-2.17-6.55-.81-13.1-1.63-19.65-2.4-3.89-.45-7.79-.82-11.69-1.2a5.77,5.77,0,0,0-1.31.08.31.31,0,0,0-.21.23,1,1,0,0,0,0,.58,1.86,1.86,0,0,0,1.45.68c1.88.24,3.78.42,5.67.64,6.67.77,13.34,1.52,20,2.32q8.16,1,16.32,2,8.64,1.14,17.28,2.35c3.77.53,7.52,1.11,11.28,1.67a.53.53,0,0,0,.33,0c.19-.08.5-.21.5-.33a1.14,1.14,0,0,0-.26-.82A4.61,4.61,0,0,0,1384.42,284.36Zm-72.68-18.12.94.11c12.59,1.3,25.18,2.7,37.72,4.41q16.47,2.25,33,4.43c.52.07,1.1.35,1.53-.23.28-.38-.28-1-1.13-1.26a13.3,13.3,0,0,0-1.64-.35c-9.11-1.22-18.21-2.41-27.31-3.65q-20.14-2.73-40.39-4.79a7.73,7.73,0,0,0-2.67-.06.69.69,0,0,0-.61.64C1311.13,265.83,1311.35,266.07,1311.74,266.24Zm74,5c0-.27,0-.51-.11-.65a2,2,0,0,0-1.49-.59c-2.66-.37-5.33-.71-8-1.08-5.87-.82-11.73-1.71-17.61-2.46-8.55-1.1-17.1-2.13-25.66-3.15-5.88-.7-11.78-1.34-17.68-2a18.45,18.45,0,0,0-2.68,0,.53.53,0,0,0-.55.64,1.18,1.18,0,0,0,.64.62,3.54,3.54,0,0,0,1,.11c8.79,1,17.59,1.83,26.35,2.94,13.76,1.75,27.54,3.36,41.24,5.54,1.21.19,2.45.27,3.67.35A2.44,2.44,0,0,0,1385.71,271.22Zm-38.43,87.44c0-.13-.06-.25-.1-.37a3.55,3.55,0,0,0-.65-.12q-17.49-.1-35-.18l-29.28-.13c-.89,0-1.79,0-2.69.08s-1.4.57-1.33,1.14c.11.81.8,1,1.46,1.05a13.46,13.46,0,0,0,2,.07c6.06,0,12.12,0,18.17-.16,13.8-.33,27.59-.75,41.38-1.15C1343.26,358.83,1345.27,358.74,1347.28,358.66Zm17.29-11.74c0-.39-.35-.52-.66-.54-2.57-.21-5.13-.43-7.7-.6-22.8-1.5-45.62-2.46-68.45-3.33-1.68-.06-3.36-.09-5-.13a2.28,2.28,0,0,0-1.56.43c-.08.07-.17.19-.15.26s.12.48.25.51a9.12,9.12,0,0,0,1.65.24c5,.18,10.07.31,15.1.5,21.49.8,43,1.6,64.42,3.07a9.33,9.33,0,0,0,1.67-.06C1364.27,347.25,1364.42,347,1364.57,346.92ZM1246.1,329.59a53.93,53.93,0,0,0-2.21,11.77,9.11,9.11,0,0,0,.07,1.88.79.79,0,0,0,1,.67,1,1,0,0,0,.65-.61c.24-1.14.37-2.29.56-3.44a63.56,63.56,0,0,1,9.44-25.24,91,91,0,0,1,7.44-9.78,19.2,19.2,0,0,0,1.57-2,.87.87,0,0,0-.1-.85,1.15,1.15,0,0,0-.9-.29,2.65,2.65,0,0,0-1.19.51,15.3,15.3,0,0,0-1.63,1.59A64.28,64.28,0,0,0,1246.1,329.59ZM1391.23,259c-1.58-.29-2.57-.5-3.57-.64-4.87-.69-9.74-1.39-14.61-2-5.66-.75-11.32-1.46-17-2.17-6.66-.84-13.32-1.7-20-2.47-5.11-.59-10.24-1.05-15.36-1.58a2.71,2.71,0,0,0-1.94.21.9.9,0,0,0-.27.52c0,.06.11.22.19.24a15.45,15.45,0,0,0,1.62.32c6.34.7,12.69,1.34,19,2.1,8.33,1,16.64,2.14,25,3.19,8.1,1,16.22,2,24.27,3.32a7.85,7.85,0,0,0,3.64,0,.43.43,0,0,0,.23-.21.32.32,0,0,0-.18-.53C1391.73,259.12,1391.19,259,1391.23,259Zm-14.4,57.71a11.51,11.51,0,0,0-3.48-.84c-5.68-.62-11.36-1.27-17-1.79q-17.25-1.54-34.52-2.95c-6.48-.52-13-.89-19.47-1.33a4.8,4.8,0,0,0-2.32.14.7.7,0,0,0-.35.47.65.65,0,0,0,.26.52,4.75,4.75,0,0,0,1.29.3c2.57.16,5.15.3,7.72.45,22.39,1.38,44.77,2.82,67,5.56A.73.73,0,0,0,1376.83,316.71Zm-16.61,54.23c-.07-.18-.12-.5-.21-.51a34.56,34.56,0,0,0-3.66-.22c-12.34.22-24.68.43-37,.72-13.35.32-26.7.72-40,1.09q-4.05.11-8.08.25c-1.21.05-2.19.59-1.86.9.54.51,1.25.35,1.9.33l28.59-1c16.71-.61,33.42-1.14,50.14-1.23,3,0,6,.13,9.08.18A1.24,1.24,0,0,0,1360.22,370.94Zm-94,9.54c1,0,2,0,3,0,15.68-.54,31.36-1.13,47-1.6,9.86-.29,19.72-.45,29.59-.6,3.8-.05,7.62.09,11.42.13.33,0,.7-.08.63-.49,0-.14-.31-.34-.5-.35-1.45-.11-2.9-.22-4.35-.24-11.55-.18-23.1.16-34.64.5-16.58.48-33.16,1.11-49.74,1.68-.79,0-1.57.08-2.35.16a.73.73,0,0,0-.46.37C1265.83,380.07,1266.07,380.27,1266.25,380.48Zm-.79,6.48c1.12,0,2.23,0,3.34,0,13.45-.45,26.9-.94,40.36-1.36,9-.29,17.94-.55,26.91-.7,6.73-.11,13.46,0,20.19,0,.34,0,.67.06,1,.05s.69-.06.59-.47c0-.14-.34-.31-.52-.31-3.37-.12-6.73-.3-10.09-.3-15.6,0-31.18.51-46.77,1.07-10.65.39-21.3.75-32,1.16C1267.46,386.09,1266.3,385.84,1265.46,387Zm8-32.92a7.23,7.23,0,0,0,.35-1.18,63.23,63.23,0,0,1,3.82-14.71,44.77,44.77,0,0,1,11.25-17.42c1.25-1.19,2.69-2.21,4-3.33.84-.71.71-1.5-.28-2a2.34,2.34,0,0,0-2.8.08,20.15,20.15,0,0,0-2.58,2.47,64.91,64.91,0,0,0-12.07,22.77,45.57,45.57,0,0,0-1.47,7.13C1273.44,349.86,1272.94,351.92,1273.49,354Zm64,2v-.41c-.44,0-.87-.1-1.31-.11-6.83-.17-13.65-.36-20.48-.5-11.42-.25-22.84-.46-34.26-.69a7.16,7.16,0,0,0-2.65.18.61.61,0,0,0-.32.48.62.62,0,0,0,.31.49,10.87,10.87,0,0,0,3.32.27q20.49.11,41,.24Q1330.3,356,1337.5,356Zm46-78.13c-4.16-1.5-39.51-6.16-67.46-9.09a10,10,0,0,0-4.25,0C1335.73,271.61,1359.6,274.74,1383.5,277.91ZM1260,376.44a22.48,22.48,0,0,0-1.33,7.47,4,4,0,0,0,.49,2.45c0,.08.19.17.26.15s.47-.15.49-.26c.09-.63.13-1.26.17-1.89A23.9,23.9,0,0,1,1265.7,370a40,40,0,0,1,4.77-4.89,20.7,20.7,0,0,0,1.68-1.55c.36-.4.16-.82-.26-1.06a3.14,3.14,0,0,0-3.2,0,10.45,10.45,0,0,0-3.59,3.27A37.1,37.1,0,0,0,1260,376.44Zm46.62-101.66a3,3,0,0,0,0-2.29,27.83,27.83,0,0,1,7.4-24.17c1.33-1.43,2.91-2.64,4.36-4,.39-.36.87-.67.76-1.3-.08-.47-.93-.43-1.75.11a16.17,16.17,0,0,0-1.33,1,30,30,0,0,0-6.24,7,33,33,0,0,0-4.55,13.51A18.88,18.88,0,0,0,1306.65,274.78Zm-10.39,18.73c.27-.1.41-.11.46-.18a4.51,4.51,0,0,0,.35-.54,23.23,23.23,0,0,1,10.61-9.83,4.71,4.71,0,0,0,.58-.32c1.61-.94,1.64-1.59.12-2.46s-2-.86-3.34.12A23.53,23.53,0,0,0,1296.26,293.51Zm13.59,70.6a5.08,5.08,0,0,0-1-.17c-9.52.34-19.05.44-28.57.39a10.34,10.34,0,0,0-1.67.12c-.34.05-.67.27-.61.64s.45.42.78.44.9,0,1.35,0q14.28-.5,28.55-1C1309.09,364.5,1309.56,364.6,1309.85,364.11Zm11.26-.48a5.18,5.18,0,0,0,4.22-.16Z"></path><path class="cls-5" d="M1432.26,279.29c-.15.14-.28.38-.45.4a24.07,24.07,0,0,1-2.67.24,13.55,13.55,0,0,0-11.71,6.33,17.07,17.07,0,0,1-1.62,2,.66.66,0,0,1-1.07-.25c-.1-.52-.17-1-.22-1.56-.13-1.26-.22-2.52-.37-3.78-.36-3.14-2.15-5.46-4.68-7.42-1.32-1-3.24-1.42-3.82-3.22,1.49-1,3.24-.46,4.85-.62a13.34,13.34,0,0,0,9.31-5.08c1-1.15,1.14-3.07,3.19-3.31,1,1.32.51,2.86.63,4.29a11.77,11.77,0,0,0,5.6,9.3c.92.6,1.83,1.22,2.73,1.85A.69.69,0,0,1,1432.26,279.29Z"></path><path class="cls-5" d="M1124.67,270c2-5.55,4.64-10.51,8.82-14.64a7.86,7.86,0,0,1,2.31-1.81,1.22,1.22,0,0,1,1.51.25.92.92,0,0,1,0,1.18c-.47.59-1,1.14-1.51,1.69-7.91,8.12-11,17.63-9.31,28.54a12.43,12.43,0,0,1,.17,2.19,1,1,0,0,1-.84.87,1.14,1.14,0,0,1-1.17-.44,4.65,4.65,0,0,1-.84-2.37,31.78,31.78,0,0,1-.12-10.39C1124,273.32,1124.38,271.57,1124.67,270Z"></path><path class="cls-5" d="M1117.91,303.21a10.13,10.13,0,0,1,2.58-4.95,2.49,2.49,0,0,1,1.42-.77c.49-.06,1.21.52,1.08,1a5.29,5.29,0,0,1-.65,1.43,10.63,10.63,0,0,0-2.32,5.85,1.32,1.32,0,0,1-.16.61,1.18,1.18,0,0,1-1,.72,1.08,1.08,0,0,1-1.15-.93,4.82,4.82,0,0,1-.08-1.56A10.38,10.38,0,0,1,1117.91,303.21Z"></path><path class="cls-5" d="M1436.28,285.52c.09.05.25.09.27.17a8.08,8.08,0,0,0,1.81,2.93c.21.22,0,.59-.24.81-.08.07-.2.16-.29.15-1.52-.23-2.11,2.06-3.4,1.43-1-.51-.88-2.29-2-3.08-.25-.18-.24-.73.07-.82a12.72,12.72,0,0,0,3.51-1.61C1436,285.45,1436.17,285.51,1436.28,285.52Z"></path><path class="cls-5" d="M1430.9,249.45c.16-.14.29-.35.48-.41a5.63,5.63,0,0,1,1.28-.28c.9-.06,1.34-1.44,2.29-.86.59.36.83,1.2,1.25,1.8,1,1.44,1,1.44-.45,2.21-.29.15-.6.27-.87.44-.53.35-.9,1.08-1.64.94s-.73-.94-.84-1.54c-.14-.81-1.06-1.05-1.39-1.71A1.87,1.87,0,0,1,1430.9,249.45Z"></path><path class="cls-5" d="M1224.13,259.86c-1.36,4.86-6.91,7.52-12,5.64-2.5-.93-4.93-2-7.37-3.09q-15.88-6.86-31.76-13.74a17.64,17.64,0,0,1-3.21-1.72,8,8,0,0,1-2.5-10.76,9.36,9.36,0,0,1,11.34-3.69c5.33,2.21,10.59,4.57,15.89,6.86,6.21,2.68,12.43,5.34,18.63,8,2.34,1,4.72,2,6.95,3.19A8,8,0,0,1,1224.13,259.86Z"></path><path class="cls-5" d="M1286.89,257.7c-1.9-.76-4.06-1.62-6.21-2.52-5.33-2.21-10.65-4.46-16-6.66s-10.48-4.29-15.71-6.45a32.92,32.92,0,0,1-3.61-1.68,8,8,0,0,1-4.11-9,8.64,8.64,0,0,1,8.11-6.5,10.06,10.06,0,0,1,4.58.72q13.8,5.82,27.65,11.52c3.7,1.53,7.42,3,11.11,4.51a19.52,19.52,0,0,1,3,1.49,8,8,0,0,1,3.09,10.37c-1.85,3.8-5.9,5.61-10.3,4.58C1288,258,1287.61,257.89,1286.89,257.7Z"></path><path class="cls-5" d="M1161.27,319.62c-1.88,5.73-7.78,7-12.07,5.78a9.68,9.68,0,0,1-7.36-9.17c0-3.41,1.84-5.81,5-7.27,5.51-2.56,12.62.45,14.39,6A8.56,8.56,0,0,1,1161.27,319.62Z"></path></g></g></svg> 