<svg width="154" height="156" viewBox="0 0 154 156" fill="none" xmlns="http://www.w3.org/2000/svg">
<path d="M10.9727 93.3897V59.8084C10.9727 57.1832 11.1459 57.329 8.63913 57.4658C5.1388 57.6481 1.8937 54.5397 1.29208 52.115C1.13525 51.4491 1.06176 50.7663 1.07331 50.0823C1.07331 37.822 1.16447 25.5526 1.00039 13.2924C0.954811 9.64618 4.92914 6 8.23805 6C29.632 6.06381 51.0259 6 72.4199 6.04558C73.3716 6.00952 74.3204 6.17087 75.2067 6.51945C76.093 6.86803 76.8976 7.3963 77.5697 8.07102C78.2419 8.74574 78.7671 9.55229 79.1123 10.4399C79.4575 11.3275 79.6152 12.277 79.5755 13.2285C79.5755 17.2576 79.6302 21.2775 79.5755 25.3065C79.5755 26.692 80.0313 27.002 81.3257 27.002C97.9705 26.9655 114.612 26.9655 131.251 27.002C133.457 27.002 133.457 27.002 133.466 29.2261C133.466 31.1677 133.466 33.1093 133.466 35.0418C133.466 35.9533 133.794 36.3453 134.742 36.3271C136.966 36.3271 139.209 36.3726 141.433 36.3271C142.691 36.3271 143.128 36.6735 143.11 37.9678C143.055 43.6376 143.11 49.3166 143.11 54.9864V99.4879C143.11 101.512 143.11 101.575 145.061 101.502C146.124 101.424 147.192 101.573 148.193 101.942C149.193 102.31 150.104 102.889 150.862 103.638C151.62 104.388 152.209 105.292 152.589 106.288C152.969 107.284 153.131 108.35 153.064 109.415C152.873 120.563 152.891 131.711 153.064 142.859C153.111 143.887 152.943 144.913 152.572 145.872C152.2 146.831 151.634 147.703 150.908 148.431C150.182 149.16 149.312 149.729 148.354 150.104C147.396 150.479 146.371 150.65 145.343 150.607C130.832 150.607 116.329 150.489 101.826 150.671C97.8975 150.671 93.6224 146.961 93.9506 142.768C94.2058 138.903 93.9506 135.011 94.0235 131.137C94.0235 129.988 93.6133 129.788 92.5377 129.596C90.0127 129.14 88.9644 130.508 88.0346 132.468C85.4185 137.937 79.1562 139.924 73.9969 138.602C69.9678 137.572 66.9142 135.211 65.556 131.137C65.4649 130.65 65.1865 130.219 64.7807 129.936C64.375 129.653 63.8743 129.541 63.3865 129.624C46.6505 129.66 29.9146 129.66 13.1786 129.624C11.0365 129.624 11.0274 129.624 11.0274 127.472L10.9727 93.3897ZM79.5937 73.591V113.298C79.5937 115.394 79.5937 115.394 81.7632 115.403C84.8169 115.403 87.8706 115.403 90.9333 115.403C94.3425 115.403 93.8868 116.005 93.9597 112.268C93.9597 111.22 93.5677 110.919 92.5832 110.946C90.4047 110.946 88.2169 110.891 86.0384 110.946C84.6802 111.01 84.3155 110.508 84.3155 109.196C84.3642 97.8563 84.3642 86.5136 84.3155 75.1679C84.3155 73.8006 84.7713 73.4542 86.0748 73.4542C97.9249 73.4542 109.839 73.5089 121.725 73.4542C123.238 73.4542 123.548 73.9374 123.548 75.3685C123.485 83.1257 123.548 90.8647 123.548 98.6402C123.548 101.785 123.166 101.375 126.347 101.375C128.288 101.375 128.288 101.375 128.288 99.4971C128.288 77.5288 128.288 55.5667 128.288 33.6107C128.288 32.1522 127.915 31.7238 126.42 31.7238C111.434 31.7785 96.4391 31.7238 81.4533 31.7238C79.5573 31.7238 79.5482 31.7238 79.5482 33.6562L79.5937 73.591ZM40.4976 10.8676H9.78767C6.96189 10.8676 6.23265 11.5969 6.23265 14.3771V44.7862C6.23265 46.4361 6.23265 48.0769 6.23265 49.7268C6.23265 51.5498 7.03481 52.3611 8.87613 52.5252C9.40751 52.5526 9.93995 52.5526 10.4713 52.5252H42.3754C43.2381 52.4853 44.0843 52.7717 44.7454 53.3274C47.5438 55.588 49.7589 58.4593 52.5938 60.6197C53.1134 61.0299 53.5053 61.7774 54.2984 61.5312C55.0914 61.2851 54.9365 60.3189 54.9456 59.6261C54.9456 57.803 55.0276 56.0346 54.9456 54.248C54.8544 52.9263 55.3193 52.5161 56.6775 52.5161C61.4267 52.5799 66.1849 52.5161 70.9432 52.5161C73.7416 52.5161 74.4617 51.796 74.4709 48.9884V14.3497C74.4709 11.5422 73.7416 10.813 70.9432 10.813L40.4976 10.8676ZM74.4435 86.4073V60.3736C74.4435 57.402 74.4435 57.4658 71.481 57.3837C70.0954 57.3837 69.6579 57.7483 69.6579 59.2068C69.7217 66.4992 69.6579 73.8553 69.7126 81.175C69.7126 82.6061 69.3662 83.0984 67.8895 83.0893C56.0577 83.0285 44.2076 83.0285 32.3393 83.0893C30.8808 83.0893 30.425 82.6973 30.4433 81.2115C30.5162 74.3202 30.4888 67.4381 30.4433 60.5559C30.4433 56.9918 30.972 57.5569 27.3896 57.4293C26.0132 57.3746 25.685 57.8577 25.685 59.1704C25.7215 77.3526 25.7215 95.5349 25.685 113.717C25.685 115.03 26.0132 115.467 27.3896 115.467C42.4787 115.419 57.5678 115.419 72.6569 115.467C74.088 115.467 74.48 115.021 74.48 113.644C74.4162 104.547 74.4435 95.4771 74.4435 86.4073ZM123.466 145.658H144.277C147.084 145.658 147.805 144.928 147.805 142.121V109.834C147.805 107.017 147.084 106.297 144.277 106.297C136.802 106.297 129.337 106.297 121.862 106.297C121.214 106.322 120.568 106.207 119.967 105.962C119.367 105.717 118.826 105.346 118.38 104.875C116.046 102.478 113.649 100.153 111.151 97.9383C110.714 97.5463 110.322 97.0268 109.656 97.2729C108.991 97.519 109.009 98.2665 109 98.8863C109 100.919 109 102.961 109 104.994C109 105.905 108.654 106.297 107.715 106.27C106.019 106.27 104.315 106.27 102.619 106.27C99.8209 106.27 99.0917 107.026 99.0917 109.816V141.847C99.0917 145.01 99.7389 145.658 102.938 145.667L123.466 145.658ZM16.132 91.0653V122.623C16.132 124.71 16.132 124.71 18.1648 124.71H66.905C67.4429 124.71 67.9716 124.71 68.5094 124.71C69.4209 124.656 69.7582 125.057 69.6944 125.914C69.6976 127.324 70.0416 128.712 70.6971 129.961C71.3115 131.347 72.3755 132.485 73.7171 133.191C75.0586 133.898 76.5992 134.131 78.0897 133.853C81.8088 133.16 84.4705 130.59 84.3247 126.36C84.27 125.102 84.671 124.628 85.9654 124.683C88.144 124.774 90.3317 124.683 92.5103 124.683C92.9296 124.683 93.5495 124.856 93.7227 124.419C94.1214 123.222 94.1531 121.933 93.8138 120.718C93.6315 119.879 92.647 120.253 91.9907 120.253C69.19 120.253 46.4014 120.253 23.6249 120.253C20.5712 120.253 20.8903 120.581 20.8903 117.564C20.8903 98.464 20.8903 79.3671 20.8903 60.2733C20.8903 57.0191 21.3096 57.4475 18.028 57.4202C16.1503 57.4202 16.1503 57.4202 16.1503 59.3709L16.132 91.0653ZM118.152 97.993C118.254 97.7268 118.334 97.4523 118.389 97.1726C118.389 91.3114 118.389 85.441 118.389 79.5798C118.389 78.2854 117.632 78.3583 116.767 78.3583C108.234 78.3583 99.6933 78.3583 91.1521 78.3583C89.7939 78.3583 89.4293 78.7685 89.4384 80.0903C89.4931 87.6105 89.4384 95.1216 89.4384 102.642C89.4384 106.16 89.4384 106.151 93.0026 106.115C93.7956 106.115 94.5339 106.115 94.9988 105.249C95.6454 103.955 96.68 102.896 97.9581 102.22C99.2362 101.543 100.694 101.283 102.127 101.475C103.531 101.584 103.868 101.01 103.813 99.7158C103.603 98.2714 103.763 96.7972 104.278 95.4316C104.74 94.577 105.392 93.8402 106.184 93.2782C106.976 92.7162 107.887 92.3441 108.846 92.1907C109.805 92.0374 110.786 92.1069 111.714 92.3938C112.642 92.6808 113.491 93.1775 114.196 93.8455C115.572 95.0852 116.748 96.489 118.152 97.993ZM50.1144 78.1578C54.4807 78.1578 58.847 78.1578 63.2042 78.1578C64.4803 78.1578 64.8723 77.7932 64.8632 76.5079C64.7994 71.2301 64.8632 65.9431 64.8632 60.6653C64.8632 56.8733 65.5833 57.4566 61.3993 57.3837C60.4878 57.3837 60.0867 57.6845 60.114 58.6417C60.2063 59.858 60.1635 61.0809 59.9864 62.2878C59.0749 66.5174 53.241 68.2402 49.9594 65.2503C48.5921 64.0107 47.3433 62.6524 46.0307 61.3672C43.5786 58.9607 41.1995 56.5269 37.1887 57.3564C36.0401 57.5934 35.6391 57.8121 35.6482 58.988C35.6482 64.8584 35.712 70.7196 35.6482 76.5808C35.6482 77.9299 36.1404 78.2034 37.3528 78.1852C41.5732 78.1214 45.8484 78.1578 50.1144 78.1578ZM138.197 71.2939C138.197 62.1784 138.197 53.063 138.197 43.9476C138.197 40.7572 138.589 41.1491 135.462 41.1309C133.475 41.1309 133.475 41.1309 133.475 43.1181C133.475 61.5981 133.475 80.072 133.475 98.5399C133.475 101.867 133.028 101.329 136.447 101.466C137.86 101.521 138.27 101.056 138.27 99.6429C138.17 90.2084 138.197 80.7739 138.197 71.2939Z" fill="#312002" fill-opacity="0.5725"/>
<path d="M122.188 41.771H86.3554C85.2069 41.771 84.5323 41.771 84.1404 41.3335C83.7484 40.8959 83.7028 40.2761 83.7119 39.1549V38.2433C83.7119 37.0674 83.7119 36.4749 84.1313 36.0465C84.5506 35.6181 85.1704 35.6272 86.2825 35.6363H87.194C91.1046 35.6363 95.0242 35.6363 98.9347 35.6363H108.57C112.909 35.6363 117.394 35.6363 121.814 35.6363C122.147 35.5995 122.484 35.6297 122.805 35.7252C123.126 35.8207 123.425 35.9795 123.683 36.1923C123.886 36.4465 124.036 36.7388 124.124 37.052C124.211 37.3652 124.235 37.6928 124.194 38.0154C124.194 38.4803 124.194 38.8723 124.194 39.2096C124.194 40.3946 124.194 41.0326 123.729 41.4064C123.51 41.5676 123.26 41.6829 122.996 41.7456C122.731 41.8082 122.456 41.8169 122.188 41.771ZM120.484 40.4857H121.605C122.029 40.533 122.457 40.533 122.881 40.4857C122.935 40.0534 122.956 39.6177 122.945 39.1822C122.945 38.8449 122.945 38.4347 122.945 37.9699C123.003 37.6572 122.948 37.3341 122.79 37.0583C122.499 36.895 122.163 36.8309 121.833 36.876C117.412 36.876 112.918 36.876 108.57 36.876H86.2734C85.847 36.8473 85.4187 36.8688 84.9972 36.9398C84.9718 37.3648 84.9718 37.791 84.9972 38.216V39.1275C84.966 39.5603 84.9905 39.9953 85.0701 40.4219C85.5051 40.4805 85.9445 40.4988 86.3828 40.4766H94.5867C103.198 40.4766 111.815 40.4766 120.438 40.4766L120.484 40.4857Z" fill="#312002" fill-opacity="0.5725"/>
<path d="M122.199 60.385H121.597H120.521C111.637 60.385 102.755 60.385 93.8768 60.385H86.3383C85.1989 60.385 84.5791 60.385 84.1415 59.9475C83.704 59.51 83.704 58.881 83.7131 57.7507V56.8391C83.7131 55.6632 83.7131 55.0798 84.1324 54.6514C84.5517 54.223 85.1807 54.223 86.2928 54.2412C86.5571 54.2412 86.8761 54.2412 87.2043 54.2412H108.826C113.083 54.2412 117.486 54.2412 121.816 54.2412C122.142 54.2108 122.471 54.2451 122.784 54.3421C123.096 54.439 123.387 54.5968 123.639 54.8064C123.845 55.0587 123.998 55.3506 124.087 55.6642C124.177 55.9777 124.201 56.3062 124.158 56.6295C124.158 57.0761 124.158 57.459 124.158 57.7962C124.158 58.9813 124.158 59.6193 123.693 60.0022C123.482 60.1616 123.241 60.2775 122.984 60.3432C122.728 60.4089 122.461 60.4231 122.199 60.385ZM120.585 59.1089H121.624C122.036 59.1607 122.452 59.1607 122.864 59.1089C122.918 58.6766 122.939 58.2409 122.928 57.8054C122.928 57.4681 122.928 57.0761 122.928 56.6204C122.928 56.1646 122.855 55.8 122.764 55.7088C122.673 55.6177 122.445 55.5447 121.852 55.5265C117.522 55.5265 113.11 55.5265 108.853 55.5265H99.2823C95.2654 55.5265 91.2485 55.5265 87.2316 55.5265H86.3201C85.8941 55.4912 85.4654 55.5096 85.0439 55.5812C85.0187 56.0062 85.0187 56.4323 85.0439 56.8574V57.7689C85.013 58.2078 85.0375 58.6488 85.1169 59.0815C85.5457 59.14 85.979 59.1583 86.4113 59.1362H93.9497C102.828 59.1362 111.71 59.1362 120.594 59.1362L120.585 59.1089Z" fill="#312002" fill-opacity="0.5725"/>
<path d="M85.847 69.71C85.5456 69.7597 85.2365 69.735 84.9467 69.6382C84.6569 69.5413 84.3951 69.3753 84.184 69.1543C83.973 68.9334 83.819 68.6643 83.7355 68.3703C83.652 68.0764 83.6415 67.7665 83.7049 67.4676C83.7049 66.9936 83.7049 66.5561 83.7049 66.2371C83.7049 65.0065 83.7049 64.414 84.1698 63.9491C84.6347 63.4842 85.1999 63.5389 86.2937 63.5662H98.3717C102.929 63.5662 107.733 63.5662 112.409 63.5662C113.103 63.5034 113.794 63.7162 114.333 64.1587C114.544 64.4195 114.7 64.7202 114.793 65.0429C114.885 65.3655 114.912 65.7034 114.871 66.0365C114.871 66.392 114.871 66.7019 114.871 66.9481C114.871 69.3272 114.643 69.6827 112.264 69.6827C111.972 69.6827 111.635 69.6827 111.243 69.6827C108.39 69.6827 105.536 69.6827 102.683 69.6827H95.6644C92.474 69.6827 89.1651 69.6827 85.9291 69.6827L85.847 69.71ZM85.6556 64.815C85.4474 64.7987 85.2379 64.8172 85.0358 64.8697C84.982 65.3264 84.9637 65.7866 84.9811 66.2462C84.9811 66.6017 84.9811 67.021 84.9811 67.5041C84.9811 67.9872 85.0449 68.2151 85.1178 68.288C85.1907 68.3609 85.4004 68.4339 85.92 68.4521C89.1742 68.4521 92.474 68.4521 95.6735 68.4521H111.252C111.653 68.4521 111.99 68.4521 112.291 68.4521C112.705 68.4874 113.121 68.4691 113.531 68.3974C113.608 67.9246 113.639 67.4452 113.622 66.9663C113.622 66.6837 113.622 66.3555 113.622 65.9909C113.666 65.6752 113.602 65.3537 113.439 65.0794C113.131 64.9087 112.778 64.8356 112.428 64.8697C107.742 64.8697 102.984 64.8697 98.3808 64.8697H87.5334C87.0321 64.8697 86.6219 64.8697 86.2664 64.8697L85.6556 64.815Z" fill="#312002" fill-opacity="0.5725"/>
<path d="M122.225 51.0882H121.578H120.266C114.222 51.0882 108.069 51.0882 102.126 51.0882H96.2919C93.9584 51.0882 93.6576 50.7874 93.6484 48.4082C93.6484 46.8404 93.6484 46.0473 94.168 45.5095C94.6876 44.9717 95.5171 44.9626 97.1305 44.9626H112.417C115.544 44.9626 118.798 44.9626 121.961 44.9626C122.589 44.9067 123.215 45.0998 123.702 45.5004C123.892 45.7331 124.034 46.0011 124.12 46.289C124.206 46.5768 124.235 46.8788 124.203 47.1776C124.203 47.6608 124.203 48.0892 124.203 48.4356C124.203 49.6662 124.203 50.2587 123.748 50.7236C123.532 50.8847 123.286 51.0002 123.024 51.0628C122.762 51.1255 122.491 51.1342 122.225 51.0882ZM120.402 49.7938H121.605C122.023 49.8507 122.446 49.8507 122.863 49.7938C122.922 49.3405 122.944 48.8832 122.927 48.4265C122.927 48.0618 122.927 47.6334 122.927 47.1321C122.966 46.8706 122.914 46.6039 122.781 46.3755C122.708 46.3026 122.508 46.2205 121.961 46.2205C118.771 46.2205 115.525 46.2205 112.399 46.2205H97.1305C96.4366 46.1485 95.7353 46.2041 95.0613 46.3846C94.8861 47.0377 94.8336 47.7177 94.9064 48.39C94.8834 48.8417 94.914 49.2946 94.9975 49.7391C95.4247 49.8135 95.8591 49.838 96.2919 49.812H102.135C108.069 49.812 114.213 49.812 120.256 49.812L120.402 49.7938Z" fill="#312002" fill-opacity="0.5725"/>
<path d="M88.8078 51.0872C88.6925 51.096 88.5767 51.096 88.4614 51.0872C88.1578 51.0691 87.8534 51.0691 87.5499 51.0872H86.2464C85.1616 51.0872 84.56 51.0872 84.1316 50.677C83.7032 50.2668 83.7123 49.6378 83.7214 48.5257V47.7691C83.7214 46.5568 83.7214 45.8914 84.168 45.4356C84.6147 44.9798 85.271 44.9798 86.456 44.9707H86.7568C87.2946 44.9707 87.7413 44.9707 88.115 44.9707C89.1268 44.9707 89.7285 44.9707 90.1751 45.3809C90.6218 45.7911 90.6491 46.5477 90.6582 48.1155V48.9724C90.6883 49.2865 90.6528 49.6035 90.5539 49.9032C90.455 50.2029 90.295 50.4788 90.084 50.7134C89.7208 50.9942 89.2651 51.1277 88.8078 51.0872ZM87.9783 49.7837C88.1786 49.77 88.3796 49.77 88.5799 49.7837C88.8026 49.8324 89.0353 49.8001 89.2362 49.6925C89.3 49.6287 89.4094 49.4464 89.4094 48.8995V47.9879C89.4546 47.3777 89.4147 46.7641 89.2909 46.1648C88.9105 46.1122 88.5258 46.0969 88.1424 46.1192C87.7595 46.1192 87.2946 46.1192 86.7386 46.1192H86.4651C85.9922 46.084 85.5167 46.1147 85.0522 46.2104C84.9713 46.6829 84.9468 47.1633 84.9793 47.6415V48.4163C84.9503 48.8397 84.9717 49.2651 85.0431 49.6834C85.4406 49.7136 85.8398 49.7136 86.2372 49.6834H87.9874L87.9783 49.7837Z" fill="#312002" fill-opacity="0.5725"/>
<path d="M122.245 69.7287C122.054 69.7408 121.862 69.7408 121.671 69.7287C121.546 69.7196 121.421 69.7196 121.297 69.7287H120.65C120.385 69.7287 120.13 69.7287 119.866 69.7287H119.747C119.492 69.7608 119.233 69.7197 119 69.6102C117.532 68.8263 117.724 67.5319 117.851 66.675C117.904 66.3459 117.904 66.0106 117.851 65.6815C117.786 65.4151 117.782 65.1375 117.838 64.8691C117.895 64.6008 118.012 64.3488 118.18 64.1318C118.355 63.9389 118.574 63.7909 118.818 63.7005C119.062 63.6101 119.325 63.5798 119.583 63.6123H121.589C123.804 63.6123 124.105 63.8766 124.141 66.119C124.141 66.4563 124.141 66.8482 124.141 67.304C124.188 67.6646 124.157 68.0312 124.051 68.3788C123.944 68.7264 123.763 69.0469 123.521 69.3185C123.159 69.6046 122.706 69.7503 122.245 69.7287ZM121.488 68.4161H121.853C122.003 68.4622 122.162 68.4778 122.318 68.4622C122.475 68.4465 122.626 68.3999 122.765 68.3249C122.92 68.1973 122.992 67.8236 122.974 67.2949C122.956 66.7662 122.974 66.3834 122.974 66.0825C122.994 65.6671 122.964 65.2509 122.883 64.8428C122.486 64.8126 122.086 64.8126 121.689 64.8428H119.574C119.505 64.8294 119.433 64.8305 119.364 64.8462C119.295 64.8619 119.23 64.8918 119.173 64.934C119.11 65.0858 119.11 65.2562 119.173 65.408C119.241 65.881 119.225 66.3623 119.128 66.83C119.009 67.7416 118.973 68.1062 119.583 68.4434H121.525L121.488 68.4161Z" fill="#312002" fill-opacity="0.5725"/>
<path d="M40.2664 48.1345C30.9068 48.1781 21.851 44.815 14.7887 38.6726C12.519 36.7128 10.9329 34.6709 10.9694 31.5717C10.9583 30.4782 11.183 29.3952 11.6282 28.3963C12.0733 27.3975 12.7285 26.5063 13.549 25.7834C18.63 21.0069 24.912 17.699 31.7252 16.2122C40.117 14.3038 48.9036 15.2104 56.7289 18.7918C60.5464 20.4733 64.039 22.8119 67.0476 25.7014C70.6938 29.2837 70.6938 34.1878 67.0476 37.6882C61.1484 43.3238 53.5745 46.8852 45.4713 47.8337C43.7439 48.0377 42.0058 48.1382 40.2664 48.1345ZM40.2664 43.2212C46.8933 43.2212 52.3444 38.1257 52.5358 31.909C52.709 26.3759 47.896 20.3597 40.6857 20.2594C34.6604 20.1683 28.6898 24.0423 28.471 31.4532C28.2523 37.9343 33.0288 42.7563 40.2664 43.2212ZM55.6715 24.0788C56.8536 26.4484 57.469 29.0603 57.469 31.7084C57.469 34.3565 56.8536 36.9684 55.6715 39.3381C59.1719 38.1166 61.5783 35.7739 64.0395 33.5406C65.1607 32.5288 64.8781 30.5417 63.7022 29.5207C62.891 28.8188 62.0797 28.1352 61.2593 27.4606C59.6136 26.0087 57.7211 24.8634 55.6715 24.0788ZM24.7702 24.1973C21.9626 25.7287 19.1368 27.2145 17.0129 29.6666C16.4967 30.2006 16.2022 30.9104 16.1886 31.653C16.1751 32.3957 16.4436 33.1158 16.94 33.6682C19.0548 36.1841 21.9535 37.6426 24.8066 39.2834C23.7138 36.9199 23.1447 34.3482 23.1384 31.7443C23.1321 29.1404 23.6887 26.566 24.7702 24.1973Z" fill="#312002" fill-opacity="0.5725"/>
<path d="M68.3304 102.281H66.6988C57.8203 102.281 48.9389 102.281 40.0543 102.281H32.4703C31.34 102.281 30.711 102.281 30.2735 101.843C29.8359 101.406 29.8451 100.777 29.8542 99.6465C29.8542 99.3093 29.8542 99.0176 29.8542 98.735C29.8542 97.5591 29.8542 96.9757 30.2826 96.5473C30.711 96.1189 31.3218 96.1189 32.4338 96.1371H33.3454C37.3683 96.1371 41.3852 96.1371 45.396 96.1371H54.9763C59.2332 96.1371 63.6451 96.1371 67.9749 96.1371C68.6334 96.0777 69.2886 96.2808 69.798 96.7023C70.0026 96.9557 70.1541 97.2477 70.2434 97.5609C70.3326 97.8741 70.3579 98.2021 70.3176 98.5253C70.3176 98.972 70.3176 99.3549 70.3176 99.6921C70.3176 100.877 70.3176 101.515 69.8618 101.898C69.6452 102.061 69.3981 102.179 69.135 102.245C68.8719 102.311 68.5983 102.323 68.3304 102.281ZM66.6988 101.005H67.747C68.1587 101.057 68.5751 101.057 68.9867 101.005C69.0359 100.572 69.0542 100.136 69.0414 99.7012C69.0414 99.364 69.0414 98.972 69.0414 98.5162C69.0414 97.9237 68.9594 97.6958 68.8774 97.6047C68.7953 97.5135 68.5492 97.4315 67.9658 97.4224C63.6269 97.4224 59.2059 97.4224 54.9399 97.4224H45.4142C41.4034 97.4224 37.3896 97.4224 33.3727 97.4224H32.4065C31.9835 97.387 31.5578 97.4054 31.1394 97.4771C31.1093 97.9019 31.1093 98.3284 31.1394 98.7532V99.6648C31.1037 100.104 31.1282 100.545 31.2124 100.977C31.6381 101.036 32.0684 101.054 32.4976 101.032H40.0452C48.9237 101.032 57.8021 101.032 66.6805 101.032L66.6988 101.005Z" fill="#312002" fill-opacity="0.5725"/>
<path d="M32.1332 111.605C31.8109 111.667 31.4784 111.647 31.1654 111.549C30.8523 111.451 30.5685 111.277 30.3392 111.042C30.1099 110.807 29.9423 110.519 29.8513 110.204C29.7604 109.889 29.7489 109.556 29.8179 109.235C29.8179 108.779 29.8179 108.387 29.8179 108.05C29.8179 106.865 29.8179 106.273 30.2828 105.844C30.7477 105.416 31.3311 105.434 32.4341 105.461H47.4745C54.1471 105.461 61.0383 105.461 67.8202 105.461C68.1776 105.425 68.5387 105.459 68.8828 105.563C69.2269 105.666 69.5472 105.836 69.8256 106.063C70.037 106.332 70.1926 106.641 70.2834 106.971C70.3742 107.302 70.3983 107.647 70.3543 107.986C70.3543 108.415 70.3543 108.788 70.3543 109.098C70.3543 111.359 70.0262 111.642 67.7655 111.614H66.699C62.825 111.614 58.96 111.614 55.0859 111.614H45.3415C41.0299 111.614 36.5816 111.614 32.2062 111.614L32.1332 111.605ZM31.8233 106.71C31.603 106.693 31.3815 106.712 31.167 106.765C31.1132 107.194 31.0919 107.627 31.1032 108.059C31.1032 108.406 31.1032 108.807 31.1032 109.281C31.0467 109.593 31.1015 109.916 31.2582 110.192C31.5388 110.338 31.8547 110.401 32.1697 110.375C36.5542 110.329 41.0026 110.375 45.3142 110.375H67.7473C68.1622 110.422 68.5812 110.422 68.9961 110.375C69.0498 109.967 69.0711 109.555 69.0599 109.144C69.0599 108.825 69.0599 108.451 69.0599 108.005C69.1146 107.663 69.0536 107.314 68.8867 107.011C68.5549 106.814 68.1656 106.737 67.7838 106.792C61.0019 106.792 54.1106 106.792 47.4381 106.792H33.6373C33.1724 106.792 32.7804 106.792 32.4341 106.792L31.8233 106.71Z" fill="#312002" fill-opacity="0.5725"/>
<path d="M41.8821 92.9815C41.5858 93.0062 41.2876 92.9722 41.0045 92.8815C40.7214 92.7908 40.4589 92.6451 40.2322 92.4528C39.8488 91.979 39.6685 91.3727 39.7308 90.7665C39.7308 90.2742 39.7308 89.8549 39.7308 89.5085C39.7308 88.278 39.7308 87.6854 40.1866 87.2206C40.6424 86.7557 41.2349 86.8104 42.347 86.8377H43.6687C47.1417 86.8377 50.6147 86.8377 54.0968 86.8377C58.5907 86.8377 63.2122 86.8377 67.7699 86.8377C68.4905 86.7617 69.2118 86.9748 69.7753 87.4302C69.9861 87.7018 70.1413 88.0122 70.232 88.3438C70.3227 88.6754 70.3472 89.0216 70.304 89.3627C70.304 89.7911 70.304 90.1648 70.304 90.4748C70.304 92.7354 69.9668 93.018 67.7244 92.9906H66.7034C63.9688 92.9906 61.2342 92.9906 58.4995 92.9906H51.4897C48.3723 92.9906 45.1089 92.9906 41.9641 92.9906L41.8821 92.9815ZM41.6907 88.0683C41.4824 88.0509 41.2728 88.0694 41.0708 88.123C41.012 88.5762 40.9907 89.0335 41.007 89.4903C41.007 89.8549 41.007 90.2833 41.007 90.7756C40.965 91.0429 41.0165 91.3166 41.1528 91.5504C41.2258 91.6233 41.4172 91.7054 41.9641 91.7054C45.1545 91.6598 48.3449 91.7054 51.5171 91.7054H58.4995C61.2342 91.7054 63.9688 91.7054 66.7034 91.7054H67.7882C68.2022 91.731 68.6177 91.7127 69.0279 91.6507C69.0813 91.2458 69.1026 90.8374 69.0917 90.4292C69.0917 90.101 69.0917 89.7273 69.0917 89.2898C69.1502 88.9445 69.0857 88.5896 68.9094 88.2871C68.7726 88.1412 68.408 88.0774 67.8246 88.0683C63.2669 88.0683 58.5998 88.0683 54.1515 88.0683C50.6785 88.0683 47.1964 88.0683 43.7234 88.0683H42.3743H41.6907Z" fill="#312002" fill-opacity="0.5725"/>
<path d="M33.0237 92.9635H32.3674C31.2918 92.9635 30.6902 92.9635 30.2709 92.5442C29.8516 92.1248 29.8516 91.5232 29.8516 90.4385V89.8916C29.8516 88.5789 29.8516 87.8497 30.3347 87.3666C30.8178 86.8835 31.5379 86.8652 32.9508 86.8652C34.3637 86.8652 35.2753 86.8652 35.7857 87.3757C36.2962 87.8862 36.2688 88.5607 36.2597 89.8278V90.4385C36.2597 91.5415 36.2597 92.1431 35.8495 92.5715C35.4393 92.9999 34.8377 92.9817 33.7621 92.9908C33.5433 92.9908 33.2972 92.9908 33.0237 92.9908V92.9635ZM32.3583 91.7146H33.7621C34.1673 91.7438 34.5745 91.7223 34.9744 91.6508C34.9998 91.2471 34.9998 90.8422 34.9744 90.4385V89.8095C35.0269 89.2905 34.9899 88.7664 34.8651 88.2599C34.2502 88.0967 33.6133 88.0321 32.9782 88.0685C32.4012 88.0188 31.82 88.0587 31.2553 88.187C31.1243 88.7452 31.0904 89.3218 31.1551 89.8916V90.4749C31.1023 90.8865 31.1023 91.3031 31.1551 91.7146C31.5557 91.7415 31.9577 91.7415 32.3583 91.7146Z" fill="#312002" fill-opacity="0.5725"/>
<path d="M143.064 122.471C143.064 125.962 143.009 129.453 143.064 132.944C143.064 134.23 142.745 134.667 141.414 134.467C137.631 133.892 133.83 133.446 130.047 132.862C128.926 132.698 128.433 132.862 128.461 134.12C128.543 138.368 125.17 141.148 121.168 141.176C118.57 141.176 115.936 141.595 113.375 140.711C112.081 140.279 110.948 139.465 110.126 138.376C109.304 137.287 108.832 135.975 108.771 134.612C108.771 133.446 108.771 132.279 108.771 131.121C108.771 130.292 108.489 129.927 107.623 129.809C103.812 129.307 103.812 129.28 103.812 125.433C103.812 122.699 103.812 119.909 103.812 117.147C103.812 116.063 104.15 115.579 105.253 115.434C117.303 113.817 129.354 112.176 141.405 110.511C142.663 110.338 143.118 110.639 143.082 111.997C143 115.488 143.064 118.979 143.064 122.471ZM138.196 122.635C138.196 120.985 138.123 119.335 138.196 117.694C138.269 116.327 137.713 116.035 136.473 116.208C128.281 117.363 120.077 118.499 111.861 119.618C108.944 120.019 108.944 120 108.944 122.844C108.944 125.032 108.944 125.014 111.141 125.296C114.587 125.743 118.042 126.208 121.487 126.691C126.525 127.378 131.56 128.074 136.592 128.779C137.686 128.934 138.223 128.66 138.16 127.42C138.132 125.834 138.196 124.23 138.196 122.635ZM118.662 136.381H120.257C122.563 136.381 123.493 135.323 123.383 133.035C123.383 132.343 123.174 131.978 122.417 131.878C119.929 131.559 117.44 131.185 114.961 130.83C114.377 130.747 114.049 130.921 113.976 131.559C113.384 135.041 114.468 136.381 117.941 136.39L118.662 136.381Z" fill="#312002" fill-opacity="0.5725"/>
<path d="M40.2657 38.8453C39.3175 38.8779 38.3725 38.7163 37.4889 38.3706C36.6053 38.0248 35.8017 37.5021 35.1274 36.8346C34.4531 36.1671 33.9222 35.3689 33.5675 34.4888C33.2128 33.6088 33.0416 32.6656 33.0645 31.717C33.0645 27.6059 36.1911 24.6525 40.4936 24.6799C44.7961 24.7072 47.8498 27.7336 47.786 31.872C47.7222 36.0104 44.6047 38.8453 40.2657 38.8453ZM42.5902 31.8173C42.5767 31.2596 42.3582 30.7263 41.9765 30.3194C41.5949 29.9125 41.0767 29.6605 40.521 29.6113C39.9169 29.593 39.3269 29.796 38.8619 30.1821C38.397 30.5681 38.089 31.1107 37.996 31.7079C38.0486 32.3115 38.3261 32.8734 38.7735 33.282C39.221 33.6906 39.8056 33.9161 40.4116 33.9138C40.9826 33.901 41.5277 33.6733 41.9383 33.2762C42.3489 32.8792 42.5947 32.342 42.6266 31.7717L42.5902 31.8173Z" fill="#312002" fill-opacity="0.5725"/>
</svg>
