<svg width="154" height="156" viewBox="0 0 154 156" fill="none" xmlns="http://www.w3.org/2000/svg">
<path d="M101.1 3C105.43 4.5 106.96 7.72 106.94 12.07C106.94 23.62 106.94 35.17 106.94 46.72C106.863 47.3543 107.003 47.9961 107.337 48.5408C107.671 49.0855 108.18 49.5011 108.78 49.72C122.64 56.72 131.07 67.86 133.67 83.18C135.67 94.67 133.13 105.34 126.77 115.09C126.22 115.94 126.14 116.5 126.96 117.19C127.807 117.924 128.603 118.716 129.34 119.56C130.34 120.72 131.43 121.56 133.19 121.44C133.779 121.449 134.359 121.589 134.888 121.848C135.417 122.107 135.882 122.48 136.25 122.94C140.52 127.22 144.83 131.46 149.05 135.78C150.95 137.664 152.024 140.226 152.035 142.903C152.047 145.579 150.994 148.15 149.11 150.05C147.226 151.95 144.664 153.024 141.987 153.035C139.311 153.047 136.74 151.994 134.84 150.11C130.47 145.87 126.21 141.51 121.9 137.21C121.38 136.727 120.973 136.135 120.708 135.476C120.444 134.818 120.328 134.109 120.37 133.4C120.404 132.989 120.338 132.577 120.178 132.197C120.018 131.817 119.768 131.482 119.45 131.22C118.31 130.16 117.18 129.08 116.15 127.91C115.41 127.06 114.85 127.28 114.05 127.81C108.74 131.395 102.702 133.758 96.37 134.73C85.8315 136.476 75.0167 134.364 65.91 128.78C64.9683 128.186 63.8733 127.88 62.76 127.9C45.46 127.9 28.16 127.9 10.86 127.9C6.08 127.9 3.8 126.38 2 122.02V8.53C2.41002 7.23357 3.12543 6.05459 4.08603 5.09225C5.04663 4.12991 6.22431 3.41237 7.52 3H101.1ZM57.39 122.33C57.25 121.75 56.75 121.48 56.39 121.09C46.65 110.42 42.57 97.84 44.73 83.63C48.73 57.16 73.73 40.47 99.86 46.48C101.57 46.87 101.58 46.87 101.58 45.12C101.58 34.0067 101.58 22.8933 101.58 11.78C101.58 8.84 100.81 8.06 97.86 8.06H10.74C7.87 8.06 7.05 8.87 7.05 11.69C7.05 47.41 7.05 83.13 7.05 118.85C7.05 121.76 7.79 122.5 10.65 122.5H55.97C56.43 122.49 56.93 122.65 57.39 122.33ZM128.89 90.27C128.894 82.4179 126.569 74.7411 122.209 68.2109C117.849 61.6806 111.649 56.5903 104.396 53.5841C97.1418 50.5779 89.1593 49.7908 81.4581 51.3224C73.7569 52.854 66.683 56.6355 61.1314 62.1885C55.5798 67.7414 51.8001 74.8163 50.2704 82.5179C48.7408 90.2195 49.5299 98.2018 52.5379 105.455C55.546 112.708 60.6378 118.906 67.1692 123.264C73.7005 127.623 81.3779 129.946 89.23 129.94C94.4491 129.976 99.6233 128.974 104.452 126.993C109.281 125.012 113.667 122.091 117.357 118.4C121.048 114.709 123.967 110.322 125.947 105.493C127.927 100.664 128.927 95.4891 128.89 90.27ZM146.37 142.72C146.429 142.132 146.358 141.539 146.161 140.982C145.964 140.425 145.646 139.919 145.23 139.5C141.23 135.44 137.23 131.42 133.18 127.37C133.106 127.259 133.006 127.167 132.888 127.104C132.77 127.041 132.639 127.008 132.505 127.008C132.371 127.008 132.24 127.041 132.122 127.104C132.004 127.167 131.904 127.259 131.83 127.37C130.017 129.21 128.193 131.033 126.36 132.84C125.88 133.32 125.85 133.7 126.36 134.19C130.36 138.19 134.36 142.19 138.36 146.13C139.045 146.811 139.932 147.253 140.889 147.39C141.846 147.527 142.821 147.352 143.67 146.89C144.485 146.544 145.178 145.962 145.66 145.219C146.141 144.476 146.388 143.605 146.37 142.72ZM122.77 120.57C122.08 120.81 121.77 121.41 121.35 121.84C119.45 123.76 119.44 123.79 121.35 125.66C124.06 128.28 123.09 128.43 126.01 125.59C126.08 125.52 126.14 125.45 126.22 125.38C126.78 124.88 126.72 124.38 126.22 123.91C125.22 122.97 124.29 121.99 123.32 121.03C123.14 120.87 122.95 120.73 122.77 120.57Z" fill="#312002" fill-opacity="0.572549"/>
<path d="M39.133 27.8508C39.133 24.3908 39.133 20.9308 39.133 17.4708C39.1299 16.7418 39.1767 16.0134 39.273 15.2908C39.2797 14.946 39.3575 14.6062 39.5014 14.2928C39.6453 13.9794 39.8523 13.699 40.1094 13.4691C40.3665 13.2392 40.6682 13.0648 40.9957 12.9567C41.3232 12.8486 41.6695 12.8091 42.0129 12.8408C44.2529 12.8408 46.493 12.7508 48.733 12.8408C50.1606 12.9319 51.5443 13.3705 52.7638 14.1184C53.9833 14.8663 55.0016 15.9008 55.73 17.132C56.4585 18.3632 56.8751 19.7538 56.9436 21.1827C57.012 22.6116 56.7303 24.0356 56.123 25.3308C55.9987 25.5122 55.9118 25.7164 55.8671 25.9317C55.8225 26.147 55.821 26.369 55.8629 26.5849C55.9048 26.8007 55.9891 27.0061 56.111 27.1891C56.2329 27.372 56.3899 27.529 56.5729 27.6508C57.8548 28.8387 58.7568 30.3791 59.1653 32.0783C59.5738 33.7775 59.4707 35.5596 58.8689 37.2004C58.2671 38.8411 57.1936 40.2672 55.7832 41.2994C54.3729 42.3315 52.6889 42.9234 50.943 43.0008C48.033 43.2008 45.0929 43.1008 42.1729 43.0008C40.1129 43.0008 39.1729 41.8508 39.1729 39.3508C39.1129 35.5008 39.1729 31.6508 39.1729 27.8008L39.133 27.8508ZM48.133 37.7008H50.023C52.533 37.7008 54.143 36.2908 54.163 34.1608C54.183 32.0308 52.493 30.5908 50.063 30.5608H47.8929C44.4629 30.5608 44.4629 30.5608 44.4629 34.0408C44.4629 37.7008 44.4629 37.7008 48.1429 37.7008H48.133ZM44.4629 21.7008C44.4629 22.4308 44.4629 23.1608 44.4629 23.8808C44.4029 24.8808 44.8129 25.2208 45.7429 25.1708C46.6729 25.1208 47.7429 25.1708 48.6529 25.1108C49.4137 25.0263 50.1219 24.6815 50.6577 24.1348C51.1935 23.5881 51.5239 22.8731 51.593 22.1108C51.6856 21.6013 51.6606 21.0774 51.5199 20.579C51.3792 20.0807 51.1266 19.621 50.7813 19.2352C50.4359 18.8493 50.007 18.5475 49.5272 18.3526C49.0475 18.1577 48.5295 18.075 48.0129 18.1108C43.7129 18.0208 44.5529 17.8608 44.4729 21.1908C44.459 21.3638 44.459 21.5377 44.4729 21.7108L44.4629 21.7008Z" fill="#312002" fill-opacity="0.572549"/>
<path d="M34.5119 31.1313C34.5119 34.0013 34.5119 36.8813 34.5119 39.7513C34.5119 41.7513 33.5119 43.0013 31.9419 43.0313C30.3719 43.0613 29.2519 41.8513 29.1919 39.8813C29.1119 37.3013 29.1219 34.7213 29.1919 32.1313C29.1919 30.9413 28.8119 30.4913 27.5919 30.5313C25.4019 30.6113 23.2019 30.6013 21.0119 30.5313C19.9119 30.5313 19.5719 30.9113 19.5919 31.9813C19.5919 34.5613 19.5919 37.1413 19.5919 39.7213C19.5919 41.7213 18.5919 42.9513 17.0119 43.0113C15.4319 43.0713 14.2419 41.7613 14.2319 39.7413C14.2319 34.1413 14.1319 28.5313 14.2319 22.9313C14.2474 20.4186 15.1879 17.9997 16.874 16.1366C18.56 14.2735 20.8733 13.0968 23.3719 12.8313C28.9219 12.4613 33.7119 15.9813 34.3719 21.3413C34.5855 24.5972 34.6088 27.8627 34.4419 31.1213L34.5119 31.1313ZM24.3619 25.1313H28.0119C28.5319 25.1313 28.9419 25.0113 29.1119 24.4013C29.3123 23.6819 29.3466 22.9263 29.2122 22.1916C29.0778 21.457 28.7783 20.7625 28.3362 20.1606C27.8941 19.5586 27.3211 19.065 26.6603 18.7169C25.9996 18.3688 25.2684 18.1754 24.5219 18.1513C23.7498 18.1444 22.9866 18.3164 22.2922 18.6538C21.5977 18.9913 20.9908 19.4849 20.519 20.0962C20.0473 20.7074 19.7235 21.4196 19.573 22.177C19.4226 22.9343 19.4496 23.7162 19.6519 24.4613C19.8219 25.0913 20.2519 25.1713 20.7519 25.1713L24.3619 25.1313Z" fill="#312002" fill-opacity="0.572549"/>
<path d="M76.2381 12.8304C77.2381 12.8304 78.2381 12.8304 79.2981 12.8304C79.941 12.8207 80.5635 13.0562 81.039 13.489C81.5145 13.9218 81.8074 14.5194 81.8581 15.1604C81.9348 15.8288 81.7463 16.5007 81.3331 17.0317C80.9199 17.5627 80.3149 17.9105 79.6481 18.0004C78.0573 18.2518 76.4409 18.2988 74.8381 18.1404C73.7701 18.0599 72.6974 18.2122 71.694 18.5868C70.6906 18.9613 69.7805 19.5492 69.0265 20.3099C68.2725 21.0705 67.6926 21.9858 67.3269 22.9924C66.9611 23.9991 66.8182 25.0731 66.9081 26.1404C67.0281 27.5904 66.9081 29.0604 66.9081 30.5204C66.9438 32.3941 67.7027 34.1814 69.026 35.5085C70.3493 36.8355 72.1345 37.5994 74.0081 37.6404C75.6081 37.6404 77.2181 37.6404 78.8281 37.6404C80.6081 37.6404 81.7581 38.7004 81.8281 40.2004C81.8362 40.5801 81.7647 40.9574 81.6182 41.3078C81.4717 41.6583 81.2534 41.9741 80.9773 42.2351C80.7013 42.496 80.3737 42.6963 80.0156 42.8229C79.6575 42.9495 79.2768 42.9998 78.8981 42.9704C76.1781 42.9704 73.4481 43.2104 70.7681 42.4604C68.4367 41.7901 66.3478 40.4621 64.7517 38.6354C63.1555 36.8087 62.1196 34.5606 61.7681 32.1604C61.3481 29.2153 61.3481 26.2255 61.7681 23.2804C62.2539 20.3701 63.7528 17.7252 65.9999 15.813C68.2469 13.9008 71.0976 12.8443 74.0481 12.8304H76.2381Z" fill="#312002" fill-opacity="0.572549"/>
<path d="M17.8012 53.8712C17.0951 53.9051 16.389 53.8032 15.7212 53.5712C15.0551 53.3332 14.4789 52.895 14.0714 52.3168C13.664 51.7386 13.4453 51.0485 13.4453 50.3412C13.4453 49.6338 13.664 48.9438 14.0714 48.3655C14.4789 47.7873 15.0551 47.3492 15.7212 47.1112C16.442 46.886 17.1971 46.7912 17.9512 46.8312H39.4412C43.3612 46.8312 47.2879 46.8312 51.2212 46.8312C53.6912 46.8312 55.2212 48.1212 55.2212 50.2712C55.2641 51.1065 54.992 51.9275 54.4587 52.5719C53.9254 53.2162 53.1698 53.6371 52.3412 53.7512C51.7827 53.8419 51.2167 53.8787 50.6512 53.8612H17.8012V53.8712ZM18.0712 48.4912H17.9912C17.4349 48.4557 16.8767 48.5166 16.3412 48.6712C15.9917 48.7905 15.6884 49.0162 15.4736 49.3165C15.2588 49.6169 15.1433 49.9769 15.1433 50.3462C15.1433 50.7154 15.2588 51.0755 15.4736 51.3758C15.6884 51.6762 15.9917 51.9018 16.3412 52.0212C16.9007 52.1933 17.4877 52.2578 18.0712 52.2112H50.6512C51.1093 52.2265 51.5679 52.1998 52.0212 52.1312C52.2412 52.1123 52.4554 52.0502 52.6514 51.9485C52.8474 51.8468 53.0214 51.7074 53.1635 51.5384C53.3056 51.3694 53.413 51.174 53.4795 50.9634C53.546 50.7528 53.5704 50.5312 53.5512 50.3112C53.5512 49.8612 53.5512 48.5112 51.1912 48.5012C47.2712 48.5012 43.3412 48.5012 39.4212 48.5012H18.0712V48.4912Z" fill="#312002" fill-opacity="0.572549"/>
<path d="M36.569 66.3812H18.789C18.0727 66.3801 17.3574 66.3266 16.649 66.2212C15.7432 66.1655 14.8967 65.7523 14.2957 65.0725C13.6946 64.3927 13.3883 63.5019 13.444 62.5962C13.4997 61.6905 13.9129 60.844 14.5927 60.243C15.2725 59.6419 16.1632 59.3355 17.069 59.3912C19.779 59.3912 22.529 59.3912 25.189 59.3912H41.189C44.659 59.3912 45.259 61.4512 45.309 62.6712C45.3444 63.1223 45.2873 63.5758 45.1411 64.004C44.995 64.4322 44.7628 64.826 44.459 65.1612C44.0452 65.5585 43.5558 65.8686 43.0198 66.073C42.4838 66.2775 41.9122 66.3721 41.339 66.3512C39.729 66.3712 38.139 66.3812 36.569 66.3812ZM31.929 64.7112H34.259C36.559 64.7112 38.929 64.7112 41.259 64.7112C41.6203 64.7412 41.9841 64.6973 42.3279 64.5821C42.6718 64.4669 42.9886 64.2829 43.259 64.0412C43.4119 63.8602 43.5255 63.6494 43.5926 63.4222C43.6598 63.195 43.6789 62.9563 43.649 62.7212C43.649 62.2212 43.569 61.0412 41.179 61.0312H25.179C22.529 61.0312 19.779 61.0312 17.089 61.0312C16.8461 61.0079 16.6011 61.0334 16.3682 61.1062C16.1354 61.179 15.9194 61.2976 15.7331 61.4551C15.5467 61.6125 15.3938 61.8057 15.2831 62.0231C15.1725 62.2405 15.1065 62.4779 15.089 62.7212C15.019 63.6512 15.729 64.3912 16.859 64.5612C17.492 64.6471 18.1301 64.6905 18.769 64.6912C23.059 64.6912 27.339 64.6912 31.619 64.6912L31.929 64.7112Z" fill="#312002" fill-opacity="0.572549"/>
<path d="M21.3288 78.7606H17.4688C15.0787 78.7606 13.4688 77.3606 13.4688 75.3006C13.4688 73.2406 15.0487 71.8006 17.3387 71.7806C23.5387 71.7806 29.9788 71.7206 36.4788 71.7806C37.0194 71.7575 37.559 71.8469 38.0634 72.0431C38.5677 72.2393 39.0259 72.5381 39.4088 72.9206C39.7244 73.2644 39.9676 73.6683 40.1239 74.1081C40.2802 74.5479 40.3465 75.0146 40.3187 75.4806C40.2187 77.4806 38.7287 78.7506 36.3187 78.7606C34.1187 78.7606 31.9188 78.7606 29.7188 78.7606H21.3288ZM27.2487 73.3906C23.8987 73.3906 20.5787 73.3906 17.3387 73.3906C15.9687 73.3906 15.0988 74.1306 15.0988 75.2406C15.0988 76.3506 15.9988 77.0406 17.4788 77.0506C19.6788 77.0506 21.8688 77.0506 24.0588 77.0506H29.7288C31.9188 77.0506 34.1188 77.0506 36.3088 77.0506C38.4988 77.0506 38.6488 75.8106 38.6488 75.4006C38.6683 75.1569 38.6385 74.9117 38.5612 74.6798C38.4838 74.4478 38.3606 74.2338 38.1988 74.0506C37.9645 73.8361 37.6902 73.67 37.3916 73.5619C37.093 73.4538 36.776 73.4058 36.4587 73.4206L27.2487 73.3906Z" fill="#312002" fill-opacity="0.572549"/>
<path d="M21.3288 116.192H17.4688C15.0687 116.192 13.4688 114.782 13.4688 112.712C13.4688 110.642 15.1488 109.192 17.4688 109.182C24.1087 109.182 30.2688 109.182 36.2988 109.182C38.6788 109.182 40.2988 110.612 40.2988 112.702C40.313 113.134 40.2408 113.564 40.0862 113.968C39.9317 114.371 39.6979 114.74 39.3988 115.052C38.961 115.447 38.4495 115.752 37.8935 115.95C37.3374 116.147 36.7479 116.233 36.1588 116.202H21.3288V116.192ZM26.7788 110.792H17.4688C16.0488 110.792 15.0987 111.552 15.1087 112.662C15.1187 113.772 15.9888 114.482 17.4788 114.492H36.1488C36.8937 114.55 37.6324 114.317 38.2087 113.842C38.3563 113.684 38.4705 113.498 38.5444 113.296C38.6183 113.093 38.6504 112.877 38.6387 112.662C38.6387 111.482 37.7787 110.802 36.2887 110.792C33.1787 110.802 30.0188 110.792 26.7788 110.792Z" fill="#312002" fill-opacity="0.572549"/>
<path d="M25.6488 91.301C22.9188 91.301 20.1788 91.301 17.4688 91.301C15.0887 91.301 13.4688 89.841 13.4688 87.781C13.4688 85.721 15.0887 84.311 17.4688 84.291H28.0988C30.0088 84.291 31.9188 84.291 33.8288 84.291C36.2288 84.291 37.8288 85.711 37.8288 87.771C37.8288 89.831 36.1788 91.291 33.8288 91.301C31.1088 91.301 28.3821 91.301 25.6488 91.301ZM20.7388 85.911H17.4788C16.3288 85.911 15.1087 86.401 15.1087 87.741C15.1087 88.861 16.0288 89.591 17.4788 89.601C22.8988 89.601 28.3987 89.601 33.8187 89.601C35.2587 89.601 36.1888 88.861 36.1888 87.741C36.1888 86.621 35.2987 85.921 33.8187 85.911C31.9087 85.911 30.0088 85.911 28.0988 85.911H20.7388Z" fill="#312002" fill-opacity="0.572549"/>
<path d="M25.7197 103.651H17.3297C15.0697 103.651 13.4297 102.201 13.4297 100.221C13.4297 98.2406 15.0697 96.8205 17.3297 96.8105H33.9697C36.2297 96.8105 37.8697 98.2606 37.8697 100.231C37.8697 102.201 36.2197 103.641 33.9597 103.651H25.7197ZM20.7197 98.4505H17.3397C15.9897 98.4505 15.0897 99.1605 15.0897 100.211C15.0897 101.261 15.9897 101.961 17.3297 101.971C22.8197 101.971 28.4097 101.971 33.9497 101.971C35.2997 101.971 36.2097 101.261 36.2097 100.211C36.2097 99.1605 35.3097 98.4605 33.9597 98.4505H20.7697H20.7197Z" fill="#312002" fill-opacity="0.572549"/>
<path d="M54.2114 90.2205C54.2273 83.2952 56.2973 76.5303 60.1594 70.7819C64.0216 65.0335 69.5022 60.5601 75.9077 57.9277C82.3132 55.2954 89.3557 54.6225 96.1438 55.9942C102.932 57.3659 109.161 60.7206 114.041 65.6336C118.922 70.5466 122.236 76.7971 123.563 83.5941C124.89 90.3911 124.171 97.429 121.496 103.817C118.822 110.205 114.312 115.656 108.539 119.48C102.765 123.305 95.9867 125.33 89.0614 125.3C84.4673 125.294 79.9197 124.38 75.6794 122.612C71.4392 120.844 67.5897 118.256 64.3519 114.997C61.1141 111.738 58.5516 107.872 56.8114 103.62C55.0713 99.3681 54.1877 94.8145 54.2114 90.2205ZM59.5514 90.2205C59.5396 96.0922 61.269 101.836 64.5211 106.724C67.7731 111.613 72.4018 115.428 77.8218 117.686C83.2418 119.945 89.2098 120.545 94.9711 119.412C100.732 118.279 106.028 115.463 110.189 111.32C114.35 107.177 117.19 101.894 118.348 96.1376C119.506 90.3813 118.932 84.4108 116.697 78.9809C114.462 73.5511 110.668 68.9058 105.793 65.6323C100.919 62.3589 95.1831 60.6043 89.3114 60.5905C85.4056 60.5533 81.5313 61.2928 77.9137 62.7658C74.2961 64.2388 71.0073 66.4161 68.2383 69.171C65.4694 71.926 63.2756 75.2038 61.7843 78.8139C60.293 82.424 59.534 86.2945 59.5514 90.2005V90.2205Z" fill="#312002" fill-opacity="0.572549"/>
<path d="M81.7371 107.77C81.3168 107.774 80.9008 107.686 80.5175 107.514C80.1343 107.341 79.793 107.088 79.5172 106.77C76.4172 103.67 73.3072 100.58 70.2272 97.4604C68.8872 96.1104 68.8172 94.6004 69.9472 93.4604C71.0772 92.3204 72.6372 92.4604 73.9472 93.7404C76.0672 95.8204 78.1472 97.9404 80.2572 100.03C81.8672 101.62 81.4472 101.76 83.2572 100.03C90.1172 93.1837 96.9705 86.3304 103.817 79.4704C104.219 79.0465 104.653 78.6553 105.117 78.3004C105.618 77.9436 106.226 77.7697 106.839 77.8079C107.453 77.8462 108.035 78.0942 108.487 78.5104C108.945 78.925 109.234 79.4931 109.3 80.1069C109.367 80.7208 109.205 81.3376 108.847 81.8404C108.555 82.279 108.22 82.6877 107.847 83.0604C100.107 90.8137 92.3571 98.5637 84.5971 106.31C83.7471 107 82.9771 107.87 81.7371 107.77Z" fill="#312002" fill-opacity="0.572549"/>
<path d="M91.8175 67.8497C91.8157 68.5183 91.5575 69.1607 91.0961 69.6444C90.6346 70.1282 90.0052 70.4164 89.3375 70.4497C88.0875 70.6297 86.8075 70.6097 85.5675 70.8297C81.9945 71.4612 78.6771 73.1026 76.0075 75.5597C74.0975 77.2897 72.6575 77.4697 71.4475 76.1597C70.2375 74.8497 70.5375 73.2397 72.4475 71.5497C76.9332 67.4837 82.7632 65.2187 88.8175 65.1897C90.7475 65.1697 91.8575 66.2297 91.8175 67.8497Z" fill="#312002" fill-opacity="0.572549"/>
</svg>
