<svg width="154" height="156" viewBox="0 0 154 156" fill="none" xmlns="http://www.w3.org/2000/svg">
<path d="M145.02 78.1188C145.02 97.9072 145.02 117.624 145.02 137.376C145.103 139.338 144.786 141.297 144.087 143.133C143.388 144.969 142.322 146.643 140.955 148.053C138.945 149.964 136.298 151.064 133.525 151.138C132.886 151.192 132.248 151.138 131.609 151.138H13.1757C12.636 151.138 12.0964 151.138 11.5567 151.138C11.224 151.148 10.8928 151.09 10.5834 150.967C10.2739 150.845 9.99274 150.66 9.75699 150.425C9.52124 150.191 9.3359 149.91 9.2123 149.601C9.0887 149.292 9.02944 148.961 9.03815 148.628C9.03815 146.991 9.77572 145.93 11.4128 145.84C13.1735 145.728 14.939 145.71 16.7016 145.786C17.835 145.786 18.2757 145.399 18.2577 144.248C18.2038 141.163 18.2577 138.069 18.2577 134.983C18.2577 133.913 17.8979 133.481 16.8006 133.526C15.0916 133.589 13.3736 133.571 11.6646 133.526C11.3051 133.56 10.9426 133.512 10.6038 133.387C10.265 133.263 9.95837 133.063 9.70651 132.805C9.45466 132.546 9.26391 132.234 9.14826 131.892C9.03261 131.55 8.99498 131.186 9.03815 130.828C9.03815 129.2 9.93762 128.354 11.6376 128.318C13.3376 128.282 15.1635 128.318 16.9265 128.318C17.826 128.318 18.2577 127.995 18.2487 127.041C18.2487 124.639 18.2487 122.238 18.2487 119.845C18.2487 118.901 17.8889 118.523 16.9445 118.541C15.3704 118.541 13.8053 118.541 12.2403 118.541C10.2524 118.541 9.01117 117.444 9.04715 115.753C9.08312 114.062 10.1355 113.054 12.2852 113.054C13.8053 113.054 15.3255 113.054 16.8366 113.054C17.835 113.054 18.2667 112.739 18.2487 111.705C18.2128 109.402 18.2128 107.1 18.2487 104.797C18.2487 103.754 17.781 103.43 16.8186 103.448C15.1995 103.448 13.5805 103.493 11.9704 103.448C10.0096 103.385 9.04715 102.432 9.03815 100.705C9.02916 98.9776 10.0456 98.1141 12.0424 98.0781C13.6075 98.0781 15.1815 98.0781 16.7466 98.0781C17.781 98.0781 18.2757 97.7903 18.2577 96.6659C18.2038 94.3183 18.2038 91.9617 18.2577 89.6141C18.2577 88.4987 17.808 88.1479 16.7556 88.1839C15.1456 88.2379 13.5265 88.1839 11.9075 88.1839C10.1085 88.1839 9.07413 87.2844 9.04715 85.7283C9.04715 83.9294 9.94662 82.922 11.8265 82.841C13.4366 82.7691 15.0556 82.7691 16.6747 82.841C17.772 82.841 18.2937 82.5262 18.2577 81.3389C18.1918 79.1322 18.1918 76.9285 18.2577 74.7278C18.2577 73.5405 17.808 73.1807 16.6926 73.2257C15.1276 73.2977 13.5535 73.2257 11.9884 73.2257C10.0635 73.2257 9.1281 72.3802 9.04715 70.6892C8.96619 68.9982 9.79371 68.0987 11.7456 67.9908C13.4006 67.8648 15.0736 67.8828 16.7376 67.9098C17.781 67.9098 18.2577 67.541 18.2307 66.4527C18.2307 64.0961 18.1858 61.7484 18.2307 59.3918C18.2307 58.2675 17.772 57.9527 16.7286 57.9887C15.1096 58.0426 13.4905 57.9887 11.8805 57.9887C9.95561 57.9887 9.01117 57.0892 9.01117 55.4252C9.01117 53.7611 9.91064 52.8167 11.8265 52.7897C13.5445 52.7897 15.2625 52.7897 16.9715 52.7897C17.871 52.7897 18.2217 52.4659 18.2128 51.5844C18.2128 49.2368 18.2128 46.8802 18.2128 44.5326C18.2128 43.4802 17.736 43.1654 16.7736 43.1834C15.2085 43.1834 13.6344 43.1834 12.0694 43.1834C9.98259 43.1294 8.9572 42.113 9.01117 40.2421C9.01117 38.686 10.3964 37.5437 12.2133 37.5437C13.7334 37.5437 15.2535 37.4897 16.7736 37.5437C17.871 37.5437 18.2397 37.1389 18.2217 36.0775C18.1678 33.8648 18.1588 31.6611 18.2217 29.4574C18.2217 28.2791 17.781 27.9013 16.6567 27.9463C15.0376 28.0093 13.4186 27.9463 11.8085 27.9463C10.0096 27.9463 9.05614 26.9839 9.00217 25.4008C8.9482 23.8177 9.90164 22.7024 11.7006 22.6035C13.4995 22.5045 15.1276 22.5405 16.8366 22.6035C17.853 22.6035 18.2307 22.2077 18.2217 21.2093C18.2217 18.0252 18.2217 14.838 18.2217 11.6479C18.2217 10.7035 17.844 10.3437 16.8995 10.3617C15.1905 10.3617 13.4725 10.3617 11.7635 10.3617C10.0546 10.3617 9.06513 9.46219 9.02016 7.94208C8.93021 6.23309 9.67677 5.3606 11.4847 5.11774C12.2134 5.03694 12.9463 5.0009 13.6794 5.00981C52.7704 5.00981 91.8644 5.00981 130.961 5.00981C132.527 4.96158 134.093 5.09133 135.63 5.39658C140.784 6.59288 143.482 10.1908 144.687 15.1199C144.947 16.3674 145.05 17.6426 144.993 18.9156C145.005 38.632 145.014 58.3664 145.02 78.1188ZM139.92 78.1188C139.92 58.1686 139.866 38.2273 139.92 18.277C139.92 13.8696 136.961 10.1818 131.924 10.2357C118.945 10.4336 105.965 10.2987 92.9858 10.2987C70.3551 10.2987 47.7244 10.2987 25.0937 10.2987C23.6905 10.2987 23.2138 10.6855 23.2948 12.0976C23.3937 14.9849 23.3847 17.8812 23.2948 20.7775C23.2948 22.0998 23.6546 22.5765 25.0307 22.5765C26.9916 22.5765 28.2149 23.9527 27.963 25.6167C27.8733 26.3102 27.5125 26.9399 26.9596 27.3681C26.4067 27.7963 25.7067 27.988 25.0128 27.9013C23.6096 27.9013 23.2138 28.4051 23.3038 29.7003C23.3847 31.6611 23.4027 33.631 23.3038 35.5828C23.2228 37.013 23.6186 37.5527 25.1567 37.5617C25.6491 37.5653 26.1318 37.6988 26.556 37.9487C26.9803 38.1986 27.3311 38.5561 27.5729 38.9851C27.8147 39.414 27.9391 39.8991 27.9333 40.3915C27.9276 40.8839 27.792 41.366 27.5403 41.7892C26.9286 43.0305 25.8313 43.1744 24.6889 43.1654C23.5466 43.1564 23.2948 43.5611 23.3218 44.5685C23.3218 46.7273 23.4027 48.886 23.3218 51.0357C23.2588 52.367 23.6546 52.9426 25.0487 52.8347C25.5898 52.7291 26.1507 52.8093 26.6405 53.0623C27.1303 53.3154 27.5202 53.7264 27.7471 54.2289C27.9702 54.6286 28.0805 55.0815 28.0662 55.5391C28.052 55.9966 27.9137 56.4417 27.6662 56.8269C27.4187 57.212 27.0712 57.5226 26.6609 57.7257C26.2506 57.9287 25.7929 58.0165 25.3366 57.9797C23.8344 57.9797 23.2048 58.3305 23.3307 59.9405C23.4657 61.7934 23.3307 63.6643 23.3307 65.5262C23.3307 67.694 23.3307 67.6939 25.4445 68.0178C27.5583 68.3416 28.4937 69.8887 27.6842 71.8315C27.1445 73.1537 25.9932 73.3696 24.7609 73.2797C23.5286 73.1897 23.2858 73.6395 23.3128 74.7188C23.3757 76.8776 23.3937 79.0363 23.3128 81.186C23.2588 82.4543 23.6635 82.985 24.9678 82.904C25.512 82.8154 26.0702 82.9073 26.5574 83.1655C27.0446 83.4237 27.434 83.8341 27.6662 84.3342C28.6286 86.4209 27.4323 88.2109 24.9678 88.2289C23.7625 88.2289 23.3217 88.6156 23.3667 89.8389C23.4387 92.0426 23.4477 94.2553 23.3667 96.45C23.3128 97.7273 23.7085 98.177 25.0218 98.159C26.9916 98.159 28.1519 99.3194 28.035 100.965C27.918 102.611 26.9016 103.466 24.9948 103.475C23.6725 103.475 23.3128 103.997 23.3667 105.229C23.4477 107.19 23.4657 109.16 23.3667 111.111C23.2948 112.587 23.6456 113.342 25.2916 113.135C25.7315 113.059 26.1842 113.125 26.5838 113.324C26.9834 113.523 27.3091 113.845 27.5133 114.242C27.813 114.678 27.9805 115.192 27.9956 115.721C28.0107 116.25 27.8727 116.773 27.5983 117.226C27.324 117.679 26.9247 118.043 26.4486 118.275C25.9724 118.506 25.4395 118.596 24.9138 118.532C23.7085 118.532 23.2588 118.901 23.3128 120.133C23.3937 122.085 23.3128 124.046 23.3128 126.007C23.3128 128.174 23.3128 128.174 25.4715 128.336C25.9057 128.337 26.3325 128.449 26.7116 128.66C27.0908 128.872 27.4097 129.176 27.6384 129.545C27.867 129.915 27.9978 130.336 28.0184 130.77C28.039 131.203 27.9488 131.635 27.7561 132.024C27.1985 133.31 26.1191 133.589 24.8508 133.553C24.1133 133.553 23.3307 133.436 23.3307 134.588C23.3307 137.97 23.3307 141.352 23.3307 144.734C23.3307 145.498 23.7265 145.777 24.4281 145.768C24.8688 145.768 25.3276 145.768 25.7503 145.768H131.717C132.41 145.768 133.093 145.768 133.777 145.768C134.632 145.723 135.466 145.492 136.221 145.089C136.977 144.687 137.635 144.123 138.148 143.438C139.423 141.81 140.062 139.774 139.947 137.709C139.905 117.836 139.896 97.9761 139.92 78.1278V78.1188Z" fill="#312002" fill-opacity="0.5725"/>
<path d="M126.233 78.1553C126.233 93.1465 126.233 108.138 126.233 123.129C126.233 127.078 124.227 129.821 120.755 130.675C120.085 130.82 119.399 130.883 118.713 130.864C95.5551 130.864 72.3877 130.864 49.2113 130.864C44.8669 130.864 41.9256 128.022 41.7188 123.669C41.7188 123.183 41.7188 122.688 41.7188 122.202V33.8653C41.7188 28.9003 43.3468 26.6066 48.0151 25.0505C48.5842 24.9027 49.173 24.845 49.76 24.8796C72.5886 24.8796 95.4082 24.8077 118.237 24.8796C122.887 24.8796 126.242 28.0188 126.233 32.831C126.221 47.9541 126.221 63.0622 126.233 78.1553ZM46.7918 78.0563C46.7918 92.7057 46.7918 107.358 46.7918 122.013C46.7918 125.171 47.3135 125.71 50.3897 125.71H117.688C120.548 125.71 121.286 124.991 121.286 122.175C121.286 92.8287 121.286 63.4759 121.286 34.1172C121.286 31.1849 120.683 30.5823 117.778 30.5823H50.2277C47.1965 30.5823 46.7918 30.996 46.7918 34.0992C46.7858 48.7426 46.7858 63.395 46.7918 78.0563Z" fill="#312002" fill-opacity="0.5725"/>
<path d="M84.0422 55.4082H104.172C106.772 55.4082 107.626 56.3077 107.626 59.0061C107.626 68.4685 107.626 77.928 107.626 87.3844C107.626 90.6135 107.626 93.8516 107.626 97.0807C107.626 99.968 106.727 100.84 103.813 100.84C90.5784 100.84 77.3532 100.84 64.1369 100.84C61.2766 100.84 60.5391 100.04 60.5391 97.1616V58.7902C60.5391 56.0918 61.2407 55.4172 63.9481 55.4172L84.0422 55.4082ZM102.418 87.2854C102.508 86.6108 102.553 86.386 102.553 86.2331C102.553 78.1378 102.553 70.0426 102.553 61.9923C102.553 60.6971 101.924 60.5981 100.907 60.5981C89.598 60.5981 78.2916 60.5981 66.9883 60.5981C65.666 60.5981 65.3512 61.0389 65.3512 62.2982C65.4052 70.0786 65.3512 77.868 65.3512 85.6844C65.3512 86.0802 65.1623 86.5839 65.6301 86.9436C65.9089 86.6648 66.1967 86.404 66.4396 86.1071C69.138 82.6981 71.8364 79.2981 74.5348 75.8712C74.7387 75.5366 75.023 75.2583 75.362 75.0618C75.7009 74.8653 76.0837 74.7567 76.4753 74.746C76.867 74.7352 77.2551 74.8227 77.6043 75.0004C77.9535 75.1781 78.2526 75.4403 78.4745 75.7632C80.8491 78.8124 83.2507 81.8347 85.5983 84.9018C86.219 85.7204 86.4978 85.4505 86.9655 84.7939C88.2158 82.995 89.484 81.196 90.7973 79.3971C92.7041 76.8246 94.2692 76.8156 96.266 79.3251C96.4729 79.595 96.6168 79.9098 96.8327 80.1796L102.418 87.2854ZM65.783 95.2997H87.3703C84.0332 91.0452 80.8131 86.9886 77.665 82.878C76.7655 81.7627 76.2348 81.8526 75.4523 82.878C74.3459 84.3622 73.1496 85.7923 72.0073 87.2495C69.9745 89.8849 67.9507 92.5114 65.783 95.2997ZM102.104 95.4346C101.348 94.4182 100.799 93.6357 100.206 92.8712C98.2809 90.4006 96.35 87.9361 94.4131 85.4775C94.0443 85.0098 93.6396 84.4701 93.0369 85.2526C91.968 86.461 90.9994 87.7546 90.1406 89.1204C89.9865 89.3097 89.9024 89.5463 89.9024 89.7905C89.9024 90.0346 89.9865 90.2713 90.1406 90.4606C91.247 91.8278 92.3174 93.222 93.4057 94.6071C93.5875 94.8696 93.8311 95.0832 94.1151 95.2291C94.399 95.375 94.7146 95.4487 95.0338 95.4436C97.2914 95.4257 99.5401 95.4346 102.104 95.4346Z" fill="#312002" fill-opacity="0.5725"/>
</svg>
