<svg width="154" height="156" viewBox="0 0 154 156" fill="none" xmlns="http://www.w3.org/2000/svg">
<path d="M150.018 18.0763V138.55C148.837 142.435 146.494 145.175 142.432 146.197C140.936 146.516 139.406 146.646 137.878 146.585H15.2633C14.1708 146.585 13.0696 146.514 11.9772 146.408C9.55599 146.173 7.30588 145.055 5.65534 143.268C4.0048 141.481 3.06912 139.15 3.02647 136.718C3.00885 97.7666 3.00004 58.8362 3.00004 19.9263C2.99565 18.4863 3.33706 17.0663 3.99555 15.7857C6.18918 11.4777 9.92453 10.0065 14.5673 10.0065C55.9145 10.0065 97.2617 10.0065 138.609 10.0065C139.9 9.96871 141.191 10.096 142.45 10.3853C146.476 11.4249 148.846 14.1559 150.018 18.0763ZM76.6498 35.3434H7.66922C5.53726 35.3434 5.53726 35.3434 5.53726 37.5106V135.299C5.39522 137.472 6.09209 139.616 7.48422 141.29C9.24618 143.254 11.4751 143.933 14.0475 143.933C55.7471 143.933 97.4467 143.933 139.146 143.933C139.481 143.933 139.816 143.933 140.151 143.933C141.327 143.911 142.481 143.616 143.524 143.072C144.567 142.528 145.469 141.749 146.159 140.797C147.28 139.11 147.807 137.098 147.657 135.079V37.6604C147.657 35.3522 147.657 35.3434 145.384 35.3434H76.6498ZM76.5088 32.63H144.635C145.155 32.63 145.683 32.63 146.212 32.63C147.269 32.6829 147.63 32.1807 147.621 31.15C147.621 27.6261 147.621 24.1021 147.621 20.5782C147.654 19.3269 147.379 18.0868 146.819 16.9669C146.26 15.847 145.434 14.8817 144.415 14.1559C142.854 13.1199 140.999 12.619 139.129 12.7287H14.0387C13.6599 12.7287 13.2722 12.7287 12.8934 12.7287C11.1549 12.7698 9.48664 13.4233 8.18278 14.5741C6.87893 15.7248 6.02315 17.2989 5.76631 19.0189C5.22011 22.7278 5.61655 26.4632 5.54607 30.1897C5.49321 32.6388 5.54607 32.6476 7.95995 32.6476L76.5088 32.63Z" fill="#312002" fill-opacity="0.5725"/>
<path d="M76.4266 68.6281H19.6388C15.1281 68.6281 13.375 66.8662 13.375 62.3996C13.375 58.2854 13.375 54.1801 13.375 50.0659C13.375 46.542 15.2251 44.6655 18.6609 44.4629C19.2864 44.4629 19.903 44.4629 20.5285 44.4629H132.563C133.038 44.4629 133.514 44.4629 133.998 44.4629C137.91 44.5598 139.76 46.4451 139.769 50.3566C139.769 54.5589 139.769 58.77 139.769 62.9722C139.769 66.6635 137.787 68.6281 134.069 68.6281H76.4266ZM87.3331 66.135C102.774 66.135 118.217 66.135 133.664 66.135C136.351 66.135 137.047 65.4302 137.047 62.7344C137.047 58.5762 137.047 54.4179 137.047 50.2509C137.047 47.8635 136.333 47.1323 133.998 47.1323C102.918 47.1323 71.8367 47.1323 40.7558 47.1323C39.4343 47.1323 38.9938 47.5904 38.9938 48.8942C39.0467 53.9686 38.9938 59.0343 38.9938 64.0999C38.9938 66.1526 38.9938 66.1702 41.0906 66.1702L87.3331 66.135ZM26.9421 47.1499C24.2198 47.1499 21.5064 47.1499 18.7842 47.1499C16.9253 47.1499 16.1413 47.9339 16.1413 49.74C16.1413 54.2741 16.1413 58.8082 16.1413 63.3423C16.1413 65.1042 16.8989 65.8883 18.6697 65.8971C24.0701 65.8971 29.4617 65.8971 34.8532 65.8971C35.9633 65.8971 36.3773 65.4654 36.3685 64.3642C36.3685 59.0783 36.3685 53.8629 36.3685 48.6123C36.3685 47.5111 35.9721 47.0794 34.8532 47.097C32.1927 47.1499 29.5674 47.1499 26.9421 47.1499Z" fill="#312002" fill-opacity="0.5725"/>
<path d="M52.6695 76.4688H89.2389C91.5382 76.4688 91.8289 76.733 91.8289 78.9972C91.8289 97.204 91.8289 115.411 91.8289 133.618C91.8289 135.961 91.4766 136.261 89.186 136.261H16.0648C13.7919 136.261 13.4219 135.864 13.4219 133.618C13.4219 115.411 13.4219 97.204 13.4219 78.9972C13.4219 76.689 13.6509 76.4688 15.9855 76.4688H52.6695ZM52.6166 133.565H87.1686C89.0627 133.565 89.1155 133.521 89.1155 131.636V80.8913C89.1155 79.0236 89.0627 78.9883 87.1509 78.9883C64.1163 78.9883 41.0817 78.9883 18.047 78.9883C16.1705 78.9883 16.0912 79.05 16.0912 80.9089V131.662C16.0912 133.503 16.1617 133.565 18.0646 133.565H52.6166Z" fill="#312002" fill-opacity="0.5725"/>
<path d="M119.625 76.4697C125.557 76.4697 131.486 76.4697 137.412 76.4697C139.306 76.4697 139.676 76.8045 139.676 78.7339C139.676 85.7817 139.676 92.8559 139.676 99.9566C139.676 102.106 139.271 102.476 137.166 102.476C125.449 102.476 113.735 102.476 102.023 102.476C99.9619 102.476 99.5479 102.097 99.5391 100.08C99.5391 93.0321 99.5391 85.9549 99.5391 78.8484C99.5391 76.7781 99.9003 76.4697 101.988 76.4697C107.867 76.458 113.746 76.458 119.625 76.4697ZM119.467 99.7628C124.673 99.7628 129.889 99.7628 135.095 99.7628C136.919 99.7628 137.007 99.6747 137.007 97.9304C137.007 92.1952 137.007 86.4777 137.007 80.7249C137.007 79.4298 136.628 78.9629 135.289 78.9629C124.817 79.0099 114.348 79.0099 103.882 78.9629C102.534 78.9629 102.12 79.4298 102.164 80.7249C102.217 86.46 102.164 92.1776 102.164 97.9304C102.164 99.6923 102.261 99.754 104.076 99.7628C109.239 99.7716 114.348 99.7628 119.467 99.7628Z" fill="#312002" fill-opacity="0.5725"/>
<path d="M119.608 110.325C125.534 110.325 131.46 110.325 137.386 110.325C139.306 110.325 139.668 110.642 139.676 112.562C139.676 119.681 139.676 126.805 139.676 133.935C139.676 135.952 139.245 136.331 137.183 136.331C125.472 136.331 113.761 136.331 102.05 136.331C99.9267 136.331 99.5391 135.961 99.5391 133.812C99.5391 126.764 99.5391 119.736 99.5391 112.73C99.5391 110.633 99.8915 110.325 101.962 110.325C107.847 110.319 113.729 110.319 119.608 110.325ZM119.608 133.618C124.823 133.618 130.03 133.618 135.245 133.618C136.496 133.618 137.051 133.292 137.007 131.917C136.954 126.085 136.954 120.253 137.007 114.421C137.007 113.135 136.505 112.8 135.298 112.8C124.832 112.836 114.363 112.836 103.891 112.8C102.561 112.8 102.129 113.25 102.129 114.562C102.182 120.306 102.129 126.015 102.129 131.777C102.129 133.538 102.217 133.609 104.032 133.609L119.608 133.618Z" fill="#312002" fill-opacity="0.5725"/>
<path d="M102.135 17.3984C113.086 17.3984 124.027 17.3984 134.969 17.3984C138.722 17.3984 141.136 20.0414 140.669 23.5653C140.525 24.7139 139.998 25.7804 139.174 26.5925C138.349 27.4046 137.274 27.9148 136.123 28.0407C135.317 28.1434 134.504 28.1847 133.692 28.164H70.605C69.7465 28.1863 68.8878 28.1244 68.0414 27.979C66.7755 27.7659 65.6305 27.0995 64.8199 26.1042C64.0094 25.1088 63.5887 23.8525 63.6365 22.5698C63.7095 21.242 64.2675 19.9872 65.2045 19.0437C66.1416 18.1001 67.3925 17.5335 68.7197 17.4513C69.2835 17.3984 69.865 17.4513 70.4376 17.4513L102.135 17.3984ZM102.391 20.1119H70.5521C69.9322 20.0955 69.3118 20.1102 68.6933 20.1559C68.0665 20.2037 67.4798 20.4825 67.0468 20.9383C66.6139 21.394 66.3655 21.9942 66.3499 22.6226C66.304 23.2511 66.4903 23.8745 66.8736 24.3746C67.2568 24.8748 67.8103 25.2169 68.429 25.3361C68.9473 25.4188 69.4728 25.4483 69.9971 25.4242H134.397C136.828 25.4242 138.079 24.5432 138.132 22.7812C138.185 21.0193 136.89 20.0766 134.379 20.0766L102.391 20.1119Z" fill="#312002" fill-opacity="0.5725"/>
<path d="M31.8789 17.416C33.3023 17.4228 34.6662 17.9876 35.6777 18.9892C36.6891 19.9907 37.2673 21.3491 37.2881 22.7724C37.2468 24.1662 36.6782 25.4924 35.6971 26.4833C34.716 27.4742 33.3955 28.0559 32.0022 28.1111C30.584 28.1251 29.2182 27.5752 28.2055 26.5822C27.1927 25.5893 26.6158 24.2347 26.6018 22.8164C26.5878 21.3982 27.1378 20.0324 28.1307 19.0196C29.1236 18.0069 30.4782 17.43 31.8965 17.416H31.8789ZM29.3152 22.7547C29.3033 23.0991 29.3612 23.4423 29.4854 23.7636C29.6096 24.085 29.7974 24.378 30.0378 24.6249C30.2781 24.8718 30.5658 25.0675 30.8838 25.2003C31.2017 25.3331 31.5432 25.4003 31.8877 25.3977C32.2444 25.4049 32.599 25.3398 32.9299 25.2064C33.2608 25.0729 33.5613 24.8738 33.8132 24.6211C34.0651 24.3684 34.2632 24.0672 34.3956 23.7359C34.528 23.4045 34.5919 23.0498 34.5835 22.6931C34.5825 22.3504 34.5128 22.0114 34.3785 21.6961C34.2442 21.3808 34.048 21.0956 33.8016 20.8574C33.5552 20.6192 33.2636 20.4329 32.9439 20.3094C32.6243 20.1858 32.2831 20.1276 31.9405 20.1382C31.5926 20.1234 31.2453 20.1808 30.9206 20.3069C30.5959 20.433 30.3009 20.625 30.0543 20.8709C29.8076 21.1168 29.6145 21.4111 29.4873 21.7354C29.3601 22.0596 29.3015 22.4067 29.3152 22.7547Z" fill="#312002" fill-opacity="0.5725"/>
<path d="M46.3389 17.4082C47.3934 17.4204 48.4209 17.7441 49.2919 18.3386C50.163 18.9332 50.8388 19.772 51.2344 20.7497C51.6299 21.7273 51.7276 22.8001 51.515 23.8331C51.3025 24.866 50.7893 25.8131 50.0399 26.5552C49.2905 27.2972 48.3384 27.8012 47.3034 28.0035C46.2684 28.2059 45.1966 28.0977 44.2229 27.6926C43.2492 27.2874 42.417 26.6034 41.8311 25.7266C41.2451 24.8497 40.9315 23.8192 40.9297 22.7646C40.9549 21.3427 41.5346 19.987 42.545 18.9864C43.5555 17.9858 44.9169 17.4195 46.3389 17.4082ZM46.3389 20.1392C45.9975 20.1212 45.656 20.1732 45.3353 20.2918C45.0147 20.4105 44.7217 20.5933 44.4742 20.8293C44.2268 21.0652 44.0301 21.3491 43.8963 21.6637C43.7624 21.9783 43.6943 22.317 43.696 22.6588C43.6733 23.0017 43.7196 23.3457 43.8322 23.6704C43.9447 23.9951 44.1211 24.294 44.351 24.5494C44.581 24.8048 44.8598 25.0115 45.1709 25.1574C45.4821 25.3033 45.8193 25.3853 46.1627 25.3987C46.5214 25.4178 46.8803 25.3637 47.2174 25.2394C47.5545 25.1152 47.8628 24.9236 48.1233 24.6762C48.3839 24.4289 48.5913 24.131 48.7328 23.8008C48.8744 23.4706 48.9471 23.115 48.9466 22.7557C48.9537 22.4117 48.8915 22.0697 48.7636 21.7502C48.6358 21.4307 48.4449 21.1402 48.2024 20.896C47.9599 20.6518 47.6706 20.459 47.352 20.329C47.0334 20.199 46.6918 20.1344 46.3477 20.1392H46.3389Z" fill="#312002" fill-opacity="0.5725"/>
<path d="M23.0154 22.8345C22.9892 23.8769 22.6554 24.8883 22.0558 25.7414C21.4562 26.5945 20.6177 27.2512 19.6457 27.6288C18.6738 28.0065 17.6119 28.0883 16.5936 27.8639C15.5753 27.6395 14.6461 27.1189 13.923 26.3677C13.1998 25.6164 12.715 24.6681 12.5296 23.642C12.3441 22.6159 12.4663 21.5579 12.8807 20.601C13.2952 19.6442 13.9833 18.8313 14.8587 18.2646C15.734 17.698 16.7574 17.4029 17.8 17.4165C19.2008 17.4711 20.5261 18.0657 21.4983 19.0756C22.4705 20.0856 23.0142 21.4326 23.0154 22.8345ZM20.2932 22.7376C20.3135 22.3925 20.2607 22.047 20.1384 21.7237C20.0161 21.4004 19.827 21.1065 19.5834 20.8612C19.3398 20.6159 19.0472 20.4248 18.7247 20.3003C18.4022 20.1758 18.0571 20.1207 17.7119 20.1387C17.0169 20.1244 16.3442 20.3845 15.8396 20.8627C15.335 21.341 15.0391 21.9987 15.0161 22.6935C15.0077 23.051 15.0719 23.4065 15.2048 23.7384C15.3377 24.0704 15.5366 24.3719 15.7895 24.6248C16.0423 24.8776 16.3438 25.0765 16.6758 25.2095C17.0078 25.3424 17.3632 25.4066 17.7207 25.3981C18.0654 25.3959 18.4061 25.3249 18.723 25.1893C19.0399 25.0537 19.3265 24.8563 19.5661 24.6085C19.8057 24.3607 19.9934 24.0676 20.1182 23.7463C20.2431 23.4251 20.3026 23.0821 20.2932 22.7376Z" fill="#312002" fill-opacity="0.5725"/>
<path d="M19.9453 54.7433C20.0535 53.8568 20.3986 53.0158 20.9443 52.3088C21.49 51.6019 22.2162 51.0551 23.0464 50.726C23.9889 50.2778 25.0406 50.1104 26.0758 50.2438C27.1109 50.3773 28.0857 50.8059 28.8838 51.4786C29.6819 52.1512 30.2694 53.0394 30.5762 54.037C30.883 55.0346 30.8961 56.0994 30.614 57.1043C30.4067 57.5786 30.3688 58.1097 30.5068 58.6086C30.6447 59.1075 30.9501 59.5437 31.3716 59.8441C31.7757 60.1807 32.1341 60.5687 32.4376 60.9982C32.5421 61.1159 32.6215 61.2537 32.6708 61.4032C32.7201 61.5527 32.7383 61.7107 32.7243 61.8675C32.7102 62.0243 32.6643 62.1765 32.5892 62.3149C32.5142 62.4532 32.4116 62.5748 32.2878 62.6721C31.8033 63.1125 31.0721 63.2359 30.7373 62.7425C29.2925 60.6194 27.3984 60.8749 25.1695 61.0775C22.2006 61.3418 19.9365 58.7077 19.9453 54.7433ZM28.0327 55.6242C28.0435 55.2668 27.9816 54.9109 27.8509 54.5781C27.7201 54.2453 27.5232 53.9424 27.272 53.6879C27.0208 53.4334 26.7205 53.2326 26.3894 53.0975C26.0583 52.9624 25.7033 52.8959 25.3457 52.902C24.9825 52.8985 24.6221 52.9667 24.2851 53.1025C23.9482 53.2383 23.6413 53.4391 23.3819 53.6935C23.1226 53.948 22.9159 54.251 22.7737 54.5853C22.6315 54.9195 22.5565 55.2786 22.553 55.6418C22.5496 56.0051 22.6177 56.3655 22.7535 56.7025C22.8893 57.0394 23.0901 57.3463 23.3446 57.6056C23.599 57.865 23.902 58.0716 24.2363 58.2139C24.5706 58.3561 24.9296 58.4311 25.2929 58.4345C25.6657 58.4493 26.0375 58.385 26.3837 58.2458C26.73 58.1066 27.0428 57.8956 27.3016 57.6268C27.5604 57.358 27.7594 57.0374 27.8854 56.6862C28.0114 56.335 28.0616 55.961 28.0327 55.589V55.6242Z" fill="#312002" fill-opacity="0.5725"/>
<path d="M55.3834 99.1719C55.7446 99.2512 56.2643 99.3481 56.7665 99.4802L78.5267 105.136C78.7645 105.198 78.9936 105.242 79.2226 105.312C79.8922 105.524 80.4912 105.832 80.6058 106.607C80.7203 107.383 80.1741 107.832 79.5574 108.158C77.7954 109.039 76.1128 110.008 74.3508 110.871C73.4698 111.329 73.3817 111.708 74.1394 112.413C76.5797 114.686 78.9936 117.012 81.4075 119.32C83.5042 121.328 83.5042 121.487 81.5396 123.54C80.6146 124.509 79.716 125.504 78.7821 126.456C77.5488 127.716 77.0202 127.733 75.7956 126.544C73.3994 124.283 71.0149 122.007 68.6421 119.716C66.8801 118.051 66.8801 118.042 65.8934 120.166C65.1975 121.628 64.5103 123.108 63.8143 124.57C63.5148 125.196 63.1184 125.751 62.3079 125.672C61.4974 125.592 61.2154 124.985 61.004 124.324C58.6547 116.689 56.3055 109.018 53.9562 101.313C53.5597 100.009 54.0971 99.1983 55.3834 99.1719ZM62.8541 120.315C63.6289 118.962 64.3174 117.562 64.9155 116.122C65.7965 114.36 66.5982 114.157 68.0606 115.558C70.5186 117.893 72.9501 120.262 75.3992 122.606C77.1611 124.306 77.1611 124.306 78.9231 122.483L79.0288 122.386C79.8305 121.76 79.7424 121.232 79.0288 120.553C76.1921 117.91 73.3994 115.267 70.6155 112.545C69.2676 111.25 69.3909 110.457 71.0383 109.594C72.4567 108.845 73.8927 108.131 75.3287 107.4C75.2464 107.232 75.1221 107.087 74.9678 106.981C74.8135 106.875 74.6344 106.81 74.4477 106.792L58.7751 102.722C57.392 102.37 57.251 102.528 57.6827 103.947C59.2332 109.068 60.7896 114.187 62.3519 119.302C62.3695 119.655 62.3695 120.069 62.8541 120.271V120.315Z" fill="#312002" fill-opacity="0.5725"/>
</svg>
