<svg width="154" height="156" viewBox="0 0 154 156" fill="none" xmlns="http://www.w3.org/2000/svg">
<path d="M152.023 112.857C150.582 116.482 147.937 118.12 144.029 117.941C141.355 117.829 138.662 117.941 135.979 117.941C134.274 117.941 133.286 117.141 133.154 115.785C133.022 114.429 133.954 113.318 135.724 113.253C138.606 113.14 141.477 113.196 144.359 113.177C146.778 113.177 147.475 112.462 147.475 110.004V22.8909C147.475 20.3864 146.647 19.5766 144.114 19.5766H9.90376C7.40862 19.5766 6.59888 20.3958 6.59888 22.938V109.882C6.59888 112.49 7.26739 113.149 9.91317 113.149H97.4783C97.9491 113.149 98.4199 113.149 99.0507 113.064C96.7156 110.663 94.55 108.356 92.3185 106.172C91.8478 105.701 91.1039 105.927 90.4354 105.927H45.0993C42.0204 105.927 41.333 105.259 41.333 102.161V30.6965C41.333 27.4104 42.0298 26.7231 45.2782 26.7231H136.61C139.754 26.7231 140.376 27.3445 140.376 30.4893V102.359C140.376 105.343 139.783 105.927 136.77 105.927C130.229 105.927 123.691 105.927 117.157 105.927C116.623 105.848 116.077 105.896 115.566 106.068C115.669 106.662 116.178 106.925 116.507 107.283C123.07 113.817 129.623 120.324 136.073 126.915C136.999 127.793 137.703 128.88 138.127 130.084C138.551 131.288 138.683 132.575 138.512 133.841C138.341 135.106 137.872 136.312 137.143 137.36C136.415 138.409 135.448 139.269 134.322 139.87C132.722 140.732 130.882 141.037 129.09 140.737C127.298 140.437 125.657 139.549 124.426 138.213C118.098 131.905 111.781 125.606 105.5 119.25C105.095 118.809 104.599 118.462 104.046 118.233C103.493 118.004 102.897 117.898 102.299 117.923C71.4159 117.96 40.5327 117.976 9.64953 117.97C8.50304 118.042 7.35536 117.848 6.2967 117.402C5.23803 116.956 4.29723 116.27 3.54822 115.399C2.45156 114.008 1.90526 112.262 2.01348 110.494C2.01348 85.3855 2.01348 60.2583 2.01348 35.1124C2.01348 30.7718 2.01348 26.4312 2.01348 22.0812C1.96315 21.1385 2.1119 20.1959 2.45006 19.3145C2.78821 18.4332 3.30819 17.6329 3.97613 16.9659C4.64407 16.2988 5.445 15.7799 6.32679 15.4429C7.20857 15.106 8.15144 14.9585 9.09401 15.01C54.3768 15.01 99.6564 15.01 144.933 15.01C148.558 15.01 150.724 16.8932 152.004 20.1039L152.023 112.857ZM46.361 72.417C46.9636 72.2664 47.3025 71.7673 47.698 71.3719L72.6305 46.8819C74.6078 44.9329 75.5399 44.9423 77.5361 46.8819C84.4408 53.68 91.3707 60.478 98.3257 67.2761C99.1543 68.1047 99.6533 68.2177 100.538 67.2761C103.307 64.4514 106.188 61.7209 109.012 58.9809C110.312 57.7193 111.376 57.7004 112.779 58.8397C113.118 59.1222 113.428 59.4423 113.72 59.7813C120.499 66.4538 127.285 73.1232 134.077 79.7894C134.472 80.1755 134.783 80.731 135.404 80.8534C135.8 80.4768 135.64 80.0154 135.64 79.6011C135.64 64.1878 135.64 48.765 135.64 33.3517C135.64 31.7792 135.028 31.4685 133.653 31.4685C105.117 31.5062 76.5788 31.5062 48.037 31.4685C46.1538 31.4685 46.1538 31.4685 46.1538 33.4364C46.1538 45.9215 46.1538 58.4097 46.1538 70.9011C46.0239 71.4142 46.0982 71.9576 46.361 72.417ZM86.9234 101.04C86.7916 100.334 86.2831 100.099 85.9159 99.7035C81.7166 95.4853 77.5109 91.2733 73.299 87.0677C72.7722 86.6371 72.345 86.0975 72.0468 85.4859C70.898 82.4823 69.7023 79.4881 68.6666 76.4469C68.3764 75.6828 68.3255 74.8485 68.5206 74.0547C68.7157 73.261 69.1475 72.5453 69.7588 72.0027C70.3296 71.4273 71.0563 71.0316 71.8494 70.8643C72.6425 70.697 73.4671 70.7654 74.2218 71.0612C75.3705 71.4566 76.5003 71.9462 77.6679 72.2946C81.5094 73.4339 85.0685 75.0157 87.5637 78.3583C88.0815 79.055 88.5711 79.0833 89.2208 78.4242C91.1039 76.5411 92.9871 74.6579 94.9926 72.7748C95.9341 71.9368 95.84 71.4284 94.9926 70.5904C88.6653 64.4326 82.3663 58.2434 76.0955 52.0228C75.3516 51.279 74.8903 51.1942 74.0899 52.0228C65.1137 60.9111 56.1124 69.7775 47.086 78.6219C46.7686 78.9172 46.5198 79.2785 46.3572 79.6803C46.1945 80.0821 46.1219 80.5147 46.1444 80.9476C46.1444 87.143 46.1915 93.3385 46.1444 99.534C46.1444 100.805 46.5305 101.238 47.8204 101.229C53.4698 101.229 59.1191 101.229 64.7685 101.229C65.2264 101.249 65.6837 101.176 66.1125 101.014C66.5414 100.852 66.933 100.605 67.2636 100.287C68.7607 98.8937 70.2766 97.4625 71.8584 96.2103C72.0794 95.9976 72.3416 95.8325 72.6289 95.7252C72.9162 95.6179 73.2225 95.5708 73.5288 95.5867C73.8351 95.6025 74.1348 95.6811 74.4095 95.8175C74.6842 95.954 74.9279 96.1453 75.1257 96.3797C75.5297 96.8464 75.7393 97.4503 75.7113 98.0669C75.6832 98.6836 75.4197 99.266 74.975 99.694C74.5701 100.165 73.9016 100.372 73.6757 101.144L86.9234 101.04ZM122.891 101.163C126.601 101.163 130.301 101.163 134.011 101.163C135.207 101.163 135.659 100.739 135.64 99.534C135.583 96.069 135.64 92.6041 135.64 89.1768C135.656 88.7654 135.58 88.3556 135.417 87.9775C135.254 87.5994 135.009 87.2628 134.698 86.9924C132.815 85.2222 130.932 83.405 129.124 81.5972C123.381 75.9479 117.647 70.2985 111.922 64.6491C111.14 63.8771 110.698 63.8865 109.916 64.6491C104.21 70.2985 98.4732 75.9479 92.7046 81.5972C91.9702 82.3128 91.9608 82.7459 92.7046 83.4804C98.3163 89.0356 103.906 94.6222 109.474 100.24C109.771 100.555 110.133 100.802 110.534 100.965C110.935 101.127 111.367 101.201 111.799 101.182C115.481 101.144 119.181 101.163 122.891 101.163ZM73.3744 75.7407C74.2594 78.0758 75.0315 80.0248 75.7283 81.9927C76.0699 82.9556 76.6308 83.8259 77.3666 84.5349C93.9757 101.119 110.572 117.709 127.156 134.306C127.59 134.767 128.07 135.184 128.587 135.549C129.147 135.954 129.823 136.164 130.513 136.149C131.203 136.134 131.87 135.893 132.41 135.464C132.984 135.076 133.419 134.516 133.653 133.864C133.886 133.212 133.906 132.503 133.71 131.839C133.43 130.949 132.893 130.163 132.165 129.579L82.0744 79.4976C81.7347 79.0827 81.3153 78.7401 80.8409 78.4901C78.487 77.5391 76.1049 76.7011 73.3744 75.7125V75.7407Z" fill="#312002" fill-opacity="0.5725"/>
<path d="M24.3933 79.2989C20.2155 79.3288 16.1831 77.767 13.1154 74.9308C10.0477 72.0946 8.17497 68.1968 7.87765 64.0296C7.58033 59.8623 8.88077 55.7381 11.5147 52.4952C14.1487 49.2522 17.9185 47.1337 22.0582 46.5702C27.5664 45.751 32.2365 47.5118 36.1816 51.3439C36.5702 51.7031 36.8894 52.1308 37.1232 52.6056C37.3964 53.0787 37.4842 53.6365 37.3693 54.1706C37.2545 54.7048 36.9453 55.1772 36.5018 55.4962C36.2629 55.6936 35.9862 55.8403 35.6887 55.9271C35.3912 56.014 35.0792 56.0392 34.7716 56.0013C34.464 55.9634 34.1674 55.8632 33.8998 55.7067C33.6323 55.5502 33.3995 55.3408 33.2157 55.0913C31.488 53.2084 29.2289 51.895 26.7378 51.3251C25.2007 51.007 23.6155 51 22.0757 51.3046C20.5359 51.6092 19.0727 52.2193 17.7726 53.0987C16.4724 53.9781 15.3617 55.1091 14.5058 56.4249C13.65 57.7407 13.0664 59.2147 12.7896 60.7597C12.5129 62.3048 12.5484 63.8896 12.8942 65.4207C13.24 66.9518 13.8891 68.398 14.803 69.6741C15.717 70.9502 16.8774 72.0303 18.2157 72.8505C19.554 73.6708 21.043 74.2146 22.5949 74.4498C24.1542 74.6991 25.7478 74.6295 27.2794 74.2452C28.811 73.8609 30.2487 73.17 31.5056 72.2141C32.7625 71.2582 33.8124 70.0573 34.5919 68.6841C35.3713 67.3108 35.8641 65.7937 36.0404 64.2245C36.0701 63.9349 36.1236 63.6484 36.2005 63.3677C36.3004 62.7591 36.6289 62.2116 37.1189 61.8371C37.6089 61.4627 38.2234 61.2894 38.8368 61.3527C39.4499 61.4504 40.0006 61.7836 40.3717 62.2813C40.7428 62.779 40.9049 63.4019 40.8235 64.0173C40.5323 68.1728 38.6735 72.0625 35.6232 74.8996C32.573 77.7366 28.559 79.3091 24.3933 79.2989Z" fill="#312002" fill-opacity="0.5725"/>
<path d="M24.2825 70.7983C23.2332 70.7997 22.1941 70.5916 21.2263 70.1862C20.2585 69.7807 19.3814 69.186 18.6464 68.4371C17.9115 67.6881 17.3335 66.7999 16.9464 65.8246C16.5594 64.8492 16.3709 63.8064 16.3923 62.7573C16.4172 60.6347 17.2844 58.609 18.8029 57.1257C19.5548 56.3913 20.4441 55.8122 21.4198 55.4214C22.3955 55.0306 23.4387 54.8358 24.4897 54.8482C25.5407 54.8606 26.579 55.0798 27.5452 55.4935C28.5115 55.9071 29.3868 56.507 30.1213 57.2589C30.8557 58.0108 31.4348 58.9 31.8256 59.8757C32.2164 60.8515 32.4111 61.8946 32.3988 62.9456C32.3929 63.9975 32.177 65.0377 31.7637 66.005C31.3505 66.9724 30.7482 67.8475 29.9922 68.5789C29.2362 69.3104 28.3417 69.8834 27.3612 70.2645C26.3808 70.6457 25.3341 70.8271 24.2825 70.7983ZM27.578 62.8891C27.6235 62.4459 27.5761 61.998 27.4386 61.5741C27.3011 61.1502 27.0766 60.7597 26.7795 60.4276C26.4824 60.0954 26.1193 59.829 25.7133 59.6453C25.3073 59.4616 24.8674 59.3646 24.4218 59.3607C23.9762 59.3567 23.5347 59.4458 23.1255 59.6223C22.7164 59.7988 22.3485 60.0588 22.0456 60.3856C21.7427 60.7124 21.5113 61.0989 21.3663 61.5203C21.2214 61.9416 21.1659 62.3886 21.2036 62.8327C21.175 63.2663 21.235 63.7012 21.3799 64.1109C21.5249 64.5206 21.7517 64.8965 22.0466 65.2157C22.3415 65.5349 22.6983 65.7907 23.0953 65.9676C23.4922 66.1444 23.921 66.2386 24.3556 66.2443C24.7901 66.2501 25.2213 66.1673 25.6228 66.0011C26.0243 65.8348 26.3877 65.5885 26.691 65.2773C26.9942 64.966 27.231 64.5962 27.3867 64.1905C27.5424 63.7848 27.6139 63.3516 27.5968 62.9174L27.578 62.8891Z" fill="#312002" fill-opacity="0.5725"/>
<path d="M24.1157 34.5095C20.3495 34.5095 16.5832 34.5095 12.817 34.5095C12.3262 34.5201 11.8383 34.4304 11.3834 34.2458C10.9284 34.0612 10.5159 33.7857 10.1712 33.4361C9.89889 33.1573 9.68719 32.8252 9.54946 32.4606C9.41172 32.096 9.35093 31.7068 9.3709 31.3176C9.46505 29.5757 10.8209 28.4929 12.8453 28.4364H35.5274C36.4347 28.4016 37.3251 28.6884 38.0414 29.2462C38.3618 29.5176 38.6176 29.8571 38.7902 30.2398C38.9629 30.6226 39.048 31.039 39.0395 31.4588C39.0228 31.8836 38.9212 32.3007 38.7407 32.6855C38.5601 33.0703 38.3043 33.4151 37.9884 33.6995C37.6724 33.9838 37.3027 34.202 36.9011 34.3411C36.4994 34.4802 36.074 34.5375 35.6498 34.5095C31.8397 34.5095 27.995 34.5095 24.1157 34.5095ZM17.6943 29.6511H12.8829C12.2427 29.6511 10.7362 29.8205 10.6608 31.3459C10.6511 31.5654 10.6861 31.7847 10.7638 31.9902C10.8415 32.1958 10.9603 32.3834 11.1128 32.5416C11.3423 32.7671 11.6147 32.9441 11.914 33.0621C12.2132 33.1802 12.5331 33.2369 12.8547 33.229C20.4719 33.229 28.1362 33.229 35.6404 33.229C35.9015 33.2522 36.1646 33.2235 36.4146 33.1446C36.6645 33.0657 36.8964 32.9382 37.0968 32.7692C37.2972 32.6003 37.4622 32.3934 37.5824 32.1604C37.7025 31.9275 37.7753 31.673 37.7966 31.4118C37.801 31.1751 37.7506 30.9406 37.6493 30.7266C37.5481 30.5126 37.3987 30.325 37.2128 30.1783C36.7195 29.8111 36.1133 29.6279 35.4992 29.6605H17.6943V29.6511Z" fill="#312002" fill-opacity="0.5725"/>
<path d="M24.1448 89.2517H13.0909C12.0486 89.2875 11.0341 88.9121 10.2662 88.2066C10.0004 87.9412 9.79027 87.6254 9.648 87.2779C9.50573 86.9303 9.43421 86.5578 9.43762 86.1822C9.43762 84.3744 10.9253 83.1504 13.1097 83.1504H35.4435C37.5526 83.1504 38.9649 84.2991 39.0403 86.0692C39.0575 86.4509 38.9971 86.8321 38.8628 87.1898C38.7285 87.5474 38.523 87.8741 38.2588 88.1501C37.886 88.5139 37.4438 88.799 36.9585 88.9883C36.4732 89.1775 35.9548 89.2671 35.4341 89.2517H24.1448ZM17.7139 84.3744H13.0909C11.575 84.3744 10.6616 85.0523 10.6616 86.1634C10.6547 86.3741 10.6912 86.5841 10.769 86.7801C10.8467 86.9761 10.964 87.154 11.1136 87.3027C11.6577 87.7801 12.3682 88.0238 13.0909 87.9806C21.0188 87.9806 28.3347 87.9806 35.4435 87.9806C36.1399 88.0033 36.8169 87.7494 37.3266 87.2744C37.4771 87.121 37.5942 86.938 37.6703 86.7371C37.7465 86.5361 37.7802 86.3215 37.7692 86.1069C37.7692 85.0241 36.8276 84.3838 35.4058 84.3744H17.7139Z" fill="#312002" fill-opacity="0.5725"/>
<path d="M17.6637 104.213H13.0689C10.8751 104.213 9.40625 102.979 9.40625 101.162C9.40625 99.3448 10.9316 98.1113 13.0972 98.1113C20.1024 98.1113 27.3618 98.1113 35.2992 98.1113C37.4836 98.1113 38.9901 99.3165 39.0654 101.096C39.0837 101.471 39.0246 101.846 38.8918 102.198C38.759 102.549 38.5553 102.87 38.2933 103.139C37.8905 103.508 37.4182 103.793 36.9042 103.977C36.3901 104.161 35.8445 104.241 35.2992 104.213H17.6637ZM24.1888 99.3354H13.0972C11.6378 99.3354 10.6585 100.07 10.6585 101.143C10.6585 102.471 11.9014 102.942 13.0689 102.951H35.2709C36.0351 103.003 36.7893 102.753 37.3706 102.254C37.5151 102.103 37.6272 101.924 37.7001 101.728C37.7729 101.532 37.805 101.324 37.7943 101.115C37.7943 100.042 36.7869 99.3354 35.2992 99.3354H24.1888Z" fill="#312002" fill-opacity="0.5725"/>
<path d="M30.6936 41.8638H21.6452C18.7389 41.8638 15.8389 41.8638 12.9451 41.8638C10.836 41.8638 9.55552 40.8469 9.41428 39.0391C9.38572 38.6612 9.43352 38.2813 9.55484 37.9222C9.67616 37.5631 9.86852 37.2321 10.1205 36.9489C10.4645 36.5861 10.8793 36.2978 11.3393 36.1019C11.7992 35.9059 12.2945 35.8064 12.7945 35.8096C14.5175 35.7437 16.2688 35.7531 17.9542 35.7625H34.4787C35.1543 35.7501 35.8295 35.8069 36.4936 35.932C37.2289 36.0393 37.8968 36.4196 38.3644 36.9971C38.832 37.5746 39.065 38.307 39.017 39.0486C38.9954 39.4333 38.898 39.81 38.7305 40.1571C38.563 40.5042 38.3286 40.8147 38.0408 41.071C37.753 41.3273 37.4175 41.5243 37.0534 41.6507C36.6894 41.777 36.3039 41.8303 35.9192 41.8073L30.6936 41.8638ZM24.7147 40.6116H27.7182C30.4017 40.6116 33.1793 40.6116 35.9098 40.6116C36.1397 40.6362 36.3722 40.6138 36.5932 40.5457C36.8141 40.4776 37.0189 40.3653 37.1951 40.2155C37.3712 40.0658 37.5151 39.8818 37.6178 39.6747C37.7206 39.4676 37.7802 39.2418 37.7929 39.0109C37.8153 38.5713 37.6705 38.1396 37.3875 37.8025C37.1045 37.4653 36.7044 37.2478 36.2676 37.1937C35.6878 37.0809 35.0975 37.0304 34.5069 37.043H17.9448C16.2689 37.043 14.5364 37.043 12.8416 37.0901C12.5088 37.0864 12.1786 37.1486 11.87 37.273C11.5613 37.3974 11.2803 37.5817 11.0432 37.8151C10.9046 37.9744 10.7991 38.1596 10.7328 38.3601C10.6665 38.5605 10.6408 38.7722 10.6571 38.9827C10.6571 39.3875 10.789 40.6116 12.9451 40.621H24.7147V40.6116Z" fill="#312002" fill-opacity="0.5725"/>
<path d="M24.2238 96.6055H12.8121C11.9352 96.6432 11.0726 96.3735 10.3734 95.8429C10.0636 95.5781 9.81782 95.2465 9.65472 94.873C9.49163 94.4995 9.41543 94.0939 9.43188 93.6867C9.43188 91.8883 10.7406 90.7773 12.8403 90.7678H35.6355C36.6012 90.7217 37.5459 91.0603 38.2624 91.7094C38.519 91.9725 38.7191 92.2853 38.8502 92.6286C38.9814 92.9719 39.0409 93.3384 39.0251 93.7055C39.0251 95.5039 37.7163 96.6149 35.6261 96.6149L24.2238 96.6055ZM17.6329 92.0013H12.8215C12.0212 92.0013 10.6653 92.2178 10.6559 93.6678C10.6458 93.8934 10.6872 94.1183 10.7769 94.3255C10.8667 94.5326 11.0024 94.7167 11.1738 94.8636C11.6478 95.2085 12.2269 95.3782 12.8121 95.3438H35.6261C36.5676 95.3438 37.7728 95.0519 37.7823 93.6678C37.7932 93.4649 37.763 93.2619 37.6934 93.0709C37.6238 92.88 37.5163 92.7051 37.3774 92.5568C36.8874 92.1522 36.2597 91.9531 35.6261 92.0013H17.5952H17.6329Z" fill="#312002" fill-opacity="0.5725"/>
</svg>
