<svg width="154" height="156" viewBox="0 0 154 156" fill="none" xmlns="http://www.w3.org/2000/svg">
<path d="M77.0869 5.07721C96.6007 5.07721 116.115 5.15441 135.628 5C138.852 5 140 6.10018 139.99 10.4237C139.894 55.261 139.894 100.098 139.99 144.936C139.99 149.047 139.131 150.543 135.754 150.523C96.6232 150.401 57.4863 150.401 18.3429 150.523C15.1195 150.523 13.9904 149.404 14.0001 145.09C14.103 100.253 14.1255 55.4154 14.0676 10.5781C14.0676 5.14476 14.1255 5.08686 18.5456 5.08686C38.0593 5.06756 57.5731 5.06434 77.0869 5.07721ZM76.8263 7.87592C58.0653 7.87592 39.3139 7.96277 20.5529 7.78906C17.2813 7.78906 16.2583 8.92785 16.268 13.2128C16.3709 56.255 16.3709 99.2909 16.268 142.32C16.268 146.625 17.3006 147.734 20.5626 147.725C57.9688 147.599 95.3751 147.648 132.781 147.638C137.182 147.638 137.211 147.638 137.221 142.108V13.4154C137.221 7.93382 137.163 7.87592 132.772 7.87592C114.126 7.86305 95.478 7.86305 76.8263 7.87592Z" fill="#312002" fill-opacity="0.5725"/>
<path d="M44.8884 50.0684C51.1035 50.0684 57.3186 50.1649 63.5337 50.0684C66.12 50.0201 67.2878 50.8404 67.2106 54.0541C67.0465 61.3308 67.0851 68.6267 67.2106 75.9034C67.2106 78.6925 66.5833 79.9471 63.8907 79.9278C51.2579 79.8023 38.6348 79.8312 26.0019 79.9278C23.6472 79.9278 22.5952 79.1557 22.6338 76.2991C22.74 68.8005 22.74 61.2825 22.6338 53.7839C22.6338 50.9659 23.5989 50.0587 25.9633 50.0973C32.2556 50.1456 38.5769 50.0684 44.8884 50.0684Z" fill="#312002" fill-opacity="0.5725"/>
<path d="M84.6916 57.2111C84.6916 48.2649 84.7882 39.3283 84.6434 30.3821C84.5855 26.8499 85.4251 25.3347 88.3396 25.3637C102.295 25.4795 116.253 25.4795 130.214 25.3637C133.109 25.3637 133.997 26.8789 133.988 30.3917C133.91 48.2842 133.91 66.1702 133.988 84.0498C133.988 87.5916 133.023 89.0875 130.205 89.0682C116.237 88.9588 102.275 88.9588 88.3203 89.0682C85.4251 89.0682 84.5855 87.5434 84.6434 84.0208C84.7785 75.1036 84.6916 66.1573 84.6916 57.2111ZM89.71 77.4776C94.8442 70.9248 99.5827 64.8352 104.369 58.8131C105.779 57.0374 104.871 55.9179 103.887 54.6826C100.644 50.5521 97.4306 46.3926 94.2362 42.2718C92.9044 40.5732 91.534 38.923 89.7583 36.7323L89.71 77.4776ZM125.07 82.081C119.849 75.3255 115.082 69.1008 110.266 62.9436C109.089 61.4478 108.336 62.9436 107.554 63.8508C104.543 67.7111 101.513 71.4845 98.5694 75.3834C97.0349 77.4101 95.1627 79.0893 93.9371 82.081H125.07ZM93.5414 32.3508C98.7142 39.1063 103.327 45.0898 108.017 51.0732C108.896 52.2024 109.813 51.797 110.594 50.7934L124.81 32.3508H93.5414ZM128.728 57.4427C128.728 51.8646 128.728 46.2961 128.728 40.7277C128.808 39.9362 128.657 39.1384 128.294 38.4308C127.657 37.7263 127.136 38.7493 126.711 39.2993C122.542 44.5976 118.411 49.9152 114.252 55.2424C113.742 55.7711 113.458 56.4768 113.458 57.2111C113.458 57.9454 113.742 58.6511 114.252 59.1799C118.411 64.4878 122.551 69.7957 126.711 75.1229C127.136 75.673 127.676 76.6959 128.294 76.0107C128.662 75.3114 128.816 74.5194 128.738 73.7332C128.747 68.3481 128.728 62.8761 128.728 57.4524V57.4427Z" fill="#312002" fill-opacity="0.5725"/>
<path d="M28.7464 134.321C26.8163 134.321 24.8379 134.321 22.8884 134.321C21.4119 134.321 20.717 133.356 20.7267 131.039C20.7267 124.805 20.7267 118.574 20.7267 112.346C20.7267 110.261 21.3636 109.229 22.734 109.238C26.8066 109.238 30.8792 109.238 34.9518 109.238C36.4381 109.238 37.1329 110.203 37.1233 112.52C37.1233 118.619 37.1233 124.718 37.1233 130.856C37.1233 133.307 36.4574 134.427 34.8457 134.379C32.819 134.272 30.7827 134.321 28.7464 134.321Z" fill="#312002" fill-opacity="0.5725"/>
<path d="M55.9067 94.9057H23.4802C21.801 94.9057 19.5234 94.9057 19.4655 90.9006C19.3657 89.8013 19.6375 88.7003 20.2376 87.7738C21.0965 86.6543 22.4766 86.6543 23.6057 86.6543H65.7408C66.8506 86.6543 68.2403 86.6543 69.0993 87.7834C69.6965 88.7111 69.9682 89.8112 69.8713 90.9103C69.8038 94.925 67.449 94.9153 65.8952 94.9057H55.9067ZM44.6346 93.2843H50.4251C55.4628 93.2843 60.5005 93.2843 65.5381 93.2843H65.9435C67.7482 93.2843 68.6167 93.1975 68.6553 90.8813C68.7245 90.2114 68.5828 89.5366 68.25 88.9512C67.7964 88.3625 66.9085 88.3142 65.7891 88.3142H23.5478C22.4283 88.3142 21.5404 88.3142 21.0965 88.9512C20.7591 89.5351 20.6139 90.2103 20.6815 90.8813C20.6815 93.2168 21.5983 93.3037 23.4223 93.3133H23.7119C28.7946 93.3133 33.8837 93.3133 38.9793 93.3133L44.6346 93.2843Z" fill="#312002" fill-opacity="0.5725"/>
<path d="M33.3426 32.8999H23.7401H23.354C22.484 32.9983 21.6043 32.8371 20.8256 32.4367C19.8605 31.8577 19.4455 30.6803 19.4358 28.9335C19.3533 27.8363 19.6385 26.7429 20.2465 25.8259C21.0861 24.7547 22.3697 24.6582 23.605 24.6582H65.7594C66.8692 24.6582 68.2493 24.6582 69.1082 25.7873C69.7077 26.721 69.9762 27.829 69.8706 28.9335C69.803 32.8999 67.4482 32.8806 65.9427 32.8806H65.6146C60.5769 32.8806 55.5392 32.8806 50.5016 32.8806H33.3426V32.8999ZM23.7401 31.2593C28.8743 31.2593 34.0953 31.2593 39.1813 31.2593H65.9427C67.7571 31.2593 68.616 31.1628 68.6546 28.8563C68.7297 28.1554 68.5702 27.4494 68.201 26.8489C67.7474 26.2602 66.8306 26.2023 65.7594 26.2023H23.6146C22.6495 26.2023 21.6845 26.2023 21.144 26.8972C20.7895 27.4749 20.6336 28.1527 20.7001 28.8273C20.7001 30.2749 21.0668 30.6899 21.3853 30.8926C21.9924 31.1561 22.6571 31.2591 23.3154 31.1918L23.7401 31.2593Z" fill="#312002" fill-opacity="0.5725"/>
<path d="M97.5169 125.913H88.1363C86.4378 125.913 84.0927 125.913 84.083 121.812C84.0056 120.733 84.2835 119.659 84.8744 118.753C85.7237 117.672 86.9879 117.672 88.2135 117.672H130.378C130.988 117.591 131.608 117.658 132.188 117.866C132.767 118.074 133.288 118.418 133.707 118.868C134.312 119.8 134.584 120.909 134.479 122.015C134.383 125.875 131.893 125.875 130.407 125.875H97.5169V125.913ZM104.012 119.274H88.2232C87.2581 119.274 86.293 119.274 85.7816 119.882C85.4402 120.464 85.2916 121.14 85.3569 121.812C85.3569 124.186 86.2641 124.292 88.146 124.292H88.3197C93.7627 124.292 99.2057 124.292 104.649 124.292H130.416C132.346 124.292 133.176 124.061 133.225 121.957C133.299 121.285 133.153 120.608 132.81 120.027C132.375 119.438 131.526 119.322 130.387 119.322H104.012V119.274Z" fill="#312002" fill-opacity="0.5725"/>
<path d="M32.8839 43.0537H23.3586C22.2584 43.0537 20.9941 43.0537 20.1931 42.0211C19.6153 41.1364 19.3565 40.081 19.4597 39.0293C19.5369 35.2945 21.7566 35.3235 23.2235 35.3428H23.5998C36.638 35.3428 50.4289 35.3428 65.7446 35.3428H66.0245C67.5203 35.3428 69.7883 35.3428 69.8269 39.1162C69.9178 40.1365 69.6591 41.1574 69.0934 42.0114C68.2827 43.0633 67.0571 43.0633 65.8701 43.0633H32.8839V43.0537ZM23.706 41.4227C29.0139 41.4227 34.3218 41.4227 39.6297 41.4227H65.8411C66.8062 41.4227 67.7713 41.4227 68.1959 40.8533C68.5028 40.3325 68.6347 39.7271 68.5723 39.1258C68.5723 37.022 67.7616 36.9351 66.0341 36.9448H65.7446C50.4192 36.9448 36.638 36.9448 23.5998 36.9448H23.2138C21.5153 36.9448 20.7625 37.0027 20.7239 39.0583C20.652 39.6866 20.7803 40.3216 21.0907 40.8726C21.5249 41.442 22.4514 41.4324 23.3586 41.4227H23.706Z" fill="#312002" fill-opacity="0.5725"/>
<path d="M32.9714 105.079H23.3206C22.2012 105.079 20.9466 105.079 20.1359 104.036C19.5664 103.148 19.3115 102.095 19.4121 101.045C19.4893 97.3099 21.7186 97.3292 23.1952 97.3485H23.5619C36.4649 97.3485 50.2462 97.3485 65.697 97.3485H65.9672C67.4631 97.3485 69.7407 97.3485 69.8275 101.132C69.9152 102.15 69.6605 103.169 69.1037 104.027C68.2931 105.069 67.0674 105.079 65.89 105.079H44.6584H32.9714ZM23.7067 103.448C29.0725 103.448 34.4383 103.448 39.8041 103.448H65.9383C66.9034 103.448 67.8105 103.448 68.2448 102.878C68.5523 102.358 68.6811 101.751 68.6115 101.151C68.6115 99.0374 67.8105 98.9408 66.0637 98.9601H65.7453C50.3041 98.9601 36.5132 98.9601 23.6102 98.9601H23.2338C21.5642 98.9601 20.7632 99.018 20.7246 101.074C20.6526 101.705 20.7809 102.343 21.0913 102.898C21.5256 103.457 22.4521 103.457 23.3593 103.448H23.7067Z" fill="#312002" fill-opacity="0.5725"/>
<path d="M110.694 105.078C103.282 105.078 95.8314 105.078 88.4486 105.078C88.2943 105.069 88.1396 105.069 87.9853 105.078C86.9044 105.078 85.6885 105.078 84.8874 104.113C84.3092 103.246 84.0437 102.208 84.1347 101.17C84.0659 100.142 84.3483 99.1211 84.9357 98.2746C85.7271 97.3096 86.8659 97.3096 87.9371 97.3578C88.1397 97.3578 88.3328 97.3578 88.5354 97.3578C93.6793 97.3578 98.91 97.3578 103.977 97.3578H130.69C132.176 97.3578 134.405 97.3578 134.492 101.044C134.593 102.098 134.338 103.154 133.768 104.046C132.958 105.107 131.684 105.107 130.555 105.088H110.694V105.078ZM88.4196 103.438C101.622 103.438 115.046 103.438 127.988 103.438H130.603C131.51 103.438 132.466 103.438 132.9 102.878C133.21 102.324 133.339 101.685 133.267 101.054C133.218 98.9984 132.456 98.9309 130.738 98.9309H103.977C98.9196 98.9309 93.6793 98.9309 88.5354 98.9309H87.8985C87.0782 98.9309 86.2289 98.873 85.8043 99.3845C85.4897 99.9064 85.3479 100.514 85.3989 101.122C85.3341 101.741 85.4658 102.366 85.7753 102.907C86.2 103.447 87.0975 103.438 87.966 103.418L88.4196 103.438Z" fill="#312002" fill-opacity="0.5725"/>
<path d="M98.1192 115.221H87.957C86.4515 115.221 84.1546 115.221 84.0967 111.361C84.0031 110.339 84.2656 109.316 84.8398 108.466C85.6312 107.433 86.8664 107.423 87.9666 107.433H130.604C131.781 107.433 132.997 107.53 133.759 108.543C134.332 109.426 134.584 110.479 134.474 111.525C134.367 115.173 132.109 115.183 130.613 115.173H98.0902L98.1192 115.221ZM88.1886 113.59H130.652C132.476 113.59 133.171 113.407 133.219 111.506C133.302 110.884 133.177 110.253 132.862 109.711C132.437 109.141 131.52 109.093 130.623 109.093H88.0052C87.127 109.093 86.2005 109.093 85.7663 109.653C85.4677 110.17 85.3362 110.766 85.3899 111.361C85.3899 113.445 86.1523 113.571 87.8508 113.571H88.1886V113.59Z" fill="#312002" fill-opacity="0.5725"/>
<path d="M97.9354 136.087H87.9758C86.4413 136.087 84.1155 136.087 84.1155 132.226C84.0356 131.204 84.3007 130.185 84.8683 129.331C85.6693 128.308 86.8563 128.298 88.0048 128.308H130.603C131.761 128.308 132.987 128.385 133.769 129.428C134.341 130.31 134.593 131.363 134.483 132.41C134.386 136.048 132.128 136.048 130.622 136.048H97.9354V136.087ZM87.9758 134.456H88.1399C93.1775 134.456 98.2184 134.456 103.263 134.456H130.603C132.446 134.456 133.151 134.272 133.199 132.371C133.277 131.746 133.148 131.112 132.832 130.566C132.524 130.304 132.163 130.111 131.773 130.003C131.383 129.895 130.974 129.873 130.574 129.939C121.657 129.939 112.733 129.939 103.803 129.939H87.9758C87.0107 129.939 86.1615 129.939 85.7368 130.489C85.4314 131 85.2962 131.595 85.3508 132.188C85.3508 134.33 86.1904 134.427 87.9275 134.427L87.9758 134.456Z" fill="#312002" fill-opacity="0.5725"/>
<path d="M59.1838 125.886H46.8888C44.1866 125.886 43.6172 123.676 43.6172 121.823C43.6172 119.12 44.727 117.682 46.8212 117.682H60.2261C62.3042 117.682 64.3727 117.682 66.4315 117.682C66.928 117.637 67.428 117.715 67.8875 117.908C68.3469 118.102 68.7517 118.405 69.0662 118.792C69.6935 119.733 69.9765 120.861 69.8672 121.987C69.8672 124.592 68.6898 125.905 66.4991 125.905L59.1838 125.886ZM56.9931 119.294H46.8212C45.4026 119.294 44.8911 119.979 44.8911 121.813C44.8911 123.647 45.4315 124.255 46.8984 124.255H66.4991C68.0239 124.255 68.5836 123.637 68.6029 121.919C68.6824 121.211 68.53 120.497 68.1687 119.883C67.952 119.648 67.6817 119.469 67.3808 119.362C67.08 119.254 66.7576 119.221 66.4412 119.265H56.9545L56.9931 119.294Z" fill="#312002" fill-opacity="0.5725"/>
<path d="M46.8545 115.202C46.3925 115.239 45.9284 115.163 45.5028 114.979C45.0772 114.796 44.7029 114.511 44.4128 114.15C43.8289 113.264 43.5635 112.205 43.6601 111.148C43.7083 108.736 44.7795 107.51 46.8545 107.51H66.7639C67.1988 107.477 67.6354 107.547 68.038 107.714C68.4406 107.882 68.7977 108.143 69.0801 108.475C69.6391 109.301 69.9074 110.289 69.8425 111.284C69.8425 113.802 68.7906 115.144 66.8122 115.144H59.854H56.9588H46.8545V115.202ZM47.8774 109.131H46.8545C45.4551 109.131 44.9243 109.672 44.9243 111.187C44.8498 111.824 44.9854 112.468 45.3103 113.021C45.5141 113.229 45.7623 113.388 46.0364 113.487C46.3105 113.585 46.6034 113.621 46.8931 113.59C49.2736 113.59 51.6573 113.59 54.0443 113.59H59.8347C62.1509 113.59 64.467 113.59 66.7832 113.59C68.0475 113.59 68.5493 112.963 68.5493 111.351C68.6002 110.774 68.465 110.196 68.1633 109.701C67.983 109.507 67.7603 109.357 67.5125 109.263C67.2647 109.169 66.9986 109.134 66.735 109.16L47.8774 109.131Z" fill="#312002" fill-opacity="0.5725"/>
<path d="M62.2937 136.086H47.4315C46.0322 136.086 43.687 136.086 43.6484 132.322C43.5632 131.3 43.8287 130.278 44.4012 129.427C44.759 129.024 45.2096 128.714 45.714 128.524C46.2184 128.334 46.7615 128.269 47.2964 128.336C53.5694 128.336 59.9389 128.336 66.2215 128.336C66.7557 128.267 67.2988 128.329 67.8034 128.517C68.3081 128.705 68.759 129.015 69.1167 129.417C69.6762 130.274 69.9343 131.293 69.8502 132.313C69.7923 136.028 67.4471 136.038 66.0478 136.047L62.2937 136.086ZM56.8989 134.465H59.4949C61.676 134.465 63.8571 134.465 66.0381 134.465C67.8235 134.465 68.5473 134.262 68.5763 132.313C68.6422 131.708 68.5101 131.098 68.1999 130.575C67.8814 130.16 67.2348 129.967 66.2697 129.967C59.9968 129.967 53.6176 129.967 47.335 129.967C46.2831 129.967 45.6751 130.151 45.347 130.575C45.0315 131.093 44.8957 131.7 44.9609 132.303C44.9609 134.233 45.7426 134.465 47.4798 134.474H56.9471L56.8989 134.465Z" fill="#312002" fill-opacity="0.5725"/>
</svg>
