<svg width="154" height="156" viewBox="0 0 154 156" fill="none" xmlns="http://www.w3.org/2000/svg">
<path d="M148.948 19.1479C148.992 16.6481 148.483 14.1695 147.456 11.8895C146.43 9.60956 144.913 7.58468 143.012 5.95985C140.67 4.01282 137.896 2.65501 134.922 2H77.0035C75.7135 2.34874 74.4454 2.77428 73.2062 3.27434C66.4753 6.46445 63.0799 11.8868 62.9431 19.2762C62.8404 26.4946 62.9431 33.7045 62.9431 40.9229C62.9431 41.7097 63.0029 42.2827 61.8056 42.2827C47.3289 42.2143 32.8493 42.1943 18.3669 42.2228C15.2468 42.2545 12.2465 43.429 9.93408 45.5241C5.74331 49.1162 4.86239 53.7517 5.01634 58.6695V77.0234C5.01634 83.3266 5.01634 89.6299 5.01634 95.9331C5.01844 97.226 5.15024 98.5153 5.40976 99.7818C6.08447 102.901 7.81394 105.692 10.3066 107.685C12.7993 109.677 15.9028 110.749 19.0939 110.721C25.2176 110.772 31.3327 110.721 37.4563 110.721C38.6109 110.721 39.0557 111.097 39.0215 112.269C38.9616 114.304 39.0215 116.348 39.0215 118.392C38.9853 118.923 39.1106 119.452 39.3808 119.91C39.651 120.368 40.0535 120.733 40.5353 120.958C40.9912 121.168 41.5005 121.232 41.9944 121.144C42.4883 121.055 42.9432 120.817 43.2978 120.462C45.0083 119.128 46.7188 117.785 48.4977 116.459L53.7319 112.448C53.963 113.02 54.0397 113.642 53.9543 114.253C53.9543 121.668 53.9543 129.083 53.9543 136.49C53.997 143.015 58.4273 147.514 64.9273 147.514C68.8615 147.514 72.7956 147.514 76.7213 147.514C77.7305 147.514 78.1923 147.822 78.1325 148.882C78.0726 149.943 78.1325 150.866 78.1325 151.867C78.1325 153.09 78.3634 154.168 79.5779 154.741C80.7923 155.314 81.6732 154.852 82.5969 154.125C84.6666 152.491 86.8732 150.969 88.8318 149.259C89.5014 148.639 90.2905 148.162 91.1508 147.857C92.0111 147.553 92.9245 147.427 93.835 147.488C95.236 147.545 96.6319 147.288 97.9208 146.736C99.2096 146.184 100.359 145.351 101.284 144.298C103.961 141.518 104.44 138.183 104.261 134.728V116.724V109.284C104.261 101.86 99.8988 97.5068 92.4666 97.4983C86.7962 97.4983 81.1259 97.4983 75.4555 97.4983C74.2325 97.4983 73.7877 97.1305 73.822 95.8818C73.8989 93.145 73.8818 90.4082 73.822 87.6713C73.822 86.5937 74.1042 86.397 75.1219 86.7305C76.9355 87.2728 78.823 87.5268 80.7153 87.4832C88.0791 87.4832 95.4344 87.4832 102.798 87.4832C104.757 87.4832 104.757 87.4832 104.765 89.493V97.4042C104.765 98.6529 104.979 99.8075 106.279 100.398C107.579 100.988 108.469 100.398 109.418 99.6706C113.13 96.8226 117.03 94.197 120.536 91.118C123.761 88.2358 127.207 87.3207 131.484 87.4319C141.447 87.6884 148.948 80.2049 148.991 70.2497C149.053 53.1958 149.039 36.1619 148.948 19.1479ZM54.5188 104.973C54.2872 105.676 53.8416 106.289 53.2444 106.727C50.5076 108.813 47.8135 110.926 45.0852 113.021C44.7945 113.244 44.5379 113.628 43.9392 113.432V109.455C43.9392 106.615 43.1695 105.846 40.2958 105.846C33.3767 105.846 26.4577 105.692 19.5472 105.888C18.268 105.932 16.9934 105.713 15.8025 105.244C14.6116 104.775 13.5299 104.066 12.6244 103.161C11.719 102.257 11.0091 101.176 10.539 99.9851C10.0688 98.7947 9.84836 97.5203 9.89132 96.241C10.0111 89.5615 9.89132 82.8904 9.89132 76.2194V75.2359C9.89132 75.0477 9.89132 74.8595 9.89132 74.6714V59.5418C9.89132 58.2932 9.89132 57.053 9.89132 55.8129C9.92768 53.7033 10.7092 51.6746 12.0976 50.0858C13.486 48.4971 15.3917 47.4507 17.4775 47.132C18.3112 46.9888 19.1546 46.9087 20.0005 46.8926C32.932 46.8926 45.8664 46.8926 58.8036 46.8926C63.8496 46.8926 67.3562 49.2189 68.5963 53.3754C68.9825 54.9207 69.1438 56.5137 69.0753 58.105C69.0753 70.5006 69.0753 82.8904 69.0753 95.2746C69.0753 97.4384 69.0753 97.4726 66.9371 97.4812C66.193 97.4812 65.449 97.4812 64.7049 97.4812C62.4273 97.4695 60.2066 98.1919 58.3719 99.5414C56.5371 100.891 55.186 102.796 54.5188 104.973ZM93.4502 102.407C96.9909 102.407 99.3087 104.785 99.3343 108.334C99.3343 110.9 99.3343 113.466 99.3343 116.032V134.685C99.3343 135.361 99.3343 136.036 99.3343 136.712C99.283 140.321 96.9909 142.656 93.3475 142.776C93.0004 142.806 92.6513 142.806 92.3041 142.776C91.347 142.635 90.3704 142.717 89.4496 143.013C88.5287 143.31 87.6883 143.814 86.993 144.486C85.8469 145.547 84.5298 146.411 83.1186 147.48C83.0417 146.932 82.9903 146.693 82.9818 146.462C82.8193 143.255 82.3061 142.741 79.1588 142.741C74.4292 142.741 69.6996 142.741 64.9786 142.741C61.1727 142.741 58.8378 140.347 58.8293 136.567C58.8293 127.164 58.8293 117.757 58.8293 108.343C58.8293 104.665 61.1299 102.356 64.7562 102.305C74.3351 102.333 83.914 102.359 93.4929 102.382L93.4502 102.407ZM144.073 70.7629C144.056 73.8614 142.83 76.8308 140.655 79.0386C138.481 81.2463 135.531 82.5179 132.433 82.5825C130.295 82.6339 128.157 82.6424 126.018 82.5825C124.569 82.5234 123.148 82.9981 122.024 83.9167C118.347 86.799 114.618 89.6128 110.906 92.4693C110.598 92.7003 110.316 93.1535 109.897 92.9825C109.478 92.8114 109.657 92.2726 109.649 91.9049C109.649 90.1174 109.649 88.3213 109.649 86.5338C109.649 83.3181 108.947 82.6253 105.68 82.6253C97.2247 82.6253 88.769 82.6253 80.3134 82.6253C78.721 82.6536 77.1356 82.4077 75.6266 81.8983C75.0481 81.7631 74.5416 81.4155 74.2074 80.9245C73.8732 80.4334 73.7356 79.8347 73.822 79.247C73.9075 71.5497 73.822 63.8524 73.8733 56.155C73.9166 54.1078 73.4923 52.0777 72.6327 50.2192C71.7731 48.3607 70.5008 46.7227 68.9128 45.4301C68.5541 45.1642 68.2677 44.8129 68.0795 44.4081C67.8912 44.0033 67.8073 43.5579 67.8351 43.1123C67.8351 34.9531 67.8351 26.794 67.8351 18.6433C67.8537 15.728 68.9307 12.9187 70.8658 10.7382C72.801 8.55761 75.4624 7.15433 78.3548 6.78945C80.3439 6.59155 82.3437 6.52298 84.3416 6.58419C92.7831 6.58419 101.233 6.58419 109.674 6.58419H125.445C125.736 6.58419 126.027 6.58419 126.301 6.58419C128.011 6.58419 129.79 6.58419 131.526 6.58419C138.728 6.75524 144.073 11.8355 144.09 18.669C144.119 36.0308 144.113 53.3897 144.073 70.7457V70.7629Z" fill="#312002" fill-opacity="0.5725"/>
<path d="M54.1484 79.5812C52.7543 79.5299 51.3602 79.5812 49.9661 79.5812C45.9977 79.5812 46.4681 80.0516 47.101 75.8694C47.255 74.8859 47.7254 74.5438 48.7004 74.5609C50.5392 74.6122 52.3865 74.6293 54.2168 74.5609C56.047 74.4925 56.9622 73.449 56.8681 71.9951C56.774 70.5412 55.7563 69.6859 54.0457 69.6859C52.3352 69.6859 50.8556 69.6859 49.2648 69.6859C48.4096 69.6859 48.1273 69.4122 48.3069 68.5142C48.6747 66.6668 48.9484 64.7938 49.2392 62.9293C49.5129 61.2188 48.7859 59.9787 47.4004 59.6708C46.0148 59.3629 44.8346 60.3123 44.501 62.0057C44.2273 63.3655 44.0563 64.7511 43.7997 66.1195C43.0471 70.2247 44.0563 69.6175 39.5234 69.6945C38.3859 69.6945 38.1892 69.2155 38.3859 68.2063C38.7109 66.4958 38.9589 64.7853 39.2412 63.0747C39.5491 61.1761 38.805 59.8932 37.2826 59.6537C35.8971 59.4484 34.8366 60.4577 34.5201 62.3307C34.2037 64.2037 33.8445 66.2478 33.5537 68.2149C33.3998 69.2583 32.9892 69.8056 31.8432 69.703C30.6971 69.6004 29.5596 69.703 28.4221 69.703C27.2846 69.703 26.1386 69.703 25.0011 69.703C23.2393 69.703 22.1189 70.6609 22.1018 72.0464C22.0847 73.4319 23.1366 74.3984 24.7787 74.5267C26.1129 74.6207 27.4642 74.578 28.807 74.578C32.5958 74.578 32.5616 74.578 31.9287 78.2641C31.9294 78.4611 31.8867 78.6559 31.8036 78.8345C31.7206 79.0131 31.5993 79.1713 31.4483 79.2978C31.2973 79.4243 31.1203 79.5161 30.9299 79.5665C30.7395 79.617 30.5403 79.6249 30.3465 79.5898C28.559 79.5898 26.7715 79.5898 24.9754 79.5898C23.1794 79.5898 22.1445 80.6161 22.1103 82.0187C22.0761 83.4214 23.1708 84.3964 24.9327 84.4477C26.4721 84.499 28.0202 84.5161 29.5596 84.4477C30.5859 84.4477 30.8682 84.7812 30.6971 85.7562C30.355 87.7148 30.0044 89.6733 29.782 91.6404C29.7087 91.9586 29.7042 92.2889 29.7688 92.609C29.8335 92.9291 29.9658 93.2317 30.157 93.4965C30.3481 93.7613 30.5936 93.9822 30.877 94.1445C31.1605 94.3067 31.4753 94.4065 31.8004 94.4371C32.1099 94.4741 32.4237 94.4496 32.7237 94.3651C33.0237 94.2806 33.3041 94.1377 33.5488 93.9447C33.7936 93.7516 33.9978 93.5121 34.1498 93.24C34.3018 92.9679 34.3986 92.6684 34.4346 92.3588C34.7425 90.8963 34.9478 89.4253 35.2129 87.9542C35.8886 84.3108 35.8886 84.345 39.5405 84.4477C40.601 84.4477 40.7978 84.8411 40.6096 85.8075C40.2504 87.6036 39.9853 89.4253 39.7543 91.247C39.5234 93.0687 40.3445 94.2917 41.8326 94.4457C43.1326 94.5825 44.176 93.7443 44.4839 92.1707C44.8773 90.118 45.2537 88.0654 45.4846 85.9957C45.6214 84.747 46.1944 84.422 47.3405 84.4562C49.624 84.5075 51.9161 84.4562 54.1826 84.4562C55.8931 84.4562 56.9707 83.4128 56.9365 81.9674C56.9023 80.522 55.8076 79.6497 54.1484 79.5812ZM42.2517 75.5701C42.2004 76.0148 42.0892 76.4253 42.0208 76.8872C41.4991 80.1201 41.7813 79.453 38.9761 79.5641C36.4701 79.5641 36.4103 79.5641 36.9405 77.178C37.1116 76.3227 36.8122 75.1168 37.7445 74.7576C38.9846 74.2786 40.3958 74.5181 41.7214 74.6464C42.2175 74.6977 42.2945 75.151 42.2517 75.5701Z" fill="#312002" fill-opacity="0.5725"/>
<path d="M70.7179 129.853C72.8885 131.604 75.2361 133.123 77.7224 134.386C78.1561 134.634 78.6485 134.76 79.148 134.753C79.6475 134.745 80.1358 134.604 80.5619 134.343C83.1867 133.025 85.642 131.394 87.8744 129.485C90.4401 127.15 92.1507 124.353 92.0651 120.761C92.3901 113.842 85.0349 109.917 79.9119 112.97C79.6371 113.132 79.3212 113.211 79.0025 113.197C78.6837 113.184 78.3758 113.078 78.1158 112.893C72.5053 110.036 66.3475 113.808 66.1422 120.111C65.9883 124.199 67.733 127.304 70.7179 129.853ZM71.1027 119.29C71.2279 118.674 71.5326 118.109 71.9786 117.666C72.4246 117.223 72.9918 116.922 73.6086 116.801C74.219 116.661 74.858 116.715 75.4362 116.956C76.0144 117.196 76.5028 117.612 76.833 118.144C78.4066 120.248 79.9033 120.214 81.4172 118.084C81.7515 117.511 82.2828 117.079 82.9121 116.868C83.5414 116.657 84.2259 116.682 84.8382 116.938C85.6307 117.193 86.3145 117.707 86.7799 118.397C87.2452 119.087 87.465 119.914 87.404 120.744C87.3614 121.691 87.1245 122.62 86.7082 123.472C86.2918 124.323 85.7048 125.081 84.9836 125.696C83.4507 127.045 81.776 128.224 79.9889 129.211C79.7484 129.38 79.4617 129.471 79.1678 129.471C78.874 129.471 78.5872 129.38 78.3468 129.211C76.5555 128.234 74.88 127.057 73.3521 125.705C71.4534 123.96 70.4014 121.899 71.1027 119.29Z" fill="#312002" fill-opacity="0.5725"/>
<path d="M125.426 37.1177C122.638 37.1177 119.849 37.1177 117.07 37.1177C115.359 37.1177 115.257 36.921 115.813 35.3046C116.628 33.0541 116.972 30.6602 116.825 28.2712C116.678 25.8822 116.042 23.5487 114.957 21.4152C113.76 18.9777 111.716 17.9086 109.398 18.4132C107.08 18.9178 105.704 20.8507 105.609 23.4935C105.533 26.4589 104.419 29.3036 102.462 31.5329C100.888 33.3803 99.2121 35.1592 97.647 37.0237C96.9029 37.8789 96.27 38.4947 95.0812 37.6822C94.5698 37.4845 94.0165 37.4198 93.4733 37.4941C90.1463 37.4941 86.8108 37.4941 83.4839 37.4941C80.8582 37.4941 79.9773 38.3493 79.9688 40.9835C79.9688 45.1657 79.9688 49.3394 79.9688 53.5131C79.9688 57.6867 79.9688 61.869 79.9688 66.0512C79.9688 68.5656 80.824 69.4722 83.3898 69.4722C86.8108 69.4722 90.2319 69.4722 93.6529 69.4722C94.4555 69.5504 95.259 69.3313 95.9108 68.8564C96.1496 68.6412 96.4554 68.5152 96.7765 68.4996C97.0975 68.484 97.4141 68.5798 97.6726 68.7709C99.8281 69.8439 102.201 70.4086 104.609 70.4215C111.571 70.4215 118.532 70.4215 125.494 70.4215C129.18 70.4215 131.849 68.0012 131.909 64.3492C132.028 57.2848 132.028 50.2232 131.909 43.1644C131.832 39.3158 129.317 37.1349 125.426 37.1177ZM90.7536 64.6229C89.2227 64.563 87.6746 64.6229 86.1352 64.6229C85.2799 64.6229 84.8352 64.392 84.8352 63.4512C84.8352 56.8372 84.8352 50.2232 84.8352 43.6092C84.8352 42.7539 85.1773 42.3519 86.0753 42.369C87.6661 42.369 89.2569 42.4118 90.8477 42.369C91.8226 42.369 92.1476 42.7539 92.1391 43.7032C92.1391 46.9361 92.1391 50.169 92.1391 53.4019C92.1391 56.6348 92.1391 59.9703 92.1391 63.2459C92.1562 64.2637 91.7799 64.6571 90.7536 64.6229ZM127.068 63.4854C127.068 65.2985 126.828 65.538 124.981 65.538H104.549C102.054 65.5271 99.6393 64.6607 97.7068 63.0834C97.4269 62.884 97.2018 62.6173 97.0524 62.3078C96.9029 61.9984 96.8338 61.6562 96.8516 61.313C96.8516 56.2955 96.8516 51.2751 96.8516 46.2519C96.8543 45.8795 96.9313 45.5115 97.0782 45.1693C97.2251 44.8271 97.4388 44.5177 97.7068 44.2592C100.324 41.3342 102.89 38.3664 105.515 35.4414C108.237 32.5672 109.953 28.8882 110.407 24.956C110.407 24.631 110.561 24.3145 110.724 23.6047C112.238 26.6712 112.484 30.2108 111.408 33.4572C110.929 34.9625 110.202 36.3993 109.629 37.8789C108.671 40.325 109.629 41.7789 112.255 41.796C116.437 41.796 120.611 41.796 124.784 41.796C126.863 41.796 127.153 42.0783 127.162 44.0796C127.105 50.5567 127.074 57.0253 127.068 63.4854Z" fill="#312002" fill-opacity="0.5725"/>
</svg>
